<svg xmlns="http://www.w3.org/2000/svg" width="500" height="500" viewBox="0 0 500 500">
  <g id="avatar-toon" transform="translate(-2757 -1417)">
    <circle id="Ellipse" cx="250" cy="250" r="250" transform="translate(2757 1417)" fill="#224780"/>
    <g id="Group_318" data-name="Group 318" transform="translate(3 -2)">
      <path id="Path_287" data-name="Path 287" d="M.139,253.826c15.95-22.574,31.556-45.449,46.022-68.4,9.149-14.577,24.51-28.89,22.608-50.695-.68-7.986-8.345-19.21-14.494-28.785-16.326-25.362-33.209-49.2-41.383-83.749-.882-9.128-.321-15.464,10.9-17.612C120.435-19.386,269.883,58.967,280.553,64.23c9.544,4.7,73.775,37.062,71.855,61.713-1,12.426-17.057,21.226-31.166,28.7-21.321,11.334-43.709,17.534-73.369,23.28-10.023,1.278-23.625.253-37.872-.774-25.866-1.864-53.863-3.729-66.435,8.2C127.6,201.907,85.705,248.219,45.7,292.432,31.779,285.506,4.379,260.455.139,253.826Z" transform="matrix(0.966, -0.259, 0.259, 0.966, 2804.913, 1635.958)" fill="#b2e344"/>
      <g id="Group_285" data-name="Group 285" transform="matrix(0.966, -0.259, 0.259, 0.966, 2818.74, 1545.708)">
        <path id="Path" d="M305.377,169.863c13.572-8.778,36.314-25.038,28.443-57.918-19.073-79.664-85.262-58.466-142.926-71.238C140.583,29.563,92.409-3.168,49.929.284,32.567,1.7-.556,22.87.032,44.3S10.365,66.177,10.365,66.177s90.684,7.02,162.484,31.789C202.144,108.072,234.971,118.463,305.377,169.863Z" transform="translate(0.011 20.971)" fill="#00a3d9"/>
        <path id="Path-2" data-name="Path" d="M30.911,49.183s6.311-12.4-.276-27.76S16.835,3.9,10.818,1.083a10.152,10.152,0,0,0-10.445.77C-2.021,5.867,7.811,14.77,11.34,23.808a151.305,151.305,0,0,1,6,19.108Z" transform="translate(133.335 0.073)" fill="#00a3d9"/>
        <path id="Path-3" data-name="Path" d="M63.1,6.34c4.981,2.912,14.37,8.229,23.585,13.858a86.55,86.55,0,0,1,10.953,8.171,9.068,9.068,0,0,1,2.732,4.845c.553,2.955-5.416,7.505-8.247,6.28a19.888,19.888,0,0,1-4.714-3.181C75.532,26.342,38.788,7.833,5.587,9.731,3.552,9.849,1.2,11.3.051,9.024c-.395-.781,1.849-3.077,3.2-4.343a7.976,7.976,0,0,1,3.6-1.6C23.533-.714,39.155-2.327,63.1,6.34Z" transform="translate(156.762 172.111)" fill="#224780"/>
        <path id="Path-4" data-name="Path" d="M49.869,7.087C68.98,14.5,82.717,26.506,93.408,42.316a11.724,11.724,0,0,1,1.808,4.98c.286,2.37-1.381,3.215-3.345,1.766a10.952,10.952,0,0,1-2.686-3.11c-7.536-12.361-56.949-30.2-80.91-31.9a24.168,24.168,0,0,1-4.318-.375C-1.639,12.216.376,7.234.286,6.191c-.138-1.562.763-3.966,1.99-4.6A14.165,14.165,0,0,1,9.65.045C23.66,1.239,37.57,3.375,49.869,7.087Z" transform="translate(32.508 121.361)" fill="#224780"/>
      </g>
    </g>
    <path id="Path_288" data-name="Path 288" d="M6672.334-431q-1.411-.286-3.07-3a30.266,30.266,0,0,1-2.971-7.214,63.865,63.865,0,0,1-2-10.544,74.622,74.622,0,0,1-.255-13.044l-34.181-1.192q.436,6.554,1.323,12.369t1.349,10.239a38.258,38.258,0,0,1,.228,7.023q-.233,2.6-2.035,2.63a6.4,6.4,0,0,1-4.575-2.008,15.468,15.468,0,0,1-3.089-5.178,38.244,38.244,0,0,1-1.963-7.606q-.7-4.337-1.1-9.139t-.556-9.83q-.157-5.032-.279-9.68t-.36-8.687a68.9,68.9,0,0,0-.708-6.9q.015-.474.1-1.655c.059-.789.1-1.608.133-2.461s.075-1.657.132-2.412.091-1.262.1-1.513a10.383,10.383,0,0,1,4.037-2.893,2.292,2.292,0,0,1,2.489.608,6.339,6.339,0,0,1,1.264,3.221,40.666,40.666,0,0,1,.442,4.944q.094,2.754-.012,5.783t-.1,5.636a44.349,44.349,0,0,0,.219,4.606,4.363,4.363,0,0,0,.948,2.687l32.476,1.133a3.205,3.205,0,0,0,2.883-1.132,6.367,6.367,0,0,0,1.106-3.184,25.193,25.193,0,0,0,.017-4.55q-.195-2.566-.338-5.273a50.139,50.139,0,0,1,0-5.309,12.778,12.778,0,0,1,1.012-4.562,7.23,7.23,0,0,1,2.623-3.131,8.516,8.516,0,0,1,5.06-1.056,8.985,8.985,0,0,1,1.378,3.983,22.767,22.767,0,0,1-.012,4.407q-.223,2.267-.631,4.481a29.425,29.425,0,0,0-.481,4.3,88.512,88.512,0,0,0,.319,11.2q.516,5.612,1.125,11.225T6675.5-452.5a86.141,86.141,0,0,1,.329,10.96q-.015,5.878-1.05,8.354-.927,2.219-2.159,2.219A1.452,1.452,0,0,1,6672.334-431Zm46.766-3.152a3.9,3.9,0,0,1-1.468-2.441,3.687,3.687,0,0,1,.684-2.485,8.25,8.25,0,0,1,1.984-2.081,6.1,6.1,0,0,1,2.488-1.106,2.329,2.329,0,0,1,2.132.492,5.606,5.606,0,0,1,3.01,1.061,4.265,4.265,0,0,1,1.827,2.393,3.465,3.465,0,0,1-.881,3.015q-1.252,1.629-5.239,2.922A9.547,9.547,0,0,1,6719.1-434.151ZM6700.276-433a5.557,5.557,0,0,1-4.373-2.333,16.689,16.689,0,0,1-2.7-5.64,50.364,50.364,0,0,1-1.49-7.541,81.086,81.086,0,0,1-.617-8.126q-.1-3.985-.03-7.3t.132-5.114q.02-.57.111-1.846t.189-2.694q.1-1.419.19-2.743c.063-.882.1-1.513.113-1.892a8.1,8.1,0,0,1,2.785-2.368,18.66,18.66,0,0,1,3.414-1.4,64.94,64.94,0,0,0,1.229,10.945q1.123,5.822,2.436,11.7t2.3,11.6a52.264,52.264,0,0,1,.812,10.646q-.144,4.114-4.209,4.113Q6700.426-433,6700.276-433Zm20.1-19.02a1.036,1.036,0,0,1-.7-.383,5.068,5.068,0,0,1-.642-2.113q-.3-1.741-.529-5.393t-.3-10.224q-.068-6.572-.022-16.483t.556-24.467q3.327-2.87,5.057-1.138t2.464,6.417a66.639,66.639,0,0,1,.625,11.19q-.109,6.506-.288,13.309t-.211,12.892a51.068,51.068,0,0,0,.677,9.7,17.681,17.681,0,0,1-.346,3.094,5.294,5.294,0,0,1-.91,2.118,3.594,3.594,0,0,1-1.953,1.186,10.509,10.509,0,0,1-2.783.31Q6720.737-452.012,6720.38-452.024Zm-31.473-46.311a9.434,9.434,0,0,1,1.15-4.417,3.741,3.741,0,0,1,3.71-1.765,7.086,7.086,0,0,1,2.944,2.567,4.591,4.591,0,0,1,.981,3.115q-.19,1.368-2.2,1.819a4.214,4.214,0,0,1-.921.092A17.162,17.162,0,0,1,6688.907-498.335Z" transform="translate(-3602.557 2293.684)" fill="#fff" stroke="rgba(0,0,0,0)" stroke-width="1"/>
  </g>
</svg>
