<svg xmlns="http://www.w3.org/2000/svg" width="553.049" height="127.318" viewBox="0 0 553.049 127.318">
  <g id="elpixelista-logo" transform="translate(-367.446 -656.415)">
    <path data-name="Path 285" d="M6619.564-657.257c.467-4.265,2.455-7.736-2.657-9.208-2.623-3.751.881-8.149,4.91-8.369.818-7.414,9.513-27.654-2.895-22.771-6.653-5.414,2.25-11.221,7.481-12.714,2.133-5.705-.007-17.98,4.584-20.116,9.1-1.385,7.931,7.846,7.324,13.76,4.7.579,9.672-3.906,14.967-5.791,3.062.349,6.4-1.245,9.616-2.84,3.071-1.521,6.04-3.042,8.567-2.876,6.064-5.341,15.883-4.461,22.771-9.818a6.723,6.723,0,0,1,6.277,4.91c-.859,6.615-16.019,4.582-22.125,10.622-26.479,13.185-49.526,7.843-48.52,44.413,9.87-.62,61.273-27.261,51.98-6.921-16.78,6.79-48.2,7.731-56.008,24.539-7.877,33.467,1.382,58.118,29.214,22.773,7.71-2.214,24.281-26,26.23-7.72-7.969,5.137-17.072,9.877-23.738,17.058-11.273,11.721-20.1,16.633-26.589,16.634C6617.65-611.691,6614.173-632.335,6619.564-657.257Zm75.8-24.619c-.877-2.694,1.571-6.9-.967-8.327-4.49-8.031,7.666-13.473,10.62-7.4,5.57,11.53-12.566,39.939,7,38.865,6.827-1.734,17.784-9.917,23.5-7.081-8.075,9.856-19.216,15.762-28.082,15.762C6696.3-650.06,6688.749-659.374,6695.363-681.876Z" transform="translate(-6248 1394.926)" fill="#7bdffe" stroke="rgba(0,0,0,0)" stroke-width="1"/>
    <path data-name="Path 286" d="M6644.027-629.66c-21.1-.2,5.2-61.3-1.165-77.517.878-12.6-5.265-7.6-12.018-2.594-5.916,4.384-12.3,8.769-14.844,1.314,8.834-14.99,90.7-52.454,86.274-9.755-3.371,20.514-20.913,34.492-33.98,49.014-7.359,9.5-24.008,11.346-24.229,23.346-.257,1.468,1.757,3.129.241,4.319h2.079c.927,2.653,2.7,6.442-.561,8.316-.034,1.292.039,3.568-1.6,3.568A1.933,1.933,0,0,1,6644.027-629.66Zm9.676-91.872c-8.389,3.23-1.673,15.841-2.762,23.229-.275,11.181-3.914,24.316-3.358,34.462,20.292-11.964,40.946-33.764,47.257-56.29-1.935-7.106-7-9.479-13.146-9.479C6672.457-729.611,6660.792-724.245,6653.7-721.533Zm129.032,81.316c-12.276-14.05-3.247-35.387-2.641-51.611,6.264-2.638,13.121-8.88,21.193-7.6,7.6-.07,22.317-3.65,27.054,1.862,2.407-3.283,7.438-4.653,10.047-.424,5.528,10.37-12.288,40.819,6.393,37.982,3.143.34,6.9-1.588,10.7-3.515,4.684-2.375,9.439-4.75,13.21-2.883-5.013,9.679-36.848,26.58-41.417,6.438-1.777-9.679,2-19.554,1.757-28.986a6.384,6.384,0,0,1-1.517-7.166c-11.536,4.3-28.126.866-39.58,9.168-.986,5.635-.625,10.267,5.917,7.871,1.979.485,5.722-.179,9.576-.843,7.831-1.351,16.116-2.7,10.975,5.6-9.466,1.5-18.161,4.71-27.188,5.715-4.961,8.874-1.031,31.041,13.953,18.191,16.393-21.088,16.773-10.284,9.47.52-4.25,6.288-11.1,12.576-18.917,12.576A16.044,16.044,0,0,1,6782.735-640.216Zm120.656-7.713c12.375,1.159,20.576-2.633,21.9-6.427,1.273-3.664-3.876-7.329-17.9-6.528-46.748-6.469,14.1-55.5,14.993-37.664.374,6.23-3.711,5.45-7.278,6.8-3.568.75-6.049,5.3-9.954,6.479-23.139,24.661,30.881,7.515,30.144,29.344-.131,8.022-14.765,16.294-24.207,16.3C6906.067-639.63,6902.515-641.969,6903.391-647.929Zm80.6-4.56c15.757-13.973,24.732-35.525,30.707-54.208,11.2-6.03,12.626,7.367,14.588,20.764,1.765,12.056,3.964,24.111,14.114,22.011.8,1.608-1.032,4.737-1.6,4.719-10.3,2.949,7.9,3.708,8.794,7.516-4.236,6.218-17.551,5.913-20.228-2.078-2.578-8.159-12.031-3.25-18.792-2.841-1.721,1.029-4.06.91-6.392.791-2.9-.148-5.794-.3-7.481,1.767-3.379,5.215-9.636,12.1-12.838,12.1C6982.828-641.951,6982.028-644.732,6983.989-652.489Zm30.946-34.46c-9.763,21.721-18.766,26.968,10.632,22.468-2.715-5.87-3.989-26.11-7.664-26.111C7017.056-690.593,7016.082-689.519,7014.935-686.95Zm-295.027,38.18c2.465-19.351,23.917-8.326,5.114-32.222-1.161-2.777-4.467-13.11,1.521-11.4,9.706,3.8,10.034,26.233,20.629,9.153,7.328-4.865,19.382-32.184,28.5-23.465-7.123,15.566-46.318,37.862-15.712,47.454,2.428.916,5.035.739,7.5.564,2.388-.17,4.647-.341,6.488.477,2.5,6.324-7.633,7.211-12.912,7.316-9.438,2.031-14.938-8.4-22.308-9.918-3.278,2.725-11.469,9.143-7.437,13.834a12.562,12.562,0,0,1-6.872,2.452C6722.144-644.52,6720.19-645.591,6719.907-648.77Zm236.376-.919c-9.4-8.391-.868-26.2-8.114-34.544-4.772.694-10.01,3.051-14.913,1.642-12.467-14.561,50.088-10.07,57.647-15.756,17.3-5.673,6.917.2,13.875,1.082-2.654,4.273-3.671,7.495-8.315,8.955-4.537-1.85-10.515-.558-16.607.733-4.714,1-9.5,2-13.736,1.543-1.967,1.3-7.038.155-6.158,2.56,2.543,6.544-.507,15.889,2.52,22.589,6.84-2.055,7.568,2.017,5.614,6.089-1.593,3.319-4.97,6.639-8.271,6.639A4.97,4.97,0,0,1,6956.283-649.689Zm-83.032-36.42c-.411-4.1-1.83-10.958,3.515-10.917,11.686,9.116-4.184,30.564,8.635,40.219-2.533,1.689-4.631,2.426-6.356,2.427C6869.353-654.376,6871.381-677.644,6873.251-686.108Zm-170.493,0c-.411-4.1-1.829-10.958,3.515-10.917,11.686,9.116-4.184,30.564,8.636,40.219-2.534,1.689-4.631,2.426-6.356,2.427C6698.861-654.376,6700.889-677.644,6702.758-686.108Z" transform="translate(-6130.636 1407.265)" fill="#00a3d8" stroke="rgba(0,0,0,0)" stroke-width="1"/>
  </g>
</svg>
