<svg xmlns="http://www.w3.org/2000/svg" width="311.657" height="429.632" viewBox="0 0 311.657 429.632">
  <g id="elpixelista-friend-iso" transform="translate(-4909.455 -2170.795)">
    <path d="M877.632,207.581c0-8.08,28.781-14.641,64.283-14.641s64.267,6.562,64.267,14.641-28.769,14.625-64.267,14.625-64.283-6.545-64.283-14.625Z" transform="translate(4031.822 2378.221)" fill="#1b365e" opacity="0.246"/>
    <path data-name="Path" d="M938.5,206.35c0-6.244,26.491-11.311,59.177-11.311,32.671,0,59.161,5.067,59.161,11.311s-26.49,11.3-59.161,11.3c-32.687,0-59.177-5.051-59.177-11.3Z" transform="translate(4163.794 2382.773)" fill="#1b365e" opacity="0.246"/>
    <path data-name="Composite Path" d="M1177.755,433.183c-6.318-7.9-14.349-11.442-19.59-13.488-4.666-1.86-37.536-10.955-64.153-12.132-.805-25.044-22.287-120.388-23.655-130.863,12.856,9.354,49.294,27.439,55.519,28.706,4.008.812,9.416,2.087,12.7-.39,2.885-2.152,3.715-6.553,2.026-10.784-1.867-4.726-4.675-7.357-8.1-11.467-5.623-6.8-24.179-20.334-32.414-25.628,12.824-12.352,48.514-52.995,45.93-62.074-1.749-3.118-7.657,0-11.489,0-24.139,3.866-67.543,15.544-79.028,18.231-1.2-2.412-3.841-3.386-6.083-4.734-16.254-19.156-31.844-43.1-46.084-65.387-2.841-4.466-7.625-8.851-7.026-15.511.2-2.461,2.575-5.895,4.491-8.819,5.07-7.764,10.294-15.063,12.824-25.637.277-2.785.1-4.726-3.38-5.384-30.015-7.356-76.383,16.6-79.692,18.215-2.965,1.446-22.9,11.336-22.3,18.872.309,3.808,5.3,6.512,9.675,8.795,6.616,3.476,13.565,5.368,22.788,7.146,8.751,1.1,26.324-3.386,32.374,2.274,9.655,9.883,49.9,53.4,56.752,62.082,1.957,2.469,5.472,4.58,4.724,8.088-15.115-.535-30.746-1.721-51.211-1.721-12.149,0-27.316-1.665-27.82,5.091-.35,4.8,8.788,11.929,12.84,15.511,7.99,6.918,24.968,21.828,32.511,28.844-8.426,2.632-34.306,14.942-41.328,20.578-3.784,3.126-4.768,2.4-5.374,5.9-1.5,8.916,16.4,13.293,26.347,11.466,9.7-1.794,29.872-9.639,39.176-14.853,1.094-.6,3.442-2.834,4.724-2.005-5.346,13.066-33.411,90.407-50.649,112.633-21.482-3.045-42.989-3.785-66.871,0-6.7,1.437-13.272,3.378-19.594,7.414-3.975,2.818-4.61,3.962-4.727,8.112.9,6.327,29.717,20.935,64.043,25.719,7.3.592,39.99,3.711,48.078-.09,2.368-4.507,3.576-8.681,2.7-14.154-.676-4.393-4.6-7.716-2.7-14.853,5.428-20.57,46.631-127.794,56.069-155.81,6.749,34.074,22.93,112.991,22.275,148.379-.285,16.493-7.068,26.117-4.7,37.119,1.35,6.237,38.272,9.128,62.118,8.771,20.123-.309,30.84.357,45.779-5.767,2.759-2.1,2.733-4.848,1.509-6.391Zm-143.868-176.72c-1.668-1.494-37.972-24.865-44.579-29.015-1.366-1.859-1.765-3.378,2.727-3.142,12.889.649,38.228,1.713,51.3,1.787-3.4,11.507-5.765,19.441-9.448,30.371Zm24.306-31.7c13.015-2.761,49.055-12.921,56.634-14.472,3.752.7,3.515,2.867.619,5.693-16.164,12.343-34.1,28.576-51.178,39.182-2-10.289-3.984-20.8-6.075-30.4Z" transform="translate(4042.563 2147.259)" fill="#7BDFFE"/>
    <path data-name="Path" d="M908.143,97.429c-1.5.881-4.332,2.49-7.109,4.193a26.13,26.13,0,0,0-3.3,2.473,2.745,2.745,0,0,0-.823,1.467,1.191,1.191,0,0,0,1.672,1.234,6.005,6.005,0,0,0,1.421-.963c3.578-3.018,6.71-2.512,11.066-4.038,4.534-1.589,9.9-4.97,14.411-3.329.577.21,1.323.476,1.669-.214.119-.237-.558-.933-.966-1.316a2.391,2.391,0,0,0-1.086-.485A26.805,26.805,0,0,0,908.143,97.429Z" transform="translate(4073.581 2166.986)" fill="#224780"/>
    <path data-name="Path" d="M922.879,92.812a27.313,27.313,0,0,0-13.12,10.663,3.573,3.573,0,0,0-.544,1.509c-.087.718.416.974,1.008.535a3.3,3.3,0,0,0,.81-.94c2.269-3.743,7.879-4.035,11.669-5.854,4.783-2.3,7.63-4.98,12.755-5.184a3.859,3.859,0,0,0,1.3-.113c.421-.175,1.041-.562,1.069-.878a1.656,1.656,0,0,0-.6-1.393,4.258,4.258,0,0,0-2.223-.47A60.22,60.22,0,0,0,922.879,92.812Z" transform="translate(4100.283 2156.479)" fill="#224780"/>
    <path data-name="Path" d="M893.319,160.591c-9.238-8.211,11.8-28.739,21.5-94.018,30.851,47.315,68.6,51.025,70.383,58.272,1.657,6.75-3.1,7.127-3.1,7.127S915.119,147.748,893.319,160.591Z" transform="translate(4062.73 2104.222)" fill="#224780"/>
  </g>
</svg>
