<svg xmlns="http://www.w3.org/2000/svg" width="317.13" height="395.519" viewBox="0 0 317.13 395.519">
  <g id="elpixelista-iso" transform="translate(-727.087 -2282.852)">
    <path d="M971.459,227.691c0-8.106-28.959-14.69-64.68-14.69s-64.663,6.583-64.663,14.69,28.945,14.673,64.663,14.673,64.68-6.566,64.68-14.673Z" transform="translate(72.758 2431.985)" opacity="0.214"/>
    <path data-name="Path" d="M888.068,228.514c0-6.265-26.654-11.349-59.542-11.349-32.872,0-59.526,5.084-59.526,11.349s26.654,11.342,59.526,11.342c32.888,0,59.542-5.069,59.542-11.342Z" transform="translate(-41.913 2438.516)" opacity="0.214"/>
    <path data-name="Path 277" d="M93.378,1099.506c-20.247-.311-31.029.358-46.062-5.785-2.776-2.1-2.75-4.865-1.519-6.412,6.359-7.927,14.439-11.479,19.712-13.533,4.694-1.867,37.768-10.991,64.548-12.172.776-24.078,31.227-161.574,35.619-181.493-17.28,4.293-38.453,9.337-52.831,11.633-3.856,0-9.8,3.128-11.561,0C100.18,880.774,82.011,757.426,77.973,740c10.767-22.122,27.59-4.022,27.59-4.022-2.693,20.111,6.728,137.426,9.42,146.141,5.8-1.183,34.985-10.3,54.253-16.148,3.32-.851,3.032-.05,5.689-4.025,16.353-19.221,32.04-43.247,46.368-65.6,2.857-4.481,7.672-8.881,7.07-15.562-.2-2.47-2.591-5.915-4.519-8.849-5.1-7.789-10.357-15.114-12.9-25.721-.279-2.794-.1-4.742,3.4-5.4,30.2-7.382,76.853,16.654,80.181,18.274,2.984,1.451,23.039,11.374,22.438,18.935-.311,3.821-5.334,6.535-9.735,8.824-6.655,3.487-12.3,4.24-21.579,6.025-3.126.39-8.717,1.221-13.162.906-8.081-.571-16.833-1.144-20.76,2.52-9.714,9.916-50.208,53.579-57.1,62.288-1.969,2.477-6.651,8.483-2.018,8.428,15.208-.538,28.2-2.039,48.791-2.039,12.223,0,27.484-1.671,27.992,5.107.352,4.815-8.842,11.969-12.92,15.562-8.039,6.942-25.122,21.9-32.711,28.939,8.478,2.641,34.519,14.992,41.583,20.647,3.807,3.136,4.8,2.412,5.408,5.915,1.51,8.945-16.5,13.337-26.51,11.5-9.755-1.8-30.055-9.671-39.417-14.9a9.341,9.341,0,0,1-.8-.522l-9.639-29.627c8-5.42,35.165-23.03,41.018-26.7,1.375-1.866,1.777-3.389-2.742-3.153-12.969.652-38.463,1.719-51.616,1.792,3.418,11.545,18.782,54.707,19.022,56.193,5.379,13.109,33.617,90.707,50.962,113.006,21.614-3.055,43.253-3.8,67.283,0,6.737,1.442,13.353,3.389,19.715,7.438,4,2.827,4.639,3.976,4.757,8.139-.908,6.348-29.9,21.005-64.437,25.8-7.344.595-40.236,3.723-48.374-.09-2.382-4.522-3.6-8.71-2.718-14.2.68-4.407,4.63-7.74,2.718-14.9-5.461-20.638-46.917-128.217-56.415-156.326-6.79,34.187-23.072,113.364-22.412,148.871.286,16.547,7.11,26.2,4.731,37.243-1.284,5.913-34.536,8.829-58.437,8.829C96.053,1099.535,94.694,1099.525,93.378,1099.506Z" transform="translate(687.658 1569)" fill="#b2e344"/>
    <path data-name="Path" d="M934.865,128.152c4.278-2.774,11.447-7.911,8.972-18.29-6-25.147-26.857-18.443-45.025-22.466-15.852-3.509-31.026-13.835-44.413-12.737-5.471.449-15.912,7.139-15.731,13.9s3.253,6.906,3.253,6.906,28.574,2.2,51.2,10.008C902.346,108.662,912.688,111.937,934.865,128.152Z" transform="translate(67.347 2214.896)" fill="#00a3d9"/>
    <path data-name="Path" d="M864.758,87.522a10.972,10.972,0,0,0-.082-8.764c-2.072-4.849-4.346-5.529-6.241-6.418a3.2,3.2,0,0,0-3.292.245c-.755,1.267,2.342,4.077,3.452,6.929a47.789,47.789,0,0,1,1.888,6.031Z" transform="translate(93.002 2210.853)" fill="#00a3d9"/>
    <path d="M777.989,88.172c-.372-6.612,12.73-12.642,29.264-13.468s30.238,3.863,30.61,10.475S825.133,97.822,808.6,98.648,778.361,94.785,777.989,88.172Z" transform="translate(-27.828 2214.946)" fill="#acdc42"/>
    <ellipse data-name="Ellipse" cx="50.287" cy="50.467" rx="50.287" ry="50.467" transform="translate(732.173 2298.083)" fill="#00a3d9"/>
    <path data-name="Path" d="M877.424,94.34c1.51.884,4.357,2.5,7.151,4.207a26.188,26.188,0,0,1,3.321,2.481,2.754,2.754,0,0,1,.828,1.472c.167.9-1.644,2.282-2.5,1.91a6.024,6.024,0,0,1-1.429-.966c-3.6-3.028-14.742-8.647-24.813-8.064-.617.036-1.331.478-1.679-.214-.12-.237.561-.935.972-1.32a2.42,2.42,0,0,1,1.092-.487A27.046,27.046,0,0,1,877.424,94.34Z" transform="translate(98.116 2242.884)" fill="#224780"/>
    <path data-name="Path" d="M858.741,88.572a27.464,27.464,0,0,1,13.2,10.7,3.563,3.563,0,0,1,.548,1.513c.086.72-.419.977-1.015.537a3.321,3.321,0,0,1-.814-.945c-2.284-3.755-17.269-9.17-24.537-9.679a7.317,7.317,0,0,1-1.31-.113c-1.7-.445-1.085-1.959-1.113-2.276a1.662,1.662,0,0,1,.6-1.4,4.293,4.293,0,0,1,2.237-.471A60.734,60.734,0,0,1,858.741,88.572Z" transform="translate(75.106 2233.479)" fill="#224780"/>
    <path data-name="Path 278" d="M45,739.094a7.367,7.367,0,0,1,13.57-4,7.366,7.366,0,0,1,13.986-1.716,7.4,7.4,0,1,1,0,6.044,7.362,7.362,0,0,1-12.929.981A7.37,7.37,0,0,1,45,739.094Z" transform="translate(713.268 1562.533)" fill="#acdc42"/>
    <g transform="translate(750.055 2309.897)">
      <path d="M38.414,17.939c-.171.476-.058.736.52,1.2,2.673,2.152,11.423,8.887,11.607,8.933.417.1.78-.127,1.922-1.228,2.277-2.2,8.019-8.012,11.708-11.919.417-.49.2-.687-.1-1.178a42.846,42.846,0,0,0-5.98-7.422C54.817,3.063,51.081.377,50.055.1a.588.588,0,0,0-.872.327M36.367,21.716c-.3.123-.551.447-1.22,1.555a28.178,28.178,0,0,0-2.3,4.252c-.073.584.223.923,1.133,1.3A14.28,14.28,0,0,1,41.21,34.83c.352.521.731,1.049.841,1.172a.982.982,0,0,0,1.113.205,50.318,50.318,0,0,0,4.724-4.649,1.114,1.114,0,0,0,.127-1.192c-.222-.268-10.975-8.645-11.1-8.645a.9.9,0,0,1-.218-.044.585.585,0,0,0-.333.039m-12.856,8.26a18.869,18.869,0,0,0-10.377,5.087,17.333,17.333,0,0,0-5.149,8.819,34.64,34.64,0,0,0-.116,7.3,20.18,20.18,0,0,1-.335,7.4c-.832,2.6-2.757,4.864-6.1,7.191a8.176,8.176,0,0,0-1.126.92c-1.3,1.48,1.608,2.408,7.146,2.283,8.775-.2,18.43-2.692,24.462-6.316a19.247,19.247,0,0,0,7.748-8.026,17.587,17.587,0,0,0,2.026-7.857,15.533,15.533,0,0,0-.858-6.177,15.716,15.716,0,0,0-10.267-10.05,17.707,17.707,0,0,0-7.053-.58" transform="matrix(0.985, 0.174, -0.174, 0.985, 11.981, 0)" fill="#7bdefe" fill-rule="evenodd"/>
    </g>
  </g>
</svg>
