<svg xmlns="http://www.w3.org/2000/svg" width="841.495" height="395.523" viewBox="0 0 841.495 395.523">
  <g id="Group_2" data-name="Group 2" transform="translate(-323 -235)">
    <g id="elpixelista-iso" transform="translate(-404.087 -2047.849)">
      <path id="Path_1" data-name="Path 1" d="M971.459,227.691c0-8.106-28.959-14.69-64.68-14.69s-64.663,6.583-64.663,14.69,28.945,14.673,64.663,14.673S971.459,235.8,971.459,227.691Z" transform="translate(72.758 2431.985)" opacity="0.214"/>
      <path id="Path" d="M888.068,228.514c0-6.265-26.654-11.349-59.542-11.349-32.872,0-59.526,5.084-59.526,11.349s26.654,11.342,59.526,11.342C861.414,239.856,888.068,234.787,888.068,228.514Z" transform="translate(-41.913 2438.516)" opacity="0.214"/>
      <path id="Path_277" data-name="Path 277" d="M93.378,1099.506c-20.247-.311-31.029.358-46.062-5.785-2.776-2.1-2.75-4.865-1.519-6.412,6.359-7.927,14.439-11.479,19.712-13.533,4.694-1.867,37.768-10.991,64.548-12.172.776-24.078,31.227-161.574,35.619-181.493-17.28,4.293-38.453,9.337-52.831,11.633-3.856,0-9.8,3.128-11.561,0C100.18,880.774,82.011,757.426,77.973,740c10.767-22.122,27.59-4.022,27.59-4.022-2.693,20.111,6.728,137.426,9.42,146.141,5.8-1.183,34.985-10.3,54.253-16.148,3.32-.851,3.032-.05,5.689-4.025,16.353-19.221,32.04-43.247,46.368-65.6,2.857-4.481,7.672-8.881,7.07-15.562-.2-2.47-2.591-5.915-4.519-8.849-5.1-7.789-10.357-15.114-12.9-25.721-.279-2.794-.1-4.742,3.4-5.4,30.2-7.382,76.853,16.654,80.181,18.274,2.984,1.451,23.039,11.374,22.438,18.935-.311,3.821-5.334,6.535-9.735,8.824-6.655,3.487-12.3,4.24-21.579,6.025-3.126.39-8.717,1.221-13.162.906-8.081-.571-16.833-1.144-20.76,2.52-9.714,9.916-50.208,53.579-57.1,62.288-1.969,2.477-6.651,8.483-2.018,8.428,15.208-.538,28.2-2.039,48.791-2.039,12.223,0,27.484-1.671,27.992,5.107.352,4.815-8.842,11.969-12.92,15.562-8.039,6.942-25.122,21.9-32.711,28.939,8.478,2.641,34.519,14.992,41.583,20.647,3.807,3.136,4.8,2.412,5.408,5.915,1.51,8.945-16.5,13.337-26.51,11.5-9.755-1.8-30.055-9.671-39.417-14.9a9.329,9.329,0,0,1-.8-.522L194.386,907.6c8-5.42,35.165-23.03,41.018-26.7,1.375-1.866,1.777-3.389-2.742-3.153-12.969.652-38.463,1.719-51.616,1.792,3.418,11.545,18.782,54.707,19.022,56.193,5.379,13.109,33.617,90.707,50.962,113.006,21.614-3.055,43.253-3.8,67.283,0,6.737,1.442,13.353,3.389,19.715,7.438,4,2.827,4.639,3.976,4.757,8.139-.908,6.348-29.9,21.005-64.437,25.8-7.344.595-40.236,3.723-48.374-.09-2.382-4.522-3.6-8.71-2.718-14.2.68-4.407,4.63-7.74,2.718-14.9-5.461-20.638-46.917-128.217-56.415-156.326-6.79,34.187-23.072,113.364-22.412,148.871.286,16.547,7.11,26.2,4.731,37.243-1.284,5.913-34.536,8.829-58.437,8.829C96.053,1099.535,94.694,1099.525,93.378,1099.506Z" transform="translate(687.658 1569)" fill="#b2e344"/>
      <path id="Path-2" data-name="Path" d="M934.865,128.152c4.278-2.774,11.447-7.911,8.972-18.29-6-25.147-26.857-18.443-45.025-22.466C882.96,83.887,867.786,73.561,854.4,74.659c-5.471.449-15.912,7.139-15.731,13.9s3.253,6.906,3.253,6.906,28.574,2.2,51.2,10.008C902.346,108.662,912.688,111.937,934.865,128.152Z" transform="translate(67.347 2214.896)" fill="#00a3d9"/>
      <path id="Path-3" data-name="Path" d="M864.758,87.522a10.972,10.972,0,0,0-.082-8.764c-2.072-4.849-4.346-5.529-6.241-6.418a3.2,3.2,0,0,0-3.292.245c-.755,1.267,2.342,4.077,3.452,6.929a47.8,47.8,0,0,1,1.888,6.031Z" transform="translate(93.002 2210.853)" fill="#00a3d9"/>
      <path id="Path_2" data-name="Path 2" d="M777.989,88.172c-.372-6.612,12.73-12.642,29.264-13.468s30.238,3.863,30.61,10.475S825.133,97.822,808.6,98.648,778.361,94.785,777.989,88.172Z" transform="translate(-27.828 2214.946)" fill="#acdc42"/>
      <ellipse id="Ellipse" cx="50.287" cy="50.467" rx="50.287" ry="50.467" transform="translate(732.173 2298.083)" fill="#00a3d9"/>
      <path id="Path-4" data-name="Path" d="M877.424,94.34c1.51.884,4.357,2.5,7.151,4.207a26.184,26.184,0,0,1,3.321,2.481,2.754,2.754,0,0,1,.828,1.472c.167.9-1.644,2.282-2.5,1.91a6.024,6.024,0,0,1-1.429-.966c-3.6-3.028-14.742-8.647-24.813-8.064-.617.036-1.331.478-1.679-.214-.12-.237.561-.935.972-1.32a2.42,2.42,0,0,1,1.092-.487,27.046,27.046,0,0,1,17.057.981Z" transform="translate(98.116 2242.884)" fill="#224780"/>
      <path id="Path-5" data-name="Path" d="M858.741,88.572a27.464,27.464,0,0,1,13.2,10.7,3.563,3.563,0,0,1,.548,1.513c.086.72-.419.977-1.015.537a3.32,3.32,0,0,1-.814-.945c-2.284-3.755-17.269-9.17-24.537-9.679a7.316,7.316,0,0,1-1.31-.113c-1.7-.445-1.085-1.959-1.113-2.276a1.662,1.662,0,0,1,.6-1.4,4.293,4.293,0,0,1,2.237-.471,60.735,60.735,0,0,1,12.2,2.134Z" transform="translate(75.106 2233.479)" fill="#224780"/>
      <path id="Path_278" data-name="Path 278" d="M45,739.094a7.367,7.367,0,0,1,13.57-4,7.366,7.366,0,0,1,13.986-1.716,7.4,7.4,0,1,1,0,6.044,7.362,7.362,0,0,1-12.929.981A7.37,7.37,0,0,1,45,739.094Z" transform="translate(713.268 1562.533)" fill="#acdc42"/>
      <g id="Group_1" data-name="Group 1" transform="translate(750.055 2309.897)">
        <path id="Path_3" data-name="Path 3" d="M38.414,17.939c-.171.476-.058.736.52,1.2,2.673,2.152,11.423,8.887,11.607,8.933.417.1.78-.127,1.922-1.228,2.277-2.2,8.019-8.012,11.708-11.919.417-.49.2-.687-.1-1.178a42.846,42.846,0,0,0-5.98-7.422C54.817,3.063,51.081.377,50.055.1a.588.588,0,0,0-.872.327M36.367,21.716c-.3.123-.551.447-1.22,1.555a28.179,28.179,0,0,0-2.3,4.252c-.073.584.223.923,1.133,1.3a14.28,14.28,0,0,1,7.23,6.007c.352.521.731,1.049.841,1.172a.982.982,0,0,0,1.113.205,50.318,50.318,0,0,0,4.724-4.649,1.114,1.114,0,0,0,.127-1.192c-.222-.268-10.975-8.645-11.1-8.645a.9.9,0,0,1-.218-.044.585.585,0,0,0-.333.039m-12.856,8.26a18.869,18.869,0,0,0-10.377,5.087,17.333,17.333,0,0,0-5.149,8.819,34.64,34.64,0,0,0-.116,7.3,20.18,20.18,0,0,1-.335,7.4c-.832,2.6-2.757,4.864-6.1,7.191a8.176,8.176,0,0,0-1.126.92C-1,68.173,1.913,69.1,7.451,68.976c8.775-.2,18.43-2.692,24.462-6.316a19.247,19.247,0,0,0,7.748-8.026,17.587,17.587,0,0,0,2.026-7.857,15.533,15.533,0,0,0-.858-6.177A15.716,15.716,0,0,0,30.562,30.55a17.707,17.707,0,0,0-7.053-.58" transform="matrix(0.985, 0.174, -0.174, 0.985, 11.981, 0)" fill="#7bdefe" fill-rule="evenodd"/>
      </g>
    </g>
    <g id="elpixelista-logo" transform="translate(244 -296.926)">
      <path id="Path_285" data-name="Path 285" d="M6619.564-657.257c.467-4.265,2.455-7.736-2.657-9.208-2.623-3.751.881-8.149,4.91-8.369.818-7.414,9.513-27.654-2.9-22.771-6.653-5.414,2.25-11.221,7.481-12.714,2.133-5.705-.007-17.98,4.584-20.116,9.1-1.385,7.931,7.846,7.324,13.76,4.7.579,9.672-3.906,14.967-5.791,3.062.349,6.4-1.245,9.616-2.84,3.071-1.521,6.04-3.042,8.567-2.876,6.064-5.341,15.883-4.461,22.771-9.818a6.723,6.723,0,0,1,6.277,4.91c-.859,6.615-16.019,4.582-22.125,10.622-26.479,13.185-49.526,7.843-48.52,44.413,9.87-.62,61.273-27.261,51.98-6.921-16.78,6.79-48.2,7.731-56.008,24.539-7.877,33.467,1.382,58.118,29.214,22.773,7.71-2.214,24.281-26,26.23-7.72-7.969,5.137-17.072,9.877-23.738,17.058-11.273,11.721-20.1,16.633-26.589,16.634C6617.65-611.691,6614.173-632.335,6619.564-657.257Zm75.8-24.619c-.877-2.694,1.571-6.9-.967-8.327-4.49-8.031,7.666-13.473,10.62-7.4,5.57,11.53-12.566,39.939,7,38.865,6.827-1.734,17.784-9.917,23.5-7.081-8.075,9.856-19.216,15.762-28.082,15.762-11.135,0-18.686-9.317-12.072-31.819Z" transform="translate(-6248 1394.926)" fill="#7bdffe" stroke="rgba(0,0,0,0)" stroke-width="1"/>
      <path id="Path_286" data-name="Path 286" d="M6644.027-629.66c-21.1-.2,5.2-61.3-1.165-77.517.878-12.6-5.265-7.6-12.018-2.594-5.916,4.384-12.3,8.769-14.844,1.314,8.834-14.99,90.7-52.454,86.274-9.755-3.371,20.514-20.913,34.492-33.98,49.014-7.359,9.5-24.008,11.346-24.229,23.346-.257,1.468,1.757,3.129.241,4.319h2.079c.927,2.653,2.7,6.442-.561,8.316-.034,1.292.039,3.568-1.6,3.568a1.935,1.935,0,0,1-.2-.011Zm9.676-91.872c-8.389,3.23-1.673,15.841-2.762,23.229-.275,11.181-3.914,24.316-3.358,34.462,20.292-11.964,40.946-33.764,47.257-56.29-1.935-7.106-7-9.479-13.146-9.479-9.236,0-20.9,5.365-27.993,8.077Zm129.032,81.316c-12.276-14.05-3.247-35.387-2.641-51.611,6.264-2.638,13.121-8.88,21.193-7.6,7.6-.07,22.317-3.65,27.054,1.862,2.407-3.283,7.438-4.653,10.047-.424,5.528,10.37-12.288,40.819,6.393,37.982,3.143.34,6.9-1.588,10.7-3.515,4.684-2.375,9.439-4.75,13.21-2.883-5.013,9.679-36.848,26.58-41.417,6.438-1.777-9.679,2-19.554,1.757-28.986a6.384,6.384,0,0,1-1.517-7.166c-11.536,4.3-28.126.866-39.58,9.168-.986,5.635-.625,10.267,5.917,7.871,1.979.485,5.722-.179,9.576-.843,7.831-1.351,16.116-2.7,10.975,5.6-9.466,1.5-18.161,4.71-27.188,5.715-4.961,8.874-1.031,31.041,13.953,18.191,16.393-21.088,16.773-10.284,9.47.52-4.25,6.288-11.1,12.576-18.917,12.576a16.042,16.042,0,0,1-8.985-2.9Zm120.656-7.713c12.375,1.159,20.576-2.633,21.9-6.427,1.273-3.664-3.876-7.329-17.9-6.528-46.748-6.469,14.1-55.5,14.993-37.664.374,6.23-3.711,5.45-7.278,6.8-3.568.75-6.049,5.3-9.954,6.479-23.139,24.661,30.881,7.515,30.144,29.344-.131,8.022-14.765,16.294-24.207,16.3-5.022,0-8.574-2.344-7.7-8.3Zm80.6-4.56c15.757-13.973,24.732-35.525,30.707-54.208,11.2-6.03,12.626,7.367,14.588,20.764,1.765,12.056,3.964,24.111,14.114,22.011.8,1.608-1.032,4.737-1.6,4.719-10.3,2.949,7.9,3.708,8.794,7.516-4.236,6.218-17.551,5.913-20.228-2.078-2.578-8.159-12.031-3.25-18.792-2.841-1.721,1.029-4.06.91-6.392.791-2.9-.148-5.794-.3-7.481,1.767-3.379,5.215-9.636,12.1-12.838,12.1-2.034,0-2.834-2.784-.874-10.541Zm30.946-34.46c-9.763,21.721-18.766,26.968,10.632,22.468-2.715-5.87-3.989-26.11-7.664-26.111-.848,0-1.822,1.073-2.969,3.642Zm-295.027,38.18c2.465-19.351,23.917-8.326,5.114-32.222-1.161-2.777-4.467-13.11,1.521-11.4,9.706,3.8,10.034,26.233,20.629,9.153,7.328-4.865,19.382-32.184,28.5-23.465-7.123,15.566-46.318,37.862-15.712,47.454,2.428.916,5.035.739,7.5.564,2.388-.17,4.647-.341,6.488.477,2.5,6.324-7.633,7.211-12.912,7.316-9.438,2.031-14.938-8.4-22.308-9.918-3.278,2.725-11.469,9.143-7.437,13.834a12.564,12.564,0,0,1-6.873,2.452c-2.275,0-4.229-1.067-4.512-4.246Zm236.376-.919c-9.4-8.391-.868-26.2-8.114-34.544-4.772.694-10.01,3.051-14.913,1.642-12.467-14.561,50.088-10.07,57.647-15.756,17.3-5.673,6.917.2,13.875,1.082-2.654,4.273-3.671,7.495-8.315,8.955-4.537-1.85-10.515-.558-16.607.733-4.714,1-9.5,2-13.736,1.543-1.967,1.3-7.038.155-6.158,2.56,2.543,6.544-.507,15.889,2.52,22.589,6.84-2.055,7.568,2.017,5.614,6.089-1.593,3.319-4.97,6.639-8.271,6.639a4.971,4.971,0,0,1-3.544-1.533Zm-83.032-36.42c-.411-4.1-1.83-10.958,3.515-10.917,11.686,9.116-4.184,30.564,8.635,40.219-2.533,1.689-4.631,2.426-6.356,2.427-9.694,0-7.667-23.265-5.8-31.729Zm-170.493,0c-.411-4.1-1.829-10.958,3.515-10.917,11.686,9.116-4.184,30.564,8.636,40.219-2.534,1.689-4.631,2.426-6.356,2.427-9.695,0-7.667-23.265-5.8-31.729Z" transform="translate(-6130.636 1407.265)" fill="#00a3d8" stroke="rgba(0,0,0,0)" stroke-width="1"/>
    </g>
  </g>
</svg>
