<svg xmlns="http://www.w3.org/2000/svg" width="800" height="800" viewBox="0 0 800 800">
  <g id="elpixelista-fig-ball-simple" transform="translate(-1583 -7344)">
    <g id="Group_289" data-name="Group 289" transform="translate(1583 7344)">
      <circle id="Ellipse" cx="400" cy="400" r="400" transform="translate(0 0)" fill="#224780"/>
      <path id="Path_282" data-name="Path 282" d="M345.952,1219.195c-10.907,55.921-32.294,162.463-44.046,250.911q-18.784-5.272-36.789-12.294c15.006-79.034,33.047-162.965,34.918-177.577-30.123,22.272-115.518,65.343-130.131,68.392-9.4,1.941-22.043,4.946-29.757-.922-6.751-5.135-8.713-15.621-4.743-25.694,4.383-11.275,10.953-17.518,18.986-27.305,13.19-16.222,56.686-48.436,76-61.046-30.082-29.434-113.743-126.247-107.67-147.827,4.1-7.439,17.935,0,26.927,0,56.6,9.15,158.331,37.014,185.219,43.394,8.336,3.724,9.335-5.743,15.634-14.731,31.477-46.627,73.276-99.178,106.688-152.272,6.664-10.632,17.847-21.073,16.473-36.969-.493-5.823-6.065-14-10.537-20.98-11.871-18.484-24.146-35.856-30.081-61.042-.639-6.655-.227-11.275,7.94-12.845,70.336-17.512,179.057,39.553,186.819,43.387,6.943,3.425,53.67,26.991,52.263,44.965-.732,9.059-12.42,15.481-22.689,20.935-15.519,8.272-31.813,12.8-53.4,17-7.3.935-17.193.193-27.56-.549-18.822-1.349-39.194-2.7-48.347,6-22.636,23.521-116.974,127.168-133,147.826-4.613,5.914-22.7,19.634,0,19.272,35.418-1.252,60.984-4.115,108.947-4.115,28.48,0,64.036-3.928,65.224,12.151.826,11.414-20.632,28.421-30.129,36.922-18.707,16.495-58.509,51.987-76.174,68.717,19.723,6.282,80.375,35.581,96.859,49.028,8.85,7.438,11.174,5.684,12.6,14,3.514,21.26-38.434,31.7-61.756,27.314-22.731-4.251-70.023-22.922-91.837-35.352-2.555-1.434-8.07-6.744-11.09-4.8,8.5,21.083,41.375,112.28,74.276,185.441a399.99,399.99,0,0,1-40.617,5.224C407.428,1388.987,360.538,1263.15,345.952,1219.195Zm137.7-63.724c-30.215,1.525-89.592,4.068-120.263,4.253,7.985,27.4,13.508,46.3,22.176,72.317,3.882-3.558,89.007-59.2,104.476-69.083,2.983-4.134,4.012-7.543-4.387-7.543Q484.733,1155.415,483.655,1155.471Zm-289.281-19.825c37.885,29.392,79.917,68.068,119.949,93.3,4.7-24.494,9.36-49.495,14.24-72.416-30.489-6.56-114.972-30.773-132.729-34.423C187.019,1123.726,187.573,1128.9,194.374,1135.646Z" transform="translate(-10.225 -684.946)" fill="#b2e344"/>
      <g id="Group_285" data-name="Group 285" transform="translate(440.192 81.149)">
        <path id="Path" d="M1060.82,198.3c9.88-6.405,26.435-18.269,20.72-42.238-13.847-58.073-62.021-42.592-103.978-51.881C940.957,96.076,905.914,72.231,875,74.765c-12.635,1.038-36.747,16.487-36.328,32.107s7.511,15.949,7.511,15.949,65.987,5.082,118.226,23.112C985.723,153.29,1009.607,160.852,1060.82,198.3Z" transform="translate(-838.667 -59.289)" fill="#00a3d9"/>
        <path id="Path-2" data-name="Path" d="M877.5,107.846a25.337,25.337,0,0,0-.19-20.239c-4.784-11.2-10.036-12.769-14.412-14.822a7.38,7.38,0,0,0-7.6.566c-1.744,2.927,5.407,9.414,7.972,16a110.375,110.375,0,0,1,4.36,13.928Z" transform="translate(-758 -72)" fill="#00a3d9"/>
        <path id="Path-3" data-name="Path" d="M904.2,97.021c3.624,2.121,10.454,5.994,17.157,10.094a62.873,62.873,0,0,1,7.967,5.953,6.606,6.606,0,0,1,1.987,3.531c.4,2.154-3.944,5.474-6,4.582a14.449,14.449,0,0,1-3.429-2.317c-8.637-7.264-35.368-20.745-59.528-19.347-1.481.086-3.193,1.146-4.028-.514-.287-.569,1.347-2.244,2.332-3.168a5.807,5.807,0,0,1,2.62-1.168C875.411,91.894,886.78,90.712,904.2,97.021Z" transform="translate(-744.28 32.995)" fill="#224780"/>
        <path id="Path-4" data-name="Path" d="M879.9,91.574c13.9,5.4,23.9,14.145,31.669,25.668a8.55,8.55,0,0,1,1.314,3.63c.207,1.728-1.006,2.345-2.435,1.289a7.969,7.969,0,0,1-1.953-2.266c-5.479-9.009-41.429-22-58.865-23.222a17.549,17.549,0,0,1-3.142-.272c-4.072-1.067-2.6-4.7-2.669-5.461a3.988,3.988,0,0,1,1.45-3.355,10.3,10.3,0,0,1,5.367-1.129A145.7,145.7,0,0,1,879.9,91.574Z" transform="translate(-820.008 2.041)" fill="#224780"/>
      </g>
    </g>
  </g>
</svg>
