<svg xmlns="http://www.w3.org/2000/svg" width="800" height="800" viewBox="0 0 800 800">
  <g id="elpixelista-fig-ball-brush" transform="translate(-928 -7576)">
    <rect id="Rectangle_61" data-name="Rectangle 61" width="800" height="800" transform="translate(928 7576)" fill="#e3e3e3" opacity="0"/>
    <g id="Group_291" data-name="Group 291" transform="translate(934.667 7609.333)">
      <circle id="Ellipse" cx="368.75" cy="368.75" r="368.75" transform="translate(26.667)" fill="#224780"/>
      <path id="Path_279" data-name="Path 279" d="M420.653,1150.515c-48.8,12.115-140.685,31.3-181.287,37.782-11.937,2.395-26,2.609-30.976-6.218-3.118-30.957-56.1-372.857-67.5-422.049,30.4-62.433,77.913-11.351,77.913-11.351-7.6,56.759,22.787,385.833,26.4,410.452,16.385-3.339,131.092-32.031,185.505-48.534C439.3,1127.968,442.469,1129.149,420.653,1150.515Z" transform="translate(-46.411 -635.705)" fill="#b2e344"/>
      <path id="Ellipse-2" data-name="Ellipse" d="M778,112.886c-1.05-18.659,35.949-35.678,82.64-38.01s85.389,10.9,86.439,29.564-35.949,35.68-82.64,38.012S779.052,131.548,778,112.886Z" transform="translate(-727.205 -6.119)" fill="#b2e344"/>
      <g id="Group_275" data-name="Group 275" transform="translate(0 92.562)">
        <ellipse id="Ellipse-3" data-name="Ellipse" cx="142.007" cy="142.429" rx="142.007" ry="142.429" fill="#00a3d9"/>
        <g id="Page-1" transform="translate(50.497 33.323)">
          <path id="Shape" d="M108.491,50.633c-.483,1.342-.164,2.079,1.469,3.393,7.547,6.074,32.255,25.079,32.773,25.209,1.179.3,2.2-.358,5.429-3.467,6.431-6.2,22.646-22.615,33.066-33.642,1.178-1.384.553-1.938-.292-3.324-.8-1.232-8.2-12.862-16.884-20.946C154.813,8.644,144.265,1.063,141.366.274A1.662,1.662,0,0,0,138.9,1.2m-36.2,60.1c-.839.347-1.556,1.261-3.445,4.39-3.755,6.22-6.376,11.064-6.493,12-.206,1.647.63,2.6,3.2,3.66,9.276,3.814,14.409,8.079,20.411,16.957.995,1.472,2.064,2.96,2.376,3.307a2.775,2.775,0,0,0,3.143.579c1.255-.657,12.543-11.759,13.342-13.122.786-1.34.928-2.677.358-3.363-.628-.756-30.989-24.4-31.332-24.4a2.527,2.527,0,0,1-.617-.123,1.654,1.654,0,0,0-.941.11M66.4,84.609A53.307,53.307,0,0,0,37.1,98.968c-7.656,7.37-12.411,15.51-14.541,24.892-.772,3.4-.941,14-.329,20.613.846,9.143.52,16.317-.948,20.9-2.349,7.325-7.786,13.728-17.232,20.3a23.09,23.09,0,0,0-3.179,2.6c-3.669,4.176,4.539,6.8,20.178,6.441,24.779-.563,52.043-7.6,69.079-17.833,10.283-6.175,17.077-13.209,21.883-22.653a49.62,49.62,0,0,0,5.723-22.176,43.812,43.812,0,0,0-2.422-17.432A44.356,44.356,0,0,0,86.319,86.245,50.028,50.028,0,0,0,66.4,84.609" transform="matrix(0.985, 0.174, -0.174, 0.985, 33.815, 0)" fill="#7bdefe" fill-rule="evenodd"/>
        </g>
      </g>
      <path id="Path_278" data-name="Path 278" d="M45,757.489a20.805,20.805,0,0,1,38.321-11.3,20.8,20.8,0,0,1,39.5-4.844,20.874,20.874,0,1,1,0,17.057,20.795,20.795,0,0,1-36.51,2.769A20.812,20.812,0,0,1,45,757.489Z" transform="translate(28.689 -654.926)" fill="#b2e344"/>
      <path id="Path_280" data-name="Path 280" d="M422.684,1127.953c42.946-1.52,114.724-3.555,172.871-3.555,34.516,0,77.613-4.717,79.046,14.414.993,13.589-24.971,33.78-36.486,43.919-22.7,19.591-70.941,61.808-92.374,81.671,23.941,7.452,86.849,38.816,109.005,53.1,12.728,8.663,22.21,14.325,23.692,21.859,4.265,25.245-46.586,37.64-74.863,32.469-27.547-5.083-84.874-27.295-111.311-42.055a26.311,26.311,0,0,1-2.247-1.473l-27.22-83.614c22.579-15.3,99.3-65,115.83-75.344,7.29-4.187,5.019-9.565-7.744-8.9-26.515,1.331-71.57,3.278-108.745,4.335-13.856.394-65.747,6.874-65.747,6.874S401.538,1128.653,422.684,1127.953Z" transform="translate(-25.009 -651.262)" fill="#b2e344" stroke="rgba(0,0,0,0)" stroke-width="1"/>
      <path id="Path_281" data-name="Path 281" d="M500.661,1636.521c-23.48-63.139-44.712-121.193-54.167-149.161-6.787,34.15-17.352,90.56-27.545,145.427-15.256-1.547-30.812-6.417-38.4-8.488,19.59-92.785,38.312-179.561,43.541-203.256-20.995-22.482,2.594-31.088,8.287-34.5,46.179-54.247,176.329-216.887,168.88-248.623-.578-6.97-18.4-31.4-23.842-39.683-14.406-21.981-18.167-27.944-25.357-57.88-.788-7.884-.29-13.383,9.607-15.246,85.278-20.833,217.025,47,226.423,51.575,8.428,4.094,65.061,32.1,63.363,53.439-.879,10.785-15.064,18.442-27.491,24.9-18.795,9.84-43.09,22.88-98.106,19.561-22.819-1.614-47.533-3.228-58.624,7.112-27.43,27.986-129.68,137.939-179.679,197.08,4.784,8.4,2.237,34.641-20.314,39.484,9.652,32.583,65.113,186.209,75.634,213.287C531.349,1634.113,508.5,1636.255,500.661,1636.521Z" transform="translate(-82.087 -899.475)" fill="#b2e344"/>
      <path id="Path" d="M1110.322,225.776c12.082-7.828,32.325-22.326,25.337-51.618-16.933-70.97-75.841-52.051-127.147-63.4C963.749,100.85,920.9,71.71,883.1,74.807c-15.451,1.268-44.935,20.148-44.423,39.237s9.185,19.491,9.185,19.491,80.691,6.211,144.57,28.244C1018.49,170.771,1047.7,180.013,1110.322,225.776Z" transform="translate(-347.757 -6.317)" fill="#00a3d9"/>
      <path id="Path-2" data-name="Path" d="M882.508,115.807a30.948,30.948,0,0,0-.232-24.734c-5.85-13.685-12.272-15.6-17.624-18.113a9.028,9.028,0,0,0-9.3.691c-2.132,3.577,6.612,11.505,9.748,19.556a134.814,134.814,0,0,1,5.332,17.022Z" transform="translate(-245.469 -22.423)" fill="#00a3d9"/>
      <path id="Path-3" data-name="Path" d="M912.329,97.832c4.266,2.5,12.305,7.051,20.2,11.874a73.972,73.972,0,0,1,9.378,7,7.769,7.769,0,0,1,2.339,4.154c.472,2.534-4.643,6.44-7.067,5.39a17.012,17.012,0,0,1-4.036-2.726c-10.166-8.546-41.631-24.4-70.071-22.76-1.743.1-3.759,1.348-4.742-.6-.338-.67,1.586-2.64,2.745-3.726a6.838,6.838,0,0,1,3.084-1.374C878.444,91.8,891.826,90.41,912.329,97.832Z" transform="translate(-225.083 105.191)" fill="#224780"/>
      <path id="Path-4" data-name="Path" d="M886.329,92.481c16.366,6.353,28.127,16.64,37.277,30.195a10.054,10.054,0,0,1,1.547,4.271c.244,2.032-1.184,2.758-2.866,1.516a9.374,9.374,0,0,1-2.3-2.666c-6.449-10.6-48.766-25.879-69.289-27.318a20.674,20.674,0,0,1-3.7-.32c-4.793-1.255-3.065-5.53-3.142-6.424-.118-1.339.655-3.4,1.707-3.947a12.128,12.128,0,0,1,6.317-1.329C863.881,87.479,875.8,89.3,886.329,92.481Z" transform="translate(-316.82 67.72)" fill="#224780"/>
    </g>
  </g>
</svg>
