<svg xmlns="http://www.w3.org/2000/svg" width="300" height="140" viewBox="0 0 300 140">
  <g id="logo_300x140" transform="translate(-1752 -765)">
    <rect id="base" width="300" height="140" transform="translate(1752 765)" fill="#dbdbdb" opacity="0"/>
    <g id="elpixelista-iso" transform="translate(1752.611 777.385)">
      <path id="Path" d="M881.6,217.459c0-2.46-8.839-4.458-19.743-4.458s-19.738,2-19.738,4.458,8.835,4.453,19.738,4.453,19.743-1.993,19.743-4.453Z" transform="translate(-784.796 -103.098)" opacity="0.214"/>
      <path id="Path-2" data-name="Path" d="M805.345,220.609c0-1.9-8.136-3.444-18.175-3.444S769,218.708,769,220.609s8.136,3.442,18.17,3.442,18.175-1.538,18.175-3.442Z" transform="translate(-769 -104.017)" opacity="0.214"/>
      <path id="Path_277" data-name="Path 277" d="M59.767,841.443c-6.18-.094-9.472.109-14.06-1.756a1.353,1.353,0,0,1-.464-1.946,13.774,13.774,0,0,1,6.017-4.107,87.281,87.281,0,0,1,19.7-3.694c.237-7.307,9.532-49.035,10.873-55.081-5.275,1.3-11.738,2.833-16.126,3.53-1.177,0-2.991.949-3.529,0-.337-3.329-5.883-40.764-7.116-46.053,3.286-6.714,8.422-1.221,8.422-1.221-.822,6.1,2.054,41.707,2.875,44.352,1.771-.359,10.679-3.126,16.561-4.9,1.014-.258.925-.015,1.737-1.221,4.992-5.833,9.78-13.125,14.154-19.91.872-1.36,2.342-2.7,2.158-4.723a7.542,7.542,0,0,0-1.379-2.686c-1.557-2.364-3.161-4.587-3.939-7.806-.085-.848-.031-1.439,1.038-1.639,9.218-2.24,23.459,5.054,24.475,5.546.911.44,7.033,3.452,6.849,5.746-.1,1.16-1.628,1.983-2.972,2.678-2.032,1.058-3.754,1.287-6.587,1.828a22.36,22.36,0,0,1-4.018.275c-2.467-.173-5.138-.347-6.337.765-2.965,3.01-15.326,16.26-17.43,18.9-.6.751-2.03,2.575-.616,2.557,4.642-.163,8.608-.619,14.893-.619,3.731,0,8.389-.507,8.544,1.55.107,1.461-2.7,3.633-3.944,4.723-2.454,2.107-7.668,6.647-9.985,8.782,2.588.8,10.537,4.55,12.693,6.266,1.162.952,1.465.732,1.651,1.8.461,2.715-5.036,4.047-8.092,3.491a54.366,54.366,0,0,1-12.032-4.522,2.858,2.858,0,0,1-.243-.158L90.6,783.2c2.441-1.645,10.734-6.989,12.52-8.1.42-.566.543-1.029-.837-.957-3.959.2-11.741.522-15.755.544,1.043,3.5,5.733,16.6,5.806,17.054,1.642,3.979,10.261,27.528,15.556,34.3a67.951,67.951,0,0,1,20.538,0,17.767,17.767,0,0,1,6.018,2.257c1.221.858,1.416,1.207,1.452,2.47-.277,1.926-9.127,6.375-19.669,7.831-2.242.181-12.282,1.13-14.766-.027a6.4,6.4,0,0,1-.83-4.31c.207-1.338,1.413-2.349.83-4.523-1.667-6.263-14.321-38.912-17.22-47.443-2.073,10.375-7.042,34.4-6.841,45.18.087,5.022,2.17,7.952,1.444,11.3-.392,1.794-10.542,2.679-17.838,2.679C60.584,841.453,60.169,841.45,59.767,841.443Z" transform="translate(-43.3 -724.403)" fill="#b2e344"/>
      <path id="Path-3" data-name="Path" d="M868.031,90.837c1.306-.842,3.494-2.4,2.739-5.551-1.83-7.632-8.2-5.6-13.744-6.818-4.839-1.065-9.471-4.2-13.557-3.866-1.67.136-4.857,2.167-4.8,4.219s.993,2.1.993,2.1a74.288,74.288,0,0,1,15.627,3.037C858.1,84.922,861.262,85.916,868.031,90.837Z" transform="translate(-784.051 -72.568)" fill="#00a3d9"/>
      <path id="Path-4" data-name="Path" d="M858,76.711a3.313,3.313,0,0,0-.025-2.66,3.067,3.067,0,0,0-1.905-1.948.98.98,0,0,0-1,.074c-.23.385.715,1.237,1.054,2.1a14.451,14.451,0,0,1,.576,1.83Z" transform="translate(-787.585 -72)" fill="#00a3d9"/>
      <path id="Ellipse" d="M777.984,78.726c-.113-2.007,3.886-3.837,8.933-4.087s9.23,1.172,9.344,3.179-3.886,3.837-8.933,4.088S778.1,80.733,777.984,78.726Z" transform="translate(-770.94 -72.575)" fill="#acdc42"/>
      <ellipse id="Ellipse-2" data-name="Ellipse" cx="15.35" cy="15.316" rx="15.35" ry="15.316" transform="translate(1.552 4.622)" fill="#00a3d9"/>
      <path id="Path-5" data-name="Path" d="M864.128,93.005c.461.268,1.33.758,2.183,1.277a7.985,7.985,0,0,1,1.014.753.834.834,0,0,1,.253.447c.051.272-.5.692-.764.58a1.837,1.837,0,0,1-.436-.293,12.853,12.853,0,0,0-7.574-2.447c-.188.011-.406.145-.513-.065-.037-.072.171-.284.3-.4a.743.743,0,0,1,.333-.148A8.3,8.3,0,0,1,864.128,93.005Z" transform="translate(-788.289 -76.504)" fill="#224780"/>
      <path id="Path-6" data-name="Path" d="M848.232,87.078a8.374,8.374,0,0,1,4.03,3.247,1.081,1.081,0,0,1,.167.459c.026.219-.128.3-.31.163a1.009,1.009,0,0,1-.249-.287c-.7-1.14-5.271-2.783-7.49-2.938a2.248,2.248,0,0,1-.4-.034c-.518-.135-.331-.595-.34-.691a.5.5,0,0,1,.184-.424,1.317,1.317,0,0,1,.683-.143A18.634,18.634,0,0,1,848.232,87.078Z" transform="translate(-785.12 -75.182)" fill="#224780"/>
      <path id="Path_278" data-name="Path 278" d="M45,732.064a2.251,2.251,0,0,1,4.142-1.215,2.252,2.252,0,0,1,4.269-.521,2.245,2.245,0,1,1,0,1.834,2.253,2.253,0,0,1-3.947.3,2.251,2.251,0,0,1-4.465-.4Z" transform="translate(-35.482 -726.366)" fill="#acdc42"/>
      <g id="Page-1" transform="translate(7.012 8.189)">
        <path id="Shape" d="M11.739,5.449c-.052.144-.018.224.158.365.815.653,3.484,2.694,3.54,2.708.127.032.238-.039.587-.373.7-.667,2.45-2.434,3.577-3.621.127-.149.06-.209-.031-.358a12.979,12.979,0,0,0-1.823-2.251A9.974,9.974,0,0,0,15.3.029a.18.18,0,0,0-.266.1M11.113,6.6c-.091.037-.168.136-.373.473a8.558,8.558,0,0,0-.7,1.291c-.022.177.068.28.345.393a4.341,4.341,0,0,1,2.2,1.822c.107.158.223.318.256.355a.3.3,0,0,0,.34.062A15.363,15.363,0,0,0,14.626,9.58a.337.337,0,0,0,.039-.362C14.6,9.137,11.318,6.6,11.281,6.6a.274.274,0,0,1-.067-.013.18.18,0,0,0-.1.012M7.186,9.107a5.784,5.784,0,0,0-3.169,1.547,5.268,5.268,0,0,0-1.574,2.679,10.459,10.459,0,0,0-.038,2.217A6.1,6.1,0,0,1,2.3,17.8,4.39,4.39,0,0,1,.438,19.981a2.5,2.5,0,0,0-.344.279c-.4.45.49.731,2.18.691a16.5,16.5,0,0,0,7.468-1.925,5.873,5.873,0,0,0,2.367-2.438,5.323,5.323,0,0,0,.621-2.386,4.688,4.688,0,0,0-.26-1.875,4.771,4.771,0,0,0-3.13-3.048,5.43,5.43,0,0,0-2.152-.174" transform="matrix(0.985, 0.174, -0.174, 0.985, 3.639, 0)" fill="#7bdefe" fill-rule="evenodd"/>
      </g>
    </g>
    <g id="elpixelista-logo" transform="translate(1840.621 813.444)">
      <path id="Path_285" data-name="Path 285" d="M6617.323-707.656c.173-1.6.911-2.907-.986-3.46-.973-1.41.327-3.063,1.822-3.145.3-2.786,3.53-10.393-1.074-8.558-2.469-2.035.835-4.217,2.776-4.778.791-2.144,0-6.757,1.7-7.56,3.376-.521,2.943,2.948,2.717,5.171,1.743.218,3.589-1.468,5.554-2.176a6.876,6.876,0,0,0,3.568-1.067,7.07,7.07,0,0,1,3.179-1.081c2.25-2.007,5.894-1.677,8.449-3.689a2.5,2.5,0,0,1,2.329,1.845c-.318,2.486-5.943,1.722-8.209,3.992-9.825,4.955-18.376,2.947-18,16.691,3.662-.233,22.736-10.245,19.287-2.6-6.226,2.552-17.884,2.905-20.782,9.222-2.923,12.577.512,21.841,10.84,8.559,2.86-.832,9.008-9.77,9.732-2.9-2.957,1.931-6.335,3.712-8.808,6.411-4.182,4.4-7.458,6.251-9.865,6.251C6616.614-690.531,6615.323-698.29,6617.323-707.656Zm28.125-9.252c-.326-1.013.583-2.593-.358-3.13-1.666-3.018,2.844-5.063,3.94-2.782,2.066,4.333-4.662,15.01,2.6,14.606,2.533-.652,6.6-3.727,8.718-2.661-3,3.7-7.13,5.923-10.42,5.923C6645.795-704.951,6642.994-708.451,6645.448-716.908Z" transform="translate(-6616 738)" fill="#7bdffe" stroke="rgba(0,0,0,0)" stroke-width="1"/>
      <path id="Path_286" data-name="Path 286" d="M6626.4-697.2c-7.827-.075,1.931-23.085-.432-29.193.325-4.747-1.954-2.862-4.459-.977-2.2,1.651-4.564,3.3-5.508.495,3.277-5.645,33.652-19.754,32.012-3.674-1.251,7.726-7.76,12.99-12.608,18.459-2.73,3.576-8.908,4.273-8.99,8.792-.1.553.652,1.178.089,1.627h.771c.345,1,1,2.426-.207,3.132-.013.487.014,1.344-.594,1.344A.7.7,0,0,1,6626.4-697.2Zm3.591-34.6c-3.113,1.217-.621,5.966-1.025,8.748-.1,4.211-1.452,9.157-1.246,12.979,7.529-4.506,15.192-12.716,17.535-21.2-.719-2.676-2.6-3.57-4.879-3.57C6636.949-734.841,6632.621-732.82,6629.991-731.8Zm47.877,30.624c-4.556-5.291-1.205-13.327-.98-19.437,2.324-.994,4.868-3.345,7.863-2.861,2.819-.026,8.281-1.374,10.038.7.894-1.236,2.76-1.752,3.729-.16,2.051,3.905-4.56,15.373,2.372,14.3,1.166.128,2.559-.6,3.971-1.324,1.736-.895,3.5-1.789,4.9-1.086-1.861,3.645-13.673,10.01-15.368,2.425-.66-3.645.742-7.364.651-10.916a2.432,2.432,0,0,1-.562-2.7c-4.28,1.62-10.437.326-14.686,3.453-.366,2.122-.232,3.867,2.2,2.964a11.3,11.3,0,0,0,3.554-.318c2.905-.509,5.979-1.017,4.071,2.11-3.513.563-6.739,1.774-10.089,2.152-1.84,3.342-.382,11.69,5.178,6.851,6.082-7.942,6.225-3.873,3.514.2-1.576,2.368-4.119,4.736-7.019,4.736A5.891,5.891,0,0,1,6677.868-701.174Zm44.769-2.9c4.591.437,7.635-.992,8.124-2.42.472-1.38-1.438-2.76-6.641-2.458-17.345-2.436,5.233-20.9,5.564-14.185.138,2.346-1.378,2.052-2.7,2.561-1.324.282-2.245,1.994-3.693,2.44-8.586,9.288,11.459,2.83,11.185,11.051-.049,3.021-5.479,6.136-8.981,6.137C6723.63-700.954,6722.312-701.834,6722.637-704.079Zm29.906-1.717c5.846-5.262,9.177-13.379,11.393-20.415,4.156-2.271,4.685,2.775,5.413,7.82.654,4.54,1.471,9.08,5.237,8.289a1.816,1.816,0,0,1-.593,1.777c-3.822,1.111,2.93,1.4,3.263,2.83-1.571,2.342-6.513,2.227-7.506-.782-.957-3.073-4.464-1.224-6.973-1.07a4.242,4.242,0,0,1-2.372.3c-1.076-.056-2.149-.111-2.775.666-1.253,1.964-3.576,4.556-4.764,4.556C6752.111-701.828,6751.814-702.875,6752.543-705.8Zm11.481-12.978c-3.623,8.18-6.963,10.156,3.945,8.462-1.008-2.211-1.48-9.833-2.845-9.833C6764.812-720.146,6764.451-719.742,6764.024-718.774ZM6654.557-704.4c.913-7.288,8.873-3.135,1.9-12.135-.431-1.046-1.658-4.937.564-4.291,3.6,1.431,3.723,9.88,7.654,3.447,2.719-1.832,7.192-12.12,10.577-8.837-2.643,5.862-17.187,14.259-5.83,17.871a6.4,6.4,0,0,0,2.784.212,5.085,5.085,0,0,1,2.407.18c.927,2.381-2.833,2.716-4.79,2.755-3.5.765-5.543-3.165-8.278-3.735-1.217,1.026-4.256,3.443-2.759,5.21a4.623,4.623,0,0,1-2.55.924A1.549,1.549,0,0,1,6654.557-704.4Zm87.705-.346c-3.488-3.16-.321-9.869-3.011-13.009-1.771.261-3.713,1.149-5.533.618-4.625-5.484,18.585-3.792,21.39-5.933,6.422-2.136,2.567.076,5.148.407-.985,1.609-1.361,2.823-3.085,3.373-1.684-.7-3.9-.21-6.162.276a16.8,16.8,0,0,1-5.1.581c-.73.489-2.611.058-2.286.964.944,2.465-.187,5.984.936,8.507,2.538-.774,2.809.76,2.083,2.293-.591,1.25-1.844,2.5-3.068,2.5A1.832,1.832,0,0,1,6742.262-704.741Zm-30.809-13.716c-.152-1.546-.679-4.127,1.3-4.111,4.336,3.433-1.552,11.511,3.2,15.147a4.394,4.394,0,0,1-2.357.914C6710.008-706.507,6710.76-715.27,6711.453-718.457Zm-63.261,0c-.152-1.546-.678-4.127,1.3-4.111,4.336,3.433-1.553,11.511,3.2,15.147a4.394,4.394,0,0,1-2.357.914C6646.747-706.507,6647.5-715.27,6648.192-718.457Z" transform="translate(-6571.989 742.578)" fill="#00a3d8" stroke="rgba(0,0,0,0)" stroke-width="1"/>
    </g>
  </g>
</svg>
