<svg xmlns="http://www.w3.org/2000/svg" width="200" height="200" viewBox="0 0 200 200">
  <g id="logo_200x200_icon" transform="translate(-1583 -7344)">
    <g id="Group_289" data-name="Group 289" transform="translate(1583 7344)">
      <circle id="Ellipse" cx="100" cy="100" r="100" transform="translate(0 0)" fill="#224780"/>
      <path id="Path_282" data-name="Path 282" d="M178.29,925.091c-2.727,13.98-8.074,40.616-11.011,62.728q-4.7-1.318-9.2-3.073c3.752-19.758,8.262-40.741,8.729-44.394-7.531,5.568-28.88,16.336-32.533,17.1-2.349.485-5.511,1.237-7.439-.231-1.688-1.284-2.178-3.905-1.186-6.424,1.1-2.819,2.738-4.379,4.747-6.826,3.3-4.056,14.171-12.109,19-15.262-7.521-7.359-28.436-31.562-26.918-36.957,1.026-1.86,4.484,0,6.732,0,14.149,2.288,39.583,9.253,46.3,10.849,2.084.931,2.334-1.436,3.908-3.683,7.869-11.657,18.319-24.794,26.672-38.068,1.666-2.658,4.462-5.268,4.118-9.242-.123-1.456-1.516-3.5-2.634-5.245-2.968-4.621-6.037-8.964-7.52-15.26-.16-1.664-.057-2.819,1.985-3.211,17.584-4.378,44.764,9.888,46.7,10.847,1.736.856,13.417,6.748,13.066,11.241-.183,2.265-3.105,3.87-5.672,5.234-3.88,2.068-7.953,3.2-13.35,4.25a38.98,38.98,0,0,1-6.89-.137c-4.705-.337-9.8-.674-12.087,1.5-5.659,5.88-29.243,31.792-33.25,36.956-1.153,1.478-5.674,4.909,0,4.818,8.855-.313,15.246-1.029,27.237-1.029,7.12,0,16.009-.982,16.306,3.038.206,2.854-5.158,7.105-7.532,9.231-4.677,4.124-14.627,13-19.043,17.179,4.931,1.57,20.094,8.9,24.215,12.257,2.213,1.859,2.794,1.421,3.149,3.5.878,5.315-9.608,7.926-15.439,6.829-5.683-1.063-17.506-5.73-22.959-8.838-.639-.358-2.017-1.686-2.772-1.2,2.124,5.271,10.344,28.07,18.569,46.36a99.988,99.988,0,0,1-10.154,1.306C193.659,967.539,181.937,936.08,178.29,925.091Zm34.426-15.931c-7.554.381-22.4,1.017-30.066,1.063,2,6.849,3.377,11.574,5.544,18.079.97-.89,22.252-14.8,26.119-17.271.746-1.034,1-1.886-1.1-1.886Q212.985,909.146,212.716,909.16ZM140.4,904.2c9.471,7.348,19.979,17.017,29.987,23.326,1.176-6.124,2.34-12.374,3.56-18.1-7.622-1.64-28.743-7.693-33.182-8.606C138.557,901.224,138.7,902.517,140.4,904.2Z" transform="translate(-94.358 -791.529)" fill="#b2e344"/>
      <g id="Group_285" data-name="Group 285" transform="translate(110.048 20.287)">
        <path id="Path" d="M894.205,105.508c2.47-1.6,6.609-4.567,5.18-10.559C895.924,80.43,883.88,84.3,873.391,81.978c-9.152-2.026-17.912-7.987-25.641-7.354-3.159.259-9.187,4.122-9.082,8.027s1.878,3.987,1.878,3.987,16.5,1.271,29.557,5.778C875.431,94.256,881.4,96.146,894.205,105.508Z" transform="translate(-838.667 -70.756)" fill="#00a3d9"/>
        <path id="Path-2" data-name="Path" d="M860.645,80.961a6.334,6.334,0,0,0-.047-5.06,5.815,5.815,0,0,0-3.6-3.705,1.845,1.845,0,0,0-1.9.141c-.436.732,1.352,2.354,1.993,4a27.594,27.594,0,0,1,1.09,3.482Z" transform="translate(-830.77 -72)" fill="#00a3d9"/>
        <path id="Path-3" data-name="Path" d="M869.765,93.573c.906.53,2.613,1.5,4.289,2.523a15.719,15.719,0,0,1,1.992,1.488,1.652,1.652,0,0,1,.5.883c.1.539-.986,1.369-1.5,1.145a3.613,3.613,0,0,1-.857-.579c-2.159-1.816-8.842-5.186-14.882-4.837-.37.022-.8.287-1.007-.128-.072-.142.337-.561.583-.792a1.451,1.451,0,0,1,.655-.292A16.221,16.221,0,0,1,869.765,93.573Z" transform="translate(-829.785 -61.069)" fill="#224780"/>
        <path id="Path-4" data-name="Path" d="M852.687,87.714A16.472,16.472,0,0,1,860.6,94.13a2.136,2.136,0,0,1,.328.908c.052.432-.252.586-.609.322a1.992,1.992,0,0,1-.488-.567c-1.37-2.252-10.357-5.5-14.716-5.805a4.388,4.388,0,0,1-.786-.068c-1.018-.267-.651-1.175-.667-1.365a1,1,0,0,1,.362-.839,2.575,2.575,0,0,1,1.342-.282A36.426,36.426,0,0,1,852.687,87.714Z" transform="translate(-837.714 -64.31)" fill="#224780"/>
      </g>
    </g>
  </g>
</svg>
