<svg xmlns="http://www.w3.org/2000/svg" width="410" height="140" viewBox="0 0 410 140">
  <g id="logo_410x140-text-big" transform="translate(-1752 -765)">
    <rect id="base" width="410" height="140" transform="translate(1752 765)" fill="#dbdbdb" opacity="0"/>
    <g id="elpixelista-iso" transform="translate(1752.611 777.385)">
      <path id="Path" d="M881.6,217.459c0-2.46-8.839-4.458-19.743-4.458s-19.738,2-19.738,4.458,8.835,4.453,19.738,4.453,19.743-1.993,19.743-4.453Z" transform="translate(-784.796 -103.098)" opacity="0.214"/>
      <path id="Path-2" data-name="Path" d="M805.345,220.609c0-1.9-8.136-3.444-18.175-3.444S769,218.708,769,220.609s8.136,3.442,18.17,3.442,18.175-1.538,18.175-3.442Z" transform="translate(-769 -104.017)" opacity="0.214"/>
      <path id="Path_277" data-name="Path 277" d="M59.767,841.443c-6.18-.094-9.472.109-14.06-1.756a1.353,1.353,0,0,1-.464-1.946,13.774,13.774,0,0,1,6.017-4.107,87.281,87.281,0,0,1,19.7-3.694c.237-7.307,9.532-49.035,10.873-55.081-5.275,1.3-11.738,2.833-16.126,3.53-1.177,0-2.991.949-3.529,0-.337-3.329-5.883-40.764-7.116-46.053,3.286-6.714,8.422-1.221,8.422-1.221-.822,6.1,2.054,41.707,2.875,44.352,1.771-.359,10.679-3.126,16.561-4.9,1.014-.258.925-.015,1.737-1.221,4.992-5.833,9.78-13.125,14.154-19.91.872-1.36,2.342-2.7,2.158-4.723a7.542,7.542,0,0,0-1.379-2.686c-1.557-2.364-3.161-4.587-3.939-7.806-.085-.848-.031-1.439,1.038-1.639,9.218-2.24,23.459,5.054,24.475,5.546.911.44,7.033,3.452,6.849,5.746-.1,1.16-1.628,1.983-2.972,2.678-2.032,1.058-3.754,1.287-6.587,1.828a22.36,22.36,0,0,1-4.018.275c-2.467-.173-5.138-.347-6.337.765-2.965,3.01-15.326,16.26-17.43,18.9-.6.751-2.03,2.575-.616,2.557,4.642-.163,8.608-.619,14.893-.619,3.731,0,8.389-.507,8.544,1.55.107,1.461-2.7,3.633-3.944,4.723-2.454,2.107-7.668,6.647-9.985,8.782,2.588.8,10.537,4.55,12.693,6.266,1.162.952,1.465.732,1.651,1.8.461,2.715-5.036,4.047-8.092,3.491a54.366,54.366,0,0,1-12.032-4.522,2.858,2.858,0,0,1-.243-.158L90.6,783.2c2.441-1.645,10.734-6.989,12.52-8.1.42-.566.543-1.029-.837-.957-3.959.2-11.741.522-15.755.544,1.043,3.5,5.733,16.6,5.806,17.054,1.642,3.979,10.261,27.528,15.556,34.3a67.951,67.951,0,0,1,20.538,0,17.767,17.767,0,0,1,6.018,2.257c1.221.858,1.416,1.207,1.452,2.47-.277,1.926-9.127,6.375-19.669,7.831-2.242.181-12.282,1.13-14.766-.027a6.4,6.4,0,0,1-.83-4.31c.207-1.338,1.413-2.349.83-4.523-1.667-6.263-14.321-38.912-17.22-47.443-2.073,10.375-7.042,34.4-6.841,45.18.087,5.022,2.17,7.952,1.444,11.3-.392,1.794-10.542,2.679-17.838,2.679C60.584,841.453,60.169,841.45,59.767,841.443Z" transform="translate(-43.3 -724.403)" fill="#b2e344"/>
      <path id="Path-3" data-name="Path" d="M868.031,90.837c1.306-.842,3.494-2.4,2.739-5.551-1.83-7.632-8.2-5.6-13.744-6.818-4.839-1.065-9.471-4.2-13.557-3.866-1.67.136-4.857,2.167-4.8,4.219s.993,2.1.993,2.1a74.288,74.288,0,0,1,15.627,3.037C858.1,84.922,861.262,85.916,868.031,90.837Z" transform="translate(-784.051 -72.568)" fill="#00a3d9"/>
      <path id="Path-4" data-name="Path" d="M858,76.711a3.313,3.313,0,0,0-.025-2.66,3.067,3.067,0,0,0-1.905-1.948.98.98,0,0,0-1,.074c-.23.385.715,1.237,1.054,2.1a14.451,14.451,0,0,1,.576,1.83Z" transform="translate(-787.585 -72)" fill="#00a3d9"/>
      <path id="Ellipse" d="M777.984,78.726c-.113-2.007,3.886-3.837,8.933-4.087s9.23,1.172,9.344,3.179-3.886,3.837-8.933,4.088S778.1,80.733,777.984,78.726Z" transform="translate(-770.94 -72.575)" fill="#acdc42"/>
      <ellipse id="Ellipse-2" data-name="Ellipse" cx="15.35" cy="15.316" rx="15.35" ry="15.316" transform="translate(1.552 4.622)" fill="#00a3d9"/>
      <path id="Path-5" data-name="Path" d="M864.128,93.005c.461.268,1.33.758,2.183,1.277a7.985,7.985,0,0,1,1.014.753.834.834,0,0,1,.253.447c.051.272-.5.692-.764.58a1.837,1.837,0,0,1-.436-.293,12.853,12.853,0,0,0-7.574-2.447c-.188.011-.406.145-.513-.065-.037-.072.171-.284.3-.4a.743.743,0,0,1,.333-.148A8.3,8.3,0,0,1,864.128,93.005Z" transform="translate(-788.289 -76.504)" fill="#224780"/>
      <path id="Path-6" data-name="Path" d="M848.232,87.078a8.374,8.374,0,0,1,4.03,3.247,1.081,1.081,0,0,1,.167.459c.026.219-.128.3-.31.163a1.009,1.009,0,0,1-.249-.287c-.7-1.14-5.271-2.783-7.49-2.938a2.248,2.248,0,0,1-.4-.034c-.518-.135-.331-.595-.34-.691a.5.5,0,0,1,.184-.424,1.317,1.317,0,0,1,.683-.143A18.634,18.634,0,0,1,848.232,87.078Z" transform="translate(-785.12 -75.182)" fill="#224780"/>
      <path id="Path_278" data-name="Path 278" d="M45,732.064a2.251,2.251,0,0,1,4.142-1.215,2.252,2.252,0,0,1,4.269-.521,2.245,2.245,0,1,1,0,1.834,2.253,2.253,0,0,1-3.947.3,2.251,2.251,0,0,1-4.465-.4Z" transform="translate(-35.482 -726.366)" fill="#acdc42"/>
      <g id="Page-1" transform="translate(7.012 8.189)">
        <path id="Shape" d="M11.739,5.449c-.052.144-.018.224.158.365.815.653,3.484,2.694,3.54,2.708.127.032.238-.039.587-.373.7-.667,2.45-2.434,3.577-3.621.127-.149.06-.209-.031-.358a12.979,12.979,0,0,0-1.823-2.251A9.974,9.974,0,0,0,15.3.029a.18.18,0,0,0-.266.1M11.113,6.6c-.091.037-.168.136-.373.473a8.558,8.558,0,0,0-.7,1.291c-.022.177.068.28.345.393a4.341,4.341,0,0,1,2.2,1.822c.107.158.223.318.256.355a.3.3,0,0,0,.34.062A15.363,15.363,0,0,0,14.626,9.58a.337.337,0,0,0,.039-.362C14.6,9.137,11.318,6.6,11.281,6.6a.274.274,0,0,1-.067-.013.18.18,0,0,0-.1.012M7.186,9.107a5.784,5.784,0,0,0-3.169,1.547,5.268,5.268,0,0,0-1.574,2.679,10.459,10.459,0,0,0-.038,2.217A6.1,6.1,0,0,1,2.3,17.8,4.39,4.39,0,0,1,.438,19.981a2.5,2.5,0,0,0-.344.279c-.4.45.49.731,2.18.691a16.5,16.5,0,0,0,7.468-1.925,5.873,5.873,0,0,0,2.367-2.438,5.323,5.323,0,0,0,.621-2.386,4.688,4.688,0,0,0-.26-1.875,4.771,4.771,0,0,0-3.13-3.048,5.43,5.43,0,0,0-2.152-.174" transform="matrix(0.985, 0.174, -0.174, 0.985, 3.639, 0)" fill="#7bdefe" fill-rule="evenodd"/>
      </g>
    </g>
    <g id="elpixelista-logo" transform="translate(1854.621 804.323)">
      <path id="Path_285" data-name="Path 285" d="M6617.931-693.708c.251-2.339,1.329-4.243-1.439-5.051-1.421-2.058.477-4.47,2.659-4.591.444-4.067,5.152-15.17-1.568-12.491-3.6-2.97,1.219-6.155,4.052-6.974,1.154-3.13,0-9.863,2.482-11.035,4.928-.76,4.3,4.3,3.967,7.548,2.544.318,5.239-2.143,8.1-3.177,1.66.191,3.466-.683,5.208-1.558,1.664-.834,3.271-1.668,4.641-1.578,3.285-2.93,8.6-2.447,12.333-5.385a3.651,3.651,0,0,1,3.4,2.693c-.463,3.629-8.675,2.514-11.982,5.827-14.342,7.233-26.824,4.3-26.278,24.363,5.346-.34,33.187-14.954,28.153-3.8-9.088,3.725-26.1,4.241-30.334,13.461-4.267,18.358.747,31.881,15.822,12.492,4.174-1.215,13.149-14.26,14.206-4.235-4.316,2.818-9.247,5.418-12.856,9.357-6.1,6.43-10.886,9.124-14.4,9.124C6616.9-668.713,6615.011-680.037,6617.931-693.708Zm41.052-13.5c-.476-1.478.851-3.785-.524-4.568-2.431-4.405,4.152-7.391,5.751-4.061,3.017,6.325-6.8,21.909,3.791,21.319,3.7-.951,9.631-5.44,12.726-3.884-4.374,5.406-10.408,8.646-15.209,8.646C6659.489-689.761,6655.4-694.87,6658.983-707.213Z" transform="translate(-6616 738)" fill="#7bdffe" stroke="rgba(0,0,0,0)" stroke-width="1"/>
      <path id="Path_286" data-name="Path 286" d="M6631.18-678.445c-11.424-.109,2.818-33.7-.631-42.611.476-6.929-2.853-4.177-6.507-1.426-3.2,2.41-6.663,4.821-8.04.722,4.784-8.24,49.121-28.834,46.726-5.363-1.826,11.277-11.327,18.961-18.4,26.944-3.986,5.22-13,6.237-13.123,12.833-.139.807.952,1.72.129,2.374h1.126c.5,1.458,1.462,3.541-.3,4.571-.018.711.021,1.962-.865,1.962A.968.968,0,0,1,6631.18-678.445Zm5.242-50.5c-4.545,1.776-.908,8.708-1.5,12.769-.149,6.146-2.119,13.366-1.818,18.944,10.99-6.577,22.176-18.56,25.6-30.943-1.05-3.906-3.794-5.211-7.123-5.211C6646.577-733.389,6640.26-730.439,6636.421-728.948Zm69.884,44.7c-6.65-7.724-1.76-19.452-1.432-28.371,3.391-1.45,7.1-4.882,11.476-4.176,4.116-.039,12.089-2.006,14.653,1.024,1.3-1.8,4.029-2.558,5.442-.233,2.994,5.7-6.655,22.438,3.461,20.879,1.7.187,3.736-.873,5.8-1.932,2.535-1.306,5.111-2.611,7.155-1.585-2.717,5.321-19.957,14.611-22.431,3.539-.965-5.32,1.082-10.749.951-15.934a3.549,3.549,0,0,1-.821-3.939c-6.248,2.365-15.234.476-21.437,5.04-.534,3.1-.339,5.644,3.2,4.327,1.072.267,3.1-.1,5.188-.463,4.241-.743,8.727-1.485,5.942,3.079-5.126.822-9.835,2.589-14.726,3.142-2.686,4.878-.557,17.064,7.558,10,8.878-11.592,9.085-5.653,5.129.286-2.3,3.456-6.013,6.913-10.245,6.913A8.593,8.593,0,0,1,6706.305-684.248Zm65.345-4.24c6.7.637,11.144-1.448,11.857-3.533.689-2.014-2.1-4.029-9.692-3.588-25.317-3.556,7.638-30.51,8.123-20.7.2,3.425-2.012,3-3.943,3.738-1.934.412-3.277,2.911-5.392,3.561-12.532,13.557,16.727,4.131,16.326,16.13-.071,4.41-8,8.957-13.11,8.958C6773.1-683.926,6771.174-685.211,6771.65-688.488Zm43.651-2.507c8.532-7.681,13.395-19.529,16.629-29.8,6.066-3.315,6.838,4.05,7.9,11.414.956,6.627,2.147,13.254,7.645,12.1a2.652,2.652,0,0,1-.866,2.594c-5.578,1.621,4.277,2.038,4.763,4.131-2.293,3.418-9.505,3.25-10.955-1.142-1.4-4.485-6.516-1.787-10.178-1.562a6.189,6.189,0,0,1-3.462.435c-1.571-.081-3.138-.163-4.051.972-1.829,2.867-5.22,6.649-6.953,6.65C6814.673-685.2,6814.238-686.73,6815.3-690.994Zm16.759-18.943c-5.289,11.94-10.164,14.825,5.758,12.351-1.47-3.227-2.16-14.353-4.152-14.353C6833.209-711.94,6832.684-711.35,6832.061-709.937ZM6672.277-688.95c1.334-10.637,12.952-4.577,2.77-17.713-.63-1.526-2.421-7.206.823-6.264,5.256,2.089,5.434,14.421,11.172,5.031,3.969-2.674,10.5-17.691,15.439-12.9-3.857,8.557-25.086,20.813-8.51,26.086a9.34,9.34,0,0,0,4.064.31,7.422,7.422,0,0,1,3.514.262c1.353,3.476-4.136,3.964-6.993,4.022-5.113,1.116-8.09-4.62-12.083-5.452-1.776,1.5-6.212,5.026-4.026,7.6a6.749,6.749,0,0,1-3.722,1.348A2.261,2.261,0,0,1,6672.277-688.95Zm128.018-.5c-5.091-4.612-.469-14.4-4.395-18.989-2.585.382-5.419,1.677-8.075.9-6.752-8,27.127-5.536,31.22-8.661,9.374-3.119,3.748.111,7.515.594-1.438,2.349-1.987,4.12-4.5,4.923-2.456-1.017-5.694-.307-8.993.4a24.546,24.546,0,0,1-7.441.848c-1.064.714-3.81.085-3.336,1.407,1.378,3.6-.273,8.735,1.366,12.418,3.7-1.13,4.1,1.109,3.041,3.347-.862,1.825-2.691,3.649-4.478,3.649A2.674,2.674,0,0,1,6800.295-689.455Zm-44.969-20.02c-.223-2.256-.991-6.023,1.9-6,6.33,5.011-2.265,16.8,4.676,22.109a6.416,6.416,0,0,1-3.442,1.334C6753.216-692.031,6754.314-704.822,6755.326-709.475Zm-92.338,0c-.223-2.256-.989-6.023,1.9-6,6.329,5.011-2.267,16.8,4.675,22.109a6.411,6.411,0,0,1-3.441,1.334C6660.877-692.031,6661.976-704.822,6662.988-709.475Z" transform="translate(-6551.759 744.683)" fill="#00a3d8" stroke="rgba(0,0,0,0)" stroke-width="1"/>
    </g>
  </g>
</svg>
