<svg xmlns="http://www.w3.org/2000/svg" width="400" height="140" viewBox="0 0 400 140">
  <g id="logo_400x140-text-big" transform="translate(-1752 -765)">
    <rect id="base" width="400" height="140" transform="translate(1752 765)" fill="#dbdbdb" opacity="0"/>
    <g id="elpixelista-iso" transform="translate(1752.611 777.385)">
      <path id="Path" d="M881.6,217.459c0-2.46-8.839-4.458-19.743-4.458s-19.738,2-19.738,4.458,8.835,4.453,19.738,4.453,19.743-1.993,19.743-4.453Z" transform="translate(-784.796 -103.098)" opacity="0.214"/>
      <path id="Path-2" data-name="Path" d="M805.345,220.609c0-1.9-8.136-3.444-18.175-3.444S769,218.708,769,220.609s8.136,3.442,18.17,3.442,18.175-1.538,18.175-3.442Z" transform="translate(-769 -104.017)" opacity="0.214"/>
      <path id="Path_277" data-name="Path 277" d="M59.767,841.443c-6.18-.094-9.472.109-14.06-1.756a1.353,1.353,0,0,1-.464-1.946,13.774,13.774,0,0,1,6.017-4.107,87.281,87.281,0,0,1,19.7-3.694c.237-7.307,9.532-49.035,10.873-55.081-5.275,1.3-11.738,2.833-16.126,3.53-1.177,0-2.991.949-3.529,0-.337-3.329-5.883-40.764-7.116-46.053,3.286-6.714,8.422-1.221,8.422-1.221-.822,6.1,2.054,41.707,2.875,44.352,1.771-.359,10.679-3.126,16.561-4.9,1.014-.258.925-.015,1.737-1.221,4.992-5.833,9.78-13.125,14.154-19.91.872-1.36,2.342-2.7,2.158-4.723a7.542,7.542,0,0,0-1.379-2.686c-1.557-2.364-3.161-4.587-3.939-7.806-.085-.848-.031-1.439,1.038-1.639,9.218-2.24,23.459,5.054,24.475,5.546.911.44,7.033,3.452,6.849,5.746-.1,1.16-1.628,1.983-2.972,2.678-2.032,1.058-3.754,1.287-6.587,1.828a22.36,22.36,0,0,1-4.018.275c-2.467-.173-5.138-.347-6.337.765-2.965,3.01-15.326,16.26-17.43,18.9-.6.751-2.03,2.575-.616,2.557,4.642-.163,8.608-.619,14.893-.619,3.731,0,8.389-.507,8.544,1.55.107,1.461-2.7,3.633-3.944,4.723-2.454,2.107-7.668,6.647-9.985,8.782,2.588.8,10.537,4.55,12.693,6.266,1.162.952,1.465.732,1.651,1.8.461,2.715-5.036,4.047-8.092,3.491a54.366,54.366,0,0,1-12.032-4.522,2.858,2.858,0,0,1-.243-.158L90.6,783.2c2.441-1.645,10.734-6.989,12.52-8.1.42-.566.543-1.029-.837-.957-3.959.2-11.741.522-15.755.544,1.043,3.5,5.733,16.6,5.806,17.054,1.642,3.979,10.261,27.528,15.556,34.3a67.951,67.951,0,0,1,20.538,0,17.767,17.767,0,0,1,6.018,2.257c1.221.858,1.416,1.207,1.452,2.47-.277,1.926-9.127,6.375-19.669,7.831-2.242.181-12.282,1.13-14.766-.027a6.4,6.4,0,0,1-.83-4.31c.207-1.338,1.413-2.349.83-4.523-1.667-6.263-14.321-38.912-17.22-47.443-2.073,10.375-7.042,34.4-6.841,45.18.087,5.022,2.17,7.952,1.444,11.3-.392,1.794-10.542,2.679-17.838,2.679C60.584,841.453,60.169,841.45,59.767,841.443Z" transform="translate(-43.3 -724.403)" fill="#b2e344"/>
      <path id="Path-3" data-name="Path" d="M868.031,90.837c1.306-.842,3.494-2.4,2.739-5.551-1.83-7.632-8.2-5.6-13.744-6.818-4.839-1.065-9.471-4.2-13.557-3.866-1.67.136-4.857,2.167-4.8,4.219s.993,2.1.993,2.1a74.288,74.288,0,0,1,15.627,3.037C858.1,84.922,861.262,85.916,868.031,90.837Z" transform="translate(-784.051 -72.568)" fill="#00a3d9"/>
      <path id="Path-4" data-name="Path" d="M858,76.711a3.313,3.313,0,0,0-.025-2.66,3.067,3.067,0,0,0-1.905-1.948.98.98,0,0,0-1,.074c-.23.385.715,1.237,1.054,2.1a14.451,14.451,0,0,1,.576,1.83Z" transform="translate(-787.585 -72)" fill="#00a3d9"/>
      <path id="Ellipse" d="M777.984,78.726c-.113-2.007,3.886-3.837,8.933-4.087s9.23,1.172,9.344,3.179-3.886,3.837-8.933,4.088S778.1,80.733,777.984,78.726Z" transform="translate(-770.94 -72.575)" fill="#acdc42"/>
      <ellipse id="Ellipse-2" data-name="Ellipse" cx="15.35" cy="15.316" rx="15.35" ry="15.316" transform="translate(1.552 4.622)" fill="#00a3d9"/>
      <path id="Path-5" data-name="Path" d="M864.128,93.005c.461.268,1.33.758,2.183,1.277a7.985,7.985,0,0,1,1.014.753.834.834,0,0,1,.253.447c.051.272-.5.692-.764.58a1.837,1.837,0,0,1-.436-.293,12.853,12.853,0,0,0-7.574-2.447c-.188.011-.406.145-.513-.065-.037-.072.171-.284.3-.4a.743.743,0,0,1,.333-.148A8.3,8.3,0,0,1,864.128,93.005Z" transform="translate(-788.289 -76.504)" fill="#224780"/>
      <path id="Path-6" data-name="Path" d="M848.232,87.078a8.374,8.374,0,0,1,4.03,3.247,1.081,1.081,0,0,1,.167.459c.026.219-.128.3-.31.163a1.009,1.009,0,0,1-.249-.287c-.7-1.14-5.271-2.783-7.49-2.938a2.248,2.248,0,0,1-.4-.034c-.518-.135-.331-.595-.34-.691a.5.5,0,0,1,.184-.424,1.317,1.317,0,0,1,.683-.143A18.634,18.634,0,0,1,848.232,87.078Z" transform="translate(-785.12 -75.182)" fill="#224780"/>
      <path id="Path_278" data-name="Path 278" d="M45,732.064a2.251,2.251,0,0,1,4.142-1.215,2.252,2.252,0,0,1,4.269-.521,2.245,2.245,0,1,1,0,1.834,2.253,2.253,0,0,1-3.947.3,2.251,2.251,0,0,1-4.465-.4Z" transform="translate(-35.482 -726.366)" fill="#acdc42"/>
      <g id="Page-1" transform="translate(7.012 8.189)">
        <path id="Shape" d="M11.739,5.449c-.052.144-.018.224.158.365.815.653,3.484,2.694,3.54,2.708.127.032.238-.039.587-.373.7-.667,2.45-2.434,3.577-3.621.127-.149.06-.209-.031-.358a12.979,12.979,0,0,0-1.823-2.251A9.974,9.974,0,0,0,15.3.029a.18.18,0,0,0-.266.1M11.113,6.6c-.091.037-.168.136-.373.473a8.558,8.558,0,0,0-.7,1.291c-.022.177.068.28.345.393a4.341,4.341,0,0,1,2.2,1.822c.107.158.223.318.256.355a.3.3,0,0,0,.34.062A15.363,15.363,0,0,0,14.626,9.58a.337.337,0,0,0,.039-.362C14.6,9.137,11.318,6.6,11.281,6.6a.274.274,0,0,1-.067-.013.18.18,0,0,0-.1.012M7.186,9.107a5.784,5.784,0,0,0-3.169,1.547,5.268,5.268,0,0,0-1.574,2.679,10.459,10.459,0,0,0-.038,2.217A6.1,6.1,0,0,1,2.3,17.8,4.39,4.39,0,0,1,.438,19.981a2.5,2.5,0,0,0-.344.279c-.4.45.49.731,2.18.691a16.5,16.5,0,0,0,7.468-1.925,5.873,5.873,0,0,0,2.367-2.438,5.323,5.323,0,0,0,.621-2.386,4.688,4.688,0,0,0-.26-1.875,4.771,4.771,0,0,0-3.13-3.048,5.43,5.43,0,0,0-2.152-.174" transform="matrix(0.985, 0.174, -0.174, 0.985, 3.639, 0)" fill="#7bdefe" fill-rule="evenodd"/>
      </g>
    </g>
    <g id="elpixelista-logo" transform="translate(1854.621 807.323)">
      <path id="Path_285" data-name="Path 285" d="M6617.81-696.479c.236-2.193,1.246-3.978-1.35-4.735-1.333-1.929.447-4.191,2.493-4.3.416-3.813,4.83-14.221-1.47-11.71-3.379-2.784,1.143-5.77,3.8-6.538,1.082-2.934,0-9.246,2.327-10.344,4.62-.712,4.027,4.034,3.719,7.076,2.385.3,4.912-2.009,7.6-2.978,1.556.179,3.249-.641,4.882-1.461,1.559-.782,3.066-1.564,4.35-1.479,3.08-2.746,8.065-2.294,11.562-5.048a3.423,3.423,0,0,1,3.187,2.525c-.435,3.4-8.132,2.356-11.232,5.462-13.445,6.78-25.146,4.033-24.635,22.839,5.011-.319,31.111-14.019,26.392-3.559-8.519,3.492-24.471,3.976-28.437,12.619-4,17.21.7,29.886,14.833,11.711,3.913-1.139,12.327-13.368,13.317-3.97-4.046,2.642-8.668,5.08-12.052,8.772-5.723,6.027-10.206,8.553-13.5,8.554C6616.839-673.047,6615.072-683.663,6617.81-696.479Zm38.484-12.66c-.446-1.386.8-3.548-.491-4.282-2.279-4.129,3.892-6.928,5.392-3.807,2.828,5.929-6.379,20.538,3.554,19.986,3.466-.892,9.028-5.1,11.93-3.641-4.1,5.068-9.757,8.105-14.258,8.105C6656.768-692.778,6652.936-697.568,6656.294-709.139Z" transform="translate(-6616 738)" fill="#7bdffe" stroke="rgba(0,0,0,0)" stroke-width="1"/>
      <path id="Path_286" data-name="Path 286" d="M6630.23-682.171c-10.71-.1,2.642-31.588-.592-39.946.446-6.5-2.674-3.916-6.1-1.337-3,2.259-6.246,4.519-7.537.677,4.485-7.725,46.048-27.031,43.8-5.027-1.712,10.571-10.619,17.774-17.252,25.258-3.737,4.894-12.19,5.847-12.3,12.031-.13.757.893,1.612.121,2.226h1.056c.471,1.367,1.371,3.319-.284,4.285-.017.666.019,1.839-.811,1.839A.9.9,0,0,1,6630.23-682.171Zm4.914-47.344c-4.261,1.665-.851,8.163-1.4,11.97-.14,5.762-1.986,12.53-1.7,17.759,10.3-6.165,20.789-17.4,23.995-29.007-.984-3.662-3.557-4.885-6.677-4.885C6644.664-733.677,6638.742-730.912,6635.144-729.514Zm65.512,41.9c-6.234-7.24-1.65-18.235-1.342-26.6,3.179-1.359,6.66-4.576,10.758-3.915,3.859-.036,11.333-1.88,13.736.96,1.222-1.692,3.777-2.4,5.1-.219,2.806,5.344-6.239,21.035,3.245,19.573,1.6.175,3.5-.818,5.434-1.812,2.376-1.224,4.792-2.448,6.707-1.486-2.547,4.988-18.708,13.7-21.028,3.318-.9-4.988,1.014-10.076.891-14.937a3.327,3.327,0,0,1-.77-3.693c-5.857,2.217-14.281.446-20.1,4.724-.5,2.9-.318,5.291,3,4.056,1.005.25,2.906-.092,4.863-.434,3.976-.7,8.181-1.392,5.57,2.887-4.805.771-9.22,2.427-13.8,2.945-2.518,4.573-.522,16,7.084,9.374,8.323-10.867,8.517-5.3,4.808.268-2.156,3.24-5.636,6.481-9.6,6.481A8.055,8.055,0,0,1,6700.656-687.61Zm61.257-3.975c6.282.6,10.447-1.357,11.116-3.312.646-1.888-1.968-3.777-9.086-3.364-23.734-3.333,7.16-28.6,7.614-19.409.188,3.21-1.886,2.808-3.7,3.5-1.813.386-3.072,2.729-5.054,3.339-11.748,12.709,15.681,3.873,15.305,15.121-.067,4.134-7.5,8.4-12.291,8.4C6763.272-687.308,6761.467-688.514,6761.914-691.585Zm40.921-2.35c8-7.2,12.557-18.307,15.588-27.935,5.687-3.107,6.411,3.8,7.407,10.7.9,6.212,2.013,12.425,7.167,11.342a2.487,2.487,0,0,1-.812,2.432c-5.229,1.52,4.009,1.911,4.465,3.873-2.15,3.2-8.911,3.047-10.27-1.071-1.31-4.2-6.108-1.675-9.541-1.464a5.8,5.8,0,0,1-3.246.408c-1.473-.076-2.941-.152-3.8.911-1.715,2.688-4.894,6.233-6.519,6.234C6802.245-688.5,6801.837-689.937,6802.834-693.935Zm15.711-17.758c-4.958,11.193-9.528,13.9,5.4,11.578-1.378-3.025-2.025-13.455-3.893-13.455C6819.622-713.57,6819.129-713.017,6818.545-711.693Zm-149.789,19.675c1.25-9.972,12.142-4.29,2.6-16.6-.591-1.431-2.27-6.755.771-5.872,4.928,1.958,5.094,13.518,10.474,4.717,3.72-2.507,9.841-16.585,14.474-12.092-3.616,8.021-23.517,19.511-7.978,24.454a8.756,8.756,0,0,0,3.81.291,6.958,6.958,0,0,1,3.294.246c1.268,3.259-3.877,3.716-6.556,3.77-4.793,1.046-7.583-4.331-11.327-5.111-1.665,1.4-5.823,4.711-3.774,7.129a6.326,6.326,0,0,1-3.489,1.264A2.12,2.12,0,0,1,6668.756-692.018Zm120.01-.473c-4.772-4.324-.439-13.5-4.12-17.8-2.423.358-5.08,1.572-7.57.846-6.33-7.5,25.43-5.189,29.267-8.119,8.787-2.923,3.514.1,7.044.557-1.348,2.2-1.862,3.862-4.222,4.615-2.3-.953-5.338-.288-8.43.378a23.012,23.012,0,0,1-6.976.795c-1,.669-3.571.08-3.127,1.319,1.292,3.372-.256,8.188,1.28,11.641,3.473-1.059,3.844,1.039,2.851,3.138-.808,1.71-2.523,3.421-4.2,3.421A2.508,2.508,0,0,1,6788.766-692.492Zm-42.155-18.768c-.209-2.115-.929-5.647,1.785-5.625,5.934,4.7-2.124,15.751,4.383,20.726a6.016,6.016,0,0,1-3.227,1.251C6744.633-694.907,6745.662-706.9,6746.611-711.26Zm-86.562,0c-.209-2.115-.927-5.647,1.786-5.625,5.933,4.7-2.125,15.751,4.382,20.726a6.008,6.008,0,0,1-3.226,1.251C6658.07-694.907,6659.1-706.9,6660.049-711.26Z" transform="translate(-6555.777 744.265)" fill="#00a3d8" stroke="rgba(0,0,0,0)" stroke-width="1"/>
    </g>
  </g>
</svg>
