<svg xmlns="http://www.w3.org/2000/svg" xmlns:xlink="http://www.w3.org/1999/xlink" width="842" height="747.828" viewBox="0 0 842 747.828">
  <defs>
    <linearGradient id="linear-gradient" x1="48.141" y1="-3.188" x2="48.141" y2="-3.012" gradientUnits="objectBoundingBox">
      <stop offset="0" stop-color="#e0e0e0"/>
      <stop offset="0.983" stop-color="#e0e0e0" stop-opacity="0"/>
      <stop offset="1" stop-color="#e0e0e0" stop-opacity="0"/>
    </linearGradient>
    <linearGradient id="linear-gradient-2" x1="70.253" y1="-3.534" x2="70.253" y2="-3.344" xlink:href="#linear-gradient"/>
  </defs>
  <g id="_404" data-name="404" transform="translate(-7 -31.172)">
    <path id="Composite_Path" data-name="Composite Path" d="M651.568,370.047c-1.1-2.383-2.327-4.344-5.6-3.594-.645.148-1.912-1.2-2.475-2.11q-14.9-24.2-29.7-48.475a21.22,21.22,0,0,0-3.629-4.735c7.057,14.77,15.612,28.7,22.971,43.3l-19.472-33.424V323.8l-9.835-15.424-.751.224v4.932l-.54.076q-6.682-11.677-13.394-23.337c-.1-.167-.647-.07-1.6-.145,1.546,4.58,2.664,8.957,4.474,13.026,3.523,7.919,7.478,15.644,11.138,23.5a10.705,10.705,0,0,1,.857,4.291c.087,7.582.137,15.168,0,22.749-.044,2.551.5,3.46,3.275,3,4.505-.743,12.138,3.5,14.523,7.394.856,1.4,2.377,2.385,3.829,3.785-.952,1.677-3.107.7-4.859.862-1.8.162-3.631.036-5.448.036v.87h31.889c-.089,1.595-.148,2.649-.242,4.327-3.553.344-7.463.94-11.388,1.067-20.313.657-40.664.648-60.935,1.916q-35.936,2.248-71.754,6.291c-27.34,3.094-54.575,7.126-81.852,10.773-14.365,1.921-28.688,4.239-43.1,5.711-9.069.926-18.265.565-27.4.895-2.648.1-5.283.586-8.29.938l-1.761-6.2-.75.125.84,6.19-.416.079c-.447-2.465-.967-4.92-1.327-7.4-2.19-15.092-4.572-30.162-6.438-45.295-1.515-12.284-2.622-24.631-3.427-36.982a31.608,31.608,0,0,1,1.829-11.793c.721-2.147,3-4.156,5.066-5.4,15.139-9.121,32.444-10.633,49.309-13.318,26.1-4.156,52.46-6.108,78.818-7.952,29.7-2.078,59.43-1.56,89.158-1.566,3.828,0,7.656,0,11.472-.352-61.3-2.2-122.51-1.87-183.367,7.547q-.036-.351-.072-.7c9.124-1.2,18.218-2.77,27.379-3.511,23.645-1.914,47.3-3.838,70.988-5.057a749.538,749.538,0,0,1,86.414.588c7.174.459,14.311,1.6,21.437,2.616,1.616.232,3.116,1.276,4.672,1.941.423.181.952.6,1.264.478,3.367-1.317,4.858,2.138,7.4,2.918.644.2,1.074,1.3,1.471,2.06,1.619,3.083,2.475,7.071,4.946,9.081,3.491,2.84,5.023,6.761,7.586,10.048,4.466,5.727,8.359,11.9,12.559,17.837,1.521,2.151,3.252,4.152,4.844,6.254a12.758,12.758,0,0,1,.968,1.8l-.62.4c-2.6-3.494-5.173-7.009-7.808-10.477-5.142-6.764-10.385-13.453-15.454-20.271a68.5,68.5,0,0,1-6.257-9.584c-2.234-4.388-5.49-7.325-10.247-8.065-9.383-1.461-18.794-3.395-28.237-3.681-23.26-.7-46.544-.6-69.819-.782-2.971-.023-5.944.222-8.915.343q.007.41.014.819c.66.054,1.32.164,1.98.155,16.62-.221,33.241-.705,49.859-.613,16.16.09,32.324.717,48.319,3.386,2.635.44,5.234,1.135,7.817,1.834,3.737,1.01,5.973,3.834,7.909,6.925,1.665,2.66,3.391,5.3,4.792,8.1,1.124,2.248,1.431,4.949,2.735,7.056Q628.6,332.5,648.25,363.708c.926,1.477,2.142,2.767,3.15,4.2a10.922,10.922,0,0,1,.868,1.894ZM519.629,284.568q0-.263,0-.526c-9.784.292-19.567.564-29.349.885-3.771.124-4.05.61-3.207,4.423,1.517,6.859,2.982,13.729,4.467,20.595,1.329,6.143,2.465,12.335,4.039,18.414,1.551,5.99,1.32,12.48,5.711,17.748a6.392,6.392,0,0,0,4.317,2.658c23.639,3.618,47.323,6.97,70.888,11.016a39.445,39.445,0,0,0,18.445-1.283c2.531-.75,2.808-1.743,1.422-4.04-6.677-11.074-13.206-22.24-19.981-33.254-6.628-10.776-13.5-21.4-20.245-32.106a9.123,9.123,0,0,0-8.527-4.579C538.282,284.667,528.955,284.568,519.629,284.568Zm-109.545,28.6.893,0c0,6.472.079,12.946-.041,19.415-.044,2.387.889,3.224,3.182,3.471,6.7.723,13.38,1.652,20.068,2.5q15.942,2.013,31.884,4.02c2,.252,3.678.342,3.562-2.606-.483-12.287-.816-24.575-3.191-36.7-.868-4.432-.341-4.812,3.784-3.5,2.645.841,3.711.018,3.247-2.722-.509-3-1.181-5.984-1.859-8.957-.815-3.569-1.718-4.273-5.426-3.8-3.292.418-6.527,1.324-9.823,1.658q-21.5,2.181-43.019,4.115c-2.463.223-3.337,1.279-3.3,3.71C410.154,300.226,410.084,306.7,410.084,313.164Zm-44.476,17.2q0,.217,0,.435c4.984,0,9.968-.057,14.951.015,5.676.082,11.351.247,17.024.443,2.749.095,3.417-1.274,3.306-3.791-.456-10.347-.786-20.7-1.146-31.049-.138-3.96-.373-4.421-4.141-3.727-15.608,2.873-31.187,5.9-46.766,8.93a8.369,8.369,0,0,0-6.234,5.388c-2.753,6.438-2.758,13.127-1.881,19.9.221,1.7,1.216,2.46,3.03,2.52C351.041,329.669,358.323,330.041,365.608,330.366Zm-21.513,65.06.788-.272c-.461-2.407-1.047-4.8-1.362-7.224-1.785-13.755-3.932-27.48-5.129-41.288-1.266-14.592-5.062-29.188-.97-44.513-2.717,2.28-3.138,5.036-3.181,7.708-.073,4.523.061,9.065.4,13.577A681.591,681.591,0,0,0,343.3,393.3,12.4,12.4,0,0,0,344.094,395.425Zm-1.891-63.41,4.17,1.35c-4.194,2.408-4.545,3.955-2,6.13l-.986,3.016a13.15,13.15,0,0,1,3.1-.55c3.611.328,4.919-.762,4.941-4.365,0-.826-.144-1.658-.09-2.479.31-4.72.2-4.847-4.642-4.751a8.217,8.217,0,0,0-2.461.184A9,9,0,0,0,342.2,332.016Zm76.745,6.1-.1.8,48.248,6.343.135-1.074ZM334.239,354.7c-1.161-14.92-2.371-30.475-3.529-45.358C329.16,312.531,331.575,345.927,334.239,354.7Zm236.526,7.053q.076-.447.152-.894l-36.225-6.178q-.079.461-.157.922Zm-119.7-86.6q.022.374.044.747l31.828-1.394q-.035-.609-.069-1.218ZM345.3,355.113q.095.513.189,1.026l13.583-2.711-.133-.735C354.171,352.245,349.769,353.859,345.3,355.113Zm181.8-.766q.069-.459.139-.919l-19.709-3.184q-.057.355-.115.709ZM509.14,368.575l14.471,2.832q.062-.372.124-.743C519.151,369.109,514.624,367.206,509.14,368.575ZM477,336.134c-1,1.745-.683,6.258.42,7.165a1.973,1.973,0,0,0,1.48.335,1.261,1.261,0,0,0,.717-1.014C479.268,340.305,478.927,337.954,477,336.134Zm-119.139,60.93q-.011-.326-.022-.652H347.161q-.011.326-.021.652Zm231.449-122.1q.032-.483.063-.966L577,272.55q-.046.407-.09.814ZM490.114,367.39c-.017.171-.035.343-.052.514h12.667c0-.171,0-.343,0-.514ZM349.342,391.345c.427,2.529,1.62,2.9,6.573,1.8Z" fill="#d6d6d6"/>
    <path id="Composite_Path-2" data-name="Composite Path" d="M350.956,591.514a22.59,22.59,0,0,1,2.725,1.836,135.911,135.911,0,0,0,25.3,17.812c8.628,4.788,17.206,9.667,26.04,14.637-4.867-.969-8.927-4.335-14.524-4.365,15.741,8.363,30.51,17.05,46.641,22.816l.447-.938c-3.547-1.627-7.12-3.2-10.634-4.9-3.369-1.626-7.887-1.431-9.532-5.916,8.919,2.772,16.947,7.355,25.578,11.868l-2,.844c.075.172.1.422.218.475,3.85,1.75,7.6,3.848,11.6,5.091a83.622,83.622,0,0,1,8.168,3.212c1.528.654,3.389.493,5.077.82s3.309.83,4.975,1.193a13.411,13.411,0,0,0,2.908.4c1.6-.01,3.074.043,4.173,2.438-8.358.4-15.718-2.39-23.626-3.939,2.1,2.024,13.782,5.64,21.925,6.68,7.481.955,15.008,1.544,22.813,2.7-1.311.392-2.812,1.395-3.893,1.055-2.616-.82-2.673.334-2.258,2.268-5.565,2.533-11.214,2.052-16.86.862-10.618-2.238-20.052-7.4-29.646-12.165-4.383-2.175-8.791-4.3-13.2-6.428-2.04-.985-3.228-.06-3,2.547.372,4.236.9,8.459,1.393,12.685.849,7.35,1.639,14.708,2.615,22.042.338,2.541-.38,3.763-2.888,4.679-16.487,6.023-32.894,12.264-49.36,18.346-4.243,1.567-4.7,1.151-5.046-3.363-.453-5.947-.607-6.308-6.1-3.976-15.365,6.526-29.625,3.906-43.26-4.645-7.562-4.741-12.352-12.07-17.351-19.2-4.61-6.573-7.521-13.881-10.428-21.326a209.2,209.2,0,0,1-13.827-64.548c-.265-4.6-.377-4.669-4.927-5.025-5.338-.418-10.69-.661-16.032-1.024-1.551-.105-3.091-.359-4.486-.526a14.778,14.778,0,0,0,2.645-2.9,11.342,11.342,0,0,0,.953-3.984,13.28,13.28,0,0,0-.009-4.952,9.48,9.48,0,0,0-2.8-4.631c-2.218-1.728-4.909-2.848-7.185-4.648,1.705.922,3.42,1.827,5.113,2.771,2.654,1.479,4.76.76,5.514-2.155a13.722,13.722,0,0,0,.362-4.906c-1.332-11.5.537-22.222,7.541-32.042-4.456,1.782-5.518,5.864-7.3,9.719.347-7.253,6.411-12.646,13.16-11.569,11.188,1.786,21.035,6.961,30.148,13.372,11.551,8.127,19.513,19.55,27.066,31.242.07.109-.029.328-.055.544-2.518-1.519-4.947-3.149-7.529-4.48a16.8,16.8,0,0,0-5.22-1.715,4.572,4.572,0,0,0-3.539.892c-3.166,3.484-6.068,7.21-9.057,10.855-.493.6-.947,1.233-1.646,2.149-1.609-4.79,1.775-9.794-2.1-14.719l4.662-7.971-.435-.523c-1.015.871-2.408,1.544-2.98,2.645-2.582,4.971-5.584,9.864-7.191,15.163-1.806,5.952-2.277,12.31-3.024,18.646L297.257,591c-.289.541-.551.8-.539,1.044.279,6,.235,12.039.957,17.985,2.169,17.879,6.824,35.02,16.371,50.516,3.428,5.563,7.592,10.5,13.422,13.729a11.848,11.848,0,0,0,9.876,1.234c2.132-.731,4.345-1.371,3.965-4.59-.12-1.015,1.028-2.25,1.75-3.275.981-1.393,2.11-2.68,3.653-4.61-5.043.107-9.454.927-13.127-2.063l1.9-1.3a54.745,54.745,0,0,0,6.772,1.927c4.114.665,5.551-.385,6.342-4.51.937-4.891,1.648-9.825,2.58-15.489v5.991c1.9-5.594,1.676-21.474-.328-33.961-1.786-11.131-4.374-22.046-9.209-32.431L351,587.954c-3.458,1.01-.848,2.331.05,3.631.041.806-.21,1.8.167,2.389a166.318,166.318,0,0,0,24.027,29.139,4.065,4.065,0,0,0,1.461.716c2.312.847,4.641,1.648,6.949,2.506,1.144.424,2.256.935,3.382,1.406l.383-.748c-.846-.549-1.673-1.132-2.542-1.641-3.573-2.089-7.453-3.778-10.685-6.3C364.555,611.526,357.31,601.873,350.956,591.514ZM377.32,616.84c-.575-2.737-.653-5.418-3.4-7.154-4.02-2.542-7.71-5.607-11.557-8.427-.726-.533-1.527-.964-2.293-1.442l-.772,1.042Zm-7.872,17.567c-2.142,1.12-2.246,4.638,0,7.839Zm62.409,11.2.4-.807-7-3.425-.351.718Zm-135-59.336.494.055,1.276-11.095-.474-.053Zm71.9,41.4-.921-.053c-.077,1.331-.154,2.661-.269,4.658C370.487,630.616,368.546,629,368.764,627.673ZM440.4,649.192l.274-.626-6.036-2.6-.252.65Z" fill="#d6d6d6"/>
    <path id="Composite_Path-3" data-name="Composite Path" d="M800,592.355l7.286-3.008c-.414,1.682-.342,3.4-1.162,4.3-1.643,1.8-2.037,3.322-.007,5.254-1.619-.223-3.416-.986-3.969-.453a50.883,50.883,0,0,0-4.984,6.243c-.129.171-.126.681,0,.768,1.632,1.133,3.187,2.74,5,3.124,1.134.24,3.316-1.048,3.9-2.217,3.021-6.03,4.855-12.229,2.883-19.221a13.907,13.907,0,0,1-.062-7.9c.99-3.289.234-7.128.056-10.719-.026-.52-.992-1.159-1.651-1.451-2.767-1.225-5.583-2.338-8.6-3.581.882-2.628,3.106-3.3,4.925-4.309,2.454-1.356,2.7-2.418,1.066-6.163-.923-2.109-2.448-1.092-3.761-.675-6.587,2.091-7.5,1.5-7.211-5.355a24.673,24.673,0,0,1,1.409-7.622c.436-1.147,2.259-1.99,3.628-2.5,1.759-.655,3.715-.756,5.547-1.244s3.6-1.157,5.082-1.64c.484,3.122,1.1,6.352,1.425,9.612.113,1.141-.511,2.353-.8,3.533l-.871-.133L808.6,545l-1.629,4.8c1.13-.214,2.736-1.03,3.546-.536.908.553,1.283,2.251,1.553,3.523.436,2.053,1.248,3.393,3.6,3.373a48.025,48.025,0,0,1,8.743.238c4.7.836,9.662,1.046,13.651,4.316,1.754,1.438,2.186,2.684-.493,4.069l.763.443,4.077-2.256c1.374,2.337,3,4.838,4.3,7.5.345.707-.176,1.973-.554,2.875-3.012,7.19-8.385,12.275-14.788,16.416-.62.4-1.246.8-1.894,1.15-4.147,2.257-6.965,5.281-7.858,10.281-1.1,6.147-5.16,10.139-11.142,11.9-4.33,1.274-8.723,2.386-13.153,3.234-1.029.2-2.612-.7-3.426-1.573a49.369,49.369,0,0,1-4.1-5.577c-1.469-2.108-3.259-2.535-5.769-1.812-26.627,7.665-53.222,15.449-79.942,22.774-30.905,8.472-61.938,16.48-92.895,24.763-12.036,3.22-24.018,6.644-36.028,9.964a7.821,7.821,0,0,1-1.254.107c.137-6.09,1.18-12.116-.615-17.941l-.823.041c.116,1.8.171,3.6.359,5.391.726,6.922.483,13.638-3.244,19.87-1.237,2.068-2.617,2.945-4.953,2.254-1.413-.418-2.889-.632-4.278-1.11-.634-.219-1.615-.871-1.6-1.3.1-3.418-2.23-2.876-4.181-2.584-7.937,1.189-15.857,2.491-24.611,3.883,1.558-.854,2.549-1.31,3.448-1.907,2.657-1.762,5.563-3.287,7.807-5.483a9.024,9.024,0,0,0,2.357-5.674c.1-2.99,1.468-4.1,4.054-4.558a10.214,10.214,0,0,0,3.648-1.375l-25.267,3.7-.184-.762c3.123-.738,6.229-1.558,9.371-2.2,8.038-1.634,16.094-3.177,24.139-4.776,2.9-.576,5.792-1.171,8.668-1.844a2.965,2.965,0,0,0,1.824-1.032c.864-1.562-1.264-3.635,1.264-5.336.932-.627.275-3.828.1-5.834-.172-1.988-.647-3.95-.946-5.677l-4.894-.5c-3.755,2.661-8.358,3.492-11.162,1.44l6.81-1.627q-.054-.471-.107-.944c-1.47.077-2.94.21-4.41.218-2.166.012-3-1-2.017-2.638,1.8-3.011,3.779-5.913,5.74-8.823.207-.306.793-.356,1.205-.526a30.944,30.944,0,0,0,4.6,2.932c3.212,1.345,4.969,3.414,5.13,7.029a61.147,61.147,0,0,0,1.233,7.534l.923-.161c-.486-4-.93-8.007-1.5-12a2.618,2.618,0,0,0-1.226-1.549,23.618,23.618,0,0,0-3.415-1.573c-1.917-.756-3.859-1.447-5.791-2.165,2.2-4.889,7.085-5.178,11.29-6.322,9.409-2.559,15.088,2.877,17.482,10.088a141.017,141.017,0,0,1,4.274,17.1c.53,2.679,1.553,3.475,4.041,2.775,2.926-.824,5.844-1.694,8.8-2.393,4.363-1.031,8.94-1.441,13.1-3a117.749,117.749,0,0,1,21.133-5.345c7.337-1.291,14.476-3.694,21.714-5.559,10.625-2.738,21.243-5.5,31.9-8.118,6.165-1.514,12.4-2.761,18.656-4.659l-4.308-.21,25-6.663-.753.943q.139.282.278.564l3.365-1.018c.109,1.163-.247,2.736,2.065,1.524,1.39-.729,3.152-.723,4.728-1.126,2.354-.6,4.691-1.273,7.036-1.914l-.181-.694-3.4.52-.135-.5,19.665-5.465-.174-.827c-2.016.341-4.064.555-6.043,1.049-6.623,1.656-13.18,4.652-19.837,4.871-13.831.457-26.291,6.088-39.5,8.757-11.4,2.3-22.747,4.867-34.12,7.3a1.467,1.467,0,0,1-1.392-.489l74.052-18.437-.908,2.682c3.205-.75,6.149-1.361,9.049-2.14a52.867,52.867,0,0,0,8.66-3.065l-15.092,3.317q-.157-.47-.315-.941a23.151,23.151,0,0,1,3-1.32c3.562-1.02,7.158-1.914,10.724-2.92,1.038-.293,1.984-.95,3.029-1.187,6.664-1.507,13.326-3.032,20.027-4.362a46.305,46.305,0,0,1,9.271-1.013c1.292.009,2.573,1.4,3.97,2.236,3.749-1.893,6.4-1.627,8.529.979q-7.883,2.183-15.761,4.37l.345,1.074Zm29.287-23.3c-.367-.735-.77-1.872-.944-1.839-1.9.374-3.768.93-5.644,1.436l.275,1,4.39-.536-4.1,6.264,3.536-.236-2.979,2.046.6,1.02c1.925-1.045,3.907-2,5.76-3.159,1.9-1.191,3.678-2.584,5.509-3.888l.557.848-4.893,3.225c4.69.343,6.643-2.568,8.726-5.252l.5.634-2.5,3.675.674.57,4.831-4.6.347.371-1.757,2.468.736.57,2.774-3.246c-1.4-.615-2.782-1.657-4.212-1.731a13.067,13.067,0,0,0-4.783,1.172c-2.808,1-5.564,2.155-8.341,3.244l-.393-.628,5.3-4.291-.225-.373ZM776.1,599.508c3.2.205,5.741-1.443,5.945-4.15.049-.648-1.019-1.812-1.742-1.972-.8-.176-1.8.526-3.118.991l2.261,1.633-14.3,3.959.309,1.158,11.458-2.6Zm4.925-7.909q-.093-.328-.188-.656l-18.169,4.8.386,1.336Zm-48.809,17.593-.231-1.169c-4.158-1.661-6.841,2-10.29,2.906q.157.572.313,1.145Zm96.322-47.762-.852-2.171-.8.062a28.016,28.016,0,0,0,.09,4.6c.084.5,1.257,1.181,1.871,1.124a2.625,2.625,0,0,0,1.78-1.424,8.041,8.041,0,0,0,.071-2.771Z" fill="#d6d6d6"/>
    <path id="Composite_Path-4" data-name="Composite Path" d="M684.235,528.08c2.023-.589,4.023-1.277,6.073-1.749q25.781-5.952,51.586-11.8a63.482,63.482,0,0,1,7.424-.8l.158,1.179-37.655,8.063q.058.393.116.786c3.32-.549,6.666-.981,9.958-1.669,9.666-2.02,19.3-4.211,28.97-6.19,4.08-.835,5.647.209,5.246,4.031-1.02,9.734-2.468,19.422-3.771,29.125a1.754,1.754,0,0,1-.819,1.074c1.21-10.266,3.481-20.434,2.832-30.759l-.965-.047c-.734,7.784-1.5,15.565-2.19,23.354-.307,3.462-.449,6.939-.694,10.408-.12,1.7-2.782,3.56-5.04,3.593a13.561,13.561,0,0,0-2.743.116c-13.874,3.124-27.791,6.078-41.581,9.539-6.055,1.519-11.779,4.323-17.784,6.1a37.5,37.5,0,0,1-11.446,1.838c-10.358-.3-20.06,2.793-29.972,4.914-8.3,1.777-16.653,3.355-25.01,4.865a2.7,2.7,0,0,1-2.109-1.614,46.045,46.045,0,0,1,.065-7.178c.573-8.211,1.456-16.409,1.77-24.629.279-7.328,5.26-10.712,11.206-11.7,20.767-3.451,41.49-7.17,62.228-10.8.153-.027.28-.2.925-.7l-6.826.615Zm40.69-3.6c-.787,0-2-.361-2.607.091a4.032,4.032,0,0,0-1.4,2.755c-.028.558,1.161,1.177,1.4,1.395Zm-3.458,32.072q-.093-.353-.185-.706c-1.052.449-2.4.655-3.045,1.438-.394.475.289,1.844.547,3.1Zm-69.92,19.164,1.717-4.3-.525-.61c-.919.835-2.1,1.537-2.634,2.571C649.885,573.795,651.041,574.938,651.547,575.716Zm5.286-36.969-.146-.856c-1.057.267-2.364.252-3.087.9-.511.455-.233,1.8-.35,3.309Zm46.183-13.727c.056.2.112.406.168.609l5.687-1.258-.143-.72c-1.511.309-3.025.6-4.532.936A9.046,9.046,0,0,0,703.016,525.02Z" fill="#d6d6d6"/>
    <path id="Composite_Path-5" data-name="Composite Path" d="M508.9,633.477l-5.9,3.789c.008.228.017.455.025.682l26.512-1.8c.019.157.038.313.057.469L519.4,638.483q.022.22.045.439l8.076-1.069q.085.4.17.8c-2.86.6-5.695,1.433-8.586,1.762-5.008.571-10.047.936-15.082,1.159-1.457.065-2.938-.7-4.428-.989-.777-.149-1.812-.4-2.361-.046-2.29,1.5-4.629.954-6.963.442-5.044-1.106-10.059-2.35-15.11-3.418-1.489-.315-3.09-.083-4.587-.372a27.483,27.483,0,0,1-3.965-1.359c-13.886-4.992-27.8-9.919-41.643-15.017a126.593,126.593,0,0,1-12.817-5.795l56.436,20.928v-15.2l.131-.015c.33,3.8.716,7.6.966,11.409.138,2.105,1.144,2.888,3.184,3.411a36.491,36.491,0,0,0,13.989.692c1.775-.231,2.6-.87,2.795-2.693,1.22-11.355,2.512-22.7,3.8-34.051a6.034,6.034,0,0,1,1.062-2.94l.876,2.419c1.3-3.9.777-4.546-3.067-4.456a24.861,24.861,0,0,1-18.882-7.807c-1.118-1.139-1.163-3.636-1.175-5.511-.108-16.365-.218-32.732-.067-49.1.073-7.842-.107-15.837,2.767-23.306,4.9-12.733,11.254-24.541,22.639-32.851,1.5-1.093,3.161-1.963,4.314-.3.643.931.039,2.778-.121,4.2-.119,1.063-.576,2.1-.623,3.158-.473,10.623-.88,21.249-1.348,31.873a13.862,13.862,0,0,0-.155,3.427l1.356-2.3c0,3.138-.013,5.985,0,8.831.038,7.221.224,7.539,7.273,6.474,29.035-4.387,58.1-8.62,87.064-13.431,31.794-5.281,63.515-11.012,95.225-16.784,20.347-3.7,40.618-7.827,60.92-11.778q28.8-5.607,57.6-11.255c3.752-.737,4.023-.453,3.273,3.876-16.628,2.469-32.949,6.3-49.327,9.921-16.4,3.626-32.969,6.481-49.481,9.583-13.248,2.489-26.5,4.961-39.79,7.23-18.569,3.171-37.174,6.129-55.758,9.212-8.01,1.329-16.008,2.733-24.008,4.123-8.075,1.4-16.1,3.346-24.229,4.15-21.541,2.13-42.527,7.51-63.922,10.437-4.658.638-4.646.814-4.984,5.575-.783,11.027-1.754,22.043-2.388,33.078-.424,7.373-.219,14.783-.63,22.158-.417,7.474-1.231,14.926-1.9,22.385-.869,9.736,1.088,12.078,10.758,12.808.628.048,1.256.1,1.885.148ZM482.618,531.24q-.048.652-.1,1.3l10.306.621q.033-.487.065-.974Zm5.783,23.279.323-1.369-8.341-.73-.112.968Zm4.789,65.211.956.122q.283-3.663.566-7.326l-1.068-.082Q493.417,616.087,493.19,619.73Zm-5.432-104.238,1.719-1.637c-.517-.4-.993-1.014-1.565-1.122-.386-.073-1.294.586-1.281.887C486.654,514.144,487.209,514.645,487.759,515.492Z" fill="#d6d6d6"/>
    <path id="Path" d="M92.465,470.1c-.435-.734-1.24-1.464-1.247-2.2-.052-5.534-.014-11.072.149-16.6.052-1.756,1.01-3.767,2.891-3.3,1.43.351,3.474,2.267,3.5,3.519.071,3.787,1.856,6.943,2.661,10.4.566,2.431-.579,5.262-.943,7.794l3.4-3.03c.67,4.656,1.517,8.856,1.816,13.095.3,4.3.067,8.648.067,12.725,5.505-4.465,3.393-10.85,3.3-17.211a18.792,18.792,0,0,1,1.72,1.109c-1.185,2.4,1.033,2.433,2.167,3.193q11.033,7.4,22.073,14.794c7.522,5.025,14.976,10.16,22.621,14.991,4,2.53,8.441,4.368,12.512,6.8,2.155,1.29,3.792,3.438,5.934,4.757,2.793,1.721,5.938,2.861,8.784,4.507,6.1,3.526,12.077,7.247,18.139,10.831,5.645,3.339,11.985,5.856,16.842,10.088,6.53,5.688,14.273,9.077,21.41,13.571,6.009,3.784,12.389,6.973,18.55,10.52,1.456.839,3.453,1.433,3.291,4.455-51.372-30.156-102.16-60.425-150.867-94.231,1.669,5.3,3.016,10.553,7.278,14.189,3.913,3.338,8.018,6.453,11.91,9.815a4.161,4.161,0,0,1,1.467,3.094c-.832,4.817-1.948,9.588-3.037,14.359-.552,2.418-2.171,3.686-4.61,4.185-9.282,1.9-18.066,1.281-25.6-5.174a14.649,14.649,0,0,1-3.771-4.943c-8.06-18.034-10.931-37.143-11.415-56.72-.082-3.329-.189-6.658-.2-9.988-.008-2.489-1.031-3.763-3.645-3.753-2.12.009-4.245-.383-6.359-.317a12.024,12.024,0,0,0-4.138,1.154,8.412,8.412,0,0,1-6.107-7.259c-.123-.779.81-1.725,1.256-2.594a24.062,24.062,0,0,1,2.515,1.806c.893.822,1.645,1.8,2.955,3.261l2.1-4.742a2.11,2.11,0,0,0,.448.462c.79.56,1.807,1.672,2.362,1.482a3.137,3.137,0,0,0,1.786-2.33,38.586,38.586,0,0,0-.877-6.57c-1.608-8.578-2.837-17.169-1.261-25.9.566-3.135,1.018-6.58,4.866-7.25,3.7-.644,6.284,1.7,7.733,4.724A124.452,124.452,0,0,1,92.715,416c1.95,5.839,3.431,11.835,5.224,18.145l-4.562-2.291-.446.714c3.2,1.82,6.191,4.4,5.771,7.991-.263,2.247-3.139,4.187-5.279,6.8-.223-2.423-.364-3.957-.505-5.491l-.67-.094-1.011,3.1-.35-.036v-3.862a78.3,78.3,0,0,0-3.242,27.069c.977,13.365,3.591,26.382,10.063,38.344,1.11,2.052,4.9,4.483,5.962,3.4,1.639-1.673,3.8-4.242,3.5-6.07-.4-2.5-2.552-5.05-4.588-6.862-2.662-2.369-5.207-4.664-6.327-8.121-1.565-4.828-3.141-9.66-4.442-14.562-.328-1.237.371-2.747.6-4.13,1.057.59,2.016,2.435,3.341.584,1.087-1.519-.469-4.282-3.289-5.711Z" fill="#d6d6d6"/>
    <path id="Composite_Path-6" data-name="Composite Path" d="M849,424.723c-.413,3.419-.674,6.381-1.143,9.31-1.7,10.592-3.453,21.175-5.2,31.758q-3.93,23.755-7.918,47.5a35.3,35.3,0,0,1-1.406,3.781,4.294,4.294,0,0,0,.076,1.932c.41,2.118-.463,3.3-2.618,3.055-4.956-.572-9.588-2.123-13.265-5.64a4.5,4.5,0,0,1-.861-3.235c.9-11.615,1.9-23.223,2.909-34.831.279-3.224.87-6.433.963-9.659.414-14.276,7.777-25.174,17.023-35.083,2.623-2.81,5.878-5.035,8.886-7.475A17.776,17.776,0,0,1,849,424.723Zm-26.4,44.9q0,.34,0,.681c3.978.253,7.7,2.863,11.944.736Zm6.25,19.67q.094-.691.188-1.381l-5.471-.66q-.086.611-.172,1.221Z" fill="#d6d6d6"/>
    <path id="Composite_Path-7" data-name="Composite Path" d="M209.825,336.6l-7.478,31.837c-5.416-.786-10.4-1.368-15.329-2.29-2.223-.416-4.27-1.708-6.482-2.26-7.515-1.876-15.08-3.551-22.6-5.4-7.24-1.776-7.03-1.755-4.525-8.549,2.744-7.442,4.953-15.081,7.615-22.555,4.4-12.356,9.032-24.63,13.456-36.978,1.848-5.159,4.938-8.236,10.781-8.053,5.611.175,11.232.038,16.863-.1-3.784.248-7.565.539-11.352.729-3.252.163-5.7,1.521-6.979,4.577-2.347,5.622-4.785,11.216-6.876,16.935-4.253,11.633-8.313,23.337-12.426,35.021-1.312,3.727-.863,4.236,3.131,3.592q20.505-3.307,41.006-6.641A6.2,6.2,0,0,1,209.825,336.6Zm-14.892,27.578-2.422-7.127C189.93,360.616,190.67,362.848,194.933,364.174Z" fill="#d6d6d6"/>
    <path id="Composite_Path-8" data-name="Composite Path" d="M231.059,282.8l7.549.925q.024.411.047.822a15.4,15.4,0,0,1-3.1-.035c-2.251-.472-3.3.572-3.738,2.6-1.9,8.759-3.753,17.529-5.716,26.275-3.177,14.154-6.429,28.29-9.642,42.435-.219.966-.381,1.945-.622,3.188l2.823-.664c.985,3.467,3.344,4.83,6.773,5.143a4.432,4.432,0,0,1,4.438,4.316l-15.116-5.5c0,2.239-.73,5.207.2,7.5.98,2.414,8.494,3.691,11.136,2.673,2.79,2.755,4.446,2.9,6.821.35.523,2.667,2.309,2.289,4.092,1.811a10.44,10.44,0,0,1,7.659,1A80.17,80.17,0,0,0,260,381.367c1.084.265,2.481-.75,3.733-1.175q.034-.458.067-.916l2.38,3.341c4.186-6.774,17.669-40.214,18.517-36.234l.828-.354a13.245,13.245,0,0,0,.418-2.7c-.19-3.875-.5-7.744-.724-11.618a3.258,3.258,0,0,1,.743-2.382q2.263,33.409,4.526,66.817l-.42.075-1.61-9.374a2.438,2.438,0,0,0-.438.619c-1.417,4.675-1.373,4.534-6.3,3.114q-16.235-4.681-32.547-9.091c-11.574-3.121-23.2-6.051-34.785-9.132-3.953-1.051-3.907-1.14-3.043-4.992,2.815-12.535,5.51-25.1,8.446-37.605,3.38-14.4,6.971-28.748,10.461-43.121C230.536,285.475,230.748,284.3,231.059,282.8ZM276.166,373.7c.324,1.459,1.461,7.465,2.238,7.813,1.09.487,3.45.325,3.941-.427,2.077-3.178,5.3-5.929,5.11-10.2-.2-4.319-.579-8.63-.945-12.939a8.884,8.884,0,0,0-.72-2.492c-.037-.093-1.084-.02-1.183.2a5.575,5.575,0,0,0-.825,2.767,21.509,21.509,0,0,0,1.56,4.179c-3.077-.132-10,7.8-9.122,10.85-.5.027-1.31-.121-1.435.109C273.689,375.566,277.075,377.2,276.166,373.7Z" fill="#d6d6d6"/>
    <path id="Path-2" data-name="Path" d="M750.427,588.581c.088-.437.173-.857.277-1.376,2.2,1.348,5.3-.36,7.545,3.048-3-1.225-4.659-.46-6.009,1.489a4.365,4.365,0,0,1-2.169,1.124c-6.417,2.157-12.833,4.318-19.281,6.379-1.558.5-3.273.491-4.845.958-2.24.665-4.388,1.638-6.627,2.308a12.316,12.316,0,0,1-3.342.306c-1.08.012-2.769-1.295-2.476,1.327.015.134-.641.408-1.014.511-2.659.732-5.346,1.37-7.982,2.175-1.467.448-2.805,1.359-4.284,1.716-4.533,1.094-9.089,2.11-13.67,2.98-2.657.5-5.379.667-7.914.966l1.408-1.051c-.077-.252-.1-.338-.129-.424-9.324,3.894-19.239,5.5-29.362,8l1.105-2.224c-1.852.906-4.291.025-4.318,2.948,0,.113-.639.253-.992.324-3.249.655-6.5,1.3-9.078,1.809a13.4,13.4,0,0,0-3.412-.987c-.4,0-.789,1.1-1.283,1.846l-11.53,3.036-.137-.244,3.868-1.969-.156-.541-14.385,3.216-.287-.719a20.371,20.371,0,0,1,4.019-1.543c2.513-.409,4.164-1.686,4.564-4.135A2.675,2.675,0,0,1,621,617.4q20.114-4.584,40.218-9.209c.269-.062.643-.229.8-.115,4.266,3.03,6.613-2.974,10.425-2.245.441.084,1.056-.744,1.339-1.755-2.081.4-4.16.821-6.244,1.209a32.941,32.941,0,0,1-6.68.738c1.38-.409,2.749-.861,4.143-1.217a63.57,63.57,0,0,1,6.985-1.612,14.016,14.016,0,0,1,4.144.47c3.469.6,6.744,2.227,10.486,1.271s7.632-1.326,11.4-2.214c3.83-.9,8.356-1.153,11.209-3.417,5.391-4.278,11.873-4.452,17.82-6.433,6.1-2.033,12.521-3.14,18.836-4.489C747.252,588.089,748.771,588.489,750.427,588.581Z" fill="#d6d6d6"/>
    <path id="Path-3" data-name="Path" d="M318.453,633.984,317,628.894l1.153-.441,4.181,9.84.9-.382c-.587-4.114-2.964-7.583-4.729-11.449l1.8-.511c-3.143-.371-6.129-.731-6.693-4.665l-.043.053,1.364.177c.025-4.107.086-4.178,3.394-3.881l.6-2.388a19.639,19.639,0,0,0,2.026,3.432c.247.282,1.427-.254,2.923-.573l-3.116-1.592c1.251-.5,2.173-1.218,3.015-1.135,4.594.451,7.215-1.155,8.482-5.542.492-1.7.852-3.446,1.3-5.291l4.97,9.633,1.026-2.552a78.685,78.685,0,0,1,1.883,20.282c-.245,6.79-1.228,13.436-5.063,19.338l.638.444c1.148-1.508,2.3-3.011,3.441-4.526,2.651-3.528,2.733-3.513,5.53-.177a15.407,15.407,0,0,0,2.281,1.828c-.093,2.345-.692,3.537-3.769,4.543s-5.905.54-8.8,1c-3.415.54-6.07-1.126-9.036-2.512-2.875-1.344-3.378-4.332-5.68-5.957l-.948,1.705-5.809-10.884.566-.576,2.978,1.232c.232-1.2.455-2.36.677-3.514C318.436,633.851,318.453,633.984,318.453,633.984Z" fill="#d6d6d6"/>
    <path id="Composite_Path-9" data-name="Composite Path" d="M313.6,621.286l-1.493-2.052-3.286,2.433c-.768-5.318-1.946-10.533-2.176-15.79-.3-6.976-.817-14.075,1.637-20.86,1.207-3.338,2.77-6.495,6.223-8.127,3.185-1.505,4.181-.81,3.975,2.672a11.453,11.453,0,0,0,.378,1.834l1.942-4.421c6.176,5.126,9.7,11.513,11.73,18.874l-2.122-3.993-.885.23,2.073,7.324-1.918-1.652c-3.854,1.87-1.093,5.592-2.246,8.238H323.77v-3.339l-.863-.223-1.838,5.31a18.6,18.6,0,0,0-3.4-2.547c-.382-.186-1.478,1.1-2.32,1.762l1.715,3.335c-3.58.021-5.975,4.443-4.4,7.636a16.96,16.96,0,0,1,.9,3.4Zm10.168-24.115c-3.244-.145-5.047,3.551-3.478,7.05Zm-9.394-.1-.554.108c-.166,2.475-.384,4.949-.453,7.428-.013.474.557.964.858,1.447.313-.384.915-.787.891-1.148C314.943,602.293,314.639,599.685,314.376,597.074Zm6.986-8.09-1.094-.249-2.8,12.9.574.141Z" fill="#d6d6d6"/>
    <path id="Composite_Path-10" data-name="Composite Path" d="M516.861,594.249l-12.746,2.726q-.05.367-.1.734c2.16.771,3.26,3.277,6.605,2.2,6.453-2.081,13.12-3.5,19.946-5.253a29.065,29.065,0,0,1,.252,14.679c-.336,1.471-2.161,2.932-3.66,3.716a13.066,13.066,0,0,1-5.584,1.27,3.635,3.635,0,0,0-3.4,1.573c-3.258,4.267-10.893,6.326-15.515,4.183a4.835,4.835,0,0,1-2.536-3.378c-.068-5.537.176-11.088.556-16.617.23-3.347,1.686-4.721,5-5.261,3.627-.59,7.277-1.04,10.917-1.552Zm-8.922,21.987.552-.077V602.893l-.552.02Z" fill="#d6d6d6"/>
    <path id="Composite_Path-11" data-name="Composite Path" d="M497.584,678.49c6.224,3.851,11.993,7.375,17.712,10.979,2.732,1.721,5.392,3.56,8.04,5.408,1.955,1.364,1.737,2.662-.025,4.2-2.73,2.377-5.661,3.289-8.85,1.345-7.543-4.6-15.058-9.254-22.451-14.091-5.542-3.625-10.883-7.557-16.3-11.377-1.634-1.153-3.209-2.39-5.31-3.962,5.692,1.471,10.795,2.6,15.778,4.121,7.663,2.336,14.155-.249,20.187-4.562,3.182-2.275,5.8-5.371,9.08-7.467,1.928-1.233,4.634-1.287,7.018-1.71.253-.045,1.121,1.2.979,1.513a9.268,9.268,0,0,1-2.048,3.095c-5.306,4.783-11.782,7.513-18.275,10.193C501.527,676.832,499.936,677.506,497.584,678.49Zm-19.944-4.625-.26,1.063,9.064,2.229.218-.9Z" fill="#d6d6d6"/>
    <path id="Composite_Path-12" data-name="Composite Path" d="M465.139,519.018,373.6,487.575l.189-.64,4.067,1.1.266-.677c-4.584-1.69-9.206-3.285-13.742-5.1a122.145,122.145,0,0,1-13.364-6.216c7.792,2.78,15.559,5.631,23.38,8.329,23.224,8.01,46.473,15.945,69.693,23.967a30.226,30.226,0,0,1,4.3,2.321c.556.3,1.2.906,1.685.8,5.18-1.091,9.331,2.245,14,3.308.9.206,1.386,2.248,2.063,3.444Zm-34.548-13.3a3.963,3.963,0,0,0-.107.563c2.9,1.045,5.809,2.069,8.717,3.095l.229-.75Z" fill="#d6d6d6"/>
    <path id="Path-4" data-name="Path" d="M278.337,284.4c-5.189-1.154-10.334-2.6-15.576-3.4-10.4-1.6-20.848-2.909-31.3-4.171a8.207,8.207,0,0,0-4.927,1.4c-.822-.408-1.638-1.161-2.466-1.173-11.073-.156-22.166-.628-33.217-.158-9.433.4-16.991,4.444-20,14.339a2.24,2.24,0,0,1-1.052,1.377c1.087-2.7,2.117-5.418,3.277-8.082,1.138-2.613,2.408-5.169,3.77-8.067l-2.509-.165c.136-.206.239-.561.419-.606,3.37-.846,6.726-2.249,10.129-2.378,25.145-.95,50.2-.029,74.937,5.053,5.5,1.129,10.882,2.831,16.3,4.322a15.1,15.1,0,0,1,2.4,1.131Z" fill="#d6d6d6"/>
    <path id="Path-5" data-name="Path" d="M493.316,459.1l-2.488,2.118c-2.042-.48-3.7-.792-5.3-1.264-2.6-.765-5.166-1.661-7.759-2.456-13.9-4.265-27.862-8.327-41.689-12.814-22.176-7.2-44.271-14.646-66.382-22.04-7.935-2.654-15.828-5.438-23.726-8.2-3.854-1.348-6.145-4.242-7.368-8.116a17.3,17.3,0,0,1,1.1,1.6,12.361,12.361,0,0,0,7.626,5.973q36.117,11.579,72.2,23.259Q443.9,445,468.3,452.784c6.942,2.219,13.873,4.474,20.857,6.549C490.342,459.685,491.773,459.206,493.316,459.1Z" fill="#d6d6d6"/>
    <path id="Path-6" data-name="Path" d="M343.3,473.872l-10.413-3.014-.25.666,11.5,4.553-.173.478c-4.409-1.6-8.827-3.168-13.226-4.793q-24.789-9.154-49.568-18.337c-.433-.16-.98-.23-1.259-.538a16.332,16.332,0,0,1-1.37-2,6.082,6.082,0,0,1,2.241-.125c6.871,2.422,13.71,4.935,20.563,7.41,7.634,2.756,15.294,5.444,22.9,8.286a40.211,40.211,0,0,1,4.994,2.751,6.2,6.2,0,0,0,1.483.635c4.275,1.034,8.557,2.037,12.838,3.049Z" fill="#d6d6d6"/>
    <path id="Path-7" data-name="Path" d="M263.568,446.167c-11.542-4.181-23.095-8.332-34.623-12.55q-21.855-8-43.67-16.1a28.537,28.537,0,0,1-3.42-1.807l.443-.792c6.678,2.416,13.381,4.766,20.023,7.277,3.265,1.234,6.294,3.34,9.642,4.064,13.315,2.876,25.586,8.779,38.473,12.869a15.075,15.075,0,0,1,2.185,1.1l.063-.046-3.606-.395a24.651,24.651,0,0,0,5.134,2.5C257.338,443.556,260.45,444.87,263.568,446.167Z" fill="#d6d6d6"/>
    <path id="Path-8" data-name="Path" d="M180.03,416.293c-21.435-8.5-42.929-15.766-63.639-24.987l.341-.87q31.509,11.99,63,24.03C179.958,414.554,179.9,415.4,180.03,416.293Z" fill="#d6d6d6"/>
    <path id="Path-9" data-name="Path" d="M734.609,587.3c-5.531,2.078-10.95,4.48-16.586,6.142-7.682,2.264-15.529,3.972-23.31,5.9-2.886.716-5.775,1.424-8.685,2.028-.492.1-1.1-.344-1.649-.537q.015-.468.029-.935,25-6.434,50-12.854C734.455,587.029,734.558,587.232,734.609,587.3Z" fill="#d6d6d6"/>
    <path id="Path-10" data-name="Path" d="M657.2,607.806l-62.029,13.34-.285-1.352L657,606.76Z" fill="#d6d6d6"/>
    <path id="Path-11" data-name="Path" d="M219.548,315.476c-4.077,18.328-8.083,36.672-12.548,54.906l-.86-.208c2.916-13.628,5.692-27.287,8.823-40.865,1.084-4.7,3.051-9.2,4.615-13.786Z" fill="#d6d6d6"/>
    <path id="Path-12" data-name="Path" d="M684.186,528.051c-10.322,1.937-20.633,3.936-30.969,5.792-7.437,1.335-14.906,2.494-22.366,3.7-1.421.229-2.868.3-4.3.442l-.156-.719c1.253-.3,2.492-.692,3.76-.9q25.243-4.132,50.5-8.2a25.483,25.483,0,0,1,3.583-.089S684.186,528.051,684.186,528.051Z" fill="#d6d6d6"/>
    <path id="Path-13" data-name="Path" d="M114.574,391.088,78.156,377.006c1.983-.824,35.34,11.615,36.7,13.359Z" fill="#d6d6d6"/>
    <path id="Path-14" data-name="Path" d="M522.755,657.831c-11.683,4.353-23.712,2.593-35.724,1.783,1.181-.1,2.36-.235,3.542-.278s2.369.075,3.547,0c1.358-.081,3.254.52,2.974-2.354C505.609,659.022,514.1,660.533,522.755,657.831Z" fill="#d6d6d6"/>
    <path id="Path-15" data-name="Path" d="M658.237,363.119c-7.71-10.9-15.258-21.9-22.77-32.933l.969-.666,22.787,32.9Z" fill="#d6d6d6"/>
    <path id="Path-16" data-name="Path" d="M750.146,582.724,789.328,570.6l.327.453a10.429,10.429,0,0,1-2.418,1.562c-12.238,3.705-24.5,7.342-36.751,11Q750.316,583.165,750.146,582.724Z" fill="#d6d6d6"/>
    <path id="Path-17" data-name="Path" d="M252.621,440.225c4.461,1.467,8.925,2.922,13.38,4.406,2.888.962,5.765,1.955,8.64,2.956,1.921.668,2.021.853,1.785,3.485l-9.938-4.017c.587,0,1.167,0,1.747,0a4.683,4.683,0,0,0-2.3-1.477q-6.632-2.688-13.254-5.4Z" fill="#d6d6d6"/>
    <path id="Path-18" data-name="Path" d="M162.286,308.385c-.09,1.191-.167,2.212-.208,2.739l-5.554,10.161-1.041-.505q.963-2.783,1.924-5.566c.593-1.727,1.234-3.441,1.753-5.19C159.646,308.383,160.545,307.712,162.286,308.385Z" fill="#d6d6d6"/>
    <path id="Path-19" data-name="Path" d="M374.668,598.607l28.742,12.368-.264.624-28.811-12.206Z" fill="#d6d6d6"/>
    <path id="Path-20" data-name="Path" d="M252.684,440.179q6.627,2.7,13.254,5.4a4.683,4.683,0,0,1,2.3,1.477c-.58,0-1.16,0-1.747,0l-2.923-.889c-3.115-1.3-6.227-2.61-9.354-3.885a24.651,24.651,0,0,1-5.134-2.5Z" fill="#d6d6d6"/>
    <path id="Path-21" data-name="Path" d="M277.13,420.376c-1.3.738-2.117,1.6-2.78,1.5-1.4-.225-2.686-1.259-4.073-1.391-1.145-.109-2.368.6-3.834,1.031C268.258,418.652,271.78,418.213,277.13,420.376Z" fill="#d6d6d6"/>
    <path id="Path-22" data-name="Path" d="M470.464,502.966l7.523-17.957.568.227-7.293,18.037Z" fill="#d6d6d6"/>
    <path id="Path-23" data-name="Path" d="M265.669,416.928l-12.108-3.659.3-1.025,11.938,3.746Z" fill="#d6d6d6"/>
    <path id="Path-24" data-name="Path" d="M72.145,428.793l1.559,3.961c-1.45.53-2.677,1.01-3.939,1.37-.085.024-.744-1.057-.6-1.293C69.907,431.63,70.824,430.538,72.145,428.793Z" fill="#d6d6d6"/>
    <path id="Path-25" data-name="Path" d="M551.9,628.133l-12.877,2.345q-.077-.39-.152-.781l12.862-2.247Z" fill="#d6d6d6"/>
    <path id="Path-26" data-name="Path" d="M415.524,631.6c-4.841,1.625-6.946-2.882-10.535-3.365l.255-.7Z" fill="#d6d6d6"/>
    <path id="Path-27" data-name="Path" d="M181.472,391.538c-2.242,2.105-3.525,1.841-5.918-1.389Z" fill="#d6d6d6"/>
    <path id="Path-28" data-name="Path" d="M219.579,315.522l2.155-13.484.861.169q-1.528,6.629-3.051,13.263S219.579,315.522,219.579,315.522Z" fill="#d6d6d6"/>
    <path id="Path-29" data-name="Path" d="M144.662,357.457l4.471-4.223C148.859,356.512,147.037,358.346,144.662,357.457Z" fill="#d6d6d6"/>
    <path id="Path-30" data-name="Path" d="M623.457,538.128l-7.07,1.715C617.768,537.355,619.708,536.866,623.457,538.128Z" fill="#d6d6d6"/>
    <path id="Path-31" data-name="Path" d="M318.453,633.984s-.017-.132-.016-.133c-.7-.075-1.542.078-2.068-.263-1.556-1.011-2.986-2.216-4.465-3.345l.556-.777Z" fill="#d6d6d6"/>
    <path id="Path-32" data-name="Path" d="M262.708,554.38q.452-4.452.9-8.9l.685.078-1.156,8.97Z" fill="#d6d6d6"/>
    <path id="Path-33" data-name="Path" d="M682.352,601.9l-4.329,1.092-.262-.936,4.271-1.325Z" fill="#d6d6d6"/>
    <path id="Path-34" data-name="Path" d="M345.165,597.034l-2.981-3.344,1.6-.92,2.062,3.833Z" fill="#d6d6d6"/>
    <path id="Path-35" data-name="Path" d="M275.53,424.678c-.973,3.005-1.424,3.215-3.759,2.178.751-.426,1.4-.786,2.038-1.157C274.386,425.365,274.956,425.019,275.53,424.678Z" fill="#d6d6d6"/>
    <path id="Path-36" data-name="Path" d="M362.287,483.268l-8.055-2.992.134-.389,8.129,2.781Z" fill="#d6d6d6"/>
    <path id="Path-37" data-name="Path" d="M171.222,388.528l-5.163-2.219.416-.954,5.036,2.353Z" fill="#d6d6d6"/>
    <path id="Path-38" data-name="Path" d="M334.239,354.7c-2.664-8.776-5.079-42.172-3.529-45.358C331.868,324.228,333.079,339.783,334.239,354.7Z" fill="#d6d6d6"/>
    <path id="Path-39" data-name="Path" d="M451.06,275.153l31.8-1.865q.035.609.069,1.218L451.1,275.9Q451.083,275.527,451.06,275.153Z" fill="#d6d6d6"/>
    <path id="Path-40" data-name="Path" d="M527.108,354.347l-19.685-3.394q.058-.355.115-.709l19.709,3.184Q527.177,353.888,527.108,354.347Z" fill="#d6d6d6"/>
    <path id="Path-41" data-name="Path" d="M589.308,274.968l-12.394-1.6q.045-.407.09-.814L589.371,274Q589.34,274.485,589.308,274.968Z" fill="#d6d6d6"/>
    <path id="Path-42" data-name="Path" d="M431.858,645.607l-6.953-3.514.351-.718,7,3.425Z" fill="#d6d6d6"/>
    <path id="Path-43" data-name="Path" d="M296.862,586.271l1.3-11.093.474.053-1.276,11.095Z" fill="#d6d6d6"/>
    <path id="Path-44" data-name="Path" d="M440.4,649.192l-6.014-2.577.252-.65,6.036,2.6Z" fill="#d6d6d6"/>
    <path id="Path-45" data-name="Path" d="M732.218,609.193l-10.208,2.881q-.157-.572-.313-1.145c3.449-.9,6.132-4.567,10.29-2.906Z" fill="#d6d6d6"/>
    <path id="Path-46" data-name="Path" d="M703.016,525.02a9.046,9.046,0,0,1,1.18-.433c1.506-.331,3.021-.627,4.532-.936l.143.72-5.687,1.258C703.128,525.426,703.071,525.224,703.016,525.02Z" fill="#d6d6d6"/>
    <path id="Path-47" data-name="Path" d="M493.19,619.73q.227-3.643.454-7.286l1.068.082q-.283,3.663-.566,7.326Z" fill="#d6d6d6"/>
    <path id="Path-48" data-name="Path" d="M92.465,470.1v-5.192c2.821,1.429,4.376,4.192,3.289,5.711-1.325,1.851-2.285.007-3.341-.584C92.413,470.033,92.465,470.1,92.465,470.1Z" fill="#d6d6d6"/>
    <path id="Path-49" data-name="Path" d="M194.933,364.174c-4.263-1.325-5-3.558-2.422-7.127Z" fill="#d6d6d6"/>
    <path id="Path-50" data-name="Path" d="M507.938,616.236V602.913l.552-.02v13.265Z" fill="#d6d6d6"/>
    <path id="Path-51" data-name="Path" d="M477.641,673.865l9.022,2.391-.218.9-9.064-2.229Z" fill="#d6d6d6"/>
    <path id="Path-52" data-name="Path" d="M430.591,505.722l8.839,2.907-.229.75c-2.908-1.026-5.815-2.05-8.717-3.095A3.963,3.963,0,0,1,430.591,505.722Z" fill="#d6d6d6"/>
    <path id="Path-53" data-name="Path" d="M820.417,421.349l-2.488,2.118c-2.042-.48-3.7-.792-5.3-1.264-2.6-.765-5.166-1.661-7.759-2.457-13.9-4.265-27.862-8.327-41.689-12.814-22.177-7.2-44.271-14.646-66.382-22.04-7.935-2.654-15.828-5.438-23.726-8.2-3.854-1.348-6.145-4.242-7.368-8.116a17.268,17.268,0,0,1,1.1,1.6,12.362,12.362,0,0,0,7.627,5.973q36.117,11.579,72.2,23.259Q771,407.257,795.4,415.037c6.941,2.219,13.873,4.474,20.857,6.549C817.443,421.939,818.875,421.46,820.417,421.349Z" fill="#d6d6d6"/>
    <path id="Path-54" data-name="Path" d="M632.414,573.522l.56-5.671,2.4-.568.275-2.818-2.4.563,1.518-15.38-2.328,5.829-.994,9.974-4.413,1.036,6.679-16.149-2.168.49-6.238,14.992a8.994,8.994,0,0,0-.407,1.125,5.31,5.31,0,0,0-.191.953,2,2,0,0,0,.2,1.4c.205.255.554.324,1.052.206l5.2-1.23-.566,5.679,1.812-.435Z" fill="#fff"/>
    <path id="Composite_Path-13" data-name="Composite Path" d="M643.825,566.95a4.161,4.161,0,0,1-2.486,2.132,1.849,1.849,0,0,1-2.189-1.036,6.307,6.307,0,0,1-.559-3.779l.727-7.571a9.515,9.515,0,0,1,1.315-4.133,4.126,4.126,0,0,1,2.461-2.092,1.862,1.862,0,0,1,2.166,1.022,6.186,6.186,0,0,1,.566,3.7l-.7,7.535a9.852,9.852,0,0,1-1.3,4.219Zm-7.092-1.58a7.911,7.911,0,0,0,.911,5.19,2.946,2.946,0,0,0,3.429,1.344,6.478,6.478,0,0,0,3.825-3.07,12.769,12.769,0,0,0,1.941-5.845l.8-8.706a8.016,8.016,0,0,0-.925-5.176,2.942,2.942,0,0,0-3.358-1.4,6.349,6.349,0,0,0-3.791,3.019,12.857,12.857,0,0,0-1.982,5.869l-.85,8.771Z" fill="#fff"/>
    <path id="Path-55" data-name="Path" d="M655.613,567.956l.485-5.574,2.334-.552.238-2.77-2.331.547,1.315-15.121-2.206,5.727-.861,9.806-4.288,1.007,6.334-15.863-2.107.476-5.917,14.726a8.827,8.827,0,0,0-.385,1.106,5.236,5.236,0,0,0-.175.937,1.99,1.99,0,0,0,.213,1.38.946.946,0,0,0,1.027.206l5.054-1.2-.49,5.582,1.761-.423Z" fill="#fff"/>
    <path id="Path-56" data-name="Path" d="M666.677,565.3l.741-9.118a7.365,7.365,0,0,1,.932-3.18,3.032,3.032,0,0,1,1.849-1.574,1.4,1.4,0,0,1,1.654.76,4.93,4.93,0,0,1,.441,2.852l-.716,9.084,1.722-.413.668-8.567a9.3,9.3,0,0,0-.7-5.143,2.377,2.377,0,0,0-2.846-1.3,5.105,5.105,0,0,0-3.19,2.694,13.6,13.6,0,0,0-1.582,5.7l-.709,8.621,1.737-.417Z" fill="#fff"/>
    <path id="Composite_Path-14" data-name="Composite Path" d="M678.248,551.114a3.912,3.912,0,0,1,2.32-2.086,1.808,1.808,0,0,1,2.083,1.062,6.31,6.31,0,0,1,.622,3.624,9.575,9.575,0,0,1-1.194,4.087,3.939,3.939,0,0,1-2.325,2.12,1.8,1.8,0,0,1-2.092-1.071,6.3,6.3,0,0,1-.62-3.671,9.443,9.443,0,0,1,1.207-4.065Zm-2.789,7.551a7.015,7.015,0,0,0,.873,2.43,3.418,3.418,0,0,0,1.421,1.4,2.629,2.629,0,0,0,1.8.166,4.482,4.482,0,0,0,1.892-1.051,8.448,8.448,0,0,0,1.688-2.141,13.2,13.2,0,0,0,1.24-2.913,15.18,15.18,0,0,0,.594-3.25,12.091,12.091,0,0,0-.139-3.033,7.114,7.114,0,0,0-.85-2.39,3.467,3.467,0,0,0-1.419-1.386,2.667,2.667,0,0,0-1.786-.176,4.359,4.359,0,0,0-1.871,1.019,8.686,8.686,0,0,0-1.677,2.107,13.825,13.825,0,0,0-1.279,2.918,14.5,14.5,0,0,0-.61,3.206,12.027,12.027,0,0,0,.125,3.092Z" fill="#fff"/>
    <path id="Path-57" data-name="Path" d="M686.792,554.809c-.137,1.925.085,3.294.677,4.094a2.515,2.515,0,0,0,2.864.723l.548-.131.187-2.718-.529.126c-.793.189-1.352.051-1.673-.423a4.194,4.194,0,0,1-.357-2.528l.453-6.429,2.789-.647.185-2.682-2.785.641.283-4.018-1.672.381-.97,13.611Z" fill="#fff"/>
    <path id="Path-58" data-name="Path" d="M699.527,557.421l.809-12.536,3.3-.765.167-2.658-3.293.758.055-.859a6.146,6.146,0,0,1,.732-2.831,2.764,2.764,0,0,1,1.818-1.263l.965-.22.166-2.639-1,.226a4.715,4.715,0,0,0-3.038,2.091,9.428,9.428,0,0,0-1.26,4.529l-1.083,16.565,1.666-.4Z" fill="#fff"/>
    <path id="Composite_Path-15" data-name="Composite Path" d="M706.637,544.508a3.71,3.71,0,0,1,2.216-2.034,1.774,1.774,0,0,1,2.03,1.046,6.3,6.3,0,0,1,.651,3.55,9.327,9.327,0,0,1-1.1,4,3.735,3.735,0,0,1-2.221,2.067,1.765,1.765,0,0,1-2.039-1.055,6.287,6.287,0,0,1-.649-3.6,9.2,9.2,0,0,1,1.113-3.974Zm-2.6,7.382a7.031,7.031,0,0,0,.877,2.382,3.411,3.411,0,0,0,1.393,1.378,2.529,2.529,0,0,0,1.741.169,4.227,4.227,0,0,0,1.817-1.022,8.057,8.057,0,0,0,1.6-2.089,12.771,12.771,0,0,0,1.161-2.847,14.894,14.894,0,0,0,.532-3.18,12,12,0,0,0-.175-2.97,7.132,7.132,0,0,0-.854-2.343A3.459,3.459,0,0,0,710.743,540a2.566,2.566,0,0,0-1.731-.178,4.118,4.118,0,0,0-1.8.991,8.28,8.28,0,0,0-1.594,2.057,13.354,13.354,0,0,0-1.2,2.853,14.211,14.211,0,0,0-.547,3.136,11.935,11.935,0,0,0,.163,3.027Z" fill="#fff"/>
    <path id="Path-59" data-name="Path" d="M721.666,537.347l-.466,8.693a7.139,7.139,0,0,1-.8,3.074,2.753,2.753,0,0,1-1.71,1.52,1.359,1.359,0,0,1-1.595-.734,4.9,4.9,0,0,1-.484-2.779l.488-8.723-1.617.372-.468,8.244a9.342,9.342,0,0,0,.766,5.026,2.3,2.3,0,0,0,2.751,1.259,4.692,4.692,0,0,0,2.961-2.624,13.167,13.167,0,0,0,1.341-5.5l.432-8.194-1.6.369Z" fill="#fff"/>
    <path id="Path-60" data-name="Path" d="M725.975,551.075l.443-8.715a6.978,6.978,0,0,1,.783-3.035,2.709,2.709,0,0,1,1.684-1.494,1.343,1.343,0,0,1,1.565.739,4.9,4.9,0,0,1,.49,2.731l-.422,8.685,1.6-.383.391-8.19a9.238,9.238,0,0,0-.794-4.926,2.279,2.279,0,0,0-2.694-1.261,4.563,4.563,0,0,0-2.906,2.556,12.9,12.9,0,0,0-1.322,5.441l-.426,8.24,1.61-.386Z" fill="#fff"/>
    <path id="Path-61" data-name="Path" d="M741.771,525.933l-.608,14.1a9.515,9.515,0,0,1-.965,4.021,3.439,3.439,0,0,1-2.149,1.967,1.734,1.734,0,0,1-2.029-.947,6.3,6.3,0,0,1-.645-3.531,9.177,9.177,0,0,1,1.014-3.988,3.548,3.548,0,0,1,2.211-1.971,2.03,2.03,0,0,1,1.132.051,3.039,3.039,0,0,1,1.073.718l.123-2.834a2.756,2.756,0,0,0-1.112-.522,3.028,3.028,0,0,0-1.255.036,3.925,3.925,0,0,0-1.776,1.022,7.678,7.678,0,0,0-1.522,2.088,12.547,12.547,0,0,0-1.021,2.689,14.74,14.74,0,0,0-.446,2.981,9.456,9.456,0,0,0,1.009,5.361,2.677,2.677,0,0,0,3.124,1.471,4.531,4.531,0,0,0,2.4-1.671,10.121,10.121,0,0,0,1.755-3.442,12.233,12.233,0,0,0,.452-1.959c.1-.694.186-1.725.244-3.083l.547-12.9-1.557.352Z" fill="#fff"/>
    <path id="Path-62" data-name="Path" d="M389.669,189.269q0-8.494,4.843-13.781a17.6,17.6,0,0,1,25.155,0q4.843,5.287,4.843,13.781V221.8h4.806V190.75q0-11.616-6.064-18.488T407.09,165.4q-10.137,0-16.182,6.863t-6.045,18.488V221.8h4.806V189.269Z" transform="translate(13)" fill="#d6d6d6"/>
    <path id="Composite_Path-16" data-name="Composite Path" d="M441.012,205.206a29.606,29.606,0,0,0,6.12,9.469,26.86,26.86,0,0,0,38.972,0,28.984,28.984,0,0,0,6.026-9.356,30.917,30.917,0,0,0,0-22.219,29.269,29.269,0,0,0-6.026-9.375,27.889,27.889,0,0,0-8.917-6.169,26.981,26.981,0,0,0-21.138,0,27.888,27.888,0,0,0-8.917,6.169,30.826,30.826,0,0,0-6.12,9.506,30.009,30.009,0,0,0,0,21.975Zm9.367-28.031a22.321,22.321,0,0,1,32.383-.038,25.208,25.208,0,0,1,0,34.069,22.28,22.28,0,0,1-32.383.038,25.155,25.155,0,0,1,0-34.069Z" transform="translate(13)" fill="#d6d6d6"/>
    <path id="Path-63" data-name="Path" d="M505.007,202.731c0,6.356,1.783,11.119,5.388,14.306,3.586,3.188,8.992,4.763,16.219,4.763h2.422V217h-3.266c-5.557,0-9.593-1.163-12.146-3.506-2.553-2.325-3.811-6.056-3.811-11.194V172.6h19.223v-4.8H509.813V152.2h-4.806v50.531Z" transform="translate(13)" fill="#d6d6d6"/>
    <path id="Path-64" data-name="Path" d="M574.691,221.8V172.6h21.626v-4.8H574.691v-6.581c0-5.213,1.258-9.019,3.811-11.419s6.57-3.6,12.071-3.6h5.744v-4.8h-4.975q-10.757,0-16.107,4.837t-5.35,14.475V221.8Z" transform="translate(13)" fill="#d6d6d6"/>
    <path id="Composite_Path-17" data-name="Composite Path" d="M602,205.206a29.608,29.608,0,0,0,6.12,9.469,26.861,26.861,0,0,0,38.972,0,28.988,28.988,0,0,0,6.026-9.356,30.916,30.916,0,0,0,0-22.219,29.273,29.273,0,0,0-6.026-9.375,27.888,27.888,0,0,0-8.917-6.169,26.98,26.98,0,0,0-21.138,0,27.889,27.889,0,0,0-8.917,6.169,30.828,30.828,0,0,0-6.12,9.506,30.009,30.009,0,0,0,0,21.975Zm9.367-28.031a22.321,22.321,0,0,1,32.383-.038,25.207,25.207,0,0,1,0,34.069,22.28,22.28,0,0,1-32.383.038,25.155,25.155,0,0,1,0-34.069Z" transform="translate(13)" fill="#d6d6d6"/>
    <path id="Path-65" data-name="Path" d="M705.647,199.6q0,8.325-4.843,13.463a17.9,17.9,0,0,1-25.136-.038c-3.248-3.45-4.862-7.912-4.862-13.425V167.8H666v30.3q0,11.475,6.045,18.188T688.227,223q10.109,0,16.163-6.712,6.054-6.694,6.063-18.188V167.8h-4.806v31.8Z" transform="translate(13)" fill="#d6d6d6"/>
    <path id="Path-66" data-name="Path" d="M728.475,189.269q0-8.494,4.843-13.781a17.6,17.6,0,0,1,25.155,0q4.843,5.287,4.843,13.781V221.8h4.806V190.75q0-11.616-6.064-18.488T745.9,165.4q-10.137,0-16.182,6.863t-6.045,18.488V221.8h4.806V189.269Z" transform="translate(13)" fill="#d6d6d6"/>
    <path id="Path-67" data-name="Path" d="M828.194,191.613q0,12.206-6.195,19.406T805.423,218.2a21.657,21.657,0,0,1-16.332-6.844,23.84,23.84,0,0,1-6.552-17.156q0-10.406,6.5-17.194a21.72,21.72,0,0,1,16.445-6.806,22.75,22.75,0,0,1,10.25,2.381,28.5,28.5,0,0,1,8.861,7.219v-6.581a29.634,29.634,0,0,0-8.936-5.85,26.246,26.246,0,0,0-10.081-1.969,28.379,28.379,0,0,0-11.076,2.156,26.547,26.547,0,0,0-8.973,6.281,28.857,28.857,0,0,0-5.8,9.338,30.6,30.6,0,0,0-1.99,11.063q0,12.459,7.809,20.606A26.236,26.236,0,0,0,805.31,223a27.21,27.21,0,0,0,13.648-3.525,28.661,28.661,0,0,0,10.231-10.106,24.687,24.687,0,0,0,2.891-7.669,52.386,52.386,0,0,0,.92-10.481V141.4h-4.806v50.213Z" transform="translate(13)" fill="#d6d6d6"/>
    <path id="Path-68" data-name="Path" d="M136.431,244.624V198.742h26.588v-9.659H136.431V80.415L126.763,90.6v98.48H63.579c-2.757,0-4.607-.226-5.514-.679a2.423,2.423,0,0,1-1.4-2.415,6.082,6.082,0,0,1,.34-1.924,14.905,14.905,0,0,1,1.057-2.3L122.911,78H111.543L50.361,177.537a49.1,49.1,0,0,0-2.606,6.264A16.571,16.571,0,0,0,47,188.743c0,3.622.982,6.226,3.021,7.735s5.589,2.264,10.65,2.264h66.091v45.882Z" transform="translate(-40 -20)" fill="#b2e344"/>
    <path id="Composite_Path-18" data-name="Composite Path" d="M238.995,224.777q-12.463,12.621-31.12,12.6c-12.387,0-22.7-4.151-30.969-12.527-8.309-8.377-12.425-18.828-12.425-31.393V131.806c0-12.6,4.116-23.13,12.425-31.544,8.271-8.376,18.581-12.6,30.969-12.6,12.35,0,22.7,4.226,31.082,12.6q12.52,12.621,12.538,31.544v61.654c0,12.489-4.192,22.941-12.5,31.317Zm-84.182-32.11q0,23.318,15.144,38.864,15.182,15.508,37.918,15.508,22.717,0,37.993-15.508,15.3-15.508,15.3-38.864V132.485q0-23.262-15.3-38.864Q230.573,78,207.875,78,185.1,78,169.958,93.621q-15.182,15.621-15.144,38.864v60.182Z" transform="translate(-22.126 -20)" fill="#b2e344"/>
    <path id="Path-69" data-name="Path" d="M347.911,244.624V198.742H374.5v-9.659H347.911V80.415L338.243,90.6v98.48H275.059c-2.757,0-4.607-.226-5.514-.679a2.423,2.423,0,0,1-1.4-2.415,6.083,6.083,0,0,1,.34-1.924,14.918,14.918,0,0,1,1.057-2.3L334.391,78H323.023l-61.182,99.537a49.1,49.1,0,0,0-2.606,6.264,16.564,16.564,0,0,0-.755,4.943c0,3.622.982,6.226,3.021,7.735s5.589,2.264,10.65,2.264h66.091v45.882Z" transform="translate(-4.94 -20)" fill="#b2e344"/>
    <ellipse id="Path-70" data-name="Path" cx="6.58" cy="28.46" rx="6.58" ry="28.46" transform="translate(165.96 675.96)" fill="url(#linear-gradient)"/>
    <ellipse id="Path-71" data-name="Path" cx="5.09" cy="26.2" rx="5.09" ry="26.2" transform="translate(84.32 679.71)" fill="url(#linear-gradient-2)"/>
    <g id="elpixelista-fig-ball-brush" transform="translate(-921 -6992.983)">
      <rect id="Rectangle_61" data-name="Rectangle 61" width="196" height="196" transform="translate(928 7575.983)" fill="#e3e3e3" opacity="0"/>
      <g id="Group_291" data-name="Group 291" transform="translate(929.633 7584.167)">
        <circle id="Ellipse" cx="90.345" cy="90.345" r="90.345" transform="translate(6.533)" fill="#224780"/>
        <path id="Path_279" data-name="Path 279" d="M209.435,832.273c-11.956,2.968-34.468,7.669-44.416,9.257-2.925.587-6.371.639-7.589-1.523-.764-7.585-13.744-91.351-16.537-103.4,7.449-15.3,19.089-2.781,19.089-2.781-1.863,13.906,5.583,94.531,6.468,100.562,4.014-.818,32.118-7.848,45.45-11.891C214,826.749,214.78,827.038,209.435,832.273Z" transform="translate(-117.745 -706.143)" fill="#b2e344"/>
        <path id="Ellipse-2" data-name="Ellipse" d="M777.986,83.988c-.257-4.572,8.808-8.741,20.247-9.313s20.921,2.671,21.178,7.243-8.808,8.742-20.247,9.313S778.244,88.56,777.986,83.988Z" transform="translate(-765.541 -57.829)" fill="#b2e344"/>
        <g id="Group_275" data-name="Group 275" transform="translate(0 22.678)">
          <ellipse id="Ellipse-3" data-name="Ellipse" cx="34.792" cy="34.896" rx="34.792" ry="34.896" fill="#00a3d9"/>
          <g id="Page-1" transform="translate(12.372 8.164)">
            <path id="Shape" d="M26.581,12.405c-.118.329-.04.509.36.831,1.849,1.488,7.9,6.144,8.029,6.176.289.072.54-.088,1.33-.849,1.576-1.518,5.548-5.541,8.1-8.242.289-.339.135-.475-.072-.814a29.622,29.622,0,0,0-4.137-5.132A22.677,22.677,0,0,0,34.635.067a.407.407,0,0,0-.6.226M25.164,15.017c-.206.085-.381.309-.844,1.076a19.485,19.485,0,0,0-1.591,2.94c-.05.4.154.638.784.9a9.876,9.876,0,0,1,5,4.155c.244.361.506.725.582.81a.68.68,0,0,0,.77.142,34.813,34.813,0,0,0,3.269-3.215A.77.77,0,0,0,33.222,21c-.154-.185-7.592-5.977-7.676-5.977a.619.619,0,0,1-.151-.03.405.405,0,0,0-.231.027m-8.9,5.712a13.06,13.06,0,0,0-7.18,3.518,11.987,11.987,0,0,0-3.563,6.1,23.94,23.94,0,0,0-.081,5.05,13.947,13.947,0,0,1-.232,5.119C4.638,42.31,3.305,43.879.991,45.488a5.657,5.657,0,0,0-.779.636c-.9,1.023,1.112,1.665,4.944,1.578,6.071-.138,12.751-1.862,16.925-4.369a13.316,13.316,0,0,0,5.361-5.55,12.157,12.157,0,0,0,1.4-5.433,10.734,10.734,0,0,0-.593-4.271,10.867,10.867,0,0,0-7.1-6.949,12.257,12.257,0,0,0-4.88-.4" transform="matrix(0.985, 0.174, -0.174, 0.985, 8.285, 0)" fill="#7bdefe" fill-rule="evenodd"/>
          </g>
        </g>
        <path id="Path_278" data-name="Path 278" d="M45,735.98a5.1,5.1,0,0,1,9.389-2.768,5.1,5.1,0,0,1,9.677-1.187,5.114,5.114,0,1,1,0,4.179,5.095,5.095,0,0,1-8.945.678,5.1,5.1,0,0,1-10.12-.9Z" transform="translate(-26.946 -710.852)" fill="#b2e344"/>
        <path id="Path_280" data-name="Path 280" d="M402.834,1124.88c10.522-.372,28.108-.871,42.354-.871,8.457,0,19.015-1.156,19.367,3.531.243,3.329-6.118,8.276-8.939,10.76-5.562,4.8-17.381,15.143-22.632,20.01,5.866,1.826,21.278,9.51,26.707,13.011,3.118,2.123,5.442,3.51,5.8,5.355,1.045,6.185-11.414,9.222-18.342,7.955-6.749-1.245-20.794-6.687-27.272-10.3a6.487,6.487,0,0,1-.55-.361l-6.669-20.486c5.532-3.748,24.329-15.924,28.379-18.46,1.786-1.026,1.23-2.344-1.9-2.18-6.5.326-17.535.8-26.643,1.062-3.395.1-16.108,1.684-16.108,1.684S397.653,1125.052,402.834,1124.88Z" transform="translate(-305.402 -1008.089)" fill="#b2e344" stroke="rgba(0,0,0,0)" stroke-width="1"/>
        <path id="Path_281" data-name="Path 281" d="M409.979,1171.918c-5.753-15.469-10.955-29.693-13.271-36.545-1.663,8.367-4.251,22.188-6.749,35.63a57.22,57.22,0,0,1-9.407-2.08c4.8-22.733,9.387-43.993,10.668-49.8-5.144-5.508.636-7.617,2.03-8.452,11.314-13.291,43.2-53.138,41.376-60.914-.142-1.708-4.508-7.694-5.841-9.722-3.529-5.386-4.451-6.847-6.213-14.181-.193-1.932-.071-3.279,2.354-3.735,20.893-5.1,53.172,11.515,55.474,12.636,2.065,1,15.94,7.865,15.524,13.093-.215,2.642-3.691,4.518-6.736,6.1-4.6,2.411-10.557,5.606-24.036,4.792-5.591-.4-11.646-.791-14.363,1.742-6.721,6.857-31.772,33.8-44.022,48.285,1.172,2.057.548,8.487-4.977,9.674,2.365,7.983,15.953,45.622,18.531,52.256A79.615,79.615,0,0,1,409.979,1171.918Z" transform="translate(-307.427 -991.339)" fill="#b2e344"/>
        <path id="Path-72" data-name="Path" d="M905.223,111.622c2.96-1.918,7.92-5.47,6.208-12.647-4.149-17.388-18.581-12.753-31.151-15.534-10.967-2.427-21.466-9.566-30.728-8.807-3.786.311-11.009,4.936-10.884,9.613s2.25,4.775,2.25,4.775,19.77,1.522,35.42,6.92C882.724,98.146,889.88,100.41,905.223,111.622Z" transform="translate(-718.392 -57.854)" fill="#00a3d9"/>
        <path id="Path-73" data-name="Path" d="M861.76,82.733a7.582,7.582,0,0,0-.057-6.06c-1.433-3.353-3.007-3.823-4.318-4.438a2.212,2.212,0,0,0-2.277.169c-.522.876,1.62,2.819,2.388,4.791a33.042,33.042,0,0,1,1.306,4.17Z" transform="translate(-705.682 -59.853)" fill="#00a3d9"/>
        <path id="Path-74" data-name="Path" d="M871.527,93.749c1.045.611,3.015,1.728,4.948,2.909a18.122,18.122,0,0,1,2.3,1.716,1.9,1.9,0,0,1,.573,1.018c.116.621-1.137,1.578-1.732,1.321a4.166,4.166,0,0,1-.989-.668c-2.491-2.094-10.2-5.979-17.168-5.576-.427.025-.921.33-1.162-.148-.083-.164.388-.647.673-.913a1.676,1.676,0,0,1,.756-.337A18.722,18.722,0,0,1,871.527,93.749Z" transform="translate(-703.149 -44.007)" fill="#224780"/>
        <path id="Path-75" data-name="Path" d="M854.08,87.91a19,19,0,0,1,9.133,7.4,2.463,2.463,0,0,1,.379,1.046c.06.5-.29.676-.7.371a2.3,2.3,0,0,1-.563-.653c-1.58-2.6-11.948-6.34-16.976-6.693a5.066,5.066,0,0,1-.906-.078c-1.174-.308-.751-1.355-.77-1.574a1.149,1.149,0,0,1,.418-.967,2.972,2.972,0,0,1,1.548-.326A42.043,42.043,0,0,1,854.08,87.91Z" transform="translate(-714.548 -48.66)" fill="#224780"/>
      </g>
    </g>
    <g id="elpixelista-friend-iso" transform="translate(-2964.426 -2124.82)">
      <path id="Path-76" data-name="Path" d="M877.632,197.27c0-2.39,8.513-4.331,19.014-4.331s19.009,1.941,19.009,4.331-8.509,4.326-19.009,4.326-19.014-1.936-19.014-4.326Z" transform="translate(2825.822 2081.476)" fill="#1b365e" opacity="0.246"/>
      <path id="Path-77" data-name="Path" d="M938.5,198.384c0-1.847,7.836-3.346,17.5-3.346s17.5,1.5,17.5,3.346-7.835,3.344-17.5,3.344-17.5-1.494-17.5-3.344Z" transform="translate(2821.996 2081.344)" fill="#1b365e" opacity="0.246"/>
      <path id="Composite_Path-19" data-name="Composite Path" d="M969.894,188.989A13.254,13.254,0,0,0,964.1,185a83.421,83.421,0,0,0-18.976-3.589c-.238-7.407-6.592-35.609-7-38.707,3.8,2.767,14.581,8.116,16.422,8.491,1.185.24,2.785.617,3.756-.115a2.69,2.69,0,0,0,.6-3.19,12.015,12.015,0,0,0-2.4-3.392c-1.663-2.013-7.152-6.014-9.588-7.58,3.793-3.653,14.349-15.675,13.585-18.361-.517-.922-2.265,0-3.4,0-7.14,1.143-19.978,4.6-23.375,5.393-.354-.713-1.136-1-1.8-1.4-4.808-5.666-9.419-12.75-13.631-19.34-.84-1.321-2.255-2.618-2.078-4.588a7.352,7.352,0,0,1,1.328-2.609c1.5-2.3,3.045-4.456,3.793-7.583.082-.824.03-1.4-1-1.593-8.878-2.176-22.593,4.91-23.572,5.388-.877.428-6.773,3.353-6.6,5.582.092,1.126,1.568,1.926,2.862,2.6a23.476,23.476,0,0,0,6.74,2.114c2.589.324,7.786-1,9.576.673,2.856,2.923,14.76,15.8,16.786,18.363.579.73,1.619,1.355,1.4,2.392-4.471-.158-9.094-.509-15.148-.509-3.594,0-8.08-.492-8.229,1.506-.1,1.42,2.6,3.528,3.8,4.588,2.364,2.046,7.385,6.456,9.616,8.532-2.492.778-10.147,4.42-12.224,6.087-1.119.925-1.41.711-1.59,1.744-.444,2.637,4.85,3.932,7.793,3.391a52.04,52.04,0,0,0,11.588-4.393c.324-.178,1.018-.838,1.4-.593-1.581,3.865-9.883,26.741-14.981,33.315a64.888,64.888,0,0,0-19.779,0,17.02,17.02,0,0,0-5.8,2.193c-1.176.833-1.363,1.172-1.4,2.4.267,1.871,8.79,6.192,18.943,7.607,2.159.175,11.829,1.1,14.221-.027a6.267,6.267,0,0,0,.8-4.186c-.2-1.3-1.361-2.282-.8-4.393,1.605-6.084,13.793-37.8,16.584-46.087,2,10.079,6.782,33.421,6.589,43.888-.084,4.878-2.09,7.725-1.391,10.979.4,1.845,11.32,2.7,18.374,2.594,5.952-.091,9.122.106,13.541-1.706a1.321,1.321,0,0,0,.446-1.89Zm-42.554-52.271c-.493-.442-11.232-7.355-13.186-8.582-.4-.55-.522-1,.806-.929,3.813.192,11.307.507,15.174.528-1,3.4-1.705,5.75-2.795,8.983Zm7.189-9.377c3.85-.817,14.51-3.822,16.751-4.28,1.11.206,1.04.848.183,1.684-4.781,3.651-10.086,8.452-15.137,11.589-.592-3.043-1.179-6.151-1.8-8.993Z" transform="translate(2825.511 2088.171)" fill="#00b9f5"/>
      <path id="Path-78" data-name="Path" d="M900.22,96.084c-.444.261-1.281.737-2.1,1.24a7.738,7.738,0,0,0-.976.732.811.811,0,0,0-.243.434.352.352,0,0,0,.494.365,1.78,1.78,0,0,0,.42-.285c1.058-.893,1.985-.743,3.273-1.194,1.341-.47,2.928-1.47,4.262-.985.171.062.391.141.494-.063.035-.07-.165-.276-.286-.389a.707.707,0,0,0-.321-.144A7.929,7.929,0,0,0,900.22,96.084Z" transform="translate(2824.611 2087.6)" fill="#224780"/>
      <path id="Path-79" data-name="Path" d="M913.25,91.306a8.079,8.079,0,0,0-3.881,3.154,1.057,1.057,0,0,0-.161.446c-.026.212.123.288.3.158a.975.975,0,0,0,.24-.278c.671-1.107,2.331-1.193,3.452-1.732,1.415-.679,2.257-1.473,3.773-1.533a1.142,1.142,0,0,0,.385-.034c.125-.052.308-.166.316-.26a.489.489,0,0,0-.178-.412,1.259,1.259,0,0,0-.657-.139A17.811,17.811,0,0,0,913.25,91.306Z" transform="translate(2823.838 2087.904)" fill="#224780"/>
      <path id="Path-80" data-name="Path" d="M891.705,94.382c-2.732-2.429,3.492-8.5,6.358-27.809,9.125,14,20.292,15.093,20.818,17.236.49,2-.918,2.108-.918,2.108S898.153,90.584,891.705,94.382Z" transform="translate(2825.531 2089.419)" fill="#224780"/>
    </g>
  </g>
</svg>
