<svg xmlns="http://www.w3.org/2000/svg" width="1200" height="1200" viewBox="0 0 1200 1200">
  <g id="og-image-square" transform="translate(-900 -7537)">
    <rect id="Rectangle_61" data-name="Rectangle 61" width="1200" height="1200" transform="translate(900 7537)" fill="#7bdefe"/>
    <g id="Group_291" data-name="Group 291" transform="translate(948.428 7638.048)">
      <circle id="Ellipse" cx="515.134" cy="515.134" r="515.134" transform="translate(37.253)" fill="#224780"/>
      <path id="Path_279" data-name="Path 279" d="M531.711,1317.846c-68.169,16.924-196.533,43.727-253.253,52.781-16.676,3.345-36.328,3.644-43.273-8.686-4.356-43.247-78.365-520.871-94.292-589.591,42.474-87.217,108.842-15.857,108.842-15.857-10.623,79.291,31.833,539,36.88,573.391,22.89-4.665,183.133-44.747,259.146-67.8C557.763,1286.347,562.187,1288,531.711,1317.846Z" transform="translate(-8.904 -598.67)" fill="#b2e344"/>
      <path id="Ellipse-2" data-name="Ellipse" d="M778.012,128.081c-1.466-26.066,50.219-49.841,115.445-53.1s119.286,15.23,120.754,41.3-50.22,49.844-115.446,53.1S779.478,154.151,778.012,128.081Z" transform="translate(-707.048 21.07)" fill="#b2e344"/>
      <g id="Group_275" data-name="Group 275" transform="translate(0 129.306)">
        <ellipse id="Ellipse-3" data-name="Ellipse" cx="198.38" cy="198.97" rx="198.38" ry="198.97" fill="#00a3d9"/>
        <g id="Page-1" transform="translate(70.543 46.551)">
          <path id="Shape" d="M151.559,70.733c-.675,1.875-.23,2.9,2.053,4.74,10.543,8.485,45.059,35.035,45.783,35.216,1.647.413,3.077-.5,7.584-4.843,8.984-8.655,31.635-31.592,46.192-47,1.646-1.933.772-2.708-.408-4.644-1.115-1.721-11.458-17.968-23.587-29.261-12.9-12.869-27.64-23.459-31.69-24.561a2.322,2.322,0,0,0-3.439,1.29M143.481,85.626c-1.172.485-2.173,1.761-4.813,6.133-5.245,8.689-8.906,15.456-9.07,16.765-.288,2.3.881,3.637,4.468,5.113,12.958,5.329,20.129,11.286,28.513,23.689,1.39,2.056,2.883,4.135,3.319,4.62a3.876,3.876,0,0,0,4.391.809c1.753-.918,17.522-16.427,18.639-18.331,1.1-1.872,1.3-3.74.5-4.7-.877-1.056-43.291-34.08-43.77-34.08a3.53,3.53,0,0,1-.862-.172,2.31,2.31,0,0,0-1.315.154M92.761,118.2a74.469,74.469,0,0,0-40.938,20.058c-10.7,10.3-17.338,21.667-20.314,34.773-1.078,4.747-1.314,19.558-.46,28.8,1.181,12.772.727,22.795-1.325,29.19-3.282,10.232-10.877,19.178-24.072,28.353a32.256,32.256,0,0,0-4.441,3.626c-5.125,5.834,6.342,9.494,28.188,9,34.616-.787,72.7-10.62,96.5-24.912,14.364-8.627,23.856-18.453,30.569-31.645a69.318,69.318,0,0,0,7.995-30.979c.312-9.828-.537-15.939-3.383-24.352a61.964,61.964,0,0,0-40.5-39.62A69.888,69.888,0,0,0,92.761,118.2" transform="matrix(0.985, 0.174, -0.174, 0.985, 47.238, 0)" fill="#7bdefe" fill-rule="evenodd"/>
        </g>
      </g>
      <path id="Path_278" data-name="Path 278" d="M45,768.8a29.064,29.064,0,0,1,53.534-15.782,29.063,29.063,0,0,1,55.174-6.767,29.16,29.16,0,1,1,0,23.828,29.05,29.05,0,0,1-51,3.868A29.074,29.074,0,0,1,45,768.8Z" transform="translate(57.941 -625.52)" fill="#b2e344"/>
      <path id="Path_280" data-name="Path 280" d="M433.121,1129.568c59.995-2.123,160.266-4.966,241.5-4.966,48.218,0,108.423-6.59,110.426,20.135,1.388,18.984-34.883,47.19-50.97,61.354-31.712,27.369-99.1,86.344-129.044,114.093,33.445,10.41,121.326,54.225,152.277,74.185,17.78,12.1,31.027,20.012,33.1,30.536,5.958,35.266-65.079,52.582-104.581,45.358-38.483-7.1-118.567-38.13-155.5-58.75a36.761,36.761,0,0,1-3.138-2.058L489.16,1292.649c31.542-21.367,138.722-90.8,161.811-105.253,10.184-5.849,7.012-13.363-10.818-12.429-37.041,1.859-99.981,4.579-151.913,6.057-19.357.55-91.847,9.6-91.847,9.6S403.581,1130.546,433.121,1129.568Z" transform="translate(122.42 -463.644)" fill="#b2e344" stroke="rgba(0,0,0,0)" stroke-width="1"/>
      <path id="Path_281" data-name="Path 281" d="M548.341,1880.807c-32.8-88.2-62.461-169.3-75.67-208.374-9.482,47.707-24.241,126.51-38.479,203.158-21.313-2.161-43.044-8.965-53.639-11.857,27.367-129.618,53.521-250.841,60.825-283.943-29.329-31.407,3.624-43.429,11.576-48.194,64.511-75.781,246.327-302.985,235.92-347.319-.807-9.736-25.7-43.869-33.306-55.436-20.124-30.708-25.379-39.037-35.423-80.857-1.1-11.014-.406-18.7,13.421-21.3,119.131-29.1,303.178,65.658,316.307,72.049,11.774,5.719,90.889,44.844,88.517,74.653-1.228,15.066-21.043,25.764-38.4,34.788-26.255,13.746-60.2,31.963-137.051,27.326-31.878-2.254-66.4-4.51-81.9,9.935-38.319,39.1-181.16,192.7-251.007,275.315,6.683,11.731,3.126,48.393-28.379,55.159,13.484,45.518,90.961,260.129,105.659,297.956C591.211,1877.443,559.293,1880.436,548.341,1880.807Z" transform="translate(36.395 -851.174)" fill="#b2e344"/>
      <path id="Path" d="M1218.162,285.8c16.878-10.936,45.157-31.189,35.4-72.109-23.655-99.144-105.947-72.715-177.621-88.572-62.533-13.836-122.4-54.544-175.2-50.217-21.584,1.772-62.772,28.146-62.057,54.813s12.831,27.229,12.831,27.229,112.723,8.677,201.96,39.457C1089.876,208.957,1130.675,221.868,1218.162,285.8Z" transform="translate(-152.879 20.781)" fill="#00a3d9"/>
      <path id="Path-2" data-name="Path" d="M893.418,133.2s7.853-15.438-.324-34.552-17.144-21.8-24.62-25.3a12.612,12.612,0,0,0-12.985.966c-2.979,5,9.237,16.073,13.618,27.319a188.34,188.34,0,0,1,7.448,23.779Z" transform="translate(-3.491 -2.743)" fill="#00a3d9"/>
      <path id="Path-3" data-name="Path" d="M933.783,99.979c5.959,3.485,17.19,9.85,28.213,16.588a103.343,103.343,0,0,1,13.1,9.783,10.854,10.854,0,0,1,3.267,5.8c.66,3.54-6.486,9-9.873,7.529a23.767,23.767,0,0,1-5.639-3.808c-14.2-11.938-58.157-34.091-97.887-31.795-2.435.142-5.251,1.884-6.624-.844-.472-.936,2.215-3.688,3.835-5.206a9.552,9.552,0,0,1,4.309-1.92C886.446,91.553,905.141,89.61,933.783,99.979Z" transform="translate(26.281 183.639)" fill="#224780"/>
      <path id="Path-4" data-name="Path" d="M903.285,94.885c22.863,8.875,39.293,23.245,52.075,42.181a14.047,14.047,0,0,1,2.161,5.966c.341,2.839-1.655,3.853-4,2.118a13.1,13.1,0,0,1-3.211-3.724c-9.009-14.8-68.125-36.152-96.8-38.162a28.88,28.88,0,0,1-5.167-.447c-6.7-1.754-4.282-7.725-4.389-8.974-.164-1.871.915-4.753,2.384-5.513a16.943,16.943,0,0,1,8.825-1.856C871.926,87.9,888.57,90.446,903.285,94.885Z" transform="translate(-107.696 128.912)" fill="#224780"/>
    </g>
  </g>
</svg>
