<?xml version="1.0" standalone="no"?>

<svg viewBox="0 0 121 121" style="background-color:#ffffff00" version="1.1" xmlns="http://www.w3.org/2000/svg" xmlns:xlink="http://www.w3.org/1999/xlink" xml:space="preserve" x="0px" y="0px" width="100%" height="100%">
	<g id="Layer%201">
		<path d="M 60.5 0 C 27.1 0 0 27.1 0 60.5 C 0 93.9 27.1 121 60.5 121 C 93.9 121 121 93.9 121 60.5 C 121 27.1 93.9 0 60.5 0 ZM 60.5 6 C 90.6 6 115 30.4 115 60.5 C 115 90.6 90.6 115 60.5 115 C 30.4 115 6 90.6 6 60.5 C 6 30.4 30.4 6 60.5 6 ZM 35 56.7 L 35 64.3 L 56.7 64.3 L 56.7 86 L 64.3 86 L 64.3 64.3 L 86 64.3 L 86 56.7 L 64.3 56.7 L 64.3 35 L 56.7 35 L 56.7 56.7 L 35 56.7 Z" fill="#ffffff"/>
	</g>
</svg>