<?xml version="1.0" standalone="no"?>

<svg viewBox="0 0 100 100" style="background-color:#ffffff00" version="1.1" xmlns="http://www.w3.org/2000/svg" xmlns:xlink="http://www.w3.org/1999/xlink" xml:space="preserve" x="0px" y="0px" width="100%" height="100%">
	<g id="Background">
		<path d="M 70.8 85.6 C 70.8 83.3 68.8 81.4 66.3 81.4 L 34.3 81.4 C 31.8 81.4 29.8 83.3 29.8 85.6 C 29.8 88 31.8 89.9 34.3 89.9 L 66.3 89.9 C 68.8 89.9 70.8 88 70.8 85.6 ZM 70.8 74.7 C 70.8 72.3 68.8 70.4 66.3 70.4 L 34.3 70.4 C 31.8 70.4 29.8 72.3 29.8 74.7 C 29.8 77 31.8 78.9 34.3 78.9 L 66.3 78.9 C 68.8 78.9 70.8 77 70.8 74.7 ZM 42.8 92.3 C 42.8 95.9 46 99 49.9 99 C 53.8 99 57 95.9 57 92.3 L 42.8 92.3 Z" fill="#9ecf41"/>
		<path d="M 62 28 L 56.5 39.5 C 56.1 40.4 55.1 40.9 54.2 40.9 C 53.8 40.9 53.5 40.9 53.1 40.7 C 51.8 40.2 51.3 38.7 51.8 37.5 L 55.3 30.3 L 49.9 31.2 C 49.6 31.3 49.2 31.3 48.9 31.2 L 43.6 30.1 L 47.2 37.5 C 47.9 38.7 47.3 40.1 46 40.7 C 44.7 41.3 43.2 40.7 42.6 39.5 L 36.7 27.6 C 36.3 26.8 36.4 25.8 37 25.1 C 37.6 24.3 38.6 24 39.6 24.2 L 49.5 26.4 L 59.2 24.6 C 60.1 24.5 61.1 24.8 61.6 25.5 C 62.2 26.2 62.4 27.2 62 28 L 62 28 ZM 50.8 0 L 48.2 0 C 29.7 0 8.6 12.7 22.5 40.6 C 26.3 48.4 29.2 59.1 32.1 63.4 C 34.6 67.2 46.2 67.2 51 67.2 C 55.2 67.2 65.5 67 67.7 63.7 C 70.2 60 73 47.5 76.5 40.6 C 90.4 12.8 69.3 0 50.8 0 L 50.8 0 Z" fill="#aaaaaa"/>
	</g>
	<g id="Layer%201">
	</g>
</svg>