<?xml version="1.0" standalone="no"?>

<svg viewBox="0 0 180 140" style="background-color:#ffffff00" version="1.1" xmlns="http://www.w3.org/2000/svg" xmlns:xlink="http://www.w3.org/1999/xlink" xml:space="preserve" x="0px" y="0px" width="100%" height="100%">
	<g id="Background">
		<path d="M 160 67.6 C 159.7 64.7 159.6 61.8 159 58.9 C 153.7 31.1 137.6 12.5 110.9 3.2 C 106 1.5 100.8 0.6 95.6 0.2 C 95.3 0.2 94.9 0.1 94.6 0 L 85.1 0 C 81.7 0.5 78.2 0.8 74.9 1.6 C 54.4 6.4 39 18 28.7 36.2 C 23.7 44.9 21 54.2 20.2 64.1 C 20.2 64.5 20.1 64.8 20 65.1 L 20 74.6 C 20.5 78.6 21 82.5 21.9 86.4 C 28.2 113.3 51.3 134.7 78.6 139 C 81.6 139.5 84.6 139.6 87.6 140 L 92.1 140 C 95.2 139.6 98.2 139.5 101.3 139 C 114.9 136.7 126.8 131 137 121.7 C 149.7 110 157.2 95.5 159.4 78.4 C 159.7 76.3 159.8 74.2 160 72.1 L 160 67.6 ZM 89.9 136.3 C 54.9 136.6 23.5 108 23.5 69.7 C 23.4 33.2 53.5 3.3 90.2 3.5 C 128.3 3.7 156.9 35.3 156.4 70.8 C 155.9 106.8 126.1 136.6 89.9 136.3 ZM 142.4 41.5 C 142.6 43.7 142.8 45.7 142.8 47.7 C 142.6 53.6 141.5 59.3 139.6 64.9 L 120.5 120 C 120.3 120.5 119.8 121.1 120.2 121.4 C 120.7 121.8 121.2 121.2 121.6 121 C 126.2 118.1 130.4 114.6 134.2 110.6 C 151.1 92.2 154.8 65.1 143.6 42.8 C 143.3 42.4 143.2 41.9 142.4 41.5 ZM 29.8 70.5 C 29.9 71.5 30 73.1 30 74.7 C 30.1 75.4 30.2 76 30.3 76.6 C 33 97.5 43.7 113 62.2 123.2 C 62.6 123.5 63.1 124 63.6 123.6 C 64 123.3 63.5 122.7 63.4 122.2 L 35.9 46.9 C 35.7 46.5 35.7 45.8 35.2 45.8 C 34.7 45.8 34.6 46.5 34.5 46.9 C 31.4 54.2 29.9 61.9 29.8 70.5 ZM 89.4 130 C 96.1 130 102.1 129.1 108 127.2 C 109.9 126.6 109.9 126.6 109.3 124.7 L 103.9 110.1 L 91.7 76.7 C 91.6 76.3 91.5 75.6 91 75.5 C 90.5 75.5 90.5 76.1 90.4 76.5 L 73.3 125.9 C 72.8 127.2 73.3 127.7 74.5 128 C 79.6 129.3 84.7 130 89.4 130 ZM 75.2 106.6 C 75.3 106.2 75.5 105.9 75.6 105.6 L 88 68.5 C 88.2 67.8 88.2 67.1 88 66.4 C 85.1 58.6 82.2 50.7 79.4 42.9 C 79.1 42 78.6 41.7 77.7 41.6 C 76 41.5 74.2 41.3 72.5 41.1 C 71.2 40.9 70.5 40 70.6 38.7 C 70.7 37.4 71.4 36.6 72.8 36.6 C 73.5 36.5 74.2 36.6 75 36.7 C 80.1 37 85.2 37.4 90.3 37.3 C 94.9 37.1 99.6 36.8 104.3 36.6 C 106 36.5 107.1 37.4 107.1 38.8 C 107.2 40 106.1 41 104.5 41.2 C 103 41.3 101.5 41.4 100.1 41.5 C 98 41.7 98 41.7 98.6 43.7 L 105.2 63.3 L 119.2 104.8 C 119.3 105.2 119.3 105.9 119.9 105.9 C 120.3 105.9 120.3 105.3 120.4 105 L 129.1 76.1 C 131.4 68.5 131 61.1 127.5 53.9 C 126.5 51.8 125.2 49.8 124 47.8 C 122.4 45.2 120.8 42.5 120.1 39.5 C 118.6 33 122.1 27.1 128.2 26 C 128.8 25.9 129.5 25.8 130.2 25.8 C 130.1 25.1 129.6 24.9 129.3 24.6 C 117.1 14.2 103 9.3 86.9 10 C 76 10.5 66 13.8 56.9 19.8 C 50.4 24 45 29.3 40.6 35.7 C 40.4 36 39.9 36.4 40.1 36.9 C 40.3 37.4 40.9 37.3 41.3 37.3 C 42.5 37.3 43.7 37.4 44.8 37.3 C 49.6 37.1 54.4 36.9 59.1 36.6 C 61 36.4 62 37.2 62.1 38.6 C 62.2 40.1 61.3 41 59.4 41.2 C 57.7 41.3 56 41.5 54.3 41.6 C 53.4 41.7 53.1 42.1 53.4 42.9 C 53.5 43.2 53.6 43.5 53.7 43.7 L 74.4 105.3 C 74.5 105.7 74.5 106.2 75.2 106.6 Z" fill="#ffffff"/>
	</g>
	<g id="Layer%201">
	</g>
</svg>