<?xml version="1.0" standalone="no"?>

<svg viewBox="0 0 180 140" style="background-color:#ffffff00" version="1.1" xmlns="http://www.w3.org/2000/svg" xmlns:xlink="http://www.w3.org/1999/xlink" xml:space="preserve" x="0px" y="0px" width="100%" height="100%">
	<g id="Background">
		<path d="M 161.4 0 L 20.6 0 C 15.3 0 11 4.3 11 9.5 L 11 130.5 C 11 135.7 15.3 140 20.6 140 L 161.4 140 C 166.7 140 171 135.7 171 130.5 L 171 9.5 C 171 4.3 166.7 0 161.4 0 ZM 137.4 6.4 C 140.9 6.4 143.8 9.2 143.8 12.7 C 143.8 16.2 140.9 19.1 137.4 19.1 C 133.9 19.1 131 16.2 131 12.7 C 131 9.2 133.9 6.4 137.4 6.4 ZM 119.8 6.4 C 123.3 6.4 126.2 9.2 126.2 12.7 C 126.2 16.2 123.3 19.1 119.8 19.1 C 116.3 19.1 113.4 16.2 113.4 12.7 C 113.4 9.2 116.3 6.4 119.8 6.4 ZM 161.4 130.5 L 20.6 130.5 L 20.6 25.5 L 161.4 25.5 L 161.4 130.5 ZM 155 19.1 C 151.5 19.1 148.6 16.2 148.6 12.7 C 148.6 9.2 151.5 6.4 155 6.4 C 158.5 6.4 161.4 9.2 161.4 12.7 C 161.4 16.2 158.5 19.1 155 19.1 ZM 139 79.2 L 139 71 L 104.2 56 L 104.2 65.7 L 128.5 75 L 104.2 84.5 L 104.2 94.3 L 139 79.2 ZM 99.3 55.7 C 99.8 53.8 100 52.5 100 51.8 C 100 50.8 99.7 50.1 99.1 49.5 C 98.5 49 97.6 48.7 96.5 48.7 C 95.1 48.7 94.2 49.1 93.8 49.9 C 93.3 50.6 92.8 52.1 92.3 54.2 L 82.7 93.9 C 82.2 96 82 97.3 82 97.8 C 82 99.8 83.2 100.8 85.5 100.8 C 86.5 100.8 87.2 100.6 87.7 100.2 C 88.2 99.8 88.5 99.2 88.8 98.4 C 89 97.7 89.3 96.6 89.6 95.3 L 99.3 55.7 ZM 77.8 84.5 L 53.6 75 L 77.8 65.7 L 77.8 55.9 L 43 70.9 L 43 79.2 L 77.8 94.2 L 77.8 84.5 Z" fill="#ffffff"/>
	</g>
	<g id="Layer%201">
	</g>
</svg>