<?xml version="1.0" standalone="no"?>

<svg viewBox="0 0 100 100" style="background-color:#ffffff00" version="1.1" xmlns="http://www.w3.org/2000/svg" xmlns:xlink="http://www.w3.org/1999/xlink" xml:space="preserve" x="0px" y="0px" width="100%" height="100%">
	<g id="Background">
		<path d="M 82.3 7.9 C 85.5 7.9 88.1 10.5 88.1 13.5 L 88.1 13.6 C 88.1 13.7 88 14 88 14.2 L 81.8 71.6 C 81.9 73.9 80.7 76 78.6 77.1 L 53.4 89.6 C 52.6 90 51.7 90.2 50.9 90.2 C 50 90.2 49.2 90 48.3 89.6 L 23 77.1 C 21.9 76.5 21 75.7 20.4 74.5 C 19.9 73.9 19.7 73.1 19.6 72.3 L 13.2 14.4 C 13.2 14.2 12.9 13.9 12.9 13.7 L 12.9 13.6 C 12.9 10.5 15.7 7.9 18.9 7.9 L 26.7 7.9 L 82.3 7.9 ZM 88 1 L 21.5 1 L 12.2 1 C 8.4 1 5 4.2 5 7.9 L 5 8 C 5 8.2 5.3 8.6 5.3 8.8 L 13 77.7 C 13.1 78.7 13.4 79.6 14 80.4 C 14.7 81.7 15.8 82.7 17.2 83.4 L 47.4 98.3 C 48.4 98.8 49.4 99 50.5 99 C 51.5 99 52.5 98.8 53.5 98.3 L 83.6 83.4 C 86.1 82.2 87.6 79.6 87.5 76.9 L 94.9 8.6 C 94.9 8.3 95 8 95 7.8 L 95 7.7 C 95 4.2 91.9 1 88 1 Z" fill="#aaaaaa"/>
		<path d="M 76.8 48.7 C 77.6 47.9 78.1 46.8 78 45.5 L 78 45.2 C 77.9 45.1 77.9 44.9 77.9 44.8 C 77.7 43.9 77.4 43.1 76.7 42.4 C 76.7 42.3 76.6 42.3 76.6 42.3 L 63.7 29.5 C 62 27.7 59.2 27.7 57.4 29.5 C 55.7 31.2 55.7 34 57.4 35.8 L 66.3 44.6 L 67.3 45.6 L 57.5 55.4 C 55.8 57.1 55.8 60 57.5 61.7 C 59.3 63.4 62.1 63.4 63.8 61.7 L 72.6 52.9 L 76.8 48.7 C 76.7 48.8 76.7 48.8 76.7 48.8 C 76.7 48.8 76.7 48.7 76.8 48.7 ZM 35.9 46.6 L 35 45.6 L 44.8 35.6 C 46.5 33.9 46.5 31 44.8 29.3 C 43.1 27.6 40.2 27.6 38.5 29.3 L 29.7 38.1 L 25.6 42.3 C 25.6 42.3 25.5 42.3 25.5 42.3 C 24.6 43.2 24.1 44.4 24.1 45.5 C 24.1 45.9 24 46.1 24 46.4 C 24 47.3 24.7 48 25.4 48.7 C 25.4 48.8 25.6 48.8 25.6 48.8 L 38.4 61.7 C 40.1 63.4 43 63.4 44.7 61.7 C 46.4 60 46.4 57.1 44.7 55.4 L 35.9 46.6 Z" fill="#9ecf41"/>
	</g>
	<g id="Layer%201">
	</g>
</svg>