<?xml version="1.0" standalone="no"?>

<svg viewBox="0 0 100 100" style="background-color:#ffffff00" version="1.1" xmlns="http://www.w3.org/2000/svg" xmlns:xlink="http://www.w3.org/1999/xlink" xml:space="preserve" x="0px" y="0px" width="100%" height="100%">
	<g id="Background">
		<path d="M 62.3 67.4 L 49.1 67.4 L 49.1 65.1 L 62.3 65.1 L 62.3 67.4 ZM 60.4 56.3 L 58.1 57.7 C 57.8 58.9 57.2 60.3 55.8 61.5 L 71.8 61.5 L 71.8 63.9 L 51.1 63.9 L 45 66.5 L 43.1 67.3 L 43.1 69.8 L 21.6 69.8 L 21.6 59.1 L 43.1 59.1 L 43.1 60.2 C 43.9 58.4 44.8 56.2 45.5 54.4 L 45.6 54.3 L 14.2 54.3 L 14.2 87.8 L 83.8 87.8 L 83.8 54.3 L 63 54.3 C 61.6 55.5 60.5 56.2 60.4 56.3 ZM 86 29.7 C 86.1 29.9 86.2 30.1 86.2 30.3 L 86.2 89 C 86.2 89.7 85.6 90.2 85 90.2 L 13 90.2 C 12.3 90.2 11.8 89.7 11.8 89 L 11.8 30.3 C 11.8 29.7 12.3 29.1 13 29.1 L 71 29.1 L 76.3 24.3 L 11.8 24.3 C 9.4 24.3 7 24.3 7 26.7 L 7 95 L 90.9 95 L 90.9 26.7 C 90.9 25.5 90.9 25 90.6 24.6 L 86 29.7 ZM 21.6 42.9 L 21.6 45.3 L 46.7 45.3 L 46.7 42.9 L 21.6 42.9 ZM 21.6 35.7 L 21.6 38.1 L 49.1 38.1 L 49.1 35.7 L 21.6 35.7 ZM 21.6 39.3 L 21.6 41.7 L 51.5 41.7 L 51.5 39.3 L 21.6 39.3 Z" fill="#aaaaaa"/>
		<path d="M 50.4 58 C 49.7 57.3 49.7 56.2 50.4 55.5 C 51 54.8 52.1 54.8 52.8 55.5 C 53.5 56.2 53.5 57.3 52.8 58 C 52.1 58.7 51 58.7 50.4 58 ZM 56.9 53.6 C 58.7 52.7 59.1 54.2 59.1 54.2 C 59.1 54.2 66 49.8 69.8 42.3 L 67.9 40.4 L 65.8 38.3 C 58.3 42.1 53.9 49 53.9 49 C 53.9 49 55.4 49.5 54.5 51.2 C 53.7 53 49.6 51 47.7 55.4 C 46.2 59 44.1 64.3 44.1 64.3 L 52.8 60.5 C 57.2 58.6 55.1 54.5 56.9 53.6 ZM 100 9.5 C 100.3 9.1 100.3 8.5 100 8.2 L 98.7 6.9 C 98.3 6.5 97.7 6.5 97.4 6.9 L 67.8 34.1 C 67.4 34.5 67.4 35 67.8 35.4 L 71.7 39.3 C 72 39.7 72.6 39.7 73 39.3 L 100 9.5 Z" fill="#9ecf41"/>
	</g>
	<g id="Layer%201">
	</g>
</svg>