<?xml version="1.0" standalone="no"?>

<svg viewBox="0 0 180 140" style="background-color:#ffffff00" version="1.1" xmlns="http://www.w3.org/2000/svg" xmlns:xlink="http://www.w3.org/1999/xlink" xml:space="preserve" x="0px" y="0px" width="100%" height="100%">
	<g id="Background">
		<path d="M 171.4 4 L 148.6 4 C 148.6 2 146.9 0 144.8 0 L 112.4 0 C 110.3 0 108.6 2 108.6 4 L 82 4 C 78.8 4 75.4 6.2 75.4 9.2 L 75.4 134.6 C 75.4 137.6 78.8 140 82 140 L 171.4 140 C 174.6 140 178 137.6 178 134.6 L 178 9.2 C 178 6.2 174.6 4 171.4 4 ZM 141 5.7 C 142 5.7 142.9 6.5 142.9 7.6 C 142.9 8.6 142 9.5 141 9.5 C 139.9 9.5 139.1 8.6 139.1 7.6 C 139.1 6.5 139.9 5.7 141 5.7 ZM 116.2 5.7 C 117.3 5.7 118.1 6.5 118.1 7.6 C 118.1 8.6 117.3 9.5 116.2 9.5 C 115.2 9.5 114.3 8.6 114.3 7.6 C 114.3 6.5 115.2 5.7 116.2 5.7 ZM 170 130.5 C 170 130.5 169.5 132 167.6 132 L 85.8 132 C 83.9 132 83.5 130.5 83.5 130.5 L 83.5 13.2 C 83.5 11.4 85.8 12 85.8 12 L 108.6 12 C 108.6 14 110.3 16 112.4 16 L 144.8 16 C 146.9 16 148.6 14 148.6 12 L 167.6 12 C 167.6 12 170 11.4 170 13.2 L 170 130.5 ZM 119.7 108 L 119.7 112 L 141.8 112 L 141.8 108 L 119.7 108 ZM 119.7 62 L 119.7 66 L 159.9 66 L 159.9 62 L 119.7 62 ZM 119.7 100 L 119.7 104 L 153.9 104 L 153.9 100 L 119.7 100 ZM 113.6 118 L 113.6 96 L 91.5 96 L 91.5 118 L 113.6 118 ZM 95.5 114 L 95.5 100 L 109.6 100 L 109.6 114 L 95.5 114 ZM 119.7 78 L 119.7 82 L 157.9 82 L 157.9 78 L 119.7 78 ZM 119.7 70 L 119.7 74 L 151.9 74 L 151.9 70 L 119.7 70 ZM 113.6 84 L 113.6 62 L 91.5 62 L 91.5 84 L 113.6 84 ZM 95.5 80 L 95.5 66 L 109.6 66 L 109.6 80 L 95.5 80 ZM 119.7 40 L 119.7 44 L 155.9 44 L 155.9 40 L 119.7 40 ZM 119.7 32 L 119.7 36 L 161.9 36 L 161.9 32 L 119.7 32 ZM 113.6 50 L 113.6 28 L 91.5 28 L 91.5 50 L 113.6 50 ZM 95.5 46 L 95.5 32 L 109.6 32 L 109.6 46 L 95.5 46 ZM 15.1 36.3 L 15.1 90 L 67.4 90 L 67.4 72 C 67.4 72 50.3 81.4 38.9 66.3 C 35.5 61.8 37.4 53.1 30.4 45.2 C 25.4 39.5 15.1 36.3 15.1 36.3 ZM 67.4 94 L 13.6 94 C 11.6 94 11.1 93.5 11.1 91.5 L 11.1 23.8 C 11.1 21.8 11.6 22 13.6 22 L 67.4 22 L 67.4 12 L 6.4 12 C 3.4 12 1 13.7 1 16.7 L 1 98.7 C 1 101.7 3.4 104 6.4 104 L 67.4 104 L 67.4 94 ZM 29.2 128 L 29.2 132 L 67.4 132 L 67.4 128 L 29.2 128 ZM 53.3 108 L 53.3 124 L 67.4 124 L 67.4 108 L 53.3 108 Z" fill="#ffffff"/>
	</g>
	<g id="Layer%201">
	</g>
</svg>