<svg xmlns="http://www.w3.org/2000/svg" width="396.302" height="335.487" viewBox="0 0 396.302 335.487">
  <g id="stars" transform="translate(-7714.914 -5284.513)">
    <g id="Group_316" data-name="Group 316">
      <path id="Path_2" data-name="Path 2" d="M1557.307,506l9.146,18.532L1586.9,527.5l-14.8,14.425,3.5,20.371-18.293-9.616-18.293,9.616,3.494-20.369-14.8-14.425,20.452-2.972Z" transform="translate(6435.312 4850.513)" fill="#9cc74c"/>
      <path id="Path" d="M1523.317,544l5.969,12.011,13.348,1.926-9.658,9.349,2.28,13.2-11.938-6.233-11.939,6.233,2.28-13.2-9.659-9.35,13.347-1.926Z" transform="translate(6396.133 4881.072)" fill="#9cc74c"/>
      <path id="Path-2" data-name="Path" d="M1494.037,574l4.029,8.046,9.008,1.29-6.518,6.264,1.539,8.844-8.057-4.176-8.057,4.176,1.539-8.844-6.52-6.263,9.008-1.29Z" transform="translate(6306.769 4954.21)" fill="#9cc74c"/>
      <path id="Path-3" data-name="Path" d="M1498.17,574l5.306,10.6,11.864,1.7-8.585,8.25,2.027,11.648-10.612-5.5-10.612,5.5,2.027-11.648L1481,586.3l11.865-1.7Z" transform="translate(6356.769 4903.46)" fill="#9cc74c"/>
      <path id="Path-4" data-name="Path" d="M1557.307,507l9.146,17.532L1586.9,527.5l-14.8,14.425,3.5,20.371-18.293-9.616-18.293,9.616,3.494-20.369-14.8-14.425,20.452-2.972Z" transform="translate(6524.312 4777.513)" fill="#9cc74c"/>
    </g>
    <g id="Group_317" class="blinking-star-link animated flash slower infinite" data-name="Group 317" transform="translate(4810.914 4866.292)">
      <ellipse id="Ellipse_1" data-name="Ellipse 1" cx="22.96" cy="23.149" rx="22.96" ry="23.149" transform="translate(2909.63 701.915)" fill="#00a3d9"/>
      <circle id="Ellipse_4" data-name="Ellipse 4" cx="3.5" cy="3.5" r="3.5" transform="translate(2904 695.708)" fill="rgba(106,219,255,0.37)"/>
      <circle id="Ellipse_5" data-name="Ellipse 5" cx="3.5" cy="3.5" r="3.5" transform="translate(2956 695.708)" fill="rgba(106,219,255,0.37)"/>
      <circle id="Ellipse_6" data-name="Ellipse 6" cx="3.5" cy="3.5" r="3.5" transform="translate(2904 746.708)" fill="rgba(106,219,255,0.37)"/>
      <circle id="Ellipse_7" data-name="Ellipse 7" cx="3.5" cy="3.5" r="3.5" transform="translate(2956 746.708)" fill="rgba(106,219,255,0.37)"/>
      <path id="Path_4" data-name="Path 4" d="M626.638,303.756c-.39-2.69-.607-9.447-.158-10.428.345-.676,1.191-.86,1.907-1.231A6.677,6.677,0,0,0,630,290.771c.305-.334.669-.672.58-1.014-.18-.665-2.23-.886-2.528-.911-.331-.037-4.839-.621-7.187.955-.272.165-.228.338-.121.573a6.259,6.259,0,0,0,2.113,1.87c.485.283,1.429.408,1.833,1.323.481,1.084.459,7.33-.125,10.189-2.546,0-9.094-1.4-10.057-2.253-.753-.665-.687-2.157-.672-2.568a3.64,3.64,0,0,0-.86-2.616c-.191-.176-.342-.268-.591-.059-2.267,1.745-3.171,6.412-3.241,6.739-.066.294-.485,2.282.107,2.657a1.184,1.184,0,0,0,1.205-.217c.577-.444.592-.514,1.25-1.08a3.434,3.434,0,0,1,1.833-1.161c1.2-.136,8.734,1.878,10.406,2.811-.819,2.539-4,8.921-5.1,9.542-.874.492-2.638-.845-3.079-1.007a4.179,4.179,0,0,0-2.767-.085c-.228.121-.364.239-.235.54,1,2.741,5.258,5.174,5.552,5.354.265.158,2.065,1.227,2.605.786.272-.22.213-.753.158-1.22a2.675,2.675,0,0,0-.349-1.293c-.378-.75-.654-1.014-.544-1.782.21-1.1,3.785-7.228,5.42-9.2,1.643,1.969,5.214,8.1,5.423,9.2.114.768-.162,1.033-.54,1.782a2.726,2.726,0,0,0-.353,1.293c-.055.467-.114,1,.162,1.22.54.441,2.341-.628,2.6-.786.3-.18,4.549-2.613,5.552-5.354.132-.3-.007-.419-.231-.54a4.166,4.166,0,0,0-2.763.085c-.448.162-2.216,1.5-3.087,1.007-1.1-.621-4.281-7-5.1-9.542,1.676-.933,9.208-2.947,10.41-2.811a3.462,3.462,0,0,1,1.834,1.161c.658.566.672.636,1.246,1.08a1.184,1.184,0,0,0,1.205.217c.6-.375.173-2.363.107-2.657-.073-.327-.977-4.993-3.241-6.739-.246-.209-.4-.118-.588.059a3.641,3.641,0,0,0-.863,2.616c.011.412.085,1.9-.672,2.568C635.739,302.352,629.176,303.756,626.638,303.756Z" transform="translate(2307 420.221)" fill="#7bdffe" fill-rule="evenodd"/>
    </g>
  </g>
</svg>
