<?xml version="1.0" standalone="no"?>
<!DOCTYPE svg PUBLIC "-//W3C//DTD SVG 1.1//EN" "http://www.w3.org/Graphics/SVG/1.1/DTD/svg11.dtd" >
<svg xmlns="http://www.w3.org/2000/svg" xmlns:xlink="http://www.w3.org/1999/xlink" version="1.1">
<metadata>
Created by FontForge 20170731 at Wed Jun  8 18:02:15 2011
 By Aleksey,,,
</metadata>
<defs>
<font id="fatten-light" horiz-adv-x="556" >
  <font-face 
    font-family="fatten-light"
    font-weight="300"
    font-stretch="normal"
    units-per-em="1000"
    panose-1="0 0 4 0 0 0 0 0 0 0"
    ascent="700"
    descent="-300"
    x-height="474"
    cap-height="700"
    bbox="-167 -228 1000 935"
    underline-thickness="50"
    underline-position="-150"
    unicode-range="U+0020-FB02"
  />
<missing-glyph horiz-adv-x="500" 
d="M0 700h500v-700h-500v700zM420 650h-340l170 -255zM450 95v510l-170 -255zM420 50l-170 255l-170 -255h340zM50 95l170 255l-170 255v-510z" />
    <glyph glyph-name="uniFB01" unicode="fi" horiz-adv-x="500" 
d="M312 474v-36h-196v-438h-38v553q0 70 52 111q45 36 106 36h76v-36h-76q-47 0 -81 -29q-39 -33 -39 -92v-69h196zM412 0h-38v474h38v-474zM393 638q30 0 30 -30t-30 -30t-30 30t30 30z" />
    <glyph glyph-name="uniFB02" unicode="fl" horiz-adv-x="500" 
d="M312 474v-36h-196v-438h-38v553q0 70 52 111q45 36 106 36h76v-36h-76q-47 0 -81 -29q-39 -33 -39 -92v-69h196zM412 0h-38v700h38v-700z" />
    <glyph glyph-name=".notdef" horiz-adv-x="500" 
d="M0 700h500v-700h-500v700zM420 650h-340l170 -255zM450 95v510l-170 -255zM420 50l-170 255l-170 -255h340zM50 95l170 255l-170 255v-510z" />
    <glyph glyph-name=".null" horiz-adv-x="0" 
 />
    <glyph glyph-name="nonmarkingreturn" horiz-adv-x="333" 
 />
    <glyph glyph-name="space" unicode=" " horiz-adv-x="278" 
 />
    <glyph glyph-name="exclam" unicode="!" horiz-adv-x="222" 
d="M125 138h-38v574h38v-574zM106 70q38 0 38 -38t-38 -38t-38 38t38 38z" />
    <glyph glyph-name="quotedbl" unicode="&#x22;" horiz-adv-x="333" 
d="M98 474v226h38v-226h-38zM198 474v226h38v-226h-38z" />
    <glyph glyph-name="numbersign" unicode="#" 
d="M493 272l4 -40h-115l-32 -232h-42l32 232h-149l-32 -232h-42l32 232h-114l-4 40h124l22 162h-114l-4 40h123l32 226h42l-32 -226h149l32 226h42l-32 -226h106l4 -40h-115l-22 -162h105zM368 434h-149l-22 -162h149z" />
    <glyph glyph-name="dollar" unicode="$" 
d="M319 136q152 2 152 111q0 61 -46 95q-19 14 -48 26q-22 9 -58 19v-251zM281 664q-66 0 -97 -18q-40 -24 -40 -84q0 -52 40 -83q18 -13 44 -24q21 -9 53 -18v227zM319 700h155v-36h-155v-238l35 -11q19 -6 34 -12q37 -14 61 -31q60 -42 60 -120q0 -152 -190 -152v-100h-38
v100h-175v36h175v262q-41 11 -64 20q-34 13 -56 30q-55 41 -55 117q0 66 46 102q42 33 110 33h19v66h38v-66z" />
    <glyph glyph-name="percent" unicode="%" horiz-adv-x="889" 
d="M299 641q-32 33 -79 33t-79 -33q-32 -32 -32 -78t32 -78q32 -33 79 -33t79 33q32 32 32 78t-32 78zM216 -12h-37l462 724h39zM719 215q-32 33 -79 33t-79 -33q-32 -32 -32 -78t32 -78q32 -33 79 -33t79 33q32 32 32 78t-32 78zM326 668q45 -44 45 -105t-45 -105
q-44 -44 -106 -44t-106 44q-45 44 -45 105t45 105q44 44 106 44t106 -44zM746 242q45 -44 45 -105t-45 -105q-44 -44 -106 -44t-106 44q-45 44 -45 105t45 105q44 44 106 44t106 -44z" />
    <glyph glyph-name="ampersand" unicode="&#x26;" horiz-adv-x="667" 
d="M196 476q-130 -67 -130 -205q0 -105 65 -173q69 -72 187 -72q67 0 110 15q50 16 95 60zM500 700v-36h-282q-64 0 -64 -53q0 -23 17 -49q12 -18 47 -57l331 -374q36 57 36 141q0 62 -23 106q-20 39 -65 76l25 25q103 -83 103 -217q0 -98 -51 -162l81 -100h-49l-57 73
q-90 -85 -233 -85q-113 0 -194 65q-45 35 -69 84q-27 55 -27 124q0 90 42 152q18 26 45 50q23 19 56 39q-34 42 -44 64q-9 20 -9 48q0 86 114 86h270z" />
    <glyph glyph-name="quotesingle" unicode="'" horiz-adv-x="222" 
d="M92 474v226h38v-226h-38z" />
    <glyph glyph-name="parenleft" unicode="(" horiz-adv-x="389" 
d="M352 689q-96 -86 -145 -188q-53 -109 -53 -238q0 -261 206 -426l-19 -23q-105 74 -165 196q-60 120 -60 253q0 138 59 256q56 112 158 193z" />
    <glyph glyph-name="parenright" unicode=")" horiz-adv-x="389" 
d="M56 712q102 -81 158 -193q59 -118 59 -256q0 -133 -60 -253q-60 -122 -165 -196l-19 23q206 165 206 426q0 129 -52 238q-50 102 -146 188z" />
    <glyph glyph-name="asterisk" unicode="*" horiz-adv-x="500" 
d="M416 608l-138 -82l138 -82l-18 -25l-133 79v-158h-30v158l-133 -79l-18 25l138 82l-138 82l18 24l133 -80v148h30v-148l133 80z" />
    <glyph glyph-name="plus" unicode="+" horiz-adv-x="600" 
d="M281 257v217h40v-217h215v-40h-215v-217h-40v217h-217v40h217z" />
    <glyph glyph-name="comma" unicode="," horiz-adv-x="278" 
d="M78 -82l41 154h49l-50 -154h-40z" />
    <glyph glyph-name="hyphen" unicode="-" horiz-adv-x="333" 
d="M262 218h-190v38h190v-38z" />
    <glyph glyph-name="period" unicode="." horiz-adv-x="278" 
d="M134 70q38 0 38 -38t-38 -38t-38 38t38 38z" />
    <glyph glyph-name="slash" unicode="/" horiz-adv-x="278" 
d="M1 -12l236 724h41l-236 -724h-41z" />
    <glyph glyph-name="zero" unicode="0" 
d="M508 238q0 -113 -59 -180q-62 -70 -171 -70t-170 70q-60 67 -60 180v224q0 113 60 181q61 69 170 69t171 -69q59 -68 59 -181v-224zM92 226q0 -89 49 -142q50 -56 137 -56t137 56q49 53 49 142v248q0 89 -49 143q-50 55 -137 55t-137 -55q-49 -54 -49 -143v-248z" />
    <glyph glyph-name="one" unicode="1" 
d="M146 664l9 36h146v-700h-38v664h-117z" />
    <glyph glyph-name="two" unicode="2" 
d="M502 40v-40h-408q-44 0 -44 51q0 27 63 78l140 105q44 33 75 59q38 33 65 62q63 71 63 131q0 186 -182 186q-88 0 -136 -50q-46 -49 -46 -132q0 -66 52 -116q56 -54 131 -42l2 -3l-27 -19l-14 -7q-8 -3 -13 -3q-54 0 -109 48q-30 26 -47 60q-19 39 -19 84q0 102 58 160
q60 60 168 60q97 0 157 -50q69 -59 69 -176q0 -65 -63 -142q-27 -33 -65 -68q-33 -29 -75 -62q-17 -14 -38 -29l-102 -74q-63 -47 -63 -62q0 -9 12 -9h396z" />
    <glyph glyph-name="three" unicode="3" 
d="M63 664v36h319q54 0 54 -37q0 -30 -25 -53l-212 -200h75q99 0 158 -58q56 -55 56 -142q0 -102 -62 -157q-61 -53 -168 -53h-200v38h224q68 0 115 45t47 115q0 172 -182 172h-125v27l237 228q18 17 18 29q0 10 -10 10h-319z" />
    <glyph glyph-name="four" unicode="4" 
d="M364 198h-291q-51 0 -51 41q0 19 39 83l238 390h45l-277 -455q-1 -4 -1 -10q0 -13 15 -13h282v428l38 50v-478h119v-36h-119v-198h-37v198z" />
    <glyph glyph-name="five" unicode="5" 
d="M128 412h142q101 0 160 -64q54 -59 54 -147q0 -87 -59 -141q-64 -60 -177 -60h-182v40h196q88 0 137 52q43 46 41 114q-2 73 -44 118q-47 48 -132 48h-176v328h347v-36h-307v-252z" />
    <glyph glyph-name="six" unicode="6" 
d="M289 700h50l-182 -271q-48 -71 -61 -103q-16 -39 -16 -97q0 -89 61 -147q57 -54 137 -54t137 55q61 58 61 148q0 89 -61 148q-57 55 -137 55q-50 0 -85 -14l29 46q26 8 56 8q98 -2 167 -64q75 -69 75 -179q0 -107 -75 -177q-71 -66 -167 -66q-98 0 -167 62
q-75 68 -75 179q0 62 24 115q10 23 29 53z" />
    <glyph glyph-name="seven" unicode="7" 
d="M37 664v36h419q63 0 63 -45q0 -16 -6 -35l-274 -620h-46l281 632q5 12 5 17q0 15 -20 15h-422z" />
    <glyph glyph-name="eight" unicode="8" 
d="M351 402q68 -12 113 -66q46 -55 46 -130q0 -104 -74 -164q-65 -54 -158 -54t-158 54q-74 60 -74 164q0 75 46 130q45 54 113 66v2q-50 18 -77 51q-31 38 -31 95q0 73 49 117q49 45 132 45t133 -45q48 -44 48 -117q0 -57 -31 -95q-27 -33 -77 -51v-2zM150 335
q-60 -50 -60 -129q0 -84 58 -136q53 -48 130 -48t130 48q58 52 58 136q0 79 -60 129q-55 45 -128 45t-128 -45zM278 678q-137 0 -137 -128q0 -56 33 -93q38 -43 104 -43t104 43q33 37 33 93q0 128 -137 128z" />
    <glyph glyph-name="nine" unicode="9" 
d="M267 0h-50l182 271q48 71 61 103q16 39 16 97q0 89 -61 147q-57 54 -137 54t-137 -55q-61 -58 -61 -148q0 -89 61 -148q57 -55 137 -55q50 0 85 14l-29 -46q-26 -8 -56 -8q-98 2 -167 64q-75 69 -75 179q0 107 75 177q71 66 167 66q98 0 167 -62q75 -68 75 -179
q0 -62 -24 -115q-10 -23 -29 -53z" />
    <glyph glyph-name="colon" unicode=":" horiz-adv-x="278" 
d="M134 70q38 0 38 -38t-38 -38t-38 38t38 38zM134 388q38 0 38 -38t-38 -38t-38 38t38 38z" />
    <glyph glyph-name="semicolon" unicode=";" horiz-adv-x="278" 
d="M78 -82l41 154h49l-50 -154h-40zM134 388q38 0 38 -38t-38 -38t-38 38t38 38z" />
    <glyph glyph-name="less" unicode="&#x3c;" horiz-adv-x="600" 
d="M536 481v-44l-432 -200l432 -200v-44l-472 219v50z" />
    <glyph glyph-name="equal" unicode="=" horiz-adv-x="600" 
d="M536 125h-472v40h472v-40zM536 309h-472v40h472v-40z" />
    <glyph glyph-name="greater" unicode="&#x3e;" horiz-adv-x="600" 
d="M64 437v44l472 -219v-50l-472 -219v44l432 200z" />
    <glyph glyph-name="question" unicode="?" horiz-adv-x="444" 
d="M22 514q0 84 54 140q56 58 146 58t146 -58q54 -56 54 -140q0 -104 -67 -160q-55 -46 -131 -46v-180h-38v216q39 0 70 7q37 8 63 26q63 43 63 137q0 67 -44 113q-45 47 -116 47t-116 -47q-44 -46 -44 -113h-40zM205 70q38 0 38 -38t-38 -38t-38 38t38 38z" />
    <glyph glyph-name="at" unicode="@" horiz-adv-x="800" 
d="M402 191q32 25 58 68q53 86 53 167q0 38 -27 71q-28 33 -60 33q-78 0 -137 -89q-53 -81 -53 -167q0 -110 95 -110q36 0 71 27zM563 546h41l-96 -287q-13 -39 -10 -66q4 -33 35 -33q67 0 121 85q50 82 48 172q-2 116 -89 190q-81 69 -197 69q-135 0 -227 -97
q-91 -96 -91 -232q0 -133 94 -228t226 -95q178 0 270 140h41q-45 -80 -130 -128q-84 -48 -179 -48q-153 0 -258 107q-104 106 -104 258q0 148 106 254q106 105 252 105q137 0 232 -84q94 -83 94 -205q0 -121 -70 -210q-66 -85 -146 -85q-65 0 -68 72l-2 -2q-28 -28 -57 -45
q-37 -21 -72 -21q-60 0 -96 43q-35 41 -35 102q0 110 65 196q69 93 171 93q75 0 106 -84z" />
    <glyph glyph-name="A" unicode="A" horiz-adv-x="611" 
d="M546 0h-42v342h-358v36h358v106q0 88 -55 139q-54 51 -144 51t-144 -51q-55 -51 -55 -139v-484h-42v471q0 113 66 178q64 63 175 63t175 -63q66 -65 66 -178v-471z" />
    <glyph glyph-name="B" unicode="B" 
d="M146 0v36h142q97 0 146 44q44 40 44 110q0 162 -174 162h-158v36h102q194 0 194 152q0 136 -161 136q-79 0 -125 -43q-50 -47 -50 -131v-502h-42v476q0 236 222 236q98 0 152 -52q48 -47 48 -120q0 -59 -22 -99q-26 -47 -83 -66v-2q50 -1 93 -52q48 -55 48 -133
q0 -81 -52 -132q-56 -56 -158 -56h-166z" />
    <glyph glyph-name="C" unicode="C" horiz-adv-x="500" 
d="M475 36v-36h-89q-140 0 -238 90q-51 47 -78 110q-30 68 -30 150t30 150q27 63 78 110q98 90 238 90h90v-36h-82q-122 0 -210 -77q-47 -41 -72 -98q-28 -62 -28 -139t28 -139q25 -57 72 -98q88 -77 210 -77h81z" />
    <glyph glyph-name="D" unicode="D" horiz-adv-x="611" 
d="M106 0h-42v700h152q144 0 247 -97q108 -101 108 -253q0 -156 -96 -254q-93 -96 -233 -96h-101v38h97q131 0 213 95q76 89 76 217q0 132 -92 221q-94 91 -235 91h-94v-662z" />
    <glyph glyph-name="E" unicode="E" horiz-adv-x="500" 
d="M452 378v-36h-384q0 -74 30 -135q27 -55 77 -95q93 -76 213 -76h64v-36h-80q-140 0 -238 90q-51 47 -78 110q-30 68 -30 150t30 150q27 63 78 110q98 90 238 90h80v-36h-78q-128 0 -220 -92q-86 -87 -86 -194h384z" />
    <glyph glyph-name="F" unicode="F" horiz-adv-x="444" 
d="M106 332v-332h-42v494q0 96 58 154q51 52 122 52h152v-36h-138q-68 0 -110 -49q-42 -48 -42 -123v-124h290v-36h-290z" />
    <glyph glyph-name="G" unicode="G" horiz-adv-x="778" 
d="M631 567q-88 107 -243 107q-132 0 -222 -96q-89 -95 -89 -228t89 -228q90 -96 222 -96q128 0 215 91q86 89 89 219h-304v36h348q4 -173 -100 -281q-100 -103 -248 -103t-252 107q-103 106 -103 255t103 255q104 107 252 107q171 0 272 -115z" />
    <glyph glyph-name="H" unicode="H" horiz-adv-x="611" 
d="M112 0h-42v700h42v-316h387v316h42v-700h-42v348h-387v-348z" />
    <glyph glyph-name="I" unicode="I" horiz-adv-x="222" 
d="M132 0h-42v700h42v-700z" />
    <glyph glyph-name="J" unicode="J" horiz-adv-x="333" 
d="M-15 0v38h75q65 0 108 37q53 44 53 129v496h42v-510q0 -90 -61 -142q-56 -48 -138 -48h-79z" />
    <glyph glyph-name="K" unicode="K" 
d="M106 0h-42v700h42v-316h112q77 0 116 35q35 31 78 128l67 153h47l-100 -218q-42 -92 -99 -104v-2q79 -6 128 -57q57 -60 57 -169v-150h-42v150q0 198 -206 198h-158v-348z" />
    <glyph glyph-name="L" unicode="L" horiz-adv-x="389" 
d="M64 700h42v-492q0 -75 42 -123q42 -49 110 -49h133v-36h-147q-71 0 -122 52q-58 58 -58 154v494z" />
    <glyph glyph-name="M" unicode="M" horiz-adv-x="833" 
d="M70 0h-42l87 640q10 72 52 72q29 0 40 -13q12 -15 28 -71l168 -569q3 -10 7 -16q4 -7 7 -7t6 7q2 3 3 7l171 578q16 56 28 71q11 13 40 13q42 0 52 -72l87 -640h-42l-87 643q-3 29 -14 29q-10 0 -18 -29l-168 -574q-15 -51 -24 -63q-10 -14 -35 -14t-35 14q-9 12 -24 63
l-168 574q-8 29 -18 29q-11 0 -14 -29z" />
    <glyph glyph-name="N" unicode="N" horiz-adv-x="611" 
d="M110 0h-42v656q0 56 52 56q40 0 60 -42l293 -626q7 -14 17 -14q11 0 11 19v663h42v-674q0 -50 -51 -50q-25 0 -43 17q-12 11 -21 31l-278 599q-18 39 -28 39q-12 0 -12 -18v-656z" />
    <glyph glyph-name="O" unicode="O" horiz-adv-x="778" 
d="M136 95q-103 106 -103 255t103 255q104 107 252 107q149 0 253 -107q104 -106 104 -255t-104 -255q-104 -107 -253 -107q-148 0 -252 107zM611 122q90 95 90 228t-90 228q-92 96 -223 96q-132 0 -222 -96q-89 -95 -89 -228t89 -228q90 -96 222 -96q131 0 223 96z" />
    <glyph glyph-name="P" unicode="P" horiz-adv-x="500" 
d="M102 0h-42v506q0 87 55 144q60 62 160 62q94 0 153 -56q62 -59 62 -159t-62 -159q-59 -56 -153 -56h-136v38h136q76 0 123 47q48 48 48 130t-48 130q-47 47 -123 47q-75 0 -124 -48q-49 -47 -49 -116v-510z" />
    <glyph glyph-name="Q" unicode="Q" horiz-adv-x="778" 
d="M424 192v-164q119 14 198 107q79 92 79 215q0 133 -90 228q-92 96 -223 96q-132 0 -222 -96q-89 -95 -89 -228q0 -122 76 -213q75 -90 187 -107v-38q-123 11 -214 114q-93 106 -93 244q0 149 103 255q104 107 252 107q149 0 253 -107q104 -106 104 -255q0 -139 -92 -243
q-92 -103 -229 -117v-142h-38v344h38z" />
    <glyph glyph-name="R" unicode="R" 
d="M106 0h-42v492q0 100 57 160q56 60 151 60t155 -51q59 -51 59 -131q0 -135 -115 -175v-2q129 -22 129 -161v-192h-44v198q0 60 -38 95q-43 39 -128 39h-144v36h114q182 0 182 158q0 66 -48 107q-47 41 -122 41q-79 0 -123 -50q-43 -48 -43 -130v-494z" />
    <glyph glyph-name="S" unicode="S" 
d="M473 700v-38h-232q-83 0 -120 -33q-34 -30 -34 -90q0 -71 67 -110q26 -15 68 -29l78 -23q50 -14 78 -26q41 -16 68 -36q67 -49 67 -138q0 -177 -218 -177h-252v38h246q180 0 180 133q0 79 -67 120q-26 17 -68 31l-118 34l-38 13q-42 16 -68 35q-67 49 -67 139
q0 77 54 119q48 38 128 38h248z" />
    <glyph glyph-name="T" unicode="T" horiz-adv-x="444" 
d="M243 664v-664h-42v664h-199v36h440v-36h-199z" />
    <glyph glyph-name="U" unicode="U" horiz-adv-x="611" 
d="M64 700h42v-484q0 -88 55 -139q54 -51 144 -51t144 51q55 51 55 139v484h42v-471q0 -113 -66 -177q-64 -64 -175 -64t-175 64q-66 64 -66 177v471z" />
    <glyph glyph-name="V" unicode="V" horiz-adv-x="500" 
d="M-18 700h41l195 -633q13 -41 25 -41t25 41l209 633h41l-219 -663q-16 -49 -56 -49q-41 0 -57 49z" />
    <glyph glyph-name="W" unicode="W" horiz-adv-x="944" 
d="M451 700h42v-468q0 -102 57 -158q49 -48 120 -48q72 0 119 47q49 48 49 124v503h42v-508q0 -93 -60 -150q-58 -54 -147 -54q-130 0 -201 128q-71 -128 -201 -128q-89 0 -147 54q-60 57 -60 150v508h42v-503q0 -76 49 -124q47 -47 119 -47q71 0 120 48q57 56 57 158v468z
" />
    <glyph glyph-name="X" unicode="X" horiz-adv-x="611" 
d="M594 662q-102 0 -183 -89q-85 -93 -85 -221t85 -221q81 -89 183 -89v-42q-101 0 -181 68q-78 66 -107 173h-2q-29 -107 -107 -173q-80 -68 -181 -68v42q102 0 183 89q85 93 85 221t-85 221q-81 89 -183 89v42q101 0 181 -68q78 -66 107 -173h2q29 107 107 173
q80 68 181 68v-42z" />
    <glyph glyph-name="Y" unicode="Y" 
d="M450 700h42v-191q0 -97 -59 -159q-56 -58 -134 -58v-292h-42v292q-78 0 -134 58q-59 62 -59 159v191h42v-194q0 -79 49 -128q47 -48 123 -48t124 48q48 49 48 128v194z" />
    <glyph glyph-name="Z" unicode="Z" horiz-adv-x="500" 
d="M470 38v-38h-391q-59 0 -59 44q0 29 28 70l350 495q20 27 20 41q0 12 -16 12h-344v38h343q61 0 61 -44q0 -31 -33 -78l-356 -505q-6 -8 -7 -12q-2 -4 -2 -10q0 -13 18 -13h388z" />
    <glyph glyph-name="bracketleft" unicode="[" horiz-adv-x="278" 
d="M90 700h136v-38h-98v-810h98v-38h-136v886z" />
    <glyph glyph-name="backslash" unicode="\" horiz-adv-x="278" 
d="M-66 712h40l371 -724h-40z" />
    <glyph glyph-name="bracketright" unicode="]" horiz-adv-x="278" 
d="M52 700h136v-886h-136v38h98v810h-98v38z" />
    <glyph glyph-name="asciicircum" unicode="^" horiz-adv-x="600" 
d="M277 700h46l216 -424h-49l-190 380l-192 -380h-47z" />
    <glyph glyph-name="underscore" unicode="_" horiz-adv-x="500" 
d="M500 -125h-500v50h500v-50z" />
    <glyph glyph-name="grave" unicode="`" horiz-adv-x="222" 
d="M168 534h-37l-133 138h51z" />
    <glyph glyph-name="a" unicode="a" 
d="M496 0h-38v237q0 85 -54 147q-56 64 -139 64q-75 0 -131 -60q-60 -62 -60 -151t60 -151q56 -60 131 -60q82 0 148 69v-45q-14 -12 -25 -19q-16 -12 -32 -20q-43 -21 -91 -21q-98 0 -164 70q-67 71 -67 177t67 177q66 70 164 70t164 -70q67 -71 67 -177v-237z" />
    <glyph glyph-name="b" unicode="b" 
d="M60 700h38v-463q0 -85 54 -147q56 -64 139 -64q75 0 132 60q59 62 59 151t-59 151q-57 60 -132 60q-82 0 -148 -69v45q14 12 25 20q16 11 33 19q42 21 90 21q98 0 164 -70q67 -71 67 -177t-67 -177q-66 -70 -164 -70t-164 70q-67 71 -67 177v463z" />
    <glyph glyph-name="c" unicode="c" horiz-adv-x="389" 
d="M351 484v-40h-69q-91 0 -147 -56q-57 -56 -57 -146t57 -146q56 -56 147 -56h69v-40h-71q-105 0 -173 67q-69 68 -69 175t69 175q68 67 173 67h71z" />
    <glyph glyph-name="d" unicode="d" 
d="M458 700h38v-463q0 -106 -67 -177q-66 -70 -164 -70t-164 70q-67 71 -67 177t67 177q66 70 164 70q48 0 91 -21q16 -8 32 -19q11 -8 25 -20v-45q-66 69 -148 69q-75 0 -131 -60q-60 -62 -60 -151t60 -151q56 -60 131 -60q83 0 139 64q54 62 54 147v463z" />
    <glyph glyph-name="e" unicode="e" 
d="M156 138l-24 32l305 206q-57 72 -153 72q-89 0 -148 -65q-58 -62 -58 -149q0 -85 59 -146q60 -62 147 -62q85 0 146 60q60 59 62 141h40q-2 -96 -71 -166q-70 -71 -169 -71q-110 0 -182 71q-72 70 -72 175q0 103 68 174q71 74 178 74q139 0 211 -116z" />
    <glyph glyph-name="f" unicode="f" horiz-adv-x="278" 
d="M294 474v-36h-196v-438h-38v553q0 70 52 111q45 36 106 36h76v-36h-76q-47 0 -81 -29q-39 -33 -39 -92v-69h196z" />
    <glyph glyph-name="g" unicode="g" 
d="M133 -168q62 -24 120 -24q101 0 151 50q54 54 54 174v205q0 85 -54 147q-56 64 -139 64q-75 0 -131 -60q-60 -62 -60 -151t60 -151q56 -60 131 -60q82 0 148 69v-45q-14 -12 -25 -19q-16 -12 -32 -20q-43 -21 -91 -21q-98 0 -164 70q-67 71 -67 177t67 177q66 70 164 70
t164 -70q67 -71 67 -177v-231q0 -109 -67 -172q-65 -62 -171 -62q-71 0 -137 24z" />
    <glyph glyph-name="h" unicode="h" horiz-adv-x="500" 
d="M440 0h-38v284q0 73 -45 119q-43 45 -107 45t-107 -45q-45 -46 -45 -119v-284h-38v700h38v-290h2q52 74 150 74q81 0 135 -54q55 -55 55 -141v-289z" />
    <glyph glyph-name="i" unicode="i" horiz-adv-x="222" 
d="M130 0h-38v474h38v-474zM111 638q30 0 30 -30t-30 -30t-30 30t30 30z" />
    <glyph glyph-name="j" unicode="j" horiz-adv-x="222" 
d="M92 474h38v-555q0 -70 -52 -111q-45 -36 -106 -36h-22v36h22q47 0 81 29q39 33 39 92v545zM111 638q30 0 30 -30t-30 -30t-30 30t30 30z" />
    <glyph glyph-name="k" unicode="k" horiz-adv-x="444" 
d="M98 0h-38v700h38v-424h78q34 0 65 31q13 13 30 36q11 15 33 48l56 83h46l-103 -156q-22 -31 -44 -44v-2q54 -2 90 -36q41 -40 41 -110v-126h-38v124q0 48 -32 81q-34 35 -88 35h-134v-240z" />
    <glyph glyph-name="l" unicode="l" horiz-adv-x="222" 
d="M130 0h-38v700h38v-700z" />
    <glyph glyph-name="m" unicode="m" horiz-adv-x="722" 
d="M380 0h-38v314q0 64 -38 101q-35 33 -85 33t-84 -33q-39 -37 -39 -101v-314h-38v314q0 80 47 126q44 44 114 44q109 0 141 -93h2q32 93 141 93q70 0 114 -44q47 -46 47 -126v-314h-38v314q0 64 -39 101q-34 33 -84 33t-85 -33q-38 -37 -38 -101v-314z" />
    <glyph glyph-name="n" unicode="n" horiz-adv-x="500" 
d="M440 0h-38v284q0 73 -45 119q-43 45 -107 45t-107 -45q-45 -46 -45 -119v-284h-38v289q0 86 55 141q54 54 135 54t135 -54q55 -55 55 -141v-289z" />
    <glyph glyph-name="o" unicode="o" 
d="M135 384q-57 -62 -57 -147t57 -147q58 -64 143 -64t144 64q56 62 56 147t-56 147q-59 64 -144 64t-143 -64zM449 411q69 -72 69 -174t-69 -174q-70 -73 -171 -73t-171 73q-69 72 -69 174t69 174q70 73 171 73t171 -73z" />
    <glyph glyph-name="p" unicode="p" 
d="M98 -228h-38v465q0 106 67 177q66 70 164 70t164 -70q67 -71 67 -177t-67 -177q-66 -70 -164 -70q-48 0 -90 21q-17 8 -33 20q-11 7 -25 19v45q66 -69 148 -69q75 0 132 60q59 62 59 151t-59 151q-57 60 -132 60q-83 0 -139 -64q-54 -62 -54 -147v-465z" />
    <glyph glyph-name="q" unicode="q" 
d="M496 -226h-38v463q0 85 -54 147q-56 64 -139 64q-75 0 -131 -60q-60 -62 -60 -151t60 -151q56 -60 131 -60q82 0 148 69v-45q-14 -12 -25 -19q-16 -12 -32 -20q-43 -21 -91 -21q-98 0 -164 70q-67 71 -67 177t67 177q66 70 164 70t164 -70q67 -71 67 -177v-463z" />
    <glyph glyph-name="r" unicode="r" horiz-adv-x="278" 
d="M98 0h-38v474h38v-91h2q42 91 140 91h44v-36h-40q-58 0 -101 -53q-45 -56 -45 -137v-248z" />
    <glyph glyph-name="s" unicode="s" horiz-adv-x="444" 
d="M38 0v36h212q115 0 115 80q0 52 -51 80q-21 11 -53 20l-60 14q-39 9 -60 16q-32 10 -53 23q-51 31 -51 90q0 49 31 81q34 34 90 34h213v-36h-210q-33 0 -56 -19q-26 -22 -26 -59q0 -46 51 -70q20 -9 53 -18l60 -13q37 -9 60 -16q32 -11 53 -25q51 -33 51 -96
q0 -122 -166 -122h-203z" />
    <glyph glyph-name="t" unicode="t" horiz-adv-x="278" 
d="M98 604v-130h168v-36h-168v-306q0 -96 92 -96h76v-36h-68q-138 0 -138 136v468h38z" />
    <glyph glyph-name="u" unicode="u" horiz-adv-x="500" 
d="M60 474h38v-284q0 -73 45 -119q43 -45 107 -45t107 45q45 46 45 119v284h38v-289q0 -86 -55 -141q-54 -54 -135 -54t-135 54q-55 55 -55 141v289z" />
    <glyph glyph-name="v" unicode="v" horiz-adv-x="444" 
d="M404 474h44l-181 -459q-10 -25 -45 -25t-45 25l-181 459h44l168 -424q9 -20 14 -20q7 0 14 20z" />
    <glyph glyph-name="w" unicode="w" horiz-adv-x="722" 
d="M342 474h38v-314q0 -64 38 -101q35 -33 85 -33t84 33q39 37 39 101v314h38v-314q0 -80 -47 -126q-44 -44 -114 -44q-109 0 -141 93h-2q-32 -93 -141 -93q-70 0 -114 44q-47 46 -47 126v314h38v-314q0 -64 39 -101q34 -33 84 -33t85 33q38 37 38 101v314z" />
    <glyph glyph-name="x" unicode="x" horiz-adv-x="444" 
d="M426 438q-72 0 -127 -58q-57 -61 -57 -143t57 -142q55 -59 127 -59v-36q-149 0 -204 140q-55 -140 -204 -140v36q72 0 127 59q57 60 57 142t-57 143q-55 58 -127 58v36q149 0 204 -140q55 140 204 140v-36z" />
    <glyph glyph-name="y" unicode="y" horiz-adv-x="500" 
d="M271 -216h-42v208q-73 6 -120 59q-49 54 -49 134v289h38v-284q0 -73 45 -119q43 -45 107 -45t107 45q45 46 45 119v284h38v-289q0 -80 -48 -134q-48 -53 -121 -59v-208z" />
    <glyph glyph-name="z" unicode="z" horiz-adv-x="389" 
d="M42 436v38h272q42 0 42 -43q0 -12 -4 -22q-5 -14 -19 -31l-253 -306q-14 -17 -14 -24q0 -10 18 -10h284v-38h-304q-42 0 -42 43q0 12 4 22q5 14 19 31l253 306q14 18 14 24q0 10 -18 10h-252z" />
    <glyph glyph-name="braceleft" unicode="{" horiz-adv-x="278" 
d="M66 281q30 0 43 48q11 38 11 106v157q0 69 17 96q16 24 50 24h39v-38h-38q-16 0 -22 -18q-8 -22 -8 -81v-157q0 -36 -7 -67q-6 -26 -16 -47q-8 -16 -17 -28l-7 -9l-5 -4v-2q2 -1 5 -4l7 -8q9 -12 17 -29q10 -21 16 -47q7 -31 7 -67v-155q0 -59 8 -81q6 -18 22 -18h38v-38
h-39q-34 0 -50 24q-17 27 -17 96v156q0 67 -11 105q-13 48 -43 48v38z" />
    <glyph glyph-name="bar" unicode="|" horiz-adv-x="222" 
d="M91 0v700h40v-700h-40z" />
    <glyph glyph-name="braceright" unicode="}" horiz-adv-x="278" 
d="M212 243q-30 0 -43 -48q-11 -38 -11 -106v-157q0 -69 -17 -96q-16 -24 -50 -24h-39v38h38q16 0 23 18q7 22 7 81v157q0 36 7 67q6 26 16 47q8 16 18 28l6 9l5 4v2q-2 1 -5 4l-6 8q-10 12 -18 29q-10 21 -16 47q-7 31 -7 67v155q0 59 -7 81q-7 18 -23 18h-38v38h39
q34 0 50 -24q17 -27 17 -96v-156q0 -67 11 -105q13 -48 43 -48v-38z" />
    <glyph glyph-name="asciitilde" unicode="~" horiz-adv-x="600" 
d="M536 270q-22 -38 -51 -59q-36 -27 -79 -27q-21 0 -51 11q-12 4 -28 11l-25 10q-3 1 -4 2q-38 17 -58 23q-33 11 -56 11q-29 0 -55 -23q-17 -15 -39 -49l-26 24q22 38 52 60q35 26 78 26q21 0 52 -11q13 -4 29 -11q10 -3 29 -12q38 -16 59 -23q33 -11 56 -11q27 0 52 23
q17 15 39 49z" />
    <glyph glyph-name="uni00A0" unicode="&#xa0;" horiz-adv-x="278" 
 />
    <glyph glyph-name="exclamdown" unicode="&#xa1;" horiz-adv-x="222" 
d="M97 346h38v-574h-38v574zM116 490q38 0 38 -38t-38 -38t-38 38t38 38z" />
    <glyph glyph-name="cent" unicode="&#xa2;" 
d="M366 556v-38h-115q-147 0 -147 -140t147 -140h115v-38h-81v-158h-40v158q-81 0 -131 46q-54 49 -54 132t54 132q50 46 131 46v144h40v-144h81z" />
    <glyph glyph-name="sterling" unicode="&#xa3;" 
d="M-10 0v40h14q126 0 126 128v183h-66v40h66v95q0 96 41 155q49 71 149 71q49 0 105 -18l-14 -34q-24 7 -40 10q-23 4 -45 4q-83 0 -121 -55q-35 -49 -35 -141v-87h123v-40h-123v-152q0 -112 -56 -157v-2h200q162 0 162 164v65h40v-73q0 -85 -49 -138q-52 -58 -143 -58
h-334z" />
    <glyph glyph-name="currency" unicode="&#xa4;" 
d="M131 203q61 -61 147 -61t147 61t61 147t-61 147t-147 61t-147 -61t-61 -147t61 -147zM522 136l-29 -30l-55 55q-67 -59 -160 -59t-160 59l-55 -55l-29 30l55 55q-59 67 -59 159t59 159l-55 55l29 30l55 -55q67 59 160 59t160 -59l55 55l29 -30l-55 -55q59 -67 59 -159
t-59 -159z" />
    <glyph glyph-name="yen" unicode="&#xa5;" 
d="M43 286v40h215v33q0 20 -4 33h-211v40h203q-22 98 -92 164q-67 64 -142 64v40q89 0 167 -72q76 -69 98 -165h2q22 96 98 165q78 72 167 72v-40q-75 0 -142 -64q-70 -66 -92 -164h203v-40h-211q-4 -13 -4 -33v-33h215v-40h-215v-286h-40v286h-215z" />
    <glyph glyph-name="brokenbar" unicode="&#xa6;" horiz-adv-x="222" 
d="M91 268h40v-268h-40v268zM91 700h40v-268h-40v268z" />
    <glyph glyph-name="section" unicode="&#xa7;" horiz-adv-x="500" 
d="M118 23q30 -36 57 -52q35 -20 89 -20q51 0 82 28q30 25 30 63q0 53 -48 90q-19 15 -49 30l-53 24q-3 1 -4 2q-37 16 -57 26q-30 16 -49 31q-48 40 -48 98q0 50 35 78q33 27 82 26l2 2q-43 20 -66 47q-32 37 -32 86q0 57 42 94q42 36 105 36q109 0 171 -97l-29 -27
q-44 94 -140 94q-52 0 -83 -28q-30 -26 -30 -65q0 -51 48 -89q19 -15 49 -31q12 -7 28 -14l29 -14q36 -17 56 -29q30 -16 49 -33q48 -42 48 -101q0 -97 -104 -101v-2q36 -18 59 -47q27 -33 27 -70q0 -66 -43 -103q-41 -34 -110 -34q-59 0 -102 23q-18 9 -36 23
q-14 11 -32 29zM394 279q0 30 -30 59q-24 24 -67 46q-33 16 -71 29q-31 10 -40 10q-82 0 -82 -78q0 -30 30 -59q24 -24 67 -46q33 -16 71 -29q31 -10 40 -10q82 0 82 78z" />
    <glyph glyph-name="dieresis" unicode="&#xa8;" horiz-adv-x="222" 
d="M32 626q34 0 34 -34t-34 -34t-34 34t34 34zM190 626q34 0 34 -34t-34 -34t-34 34t34 34z" />
    <glyph glyph-name="copyright" unicode="&#xa9;" horiz-adv-x="800" 
d="M583 276q-17 -63 -59 -101q-47 -42 -112 -42q-97 0 -154 60q-56 59 -56 158q0 93 56 153q58 63 151 63q67 0 117 -42q45 -40 57 -97h-42q-22 103 -131 103q-77 0 -122 -53q-42 -50 -42 -127q0 -74 44 -126q48 -56 122 -56q109 0 129 107h42zM147 95q-103 106 -103 255
t103 255q104 107 252 107q149 0 253 -107q104 -106 104 -255t-104 -255q-104 -107 -253 -107q-148 0 -252 107zM622 122q90 95 90 228t-90 228q-92 96 -223 96q-132 0 -222 -96q-89 -95 -89 -228t89 -228q90 -96 222 -96q131 0 223 96z" />
    <glyph glyph-name="ordfeminine" unicode="&#xaa;" horiz-adv-x="334" 
d="M307 422h-32v142q0 46 -31 81q-34 37 -87 37t-87 -37q-31 -35 -31 -81t31 -81q34 -37 87 -37q68 0 96 53v-40q-32 -43 -96 -43q-68 0 -110 46q-40 42 -40 102q0 64 44 106q42 42 106 42q67 0 109 -42q41 -41 41 -106v-142z" />
    <glyph glyph-name="guillemotleft" unicode="&#xab;" horiz-adv-x="389" 
d="M214 82h-47l-120 155l120 155h47l-120 -155zM337 82h-47l-120 155l120 155h47l-120 -155z" />
    <glyph glyph-name="logicalnot" unicode="&#xac;" horiz-adv-x="600" 
d="M496 125v184h-432v40h472v-224h-40z" />
    <glyph glyph-name="uni00AD" unicode="&#xad;" horiz-adv-x="333" 
d="M262 218h-190v38h190v-38z" />
    <glyph glyph-name="registered" unicode="&#xae;" horiz-adv-x="800" 
d="M302 334v-199h-38v422h159q132 0 132 -111q0 -54 -29 -81q-24 -23 -75 -31l128 -199h-54l-121 199h-102zM302 370h106q13 1 24 1q25 3 41 9q40 17 40 67q0 41 -31 60q-26 14 -71 14h-109v-151zM147 95q-103 106 -103 255t103 255q104 107 252 107q149 0 253 -107
q104 -106 104 -255t-104 -255q-104 -107 -253 -107q-148 0 -252 107zM622 122q90 95 90 228t-90 228q-92 96 -223 96q-132 0 -222 -96q-89 -95 -89 -228t89 -228q90 -96 222 -96q131 0 223 96z" />
    <glyph glyph-name="macron" unicode="&#xaf;" horiz-adv-x="222" 
d="M251 574h-279v32h279v-32z" />
    <glyph glyph-name="degree" unicode="&#xb0;" horiz-adv-x="400" 
d="M277 490q31 34 31 79t-31 79q-32 34 -77 34t-76 -34q-32 -34 -32 -79t32 -79q31 -34 76 -34t77 34zM98 468q-42 41 -42 101t42 102q42 41 102 41t102 -41q42 -42 42 -102t-42 -101q-42 -42 -102 -42t-102 42z" />
    <glyph glyph-name="plusminus" unicode="&#xb1;" horiz-adv-x="600" 
d="M280 299v175h40v-175h216v-40h-216v-175h-40v175h-216v40h216zM64 0v40h472v-40h-472z" />
    <glyph glyph-name="uni00B2" unicode="&#xb2;" horiz-adv-x="333" 
d="M305 317v-32h-265q-28 0 -28 31q0 20 40 51q15 12 41 30l47 32q28 20 47 35q25 19 41 36q40 41 40 77q0 103 -111 103t-111 -101q0 -39 31 -64q32 -27 81 -20l1 -2l-8 -9q-5 -6 -9 -9q-11 -10 -18 -10q-35 0 -71 29q-43 34 -43 86q0 132 147 132q64 0 102 -30
q45 -35 45 -105q0 -40 -40 -85q-31 -35 -88 -76l-89 -59l-29 -21q-11 -9 -11 -14t6 -5h252z" />
    <glyph glyph-name="uni00B3" unicode="&#xb3;" horiz-adv-x="333" 
d="M27 673v32h207q35 0 35 -22q0 -19 -16 -32l-138 -120h49q65 0 103 -35q36 -33 36 -85q0 -126 -149 -126h-130v32h145q96 0 96 87q0 95 -109 95h-81v34l144 127q8 7 8 9q0 4 -3 4h-197z" />
    <glyph glyph-name="acute" unicode="&#xb4;" horiz-adv-x="222" 
d="M91 534h-37l119 138h51z" />
    <glyph glyph-name="mu" unicode="&#xb5;" horiz-adv-x="500" 
d="M402 474h38v-289q0 -86 -55 -141q-54 -54 -135 -54q-98 0 -150 74h-2v-292h-38v702h38v-284q0 -73 45 -119q43 -45 107 -45t107 45q45 46 45 119v284z" />
    <glyph glyph-name="paragraph" unicode="&#xb6;" horiz-adv-x="600" 
d="M471 700v-790h-38v754h-121v-754h-38v404q-68 0 -123 57q-56 58 -56 136t56 136q55 57 123 57h197z" />
    <glyph glyph-name="periodcentered" unicode="&#xb7;" horiz-adv-x="278" 
d="M139 274q37 0 37 -37t-37 -37t-37 37t37 37z" />
    <glyph glyph-name="cedilla" unicode="&#xb8;" horiz-adv-x="222" 
d="M16 -147q36 -18 78 -18q24 0 43 12q21 13 21 35q0 45 -58 45q-19 0 -43 -12l-16 13l56 75h34l-48 -56l2 -2q11 8 38 8q75 0 75 -70q0 -37 -37 -58q-30 -16 -71 -16q-44 0 -87 20z" />
    <glyph glyph-name="uni00B9" unicode="&#xb9;" horiz-adv-x="333" 
d="M84 673l6 32h95v-420h-34v388h-67z" />
    <glyph glyph-name="ordmasculine" unicode="&#xba;" horiz-adv-x="334" 
d="M256 646q-36 36 -89 36t-89 -36q-35 -35 -35 -84q0 -47 36 -81q36 -35 88 -35t88 35q36 34 36 81q0 49 -35 84zM278 460q-45 -44 -111 -44t-111 44q-45 43 -45 104t45 104q45 44 111 44t111 -44q45 -43 45 -104t-45 -104z" />
    <glyph glyph-name="guillemotright" unicode="&#xbb;" horiz-adv-x="389" 
d="M222 82h-47l120 155l-120 155h47l120 -155zM99 82h-47l120 155l-120 155h47l120 -155z" />
    <glyph glyph-name="onequarter" unicode="&#xbc;" horiz-adv-x="834" 
d="M200 -12h-37l462 724h39zM64 674l7 32h99v-424h-34v392h-72zM713 140v254l30 31q2 2 3 2t1 -4v-283h68v-32h-68v-108h-33v108h-190q-33 0 -33 30q0 16 26 55l154 234h37l-178 -269q-3 -4 -3 -10q0 -8 10 -8h176z" />
    <glyph glyph-name="onehalf" unicode="&#xbd;" horiz-adv-x="834" 
d="M175 -12h-37l462 724h39zM815 32v-32h-265q-28 0 -28 31q0 20 40 51q15 12 41 30l47 32q28 20 47 35q25 19 41 36q40 41 40 77q0 103 -111 103t-111 -101q0 -39 31 -64q32 -27 81 -20l1 -2l-8 -9q-5 -6 -9 -9q-11 -10 -18 -10q-35 0 -71 29q-43 34 -43 86q0 132 147 132
q64 0 102 -30q45 -35 45 -105q0 -40 -40 -85q-31 -35 -88 -76l-89 -59l-29 -21q-11 -9 -11 -14t6 -5h252zM84 673l6 32h95v-420h-34v388h-67z" />
    <glyph glyph-name="threequarters" unicode="&#xbe;" horiz-adv-x="834" 
d="M713 142v254l30 31q2 2 3 2t1 -4v-283h68v-32h-68v-108h-33v108h-190q-33 0 -33 30q0 16 26 55l154 234h37l-178 -269q-3 -4 -3 -10q0 -8 10 -8h176zM233 -12h-37l462 724h39zM27 673v32h207q35 0 35 -22q0 -19 -16 -32l-138 -120h49q65 0 103 -35q36 -33 36 -85
q0 -126 -149 -126h-130v32h145q96 0 96 87q0 95 -109 95h-81v34l144 127q8 7 8 9q0 4 -3 4h-197z" />
    <glyph glyph-name="questiondown" unicode="&#xbf;" horiz-adv-x="444" 
d="M422 -30q0 -84 -54 -140q-56 -58 -146 -58t-146 58q-54 56 -54 140q0 104 67 160q55 46 131 46v180h38v-216q-39 0 -70 -7q-37 -8 -63 -26q-63 -43 -63 -137q0 -67 44 -113q45 -47 116 -47t116 47q44 46 44 113h40zM239 414q-38 0 -38 38t38 38t38 -38t-38 -38z" />
    <glyph glyph-name="Agrave" unicode="&#xc0;" horiz-adv-x="611" 
d="M546 0h-42v342h-358v36h358v106q0 88 -55 139q-54 51 -144 51t-144 -51q-55 -51 -55 -139v-484h-42v471q0 113 66 178q64 63 175 63t175 -63q66 -65 66 -178v-471zM363 741h-37l-133 138h51z" />
    <glyph glyph-name="Aacute" unicode="&#xc1;" horiz-adv-x="611" 
d="M546 0h-42v342h-358v36h358v106q0 88 -55 139q-54 51 -144 51t-144 -51q-55 -51 -55 -139v-484h-42v471q0 113 66 178q64 63 175 63t175 -63q66 -65 66 -178v-471zM286 741h-37l119 138h51z" />
    <glyph glyph-name="Acircumflex" unicode="&#xc2;" horiz-adv-x="611" 
d="M546 0h-42v342h-358v36h358v106q0 88 -55 139q-54 51 -144 51t-144 -51q-55 -51 -55 -139v-484h-42v471q0 113 66 178q64 63 175 63t175 -63q66 -65 66 -178v-471zM332 879l109 -138h-42l-94 114l-94 -114h-40l107 138h54z" />
    <glyph glyph-name="Atilde" unicode="&#xc3;" horiz-adv-x="611" 
d="M546 0h-42v342h-358v36h358v106q0 88 -55 139q-54 51 -144 51t-144 -51q-55 -51 -55 -139v-484h-42v471q0 113 66 178q64 63 175 63t175 -63q66 -65 66 -178v-471zM160 756q6 36 24 60q22 28 55 28q24 0 70 -27l35 -18q18 -9 28 -9q41 0 50 54h30q-6 -36 -24 -60
q-22 -28 -55 -28q-14 0 -34 9q-8 3 -18 8l-16 9q-1 1 -2 1q-46 27 -63 27q-41 0 -50 -54h-30z" />
    <glyph glyph-name="Adieresis" unicode="&#xc4;" horiz-adv-x="611" 
d="M546 0h-42v342h-358v36h358v106q0 88 -55 139q-54 51 -144 51t-144 -51q-55 -51 -55 -139v-484h-42v471q0 113 66 178q64 63 175 63t175 -63q66 -65 66 -178v-471zM227 833q34 0 34 -34t-34 -34t-34 34t34 34zM385 833q34 0 34 -34t-34 -34t-34 34t34 34z" />
    <glyph glyph-name="Aring" unicode="&#xc5;" horiz-adv-x="611" 
d="M546 0h-42v342h-358v36h358v106q0 88 -55 139q-54 51 -144 51t-144 -51q-55 -51 -55 -139v-484h-42v471q0 113 66 178q64 63 175 63t175 -63q66 -65 66 -178v-471zM306 769q69 0 69 69t-69 69t-69 -69t69 -69zM237 907q29 28 69 28q41 0 69 -28t28 -69q0 -40 -28 -69
q-28 -28 -69 -28q-40 0 -69 28q-28 29 -28 69q0 41 28 69z" />
    <glyph glyph-name="AE" unicode="&#xc6;" horiz-adv-x="944" 
d="M907 342h-381q0 -74 30 -135q27 -55 76 -95q93 -76 213 -76h62v-36h-78q-94 0 -174 45q-84 47 -126 129h-2v-174h-44v342h-349v36h349v84q0 98 -53 156q-52 56 -141 56t-142 -56q-53 -58 -53 -156v-462h-42v454q0 121 63 189q63 69 174 69q200 0 232 -196h2
q42 87 128 137q81 47 178 47h78v-36h-76q-128 0 -219 -92q-86 -87 -86 -194h381v-36z" />
    <glyph glyph-name="Ccedilla" unicode="&#xc7;" horiz-adv-x="500" 
d="M475 36v-36h-97l-46 -53l2 -2q11 8 38 8q75 0 75 -70q0 -37 -37 -58q-30 -16 -71 -16q-44 0 -87 20l13 24q36 -18 78 -18q24 0 43 12q21 13 21 35q0 45 -58 45q-19 0 -43 -12l-16 13l55 74q-127 14 -212 103q-93 97 -93 245q0 82 30 150q27 63 78 110q98 90 238 90h90
v-36h-82q-122 0 -210 -77q-47 -41 -72 -98q-28 -62 -28 -139t28 -139q25 -57 72 -98q88 -77 210 -77h81z" />
    <glyph glyph-name="Egrave" unicode="&#xc8;" horiz-adv-x="500" 
d="M452 378v-36h-384q0 -74 30 -135q27 -55 77 -95q93 -76 213 -76h64v-36h-80q-140 0 -238 90q-51 47 -78 110q-30 68 -30 150t30 150q27 63 78 110q98 90 238 90h80v-36h-78q-128 0 -220 -92q-86 -87 -86 -194h384zM388 741h-37l-133 138h51z" />
    <glyph glyph-name="Eacute" unicode="&#xc9;" horiz-adv-x="500" 
d="M452 378v-36h-384q0 -74 30 -135q27 -55 77 -95q93 -76 213 -76h64v-36h-80q-140 0 -238 90q-51 47 -78 110q-30 68 -30 150t30 150q27 63 78 110q98 90 238 90h80v-36h-78q-128 0 -220 -92q-86 -87 -86 -194h384zM311 741h-37l119 138h51z" />
    <glyph glyph-name="Ecircumflex" unicode="&#xca;" horiz-adv-x="500" 
d="M452 378v-36h-384q0 -74 30 -135q27 -55 77 -95q93 -76 213 -76h64v-36h-80q-140 0 -238 90q-51 47 -78 110q-30 68 -30 150t30 150q27 63 78 110q98 90 238 90h80v-36h-78q-128 0 -220 -92q-86 -87 -86 -194h384zM357 879l109 -138h-42l-94 114l-94 -114h-40l107 138h54
z" />
    <glyph glyph-name="Edieresis" unicode="&#xcb;" horiz-adv-x="500" 
d="M452 378v-36h-384q0 -74 30 -135q27 -55 77 -95q93 -76 213 -76h64v-36h-80q-140 0 -238 90q-51 47 -78 110q-30 68 -30 150t30 150q27 63 78 110q98 90 238 90h80v-36h-78q-128 0 -220 -92q-86 -87 -86 -194h384zM252 833q34 0 34 -34t-34 -34t-34 34t34 34zM410 833
q34 0 34 -34t-34 -34t-34 34t34 34z" />
    <glyph glyph-name="Igrave" unicode="&#xcc;" horiz-adv-x="222" 
d="M132 0h-42v700h42v-700zM168 741h-37l-133 138h51z" />
    <glyph glyph-name="Iacute" unicode="&#xcd;" horiz-adv-x="222" 
d="M132 0h-42v700h42v-700zM91 741h-37l119 138h51z" />
    <glyph glyph-name="Icircumflex" unicode="&#xce;" horiz-adv-x="222" 
d="M132 0h-42v700h42v-700zM137 879l109 -138h-42l-94 114l-94 -114h-40l107 138h54z" />
    <glyph glyph-name="Idieresis" unicode="&#xcf;" horiz-adv-x="222" 
d="M132 0h-42v700h42v-700zM32 833q34 0 34 -34t-34 -34t-34 34t34 34zM190 833q34 0 34 -34t-34 -34t-34 34t34 34z" />
    <glyph glyph-name="Eth" unicode="&#xd0;" horiz-adv-x="611" 
d="M141 0v38h97q131 0 213 95q76 89 76 217q0 132 -92 221q-94 91 -235 91h-94v-278h244v-36h-244v-348h-42v348h-74v36h74v316h152q144 0 247 -97q108 -101 108 -253q0 -156 -96 -254q-93 -96 -233 -96h-101z" />
    <glyph glyph-name="Ntilde" unicode="&#xd1;" horiz-adv-x="611" 
d="M110 0h-42v656q0 56 52 56q40 0 60 -42l293 -626q7 -14 17 -14q11 0 11 19v663h42v-674q0 -50 -51 -50q-25 0 -43 17q-12 11 -21 31l-278 599q-18 39 -28 39q-12 0 -12 -18v-656zM172 756q6 36 24 60q22 28 55 28q24 0 70 -27l35 -18q18 -9 28 -9q41 0 50 54h30
q-6 -36 -24 -60q-22 -28 -55 -28q-14 0 -34 9q-8 3 -18 8l-16 9q-1 1 -2 1q-46 27 -63 27q-41 0 -50 -54h-30z" />
    <glyph glyph-name="Ograve" unicode="&#xd2;" horiz-adv-x="778" 
d="M136 95q-103 106 -103 255t103 255q104 107 252 107q149 0 253 -107q104 -106 104 -255t-104 -255q-104 -107 -253 -107q-148 0 -252 107zM611 122q90 95 90 228t-90 228q-92 96 -223 96q-132 0 -222 -96q-89 -95 -89 -228t89 -228q90 -96 222 -96q131 0 223 96zM446 741
h-37l-133 138h51z" />
    <glyph glyph-name="Oacute" unicode="&#xd3;" horiz-adv-x="778" 
d="M136 95q-103 106 -103 255t103 255q104 107 252 107q149 0 253 -107q104 -106 104 -255t-104 -255q-104 -107 -253 -107q-148 0 -252 107zM611 122q90 95 90 228t-90 228q-92 96 -223 96q-132 0 -222 -96q-89 -95 -89 -228t89 -228q90 -96 222 -96q131 0 223 96zM369 741
h-37l119 138h51z" />
    <glyph glyph-name="Ocircumflex" unicode="&#xd4;" horiz-adv-x="778" 
d="M136 95q-103 106 -103 255t103 255q104 107 252 107q149 0 253 -107q104 -106 104 -255t-104 -255q-104 -107 -253 -107q-148 0 -252 107zM611 122q90 95 90 228t-90 228q-92 96 -223 96q-132 0 -222 -96q-89 -95 -89 -228t89 -228q90 -96 222 -96q131 0 223 96zM415 879
l109 -138h-42l-94 114l-94 -114h-40l107 138h54z" />
    <glyph glyph-name="Otilde" unicode="&#xd5;" horiz-adv-x="778" 
d="M136 95q-103 106 -103 255t103 255q104 107 252 107q149 0 253 -107q104 -106 104 -255t-104 -255q-104 -107 -253 -107q-148 0 -252 107zM611 122q90 95 90 228t-90 228q-92 96 -223 96q-132 0 -222 -96q-89 -95 -89 -228t89 -228q90 -96 222 -96q131 0 223 96zM243 756
q6 36 24 60q22 28 55 28q24 0 70 -27l35 -18q18 -9 28 -9q41 0 50 54h30q-6 -36 -24 -60q-22 -28 -55 -28q-14 0 -34 9q-8 3 -18 8l-16 9q-1 1 -2 1q-46 27 -63 27q-41 0 -50 -54h-30z" />
    <glyph glyph-name="Odieresis" unicode="&#xd6;" horiz-adv-x="778" 
d="M136 95q-103 106 -103 255t103 255q104 107 252 107q149 0 253 -107q104 -106 104 -255t-104 -255q-104 -107 -253 -107q-148 0 -252 107zM611 122q90 95 90 228t-90 228q-92 96 -223 96q-132 0 -222 -96q-89 -95 -89 -228t89 -228q90 -96 222 -96q131 0 223 96zM310 833
q34 0 34 -34t-34 -34t-34 34t34 34zM468 833q34 0 34 -34t-34 -34t-34 34t34 34z" />
    <glyph glyph-name="multiply" unicode="&#xd7;" horiz-adv-x="600" 
d="M508 0l-208 210l-208 -210l-28 26l210 211l-210 211l28 26l208 -210l208 210l28 -26l-210 -211l210 -211z" />
    <glyph glyph-name="Oslash" unicode="&#xd8;" horiz-adv-x="778" 
d="M175 113q87 -87 213 -87q131 0 223 96q90 95 90 228q0 121 -73 209zM601 587q-92 87 -213 87q-132 0 -222 -96q-89 -95 -89 -228q0 -128 73 -209zM49 -12h-52l124 124q-88 102 -88 238q0 149 103 255q104 107 252 107q139 0 242 -97l98 97h52l-124 -123q89 -102 89 -239
q0 -149 -104 -255q-104 -107 -253 -107q-143 0 -242 97z" />
    <glyph glyph-name="Ugrave" unicode="&#xd9;" horiz-adv-x="611" 
d="M64 700h42v-484q0 -88 55 -139q54 -51 144 -51t144 51q55 51 55 139v484h42v-471q0 -113 -66 -177q-64 -64 -175 -64t-175 64q-66 64 -66 177v471zM363 741h-37l-133 138h51z" />
    <glyph glyph-name="Uacute" unicode="&#xda;" horiz-adv-x="611" 
d="M64 700h42v-484q0 -88 55 -139q54 -51 144 -51t144 51q55 51 55 139v484h42v-471q0 -113 -66 -177q-64 -64 -175 -64t-175 64q-66 64 -66 177v471zM286 741h-37l119 138h51z" />
    <glyph glyph-name="Ucircumflex" unicode="&#xdb;" horiz-adv-x="611" 
d="M64 700h42v-484q0 -88 55 -139q54 -51 144 -51t144 51q55 51 55 139v484h42v-471q0 -113 -66 -177q-64 -64 -175 -64t-175 64q-66 64 -66 177v471zM332 879l109 -138h-42l-94 114l-94 -114h-40l107 138h54z" />
    <glyph glyph-name="Udieresis" unicode="&#xdc;" horiz-adv-x="611" 
d="M64 700h42v-484q0 -88 55 -139q54 -51 144 -51t144 51q55 51 55 139v484h42v-471q0 -113 -66 -177q-64 -64 -175 -64t-175 64q-66 64 -66 177v471zM227 833q34 0 34 -34t-34 -34t-34 34t34 34zM385 833q34 0 34 -34t-34 -34t-34 34t34 34z" />
    <glyph glyph-name="Yacute" unicode="&#xdd;" 
d="M450 700h42v-191q0 -97 -59 -159q-56 -58 -134 -58v-292h-42v292q-78 0 -134 58q-59 62 -59 159v191h42v-194q0 -79 49 -128q47 -48 123 -48t124 48q48 49 48 128v194zM258 741h-37l119 138h51z" />
    <glyph glyph-name="Thorn" unicode="&#xde;" horiz-adv-x="500" 
d="M139 158v38h136q76 0 123 47q48 48 48 130t-48 130q-47 47 -123 47q-75 0 -124 -48q-49 -47 -49 -116v-386h-42v700h42v-188h2q57 76 169 76q95 0 155 -56q62 -59 62 -159t-62 -159q-59 -56 -153 -56h-136z" />
    <glyph glyph-name="germandbls" unicode="&#xdf;" 
d="M6 392v40h60v102q0 77 53 127q53 51 134 51q69 0 114 -34q46 -35 46 -92q0 -46 -22 -79q-17 -26 -48 -46q-12 -7 -26 -14l-23 -10q-22 -10 -22 -16q0 -3 10 -8l65 -26q24 -10 44 -21q53 -30 82 -68q37 -49 37 -112q0 -186 -235 -186h-128v38h132q191 0 191 136
q0 68 -38 112q-28 33 -83 58q-10 5 -23 10l-42 17q-11 4 -18 8q-38 18 -38 42q0 18 23 34l50 28q33 18 49 36q23 25 23 59q0 50 -38 75q-32 21 -81 21q-69 0 -111 -46q-37 -41 -37 -98v-530h-40v392h-60z" />
    <glyph glyph-name="agrave" unicode="&#xe0;" 
d="M496 0h-38v237q0 85 -54 147q-56 64 -139 64q-75 0 -131 -60q-60 -62 -60 -151t60 -151q56 -60 131 -60q82 0 148 69v-45q-14 -12 -25 -19q-16 -12 -32 -20q-43 -21 -91 -21q-98 0 -164 70q-67 71 -67 177t67 177q66 70 164 70t164 -70q67 -71 67 -177v-237zM335 534h-37
l-133 138h51z" />
    <glyph glyph-name="aacute" unicode="&#xe1;" 
d="M496 0h-38v237q0 85 -54 147q-56 64 -139 64q-75 0 -131 -60q-60 -62 -60 -151t60 -151q56 -60 131 -60q82 0 148 69v-45q-14 -12 -25 -19q-16 -12 -32 -20q-43 -21 -91 -21q-98 0 -164 70q-67 71 -67 177t67 177q66 70 164 70t164 -70q67 -71 67 -177v-237zM258 534h-37
l119 138h51z" />
    <glyph glyph-name="acircumflex" unicode="&#xe2;" 
d="M496 0h-38v237q0 85 -54 147q-56 64 -139 64q-75 0 -131 -60q-60 -62 -60 -151t60 -151q56 -60 131 -60q82 0 148 69v-45q-14 -12 -25 -19q-16 -12 -32 -20q-43 -21 -91 -21q-98 0 -164 70q-67 71 -67 177t67 177q66 70 164 70t164 -70q67 -71 67 -177v-237zM304 672
l109 -138h-42l-94 114l-94 -114h-40l107 138h54z" />
    <glyph glyph-name="atilde" unicode="&#xe3;" 
d="M496 0h-38v237q0 85 -54 147q-56 64 -139 64q-75 0 -131 -60q-60 -62 -60 -151t60 -151q56 -60 131 -60q82 0 148 69v-45q-14 -12 -25 -19q-16 -12 -32 -20q-43 -21 -91 -21q-98 0 -164 70q-67 71 -67 177t67 177q66 70 164 70t164 -70q67 -71 67 -177v-237zM132 549
q6 36 24 60q22 28 55 28q24 0 70 -27l35 -18q18 -9 28 -9q41 0 50 54h30q-6 -36 -24 -60q-22 -28 -55 -28q-14 0 -34 9q-8 3 -18 8l-16 9q-1 1 -2 1q-46 27 -63 27q-41 0 -50 -54h-30z" />
    <glyph glyph-name="adieresis" unicode="&#xe4;" 
d="M496 0h-38v237q0 85 -54 147q-56 64 -139 64q-75 0 -131 -60q-60 -62 -60 -151t60 -151q56 -60 131 -60q82 0 148 69v-45q-14 -12 -25 -19q-16 -12 -32 -20q-43 -21 -91 -21q-98 0 -164 70q-67 71 -67 177t67 177q66 70 164 70t164 -70q67 -71 67 -177v-237zM199 626
q34 0 34 -34t-34 -34t-34 34t34 34zM357 626q34 0 34 -34t-34 -34t-34 34t34 34z" />
    <glyph glyph-name="aring" unicode="&#xe5;" 
d="M496 0h-38v237q0 85 -54 147q-56 64 -139 64q-75 0 -131 -60q-60 -62 -60 -151t60 -151q56 -60 131 -60q82 0 148 69v-45q-14 -12 -25 -19q-16 -12 -32 -20q-43 -21 -91 -21q-98 0 -164 70q-67 71 -67 177t67 177q66 70 164 70t164 -70q67 -71 67 -177v-237zM278 562
q69 0 69 69t-69 69t-69 -69t69 -69zM209 700q29 28 69 28q41 0 69 -28t28 -69q0 -40 -28 -69q-28 -28 -69 -28q-40 0 -69 28q-28 29 -28 69q0 41 28 69z" />
    <glyph glyph-name="ae" unicode="&#xe6;" horiz-adv-x="944" 
d="M64 439q36 19 74 30q49 15 95 15q73 0 127 -32q61 -36 90 -111q28 71 93 109q57 34 128 34q141 0 210 -131l-366 -157l-14 34l318 137q-64 81 -154 81q-76 0 -137 -61q-63 -61 -63 -139q0 -95 58 -158q60 -64 154 -64q70 0 124 47t66 116l40 -7q-23 -98 -92 -147
q-63 -45 -159 -45q-65 0 -124 41q-58 39 -84 100q-59 -141 -221 -141q-80 0 -130 31q-60 36 -60 109q0 49 42 90q34 34 99 63q27 12 59 24q27 9 60 19l100 27q-24 51 -73 75q-41 20 -97 20q-34 0 -74 -12q-28 -9 -69 -28zM373 307q-2 0 -3 -1q-33 -8 -52 -14q-31 -8 -56 -17
q-30 -10 -55 -20q-60 -25 -92 -54q-38 -35 -38 -76q0 -47 51 -75q42 -24 93 -24q97 0 153 63q51 57 51 143q0 25 -4 50l-7 36z" />
    <glyph glyph-name="ccedilla" unicode="&#xe7;" horiz-adv-x="389" 
d="M351 484v-40h-69q-91 0 -147 -56q-57 -56 -57 -146t57 -146q56 -56 147 -56h69v-40h-80l-46 -53l2 -2q11 8 38 8q75 0 75 -70q0 -37 -37 -58q-30 -16 -71 -16q-44 0 -87 20l13 24q36 -18 78 -18q24 0 43 12q21 13 21 35q0 45 -58 45q-19 0 -43 -12l-16 13l56 76
q-89 13 -144 77q-57 66 -57 161q0 107 69 175q68 67 173 67h71z" />
    <glyph glyph-name="egrave" unicode="&#xe8;" 
d="M156 138l-24 32l305 206q-57 72 -153 72q-89 0 -148 -65q-58 -62 -58 -149q0 -85 59 -146q60 -62 147 -62q85 0 146 60q60 59 62 141h40q-2 -96 -71 -166q-70 -71 -169 -71q-110 0 -182 71q-72 70 -72 175q0 103 68 174q71 74 178 74q139 0 211 -116zM335 534h-37
l-133 138h51z" />
    <glyph glyph-name="eacute" unicode="&#xe9;" 
d="M156 138l-24 32l305 206q-57 72 -153 72q-89 0 -148 -65q-58 -62 -58 -149q0 -85 59 -146q60 -62 147 -62q85 0 146 60q60 59 62 141h40q-2 -96 -71 -166q-70 -71 -169 -71q-110 0 -182 71q-72 70 -72 175q0 103 68 174q71 74 178 74q139 0 211 -116zM258 534h-37
l119 138h51z" />
    <glyph glyph-name="ecircumflex" unicode="&#xea;" 
d="M156 138l-24 32l305 206q-57 72 -153 72q-89 0 -148 -65q-58 -62 -58 -149q0 -85 59 -146q60 -62 147 -62q85 0 146 60q60 59 62 141h40q-2 -96 -71 -166q-70 -71 -169 -71q-110 0 -182 71q-72 70 -72 175q0 103 68 174q71 74 178 74q139 0 211 -116zM304 672l109 -138
h-42l-94 114l-94 -114h-40l107 138h54z" />
    <glyph glyph-name="edieresis" unicode="&#xeb;" 
d="M156 138l-24 32l305 206q-57 72 -153 72q-89 0 -148 -65q-58 -62 -58 -149q0 -85 59 -146q60 -62 147 -62q85 0 146 60q60 59 62 141h40q-2 -96 -71 -166q-70 -71 -169 -71q-110 0 -182 71q-72 70 -72 175q0 103 68 174q71 74 178 74q139 0 211 -116zM199 626
q34 0 34 -34t-34 -34t-34 34t34 34zM357 626q34 0 34 -34t-34 -34t-34 34t34 34z" />
    <glyph glyph-name="igrave" unicode="&#xec;" horiz-adv-x="222" 
d="M130 0h-38v474h38v-474zM168 534h-37l-133 138h51z" />
    <glyph glyph-name="iacute" unicode="&#xed;" horiz-adv-x="222" 
d="M130 0h-38v474h38v-474zM91 534h-37l119 138h51z" />
    <glyph glyph-name="icircumflex" unicode="&#xee;" horiz-adv-x="222" 
d="M130 0h-38v474h38v-474zM137 672l109 -138h-42l-94 114l-94 -114h-40l107 138h54z" />
    <glyph glyph-name="idieresis" unicode="&#xef;" horiz-adv-x="222" 
d="M130 0h-38v474h38v-474zM32 626q34 0 34 -34t-34 -34t-34 34t34 34zM190 626q34 0 34 -34t-34 -34t-34 34t34 34z" />
    <glyph glyph-name="eth" unicode="&#xf0;" 
d="M138 712q68 -31 128 -72l98 72l19 -26l-89 -66q99 -72 157 -157q67 -99 67 -205q0 -122 -69 -196q-67 -72 -172 -72q-102 0 -170 71q-69 71 -69 175q0 102 69 174q69 74 170 74q46 0 71 -11l44 -61v-2q-47 38 -115 38q-86 0 -144 -65q-55 -62 -55 -149q0 -85 56 -146
q58 -62 143 -62q87 0 144 63q57 64 57 161q0 100 -64 195q-55 83 -151 152l-108 -79l-19 26l99 73q-52 36 -119 69z" />
    <glyph glyph-name="ntilde" unicode="&#xf1;" horiz-adv-x="500" 
d="M440 0h-38v284q0 73 -45 119q-43 45 -107 45t-107 -45q-45 -46 -45 -119v-284h-38v289q0 86 55 141q54 54 135 54t135 -54q55 -55 55 -141v-289zM104 549q6 36 24 60q22 28 55 28q24 0 70 -27l35 -18q18 -9 28 -9q41 0 50 54h30q-6 -36 -24 -60q-22 -28 -55 -28
q-14 0 -34 9q-8 3 -18 8l-16 9q-1 1 -2 1q-46 27 -63 27q-41 0 -50 -54h-30z" />
    <glyph glyph-name="ograve" unicode="&#xf2;" 
d="M135 384q-57 -62 -57 -147t57 -147q58 -64 143 -64t144 64q56 62 56 147t-56 147q-59 64 -144 64t-143 -64zM449 411q69 -72 69 -174t-69 -174q-70 -73 -171 -73t-171 73q-69 72 -69 174t69 174q70 73 171 73t171 -73zM335 534h-37l-133 138h51z" />
    <glyph glyph-name="oacute" unicode="&#xf3;" 
d="M135 384q-57 -62 -57 -147t57 -147q58 -64 143 -64t144 64q56 62 56 147t-56 147q-59 64 -144 64t-143 -64zM449 411q69 -72 69 -174t-69 -174q-70 -73 -171 -73t-171 73q-69 72 -69 174t69 174q70 73 171 73t171 -73zM258 534h-37l119 138h51z" />
    <glyph glyph-name="ocircumflex" unicode="&#xf4;" 
d="M135 384q-57 -62 -57 -147t57 -147q58 -64 143 -64t144 64q56 62 56 147t-56 147q-59 64 -144 64t-143 -64zM449 411q69 -72 69 -174t-69 -174q-70 -73 -171 -73t-171 73q-69 72 -69 174t69 174q70 73 171 73t171 -73zM304 672l109 -138h-42l-94 114l-94 -114h-40
l107 138h54z" />
    <glyph glyph-name="otilde" unicode="&#xf5;" 
d="M135 384q-57 -62 -57 -147t57 -147q58 -64 143 -64t144 64q56 62 56 147t-56 147q-59 64 -144 64t-143 -64zM449 411q69 -72 69 -174t-69 -174q-70 -73 -171 -73t-171 73q-69 72 -69 174t69 174q70 73 171 73t171 -73zM132 549q6 36 24 60q22 28 55 28q24 0 70 -27
l35 -18q18 -9 28 -9q41 0 50 54h30q-6 -36 -24 -60q-22 -28 -55 -28q-14 0 -34 9q-8 3 -18 8l-16 9q-1 1 -2 1q-46 27 -63 27q-41 0 -50 -54h-30z" />
    <glyph glyph-name="odieresis" unicode="&#xf6;" 
d="M135 384q-57 -62 -57 -147t57 -147q58 -64 143 -64t144 64q56 62 56 147t-56 147q-59 64 -144 64t-143 -64zM449 411q69 -72 69 -174t-69 -174q-70 -73 -171 -73t-171 73q-69 72 -69 174t69 174q70 73 171 73t171 -73zM199 626q34 0 34 -34t-34 -34t-34 34t34 34z
M357 626q34 0 34 -34t-34 -34t-34 34t34 34z" />
    <glyph glyph-name="divide" unicode="&#xf7;" horiz-adv-x="600" 
d="M536 217h-472v40h472v-40zM300 482q52 0 52 -52t-52 -52t-52 52t52 52zM300 96q52 0 52 -52t-52 -52t-52 52t52 52z" />
    <glyph glyph-name="oslash" unicode="&#xf8;" 
d="M408 396q-55 52 -130 52q-85 0 -143 -64q-57 -62 -57 -147q0 -75 46 -132zM504 494h50l-95 -96q59 -67 59 -161q0 -102 -69 -174q-70 -73 -171 -73q-93 0 -158 62l-70 -72h-48l94 97q-58 67 -58 160q0 102 69 174q70 73 171 73q90 0 157 -61zM147 79q53 -53 131 -53
q85 0 144 64q56 62 56 147q0 74 -46 133z" />
    <glyph glyph-name="ugrave" unicode="&#xf9;" horiz-adv-x="500" 
d="M60 474h38v-284q0 -73 45 -119q43 -45 107 -45t107 45q45 46 45 119v284h38v-289q0 -86 -55 -141q-54 -54 -135 -54t-135 54q-55 55 -55 141v289zM307 534h-37l-133 138h51z" />
    <glyph glyph-name="uacute" unicode="&#xfa;" horiz-adv-x="500" 
d="M60 474h38v-284q0 -73 45 -119q43 -45 107 -45t107 45q45 46 45 119v284h38v-289q0 -86 -55 -141q-54 -54 -135 -54t-135 54q-55 55 -55 141v289zM230 534h-37l119 138h51z" />
    <glyph glyph-name="ucircumflex" unicode="&#xfb;" horiz-adv-x="500" 
d="M60 474h38v-284q0 -73 45 -119q43 -45 107 -45t107 45q45 46 45 119v284h38v-289q0 -86 -55 -141q-54 -54 -135 -54t-135 54q-55 55 -55 141v289zM276 672l109 -138h-42l-94 114l-94 -114h-40l107 138h54z" />
    <glyph glyph-name="udieresis" unicode="&#xfc;" horiz-adv-x="500" 
d="M60 474h38v-284q0 -73 45 -119q43 -45 107 -45t107 45q45 46 45 119v284h38v-289q0 -86 -55 -141q-54 -54 -135 -54t-135 54q-55 55 -55 141v289zM171 626q34 0 34 -34t-34 -34t-34 34t34 34zM329 626q34 0 34 -34t-34 -34t-34 34t34 34z" />
    <glyph glyph-name="yacute" unicode="&#xfd;" horiz-adv-x="500" 
d="M271 -216h-42v208q-73 6 -120 59q-49 54 -49 134v289h38v-284q0 -73 45 -119q43 -45 107 -45t107 45q45 46 45 119v284h38v-289q0 -80 -48 -134q-48 -53 -121 -59v-208zM230 534h-37l119 138h51z" />
    <glyph glyph-name="thorn" unicode="&#xfe;" 
d="M98 -228h-38v928h38v-324h2q63 108 191 108q98 0 164 -70q67 -71 67 -177t-67 -177q-66 -70 -164 -70q-48 0 -90 21q-17 8 -33 20q-11 7 -25 19v45q66 -69 148 -69q75 0 132 60q59 62 59 151t-59 151q-57 60 -132 60q-83 0 -139 -64q-54 -62 -54 -147v-465z" />
    <glyph glyph-name="ydieresis" unicode="&#xff;" horiz-adv-x="500" 
d="M271 -216h-42v208q-73 6 -120 59q-49 54 -49 134v289h38v-284q0 -73 45 -119q43 -45 107 -45t107 45q45 46 45 119v284h38v-289q0 -80 -48 -134q-48 -53 -121 -59v-208zM171 626q34 0 34 -34t-34 -34t-34 34t34 34zM329 626q34 0 34 -34t-34 -34t-34 34t34 34z" />
    <glyph glyph-name="dotlessi" unicode="&#x131;" horiz-adv-x="222" 
d="M130 0h-38v474h38v-474z" />
    <glyph glyph-name="Lslash" unicode="&#x141;" horiz-adv-x="389" 
d="M391 36v-36h-147q-71 0 -122 52q-58 58 -58 154v162l-76 -36v40l76 36v292h42v-272l158 74v-40l-158 -74v-180q0 -75 42 -123q42 -49 110 -49h133z" />
    <glyph glyph-name="lslash" unicode="&#x142;" horiz-adv-x="222" 
d="M220 492v-42l-90 -45v-405h-38v386l-90 -44v42l90 44v272h38v-253z" />
    <glyph glyph-name="OE" unicode="&#x152;" horiz-adv-x="1000" 
d="M549 122q80 94 80 228t-80 228q-83 96 -205 96q-123 0 -207 -96q-83 -95 -83 -228t83 -228q84 -96 207 -96q122 0 205 96zM987 378v-36h-313q2 -128 88 -213q87 -86 225 -93v-36q-117 0 -198 50q-89 54 -135 168h-2q-30 -96 -111 -160q-88 -70 -197 -70q-139 0 -236 107
q-96 106 -96 255t96 255q97 107 236 107q109 0 197 -70q82 -66 111 -162h2q34 101 120 160q89 60 213 60v-36q-129 0 -218 -82t-95 -204h313z" />
    <glyph glyph-name="oe" unicode="&#x153;" horiz-adv-x="1000" 
d="M134 88q58 -62 143 -62q84 0 143 62q58 62 58 146q0 87 -57 149q-58 65 -144 65t-144 -65q-55 -62 -55 -149q0 -85 56 -146zM581 165l-18 36l339 144q-54 103 -178 103q-86 0 -146 -60q-60 -59 -60 -142q0 -87 59 -152q61 -69 150 -68q72 0 129 47q57 46 72 115l39 -7
q-18 -82 -85 -137t-151 -54q-93 1 -157 50q-26 20 -46 48q-17 23 -30 50q-27 -66 -83 -106q-59 -42 -131 -42q-104 0 -175 71t-71 175q0 102 69 174q69 74 170 74q158 0 220 -148q15 30 31 53q20 28 45 47q60 48 149 48q176 0 235 -158z" />
    <glyph glyph-name="Scaron" unicode="&#x160;" 
d="M473 700v-38h-232q-83 0 -120 -33q-34 -30 -34 -90q0 -71 67 -110q26 -15 68 -29l78 -23q50 -14 78 -26q41 -16 68 -36q67 -49 67 -138q0 -177 -218 -177h-252v38h246q180 0 180 133q0 79 -67 120q-26 17 -68 31l-118 34l-38 13q-42 16 -68 35q-67 49 -67 139
q0 77 54 119q48 38 128 38h248zM413 879l-109 -138h-54l-107 138h40l94 -114l94 114h42z" />
    <glyph glyph-name="scaron" unicode="&#x161;" horiz-adv-x="444" 
d="M38 0v36h212q115 0 115 80q0 52 -51 80q-21 11 -53 20l-60 14q-39 9 -60 16q-32 10 -53 23q-51 31 -51 90q0 49 31 81q34 34 90 34h213v-36h-210q-33 0 -56 -19q-26 -22 -26 -59q0 -46 51 -70q20 -9 53 -18l60 -13q37 -9 60 -16q32 -11 53 -25q51 -33 51 -96
q0 -122 -166 -122h-203zM357 672l-109 -138h-54l-107 138h40l94 -114l94 114h42z" />
    <glyph glyph-name="Ydieresis" unicode="&#x178;" 
d="M450 700h42v-191q0 -97 -59 -159q-56 -58 -134 -58v-292h-42v292q-78 0 -134 58q-59 62 -59 159v191h42v-194q0 -79 49 -128q47 -48 123 -48t124 48q48 49 48 128v194zM199 833q34 0 34 -34t-34 -34t-34 34t34 34zM357 833q34 0 34 -34t-34 -34t-34 34t34 34z" />
    <glyph glyph-name="Zcaron" unicode="&#x17d;" horiz-adv-x="500" 
d="M470 38v-38h-391q-59 0 -59 44q0 29 28 70l350 495q20 27 20 41q0 12 -16 12h-344v38h343q61 0 61 -44q0 -31 -33 -78l-356 -505q-6 -8 -7 -12q-2 -4 -2 -10q0 -13 18 -13h388zM385 879l-109 -138h-54l-107 138h40l94 -114l94 114h42z" />
    <glyph glyph-name="zcaron" unicode="&#x17e;" horiz-adv-x="389" 
d="M42 436v38h272q42 0 42 -43q0 -12 -4 -22q-5 -14 -19 -31l-253 -306q-14 -17 -14 -24q0 -10 18 -10h284v-38h-304q-42 0 -42 43q0 12 4 22q5 14 19 31l253 306q14 18 14 24q0 10 -18 10h-252zM330 672l-109 -138h-54l-107 138h40l94 -114l94 114h42z" />
    <glyph glyph-name="florin" unicode="&#x192;" 
d="M264 354h-136v40h138l10 103q9 92 52 148q52 67 146 67q29 0 73 -18l-11 -34q-34 12 -71 12q-133 -2 -150 -223l-4 -55h146v-40h-148l-20 -325q-3 -46 -14 -88q-13 -47 -35 -83q-52 -86 -145 -86q-48 0 -85 18l10 41q38 -19 79 -19q64 0 104 69q36 62 42 163z" />
    <glyph glyph-name="circumflex" unicode="&#x2c6;" horiz-adv-x="222" 
d="M137 672l109 -138h-42l-94 114l-94 -114h-40l107 138h54z" />
    <glyph glyph-name="caron" unicode="&#x2c7;" horiz-adv-x="222" 
d="M246 672l-109 -138h-54l-107 138h40l94 -114l94 114h42z" />
    <glyph glyph-name="uni02C9" unicode="&#x2c9;" horiz-adv-x="222" 
d="M251 574h-279v32h279v-32z" />
    <glyph glyph-name="breve" unicode="&#x2d8;" horiz-adv-x="222" 
d="M244 656q-12 -119 -135 -119q-53 0 -90 33q-39 34 -41 86h30q9 -87 101 -87q91 0 105 87h30z" />
    <glyph glyph-name="dotaccent" unicode="&#x2d9;" horiz-adv-x="222" 
d="M77 592q0 34 34 34t34 -34t-34 -34t-34 34z" />
    <glyph glyph-name="ring" unicode="&#x2da;" horiz-adv-x="222" 
d="M111 562q69 0 69 69t-69 69t-69 -69t69 -69zM42 700q29 28 69 28q41 0 69 -28t28 -69q0 -40 -28 -69q-28 -28 -69 -28q-40 0 -69 28q-28 29 -28 69q0 41 28 69z" />
    <glyph glyph-name="ogonek" unicode="&#x2db;" horiz-adv-x="222" 
d="M202 22v-10q-138 -50 -138 -130q0 -22 22 -35q18 -12 42 -12q42 0 78 18l14 -19q-57 -25 -98 -25t-68 19q-30 20 -30 55q0 63 67 100q24 14 58 25l28 8q6 2 13 3z" />
    <glyph glyph-name="tilde" unicode="&#x2dc;" horiz-adv-x="222" 
d="M-35 549q6 36 24 60q22 28 55 28q24 0 70 -27l35 -18q18 -9 28 -9q41 0 50 54h30q-6 -36 -24 -60q-22 -28 -55 -28q-14 0 -34 9q-8 3 -18 8l-16 9q-1 1 -2 1q-46 27 -63 27q-41 0 -50 -54h-30z" />
    <glyph glyph-name="hungarumlaut" unicode="&#x2dd;" horiz-adv-x="222" 
d="M37 534h-37l114 138h51zM144 534h-37l119 138h51z" />
    <glyph glyph-name="uni03A9" unicode="&#x3a9;" horiz-adv-x="730" 
d="M216 38q-64 55 -102 134q-43 91 -43 195q0 154 87 250q84 92 210 92q127 0 210 -99q81 -96 81 -240q0 -109 -46 -203q-40 -81 -100 -129v-3h160v-35h-226v26q72 46 118 130q53 96 53 209q0 115 -63 206q-33 47 -78 74q-50 29 -109 29q-115 0 -187 -92q-69 -87 -69 -218
q0 -107 54 -205q47 -88 116 -133v-26h-225v35h159v3z" />
    <glyph glyph-name="uni03BC" unicode="&#x3bc;" horiz-adv-x="500" 
d="M402 474h38v-289q0 -86 -55 -141q-54 -54 -135 -54q-98 0 -150 74h-2v-292h-38v702h38v-284q0 -73 45 -119q43 -45 107 -45t107 45q45 46 45 119v284z" />
    <glyph glyph-name="pi" unicode="&#x3c0;" horiz-adv-x="552" 
d="M435 480v-333q0 -61 5 -98q2 -16 5 -29q2 -9 6 -20h-40q-3 5 -6 15t-5 26q-5 37 -5 98v341h-211q-5 -116 -27 -260q-12 -72 -24 -128q-14 -60 -28 -92h-41q14 37 28 97q13 55 24 125q21 137 27 258q-50 0 -80 -4q-23 -3 -41 -10l-9 27q20 11 47 16q34 7 83 7h385l-5 -36
h-88z" />
    <glyph glyph-name="endash" unicode="&#x2013;" horiz-adv-x="500" 
d="M0 218v38h500v-38h-500z" />
    <glyph glyph-name="emdash" unicode="&#x2014;" horiz-adv-x="1000" 
d="M0 218v38h1000v-38h-1000z" />
    <glyph glyph-name="quoteleft" unicode="&#x2018;" horiz-adv-x="222" 
d="M146 546h-36l-34 154h42z" />
    <glyph glyph-name="quoteright" unicode="&#x2019;" horiz-adv-x="222" 
d="M112 546h-36l28 154h42z" />
    <glyph glyph-name="quotesinglbase" unicode="&#x201a;" horiz-adv-x="222" 
d="M112 -82h-36l28 154h42z" />
    <glyph glyph-name="quotedblleft" unicode="&#x201c;" horiz-adv-x="333" 
d="M266 546h-36l-34 154h42zM136 546h-36l-34 154h42z" />
    <glyph glyph-name="quotedblright" unicode="&#x201d;" horiz-adv-x="333" 
d="M103 546h-36l28 154h42zM233 546h-36l28 154h42z" />
    <glyph glyph-name="quotedblbase" unicode="&#x201e;" horiz-adv-x="333" 
d="M103 -82h-36l28 154h42zM233 -82h-36l28 154h42z" />
    <glyph glyph-name="dagger" unicode="&#x2020;" horiz-adv-x="500" 
d="M88 453v54l150 -13l-15 206h53l-15 -206l151 13v-54l-151 15q-1 -21 1 -49l11 -94q3 -20 3 -25l-10 -108q-4 -55 -6 -116q-3 -78 -2 -166h-16q1 88 -2 166q-2 61 -6 116l-10 108q0 5 3 25l6 43l5 51q2 28 1 49z" />
    <glyph glyph-name="daggerdbl" unicode="&#x2021;" horiz-adv-x="500" 
d="M412 97l-151 13l15 -206h-53l15 206l-150 -13v54l151 -15q1 21 -1 49l-11 93q-3 19 -3 24t3 24l6 43l5 50q2 28 1 49l-151 -15v54l150 -13l-15 206h53l-15 -206l151 13v-54l-151 15q-1 -21 1 -49l5 -50l6 -43q3 -19 3 -24t-3 -24l-11 -93q-2 -28 -1 -49l151 15v-54z" />
    <glyph glyph-name="bullet" unicode="&#x2022;" horiz-adv-x="500" 
d="M126 474q51 51 124 51t124 -51t51 -124t-51 -124t-124 -51t-124 51t-51 124t51 124z" />
    <glyph glyph-name="ellipsis" unicode="&#x2026;" horiz-adv-x="1000" 
d="M167 70q38 0 38 -38t-38 -38t-38 38t38 38zM500 70q38 0 38 -38t-38 -38t-38 38t38 38zM833 70q38 0 38 -38t-38 -38t-38 38t38 38z" />
    <glyph glyph-name="perthousand" unicode="&#x2030;" horiz-adv-x="1000" 
d="M919 215q-32 33 -79 33t-79 -33q-32 -32 -32 -78t32 -78q32 -33 79 -33t79 33q32 32 32 78t-32 78zM100 -12h-37l462 724h39zM236 641q-32 33 -79 33t-79 -33q-32 -32 -32 -78t32 -78q32 -33 79 -33t79 33q32 32 32 78t-32 78zM946 242q45 -44 45 -105t-45 -105
q-44 -44 -106 -44t-106 44q-45 44 -45 105t45 105q44 44 106 44t106 -44zM263 668q45 -44 45 -105t-45 -105q-44 -44 -106 -44t-106 44q-45 44 -45 105t45 105q44 44 106 44t106 -44zM571 242q45 -44 45 -105t-45 -105q-44 -44 -106 -44t-106 44q-45 44 -45 105t45 105
q44 44 106 44t106 -44zM544 215q-32 33 -79 33t-79 -33q-32 -32 -32 -78t32 -78q32 -33 79 -33t79 33q32 32 32 78t-32 78z" />
    <glyph glyph-name="guilsinglleft" unicode="&#x2039;" horiz-adv-x="278" 
d="M218 82h-47l-120 155l120 155h47l-120 -155z" />
    <glyph glyph-name="guilsinglright" unicode="&#x203a;" horiz-adv-x="278" 
d="M107 82h-47l120 155l-120 155h47l120 -155z" />
    <glyph glyph-name="fraction" unicode="&#x2044;" horiz-adv-x="167" 
d="M-130 -12h-37l462 724h39z" />
    <glyph glyph-name="Euro" unicode="&#x20ac;" 
d="M149 286q20 -120 114 -188q83 -60 191 -60h78v-38h-86q-124 0 -218 74q-102 79 -123 212h-72v38h68q-1 9 -1 26q0 31 5 64h-72v38h80q31 116 128 184q90 64 205 64h87v-38h-79q-98 0 -177 -51q-88 -57 -119 -159h265v-38h-274q-5 -33 -5 -64q0 -18 1 -26h278v-38h-274z
" />
    <glyph glyph-name="uni2113" unicode="&#x2113;" horiz-adv-x="467" 
d="M441 110q-63 -116 -174 -116q-78 0 -119 60q-36 52 -37 138v14l-61 -52l-17 29l41 34q22 19 37 35v287q0 66 13 114q12 43 33 71q36 46 92 46q55 0 86 -44q28 -41 28 -108q0 -93 -59 -193q-52 -87 -155 -187v-27q1 -95 39 -143q32 -42 85 -42q47 0 88 34q34 27 54 68z
M149 284q41 44 70 80q34 42 57 80q53 89 53 169q0 123 -83 123q-38 0 -65 -42q-32 -51 -32 -147v-263z" />
    <glyph glyph-name="trademark" unicode="&#x2122;" horiz-adv-x="990" 
d="M405 700v-38h-141v-374h-38v374h-141v38h320zM552 700l143 -346l143 346h67v-412h-38v368h-2l-161 -368h-18l-161 368h-2v-368h-38v412h67z" />
    <glyph glyph-name="Omega" unicode="&#x2126;" horiz-adv-x="730" 
d="M216 38q-64 55 -102 134q-43 91 -43 195q0 154 87 250q84 92 210 92q127 0 210 -99q81 -96 81 -240q0 -109 -46 -203q-40 -81 -100 -129v-3h160v-35h-226v26q72 46 118 130q53 96 53 209q0 115 -63 206q-33 47 -78 74q-50 29 -109 29q-115 0 -187 -92q-69 -87 -69 -218
q0 -107 54 -205q47 -88 116 -133v-26h-225v35h159v3z" />
    <glyph glyph-name="estimated" unicode="&#x212e;" horiz-adv-x="873" 
d="M187 340q-5 0 -5 -4v-197q0 -13 8 -23q104 -107 246 -107q155 0 260 120h57q-117 -140 -318 -140q-166 0 -283 105q-118 106 -118 255q0 151 118 257q117 106 283 106q167 0 285 -106t118 -257v-9h-651zM690 564q0 14 -9 23q-106 103 -245 103q-141 0 -245 -106
q-9 -9 -9 -25v-193q0 -7 5 -7h499q4 0 4 7v198z" />
    <glyph glyph-name="partialdiff" unicode="&#x2202;" horiz-adv-x="529" 
d="M82 725q29 24 63 37q42 17 93 17q98 0 164 -91q35 -48 54 -117q20 -74 20 -168q0 -178 -61 -289q-67 -122 -187 -122q-88 0 -137 70q-45 62 -45 157q0 111 65 182q60 68 145 68q35 0 68 -12q27 -10 52 -29q21 -15 37 -35q13 -16 21 -30h1q1 9 1 25v25q0 150 -61 244
q-57 87 -139 87q-43 0 -81 -15q-29 -12 -54 -33zM232 26q78 0 133 84q50 78 63 199q-16 46 -58 83q-50 43 -110 43q-70 0 -121 -61q-52 -63 -52 -152q0 -87 39 -141q40 -55 105 -55h1z" />
    <glyph glyph-name="Delta" unicode="&#x2206;" horiz-adv-x="644" 
d="M34 36l266 682h45l265 -682v-36h-576v36zM565 34l-169 441q-6 18 -17 46q-5 10 -11 25l-30 77q-10 26 -15 42h-5q-6 -22 -29 -81l-214 -550h490z" />
    <glyph glyph-name="product" unicode="&#x220f;" horiz-adv-x="687" 
d="M544 660v-756h-40v756h-323v-756h-39v756h-115v37h631v-37h-114z" />
    <glyph glyph-name="summation" unicode="&#x2211;" horiz-adv-x="552" 
d="M23 -96v29l287 365l-274 370v29h476v-36h-415v-4l262 -354l-280 -356v-4h448v-39h-504z" />
    <glyph glyph-name="minus" unicode="&#x2212;" horiz-adv-x="600" 
d="M536 217h-472v40h472v-40z" />
    <glyph glyph-name="uni2215" unicode="&#x2215;" horiz-adv-x="167" 
d="M-130 -12h-37l462 724h39z" />
    <glyph glyph-name="uni2219" unicode="&#x2219;" horiz-adv-x="278" 
d="M139 274q37 0 37 -37t-37 -37t-37 37t37 37z" />
    <glyph glyph-name="radical" unicode="&#x221a;" horiz-adv-x="558" 
d="M333 -155h-43l-168 480l-75 -28l-12 29l115 44l146 -416l6 -25q5 -20 7 -31h1l12 60l197 866h35z" />
    <glyph glyph-name="infinity" unicode="&#x221e;" horiz-adv-x="776" 
d="M723 290q0 -66 -45 -109q-42 -41 -102 -41q-46 0 -91 33q-20 15 -45 39q-11 10 -25 24q-8 9 -26 27l-41 -44q-23 -24 -44 -39q-52 -40 -107 -40q-59 0 -102 44q-42 43 -42 103q0 64 42 107q43 43 108 43q51 0 104 -40q20 -16 44 -40q15 -15 42 -45l43 47q24 24 44 40
q50 38 104 38q64 0 102 -41q37 -40 37 -105v-1zM203 173q44 0 93 41q17 14 39 37q6 5 18 18l17 18l-18 21q-10 12 -18 20q-22 24 -41 39q-48 39 -98 39q-49 0 -78 -37q-28 -34 -28 -83q0 -48 31 -80q31 -33 82 -33h1zM579 406q-45 0 -97 -45q-17 -14 -39 -38l-32 -33l48 -49
q24 -23 42 -37q41 -31 79 -31q49 0 80 36q28 33 28 79q0 118 -108 118h-1z" />
    <glyph glyph-name="integral" unicode="&#x222b;" horiz-adv-x="333" 
d="M308 801q-15 11 -38 11q-32 0 -51 -22q-38 -43 -38 -186q0 -51 2 -123l9 -270q2 -72 2 -123q0 -79 -15 -133q-12 -43 -33 -70q-28 -38 -79 -38q-34 0 -58 17l11 31q8 -5 19 -8q14 -5 28 -5q29 0 48 24q18 23 27 60q12 47 12 123q0 51 -2 125l-9 272q-2 73 -2 123
q0 152 50 202q31 34 78 34q30 0 51 -15z" />
    <glyph glyph-name="approxequal" unicode="&#x2248;" horiz-adv-x="573" 
d="M521 399q-20 -41 -47 -62q-33 -27 -77 -27q-28 0 -57 12q-13 5 -30 13q-6 4 -16 9l-18 9q-29 16 -48 24q-27 10 -51 10q-33 0 -60 -22q-22 -18 -43 -54l-23 17q49 91 133 91q31 0 66 -17q11 -5 27 -14l12 -7q6 -4 11 -6l25 -13q14 -7 24 -11q25 -10 52 -10q57 0 99 76z
M521 239q-20 -41 -47 -62q-33 -27 -77 -27q-28 0 -57 12q-12 5 -29 14l-35 18q-32 17 -48 23q-27 11 -50 11q-34 0 -61 -23q-21 -17 -43 -54l-23 17q48 91 133 91q31 0 66 -16l63 -34q7 -4 12 -6q13 -7 24 -12q25 -10 52 -10q56 0 99 75z" />
    <glyph glyph-name="notequal" unicode="&#x2260;" horiz-adv-x="573" 
d="M348 393h171v-32h-185l-73 -154h258v-32h-272l-57 -121l-27 13l51 108h-161v32h176l72 154h-248v32h262l56 119l27 -14z" />
    <glyph glyph-name="lessequal" unicode="&#x2264;" horiz-adv-x="573" 
d="M59 321v33l457 227v-41l-418 -201v-2l419 -203v-40zM53 17v34h466v-34h-466z" />
    <glyph glyph-name="greaterequal" unicode="&#x2265;" horiz-adv-x="573" 
d="M517 354v-33l-458 -227v40l418 202v2l-418 202v41zM53 17v34h466v-34h-466z" />
    <glyph glyph-name="lozenge" unicode="&#x25ca;" horiz-adv-x="560" 
d="M296 -43h-34l-204 391l205 392h34l204 -392zM298 655q-10 23 -19 48h-2q-7 -23 -19 -48l-161 -305l164 -310q14 -31 18 -46h3q6 22 18 46l161 307z" />
    </font>
</defs>
</svg>
