<?xml version="1.0" standalone="no"?>
<!DOCTYPE svg PUBLIC "-//W3C//DTD SVG 1.1//EN" "http://www.w3.org/Graphics/SVG/1.1/DTD/svg11.dtd" >
<svg xmlns="http://www.w3.org/2000/svg" xmlns:xlink="http://www.w3.org/1999/xlink" version="1.1">
<metadata>
Created by FontForge 20170731 at Wed Jun  8 17:59:08 2011
 By Aleksey,,,
</metadata>
<defs>
<font id="fatten-bold" horiz-adv-x="556" >
  <font-face 
    font-family="fatten-bold"
    font-weight="700"
    font-stretch="normal"
    units-per-em="1000"
    panose-1="0 0 8 0 0 0 0 0 0 0"
    ascent="700"
    descent="-300"
    x-height="486"
    cap-height="700"
    bbox="-167 -226 1000 966"
    underline-thickness="50"
    underline-position="-150"
    unicode-range="U+0020-FB02"
  />
<missing-glyph horiz-adv-x="500" 
d="M0 700h500v-700h-500v700zM420 650h-340l170 -255zM450 95v510l-170 -255zM420 50l-170 255l-170 -255h340zM50 95l170 255l-170 255v-510z" />
    <glyph glyph-name="uniFB01" unicode="fi" 
d="M501 486v-486h-160v486h160zM421 712q91 0 91 -91t-91 -91t-91 91t91 91zM195 0h-160v524q0 77 53 126q54 50 143 50h65v-146h-51q-50 0 -50 -64h101v-146h-101v-344z" />
    <glyph glyph-name="uniFB02" unicode="fl" 
d="M501 700v-700h-160v700h160zM195 0h-160v524q0 77 53 126q54 50 143 50h65v-146h-51q-50 0 -50 -64h101v-146h-101v-344z" />
    <glyph glyph-name=".notdef" horiz-adv-x="500" 
d="M0 700h500v-700h-500v700zM420 650h-340l170 -255zM450 95v510l-170 -255zM420 50l-170 255l-170 -255h340zM50 95l170 255l-170 255v-510z" />
    <glyph glyph-name=".null" horiz-adv-x="0" 
 />
    <glyph glyph-name="nonmarkingreturn" horiz-adv-x="333" 
 />
    <glyph glyph-name="space" unicode=" " horiz-adv-x="278" 
 />
    <glyph glyph-name="exclam" unicode="!" horiz-adv-x="333" 
d="M72 700h188l-14 -479h-160zM94 18q-30 30 -30 72t30 72q29 30 72 30t72 -30q30 -30 30 -72t-30 -72q-29 -30 -72 -30t-72 30z" />
    <glyph glyph-name="quotedbl" unicode="&#x22;" horiz-adv-x="333" 
d="M199 430v270h120v-270h-120zM16 430v270h120v-270h-120z" />
    <glyph glyph-name="numbersign" unicode="#" 
d="M492 291l-4 -94h-86l-27 -197h-100l27 197h-91l-27 -197h-100l28 197h-86l4 94h95l17 118h-86l4 94h94l27 197h100l-27 -197h91l27 197h100l-26 -197h76l-4 -94h-86l-16 -118h76zM332 409h-91l-16 -118h91z" />
    <glyph glyph-name="dollar" unicode="$" 
d="M325 785v-97h107v-134h-168q-24 0 -24 -24q0 -16 37 -43q7 -6 18 -13l20 -14q28 -19 43 -30q25 -18 43 -34q23 -20 38 -39q37 -46 37 -94q0 -73 -46 -119q-40 -41 -105 -52v-126h-100v124h-135v138h165q53 0 53 35q0 16 -36 47q-12 11 -36 29l-42 32q-25 19 -42 34
q-22 20 -36 37q-36 41 -36 77q0 74 42 118q39 41 103 49v99h100z" />
    <glyph glyph-name="percent" unicode="%" horiz-adv-x="889" 
d="M272 0h-106l441 700h107zM597 177q0 -71 71 -71t71 71t-71 71t-71 -71zM142 523q0 -71 71 -71t71 71t-71 71t-71 -71zM793 303q52 -52 52 -126t-52 -126q-51 -51 -125 -51t-125 51q-52 52 -52 126t52 126q51 51 125 51t125 -51zM338 649q52 -52 52 -126t-52 -126
q-51 -51 -125 -51t-125 51q-52 52 -52 126t52 126q51 51 125 51t125 -51z" />
    <glyph glyph-name="ampersand" unicode="&#x26;" horiz-adv-x="778" 
d="M542 700v-148h-210l200 -255q14 75 -48 146l119 113q50 -53 75 -103q29 -59 29 -122q0 -95 -61 -169l123 -154h-216l-28 37q-80 -57 -189 -57q-123 0 -206 86q-80 83 -80 196q0 147 120 222q-21 22 -33 44q-14 26 -14 52q0 59 44 88q37 24 98 24h277zM271 368
q-47 -32 -47 -93q0 -53 34 -89t81 -36q52 0 86 25z" />
    <glyph glyph-name="quotesingle" unicode="'" horiz-adv-x="222" 
d="M51 430v270h120v-270h-120z" />
    <glyph glyph-name="parenleft" unicode="(" horiz-adv-x="333" 
d="M333 628q-174 -150 -174 -384q0 -117 46 -212q42 -89 133 -176l-84 -82q-114 95 -172 227q-51 116 -51 243q0 281 226 470z" />
    <glyph glyph-name="parenright" unicode=")" horiz-adv-x="333" 
d="M76 714q226 -189 226 -470q0 -127 -51 -243q-58 -132 -172 -227l-84 82q91 87 133 176q46 95 46 212q0 234 -174 384z" />
    <glyph glyph-name="asterisk" unicode="*" horiz-adv-x="444" 
d="M347 664l56 -103l-116 -36v-2l116 -38l-55 -100l-91 86l-2 -2l23 -123h-112l23 123l-2 2l-91 -86l-55 100l116 38v2l-116 36l56 103l94 -86l2 2l-25 120h108l-25 -120l2 -2z" />
    <glyph glyph-name="plus" unicode="+" horiz-adv-x="600" 
d="M242 301v185h116v-185h185v-116h-185v-185h-116v185h-185v116h185z" />
    <glyph glyph-name="comma" unicode="," horiz-adv-x="278" 
d="M131 -148h-122l54 296h170z" />
    <glyph glyph-name="hyphen" unicode="-" horiz-adv-x="333" 
d="M291 176h-250v134h250v-134z" />
    <glyph glyph-name="period" unicode="." horiz-adv-x="278" 
d="M67 18q-30 30 -30 72t30 72q29 30 72 30t72 -30q30 -30 30 -72t-30 -72q-29 -30 -72 -30t-72 30z" />
    <glyph glyph-name="slash" unicode="/" horiz-adv-x="278" 
d="M82 -12h-117l232 724h117z" />
    <glyph glyph-name="zero" unicode="0" 
d="M523 234q0 -107 -67 -176q-69 -70 -178 -70t-178 70q-67 69 -67 176v232q0 108 67 176q69 70 178 70t178 -70q67 -68 67 -176v-232zM201 246q0 -55 22 -77q18 -19 55 -19t55 19q22 22 22 77v212q0 55 -22 77q-18 19 -55 19t-55 -19q-22 -22 -22 -77v-212z" />
    <glyph glyph-name="one" unicode="1" 
d="M368 700v-700h-164v538h-111v162h275z" />
    <glyph glyph-name="two" unicode="2" 
d="M509 162v-162h-353q-117 0 -117 108q0 34 45 91q19 23 47 53l106 109q29 30 47 50q45 53 45 79q0 64 -61 64q-60 0 -60 -62q0 -40 32 -66l-113 -112q-79 61 -79 162q0 103 60 169q62 67 162 67q102 0 164 -62q63 -63 63 -170q0 -68 -48 -129q-22 -28 -70 -77l-108 -112
h238z" />
    <glyph glyph-name="three" unicode="3" 
d="M37 0v162h214q84 0 84 69q0 65 -58 65h-150v102l160 144h-231v158h266q147 0 147 -114q0 -40 -47 -94q-15 -17 -40 -41l-19 -18q-10 -9 -15 -15q70 -14 113 -67q42 -52 42 -124q0 -115 -71 -173q-67 -54 -186 -54h-209z" />
    <glyph glyph-name="four" unicode="4" 
d="M532 300v-162h-78v-138h-154v138h-184q-44 0 -74 30q-33 31 -33 80q0 40 30 94l199 352h164l-224 -394h122v150l149 256q3 6 4 6t1 -7v-405h78z" />
    <glyph glyph-name="five" unicode="5" 
d="M53 0v168h209q83 0 83 65q0 74 -89 74h-189v393h387v-158h-219v-73h37q109 0 173 -58q68 -62 68 -177q0 -109 -77 -175q-68 -59 -158 -59h-225z" />
    <glyph glyph-name="six" unicode="6" 
d="M243 700h190l-218 -409l-10 -21q-9 -22 -9 -40q0 -74 74 -74q83 0 83 85q0 76 -81 81l89 156q160 -63 160 -231q0 -117 -67 -187q-69 -72 -186 -72q-108 0 -174 69q-66 68 -66 176q0 33 17 83q15 43 38 85z" />
    <glyph glyph-name="seven" unicode="7" 
d="M61 538v162h276q158 0 158 -114q0 -25 -7 -52l-9 -28q-2 -4 -2 -6l-155 -500h-188l189 538h-262z" />
    <glyph glyph-name="eight" unicode="8" 
d="M208 504q0 -70 70 -70t70 70t-70 70t-70 -70zM125 380q-71 47 -71 140q0 83 60 137q61 55 164 55t165 -55q59 -54 59 -137q0 -93 -71 -140q95 -53 95 -164q0 -107 -76 -170q-69 -58 -172 -58t-172 58q-76 63 -76 170q0 111 95 164zM198 228q0 -82 80 -82t80 82t-80 82
t-80 -82z" />
    <glyph glyph-name="nine" unicode="9" 
d="M309 0h-190l218 409l10 21q9 22 9 40q0 74 -74 74q-83 0 -83 -85q0 -76 81 -81l-89 -156q-160 63 -160 231q0 117 67 187q69 72 186 72q108 0 174 -69q66 -68 66 -176q0 -33 -17 -83q-15 -43 -38 -85z" />
    <glyph glyph-name="colon" unicode=":" horiz-adv-x="278" 
d="M67 18q-30 30 -30 72t30 72q29 30 72 30t72 -30q30 -30 30 -72t-30 -72q-29 -30 -72 -30t-72 30zM67 312q-30 30 -30 72t30 72q29 30 72 30t72 -30q30 -30 30 -72t-30 -72q-29 -30 -72 -30t-72 30z" />
    <glyph glyph-name="semicolon" unicode=";" horiz-adv-x="278" 
d="M131 -148h-122l54 296h170zM67 312q-30 30 -30 72t30 72q29 30 72 30t72 -30q30 -30 30 -72t-30 -72q-29 -30 -72 -30t-72 30z" />
    <glyph glyph-name="less" unicode="&#x3c;" horiz-adv-x="600" 
d="M544 103v-111l-488 206v90l488 206v-111l-338 -140z" />
    <glyph glyph-name="equal" unicode="=" horiz-adv-x="600" 
d="M543 417v-116h-486v116h486zM543 185v-116h-486v116h486z" />
    <glyph glyph-name="greater" unicode="&#x3e;" horiz-adv-x="600" 
d="M56 103l338 140l-338 140v111l488 -206v-90l-488 -206v111z" />
    <glyph glyph-name="question" unicode="?" 
d="M39 540q19 79 84 127q63 45 146 45q101 0 168 -65q67 -66 67 -167q0 -70 -45 -125t-113 -72v-60h-160v196h48q37 0 64 18q30 21 30 57q0 23 -17 41q-18 19 -39 19q-55 0 -74 -61zM197 18q-30 30 -30 72t30 72q29 30 72 30t72 -30q30 -30 30 -72t-30 -72q-29 -30 -72 -30
t-72 30z" />
    <glyph glyph-name="at" unicode="@" horiz-adv-x="800" 
d="M458 278q27 30 27 72q0 78 -77 78q-40 0 -68 -31q-27 -30 -27 -69q0 -80 73 -80q44 0 72 30zM522 524h92l-46 -247q-2 -10 -2 -17q-1 -21 12 -21q35 0 60 35q30 41 30 113q0 114 -72 176q-68 59 -183 59q-120 0 -192 -76q-71 -76 -71 -197q0 -126 78 -199q76 -72 202 -72
q108 0 184 57h95q-107 -147 -287 -147q-158 0 -267 101q-111 104 -111 260q0 154 109 259q108 104 263 104q135 0 234 -79q105 -85 105 -215q0 -77 -31 -137q-27 -51 -73 -86q-38 -29 -84 -44q-36 -13 -62 -13q-49 0 -51 47l-2 2q-42 -49 -93 -49q-64 0 -112 52
q-49 52 -49 122q0 89 53 154q57 68 143 68q78 0 119 -57z" />
    <glyph glyph-name="A" unicode="A" horiz-adv-x="611" 
d="M234 0h-174v460q0 113 68 182q68 70 177 70t177 -70q68 -69 68 -182v-460h-174v244h-109v158h109v66q0 86 -71 86t-71 -86v-468z" />
    <glyph glyph-name="B" unicode="B" horiz-adv-x="611" 
d="M233 0h-174v453q0 123 68 192q67 67 181 67q117 0 178 -66q51 -57 51 -145q0 -83 -67 -126q102 -48 102 -175q0 -93 -61 -147q-60 -53 -155 -53h-87v162q115 0 115 62q0 64 -115 64v146q86 0 86 53q0 63 -57 63q-65 0 -65 -70v-480z" />
    <glyph glyph-name="C" unicode="C" horiz-adv-x="500" 
d="M462 700v-168h-73q-77 0 -124 -45q-50 -48 -50 -137t50 -137q47 -45 124 -45h73v-168h-105q-139 0 -232 103q-92 101 -92 247t92 247q93 103 232 103h105z" />
    <glyph glyph-name="D" unicode="D" horiz-adv-x="667" 
d="M273 168q73 0 123 52q50 51 50 122q0 95 -64 145q-57 45 -151 45v-532h-174v700h177q183 0 290 -104q100 -99 100 -252q0 -150 -100 -248q-100 -96 -251 -96v168z" />
    <glyph glyph-name="E" unicode="E" horiz-adv-x="500" 
d="M452 700v-162q-119 0 -160 -21q-39 -19 -73 -91h233v-152h-233q34 -75 75 -94q38 -18 158 -18v-162h-99q-139 0 -230 102q-90 100 -90 248t90 248q91 102 230 102h99z" />
    <glyph glyph-name="F" unicode="F" horiz-adv-x="444" 
d="M223 250v-250h-174v486q0 93 56 153q57 61 151 61h164v-168h-136q-61 0 -61 -54v-66h197v-162h-197z" />
    <glyph glyph-name="G" unicode="G" horiz-adv-x="778" 
d="M558 479q-76 65 -160 65q-85 0 -136 -57q-47 -53 -47 -135q0 -84 53 -140t134 -56q45 0 90 35q47 35 64 85h-175v158h365v-74q0 -151 -96 -258q-102 -114 -261 -114q-148 0 -253 108q-103 106 -103 254t103 255q105 107 253 107q166 0 291 -112z" />
    <glyph glyph-name="H" unicode="H" horiz-adv-x="611" 
d="M236 455h138v245h174v-700h-174v287h-138v-287h-174v700h174v-245z" />
    <glyph glyph-name="I" unicode="I" horiz-adv-x="278" 
d="M226 700v-700h-174v700h174z" />
    <glyph glyph-name="J" unicode="J" horiz-adv-x="389" 
d="M0 168h70q89 0 89 74v458h174v-430q0 -179 -78 -231q-37 -24 -103 -33q-30 -3 -70 -5q-31 -1 -82 -1v168z" />
    <glyph glyph-name="K" unicode="K" horiz-adv-x="611" 
d="M63 0v700h174v-241q47 1 61 32l100 209h199l-99 -205q-12 -25 -28 -46q-19 -26 -38 -38q67 -18 99 -60q28 -37 28 -91v-260h-182v222q0 50 -28 64q-24 11 -112 11v-297h-174z" />
    <glyph glyph-name="L" unicode="L" horiz-adv-x="444" 
d="M433 168v-168h-133q-249 0 -249 226v474h174v-458q0 -74 89 -74h119z" />
    <glyph glyph-name="M" unicode="M" horiz-adv-x="778" 
d="M183 0h-166l56 560q8 82 33 114q30 38 104 38q106 0 125 -128l51 -337h5l51 337q19 128 125 128q74 0 104 -38q25 -32 33 -114l56 -560h-166l-31 570h-2v-16l-86 -476q-17 -90 -87 -90t-87 90l-86 476h-2z" />
    <glyph glyph-name="N" unicode="N" horiz-adv-x="667" 
d="M230 0h-174v616q0 96 103 96q82 0 120 -74l155 -308h2v370h174v-610q0 -45 -29 -75q-27 -27 -63 -27t-62 22q-29 24 -62 88l-162 312h-2v-410z" />
    <glyph glyph-name="O" unicode="O" horiz-adv-x="778" 
d="M517 480q-52 54 -128 54t-128 -54t-52 -130t52 -129q52 -55 128 -55t128 55q52 53 52 129t-52 130zM642 96q-105 -108 -253 -108t-253 108q-103 106 -103 254t103 255q105 107 253 107t253 -107q103 -107 103 -255t-103 -254z" />
    <glyph glyph-name="P" unicode="P" 
d="M223 0h-174v453q0 123 68 192q67 67 181 67q99 0 167 -65q70 -68 70 -171q0 -111 -63 -178q-65 -68 -176 -68h-44v162q57 0 80 14q29 19 29 70q0 74 -73 74q-65 0 -65 -70v-480z" />
    <glyph glyph-name="Q" unicode="Q" horiz-adv-x="778" 
d="M472 -90h-160v360h160v-83q97 49 97 163q0 76 -52 130t-128 54t-128 -54t-52 -130q0 -98 67 -145v-199q-108 36 -175 132q-68 95 -68 212q0 148 103 255q105 107 253 107t253 -107q103 -107 103 -255q0 -126 -77 -225t-196 -128v-87z" />
    <glyph glyph-name="R" unicode="R" horiz-adv-x="611" 
d="M235 0h-182v453q0 123 68 192q67 67 181 67q105 0 169 -54q65 -57 65 -154q0 -132 -119 -144v-2q17 -4 24 -5l23 -7q25 -7 42 -18q41 -28 41 -86v-242h-176v212q0 55 -105 55v158q94 2 94 70q0 27 -20 42q-18 13 -42 13q-63 0 -63 -96v-454z" />
    <glyph glyph-name="S" unicode="S" horiz-adv-x="500" 
d="M424 700v-162h-176q-40 0 -40 -29q0 -19 41 -49l65 -44q14 -9 25 -17q27 -20 47 -38q25 -22 42 -43q41 -52 41 -108q0 -41 -7 -71q-10 -40 -32 -68q-28 -33 -75 -51q-54 -20 -133 -20h-187v162h181q65 0 65 38q0 24 -39 55l-86 61q-27 19 -47 36q-23 21 -40 42
q-39 51 -39 108q0 102 65 154q56 44 147 44h182z" />
    <glyph glyph-name="T" unicode="T" horiz-adv-x="444" 
d="M7 700h430v-168h-128v-532h-174v532h-128v168z" />
    <glyph glyph-name="U" unicode="U" horiz-adv-x="611" 
d="M50 700h174v-461q0 -83 81 -83t81 83v461h174v-447q0 -121 -67 -192q-69 -73 -188 -73t-188 73q-67 71 -67 192v447z" />
    <glyph glyph-name="V" unicode="V" 
d="M-8 700h183l97 -488h2l108 488h182l-135 -534q-26 -101 -57 -138q-34 -40 -102 -40q-65 0 -99 40q-32 38 -55 136z" />
    <glyph glyph-name="W" unicode="W" horiz-adv-x="889" 
d="M63 700h174v-464q0 -80 60 -80t60 80v464h174v-464q0 -80 60 -80t60 80v464h174v-493q0 -95 -56 -154q-62 -65 -172 -65q-47 0 -86 16q-43 18 -67 52q-24 -34 -67 -52q-39 -16 -86 -16q-110 0 -172 65q-56 59 -56 154v493z" />
    <glyph glyph-name="X" unicode="X" 
d="M540 538q-80 0 -129 -56q-46 -53 -46 -132t46 -131q49 -57 129 -57v-162q-189 0 -262 137q-73 -137 -262 -137v162q80 0 129 57q46 52 46 131t-46 132q-49 56 -129 56v162q189 0 262 -137q73 137 262 137v-162z" />
    <glyph glyph-name="Y" unicode="Y" 
d="M369 0h-174v250q-76 23 -113 83q-32 51 -32 119v248h174v-232q0 -68 54 -68t54 68v232h174v-248q0 -155 -137 -202v-250z" />
    <glyph glyph-name="Z" unicode="Z" 
d="M517 168v-168h-366q-113 0 -113 106q0 29 20 67q8 14 22 35q2 5 6 10l202 314h-211v168h306q127 0 127 -106q0 -27 -12 -54q-7 -17 -29 -52l-200 -320h248z" />
    <glyph glyph-name="bracketleft" unicode="[" horiz-adv-x="333" 
d="M294 -218h-218v918h218v-64h-90v-790h90v-64z" />
    <glyph glyph-name="backslash" unicode="\" horiz-adv-x="278" 
d="M-68 712h116l298 -724h-116z" />
    <glyph glyph-name="bracketright" unicode="]" horiz-adv-x="333" 
d="M257 -218h-218v64h90v790h-90v64h218v-918z" />
    <glyph glyph-name="asciicircum" unicode="^" horiz-adv-x="600" 
d="M189 335h-116l174 365h106l174 -365h-117l-110 248z" />
    <glyph glyph-name="underscore" unicode="_" horiz-adv-x="500" 
d="M500 -125h-500v50h500v-50z" />
    <glyph glyph-name="grave" unicode="`" horiz-adv-x="278" 
d="M-66 707h208l100 -148h-137z" />
    <glyph glyph-name="a" unicode="a" horiz-adv-x="611" 
d="M570 0h-160v224q0 128 -113 128q-44 0 -77 -30q-33 -31 -33 -76q0 -52 34 -84q30 -28 72 -28q41 0 77 14v-132q-40 -28 -109 -28q-86 0 -155 64q-37 34 -57 80q-22 50 -22 110q0 110 75 183q76 73 192 73q119 0 195 -60q81 -65 81 -176v-262z" />
    <glyph glyph-name="b" unicode="b" horiz-adv-x="611" 
d="M41 700h160v-437q0 -129 113 -129q47 0 78 31q32 30 32 78t-32 79q-31 30 -78 30q-24 0 -42 -4q-14 -4 -25 -10v148q30 12 78 12q103 0 177 -64q82 -72 82 -190q0 -110 -75 -183q-76 -73 -192 -73q-114 0 -191 60q-85 65 -85 176v476z" />
    <glyph glyph-name="c" unicode="c" horiz-adv-x="389" 
d="M350 486v-145h-68q-101 0 -101 -98q0 -99 101 -99h68v-144h-96q-93 0 -160 64q-73 69 -73 179q0 109 73 179q67 64 160 64h96z" />
    <glyph glyph-name="d" unicode="d" horiz-adv-x="611" 
d="M410 700h160v-476q0 -111 -85 -176q-77 -60 -191 -60q-116 0 -192 73q-75 73 -75 183q0 118 82 190q74 64 177 64q48 0 78 -12v-148q-11 6 -25 10q-18 4 -42 4q-47 0 -78 -30q-32 -31 -32 -79t32 -78q31 -31 78 -31q113 0 113 129v437z" />
    <glyph glyph-name="e" unicode="e" 
d="M272 177l-61 96l131 86q-27 17 -62 17q-46 0 -76 -41q-26 -36 -26 -84t30 -84q31 -39 78 -39q43 0 85 34q39 31 58 75l115 -59q-35 -85 -106 -136q-74 -54 -163 -54q-101 0 -176 75q-75 76 -75 180t75 180q75 75 176 75q81 0 142 -42q55 -38 96 -113z" />
    <glyph glyph-name="f" unicode="f" horiz-adv-x="333" 
d="M202 0h-160v524q0 77 53 126q54 50 143 50h88v-146h-74q-50 0 -50 -64h124v-146h-124v-344z" />
    <glyph glyph-name="g" unicode="g" 
d="M93 -45q38 -14 67 -20q36 -7 78 -7q124 0 124 92v226q0 106 -95 106q-40 0 -68 -29q-27 -29 -27 -71q0 -45 25 -74q27 -32 71 -32q32 0 63 14v-151q-37 -9 -89 -9q-91 0 -155 73q-63 72 -63 172q0 101 64 174q69 79 178 79q114 0 181 -73q69 -74 69 -201v-173
q0 -269 -273 -269q-81 0 -150 23v150z" />
    <glyph glyph-name="h" unicode="h" horiz-adv-x="500" 
d="M35 0v700h160v-228q49 26 93 26q86 0 134 -59q43 -53 43 -129v-310h-160v283q0 61 -55 61t-55 -61v-283h-160z" />
    <glyph glyph-name="i" unicode="i" horiz-adv-x="278" 
d="M219 486v-486h-160v486h160zM139 712q91 0 91 -91t-91 -91t-91 91t91 91z" />
    <glyph glyph-name="j" unicode="j" horiz-adv-x="278" 
d="M-36 -70q60 0 78 12q14 9 14 42v502h160v-500q0 -116 -59 -161q-56 -43 -193 -43v148zM136 712q91 0 91 -91t-91 -91t-91 91t91 91z" />
    <glyph glyph-name="k" unicode="k" horiz-adv-x="500" 
d="M40 0v700h160v-363q38 0 56 24t52 125h164l-45 -128q-10 -28 -23 -47q-18 -24 -39 -29v-2q62 -20 85 -58q18 -31 18 -92v-130h-154v125q0 66 -62 66h-52v-191h-160z" />
    <glyph glyph-name="l" unicode="l" horiz-adv-x="278" 
d="M219 0h-160v700h160v-700z" />
    <glyph glyph-name="m" unicode="m" horiz-adv-x="778" 
d="M469 0h-160v288q0 56 -51 56t-51 -56v-288h-160v314q0 82 62 134q58 50 142 50q77 0 138 -68q61 68 138 68q84 0 142 -50q62 -52 62 -134v-314h-160v288q0 56 -51 56t-51 -56v-288z" />
    <glyph glyph-name="n" unicode="n" horiz-adv-x="500" 
d="M195 0h-154v278q0 98 54 157q56 63 155 63t156 -63q53 -59 53 -157v-278h-154v278q0 68 -55 68t-55 -68v-278z" />
    <glyph glyph-name="o" unicode="o" 
d="M209 171q28 -31 69 -31t70 31q27 29 27 72t-27 73q-29 30 -70 30t-69 -30t-28 -73t28 -72zM102 423q75 75 176 75t176 -75q75 -76 75 -180t-75 -180q-75 -75 -176 -75t-176 75q-75 76 -75 180t75 180z" />
    <glyph glyph-name="p" unicode="p" horiz-adv-x="611" 
d="M201 -210h-160v472q0 111 85 177q77 59 191 59q116 0 192 -73q75 -73 75 -183q0 -118 -82 -190q-74 -64 -177 -64q-48 0 -78 12v148q11 -6 25 -10q18 -4 42 -4q47 0 78 31q32 30 32 78t-32 79q-31 30 -78 30q-113 0 -113 -129v-433z" />
    <glyph glyph-name="q" unicode="q" horiz-adv-x="611" 
d="M570 -210h-160v433q0 129 -113 129q-47 0 -78 -30q-32 -31 -32 -79t32 -78q31 -31 78 -31q24 0 42 4q14 4 25 10v-148q-30 -12 -78 -12q-103 0 -177 64q-82 72 -82 190q0 110 75 183q76 73 192 73q114 0 191 -59q85 -66 85 -177v-472z" />
    <glyph glyph-name="r" unicode="r" horiz-adv-x="333" 
d="M176 486v-81h2q17 48 53 66q29 15 87 15v-146q-80 -3 -102 -26q-19 -20 -19 -86v-228h-160v486h139z" />
    <glyph glyph-name="s" unicode="s" horiz-adv-x="389" 
d="M21 0v136h154q28 0 28 22q0 14 -28 26q-5 3 -13 6l-15 6q-20 8 -32 14q-40 19 -61 47q-28 36 -28 91q0 65 50 104q44 34 106 34h156v-130h-125q-33 0 -33 -23q0 -12 29 -26l65 -29q42 -22 64 -47q29 -33 29 -78q0 -153 -167 -153h-179z" />
    <glyph glyph-name="t" unicode="t" horiz-adv-x="333" 
d="M193 490h113v-146h-114v-130q0 -41 18 -54q16 -12 64 -14q12 0 34 2v-148h-90q-87 0 -136 53q-44 47 -44 121v432h155v-116z" />
    <glyph glyph-name="u" unicode="u" horiz-adv-x="500" 
d="M195 486v-278q0 -68 55 -68t55 68v278h154v-278q0 -98 -53 -157q-57 -63 -156 -63t-155 63q-54 59 -54 157v278h154z" />
    <glyph glyph-name="v" unicode="v" horiz-adv-x="444" 
d="M288 486h163l-111 -378l-12 -34q-10 -26 -22 -43q-31 -43 -84 -43q-59 0 -90 39q-13 16 -23 42q-8 19 -16 51l-99 366h161l67 -320h2z" />
    <glyph glyph-name="w" unicode="w" horiz-adv-x="778" 
d="M47 486h160v-288q0 -56 51 -56t51 56v288h160v-288q0 -56 51 -56t51 56v288h160v-314q0 -82 -62 -134q-58 -50 -142 -50q-78 0 -138 68q-59 -68 -138 -68q-84 0 -142 50q-62 52 -62 134v314z" />
    <glyph glyph-name="x" unicode="x" horiz-adv-x="444" 
d="M422 346q-61 0 -90 -21q-33 -25 -33 -82t33 -82q29 -21 90 -21v-140q-42 0 -62 1q-31 3 -53 10q-52 16 -85 70q-33 -54 -85 -70q-22 -7 -53 -10q-20 -1 -62 -1v140q61 0 90 21q33 25 33 82t-33 82q-29 21 -90 21v140q42 0 62 -1q31 -3 53 -9q52 -17 85 -71q33 54 85 71
q22 6 53 9q20 1 62 1v-140z" />
    <glyph glyph-name="y" unicode="y" horiz-adv-x="500" 
d="M332 -210h-160v206q-69 21 -101 67q-31 44 -31 111v312h154v-282q0 -29 11 -46q14 -22 47 -22q54 0 54 75v275h154v-312q0 -137 -128 -178v-206z" />
    <glyph glyph-name="z" unicode="z" horiz-adv-x="444" 
d="M41 346v140h253q70 0 100 -26q24 -22 24 -69q0 -18 -12 -40q-9 -16 -24 -34l-147 -171h182v-146h-313q-91 0 -91 92q0 38 25 66l171 188h-168z" />
    <glyph glyph-name="braceleft" unicode="{" horiz-adv-x="333" 
d="M327 700v-63h-55q-58 0 -58 -64v-232q0 -49 -40 -74q-14 -10 -32 -15q-7 -2 -15 -3q-6 -2 -11 -2v-3l26 -4q19 -5 32 -14q40 -25 40 -84v-236q0 -60 58 -60h55v-64h-93q-67 0 -108 40q-40 40 -40 102v205q0 40 -39 57q-15 6 -33 9l-14 2h-11v97h11l14 2q18 2 33 8
q39 15 39 50v205q0 66 45 106q39 35 95 35h101z" />
    <glyph glyph-name="bar" unicode="|" horiz-adv-x="222" 
d="M53 0v700h116v-700h-116z" />
    <glyph glyph-name="braceright" unicode="}" horiz-adv-x="333" 
d="M6 637v63h101q56 0 96 -35q44 -40 44 -106v-205q0 -35 40 -50q14 -6 32 -8l14 -2h11v-97h-11l-14 -2q-18 -3 -32 -9q-40 -17 -40 -57v-205q0 -62 -40 -102q-41 -40 -108 -40h-93v64h55q58 0 58 60v236q0 59 40 84q13 9 32 14l26 4v3q-5 0 -11 2q-8 1 -15 3q-18 5 -32 15
q-40 25 -40 74v232q0 64 -58 64h-55z" />
    <glyph glyph-name="asciitilde" unicode="~" horiz-adv-x="600" 
d="M531 240q-14 -20 -23 -31q-14 -17 -27 -28q-34 -27 -75 -27q-26 0 -55 11q-11 4 -24 11q-6 2 -13 6l-12 6q-32 17 -52 23q-30 11 -61 11q-30 0 -52 -23q-17 -17 -32 -49l-36 96q20 38 46 59q33 27 79 27q25 0 58 -11q22 -7 57 -23l28 -12q15 -7 26 -11q28 -11 44 -11
q27 0 50 23q15 14 38 49z" />
    <glyph glyph-name="uni00A0" unicode="&#xa0;" horiz-adv-x="278" 
 />
    <glyph glyph-name="exclamdown" unicode="&#xa1;" horiz-adv-x="333" 
d="M261 -206h-188l14 479h160zM239 476q30 -30 30 -72t-30 -72q-29 -30 -72 -30t-72 30q-30 30 -30 72t30 72q29 30 72 30t72 -30z" />
    <glyph glyph-name="cent" unicode="&#xa2;" 
d="M337 42h-100v140q-75 10 -123 71q-46 59 -46 135t46 135q48 61 123 71v140h100v-138h68v-126h-117q-84 0 -84 -82t84 -82h117v-126h-68v-138z" />
    <glyph glyph-name="sterling" unicode="&#xa3;" 
d="M0 0v168q63 0 80 26q16 24 16 113h-59v148h59q0 141 63 202q56 55 171 55h89v-158h-75q-80 0 -80 -101h83v-146h-83q2 -100 -37 -142l31 2q18 1 31 1q69 0 92 36q17 27 20 103h160v-55q0 -120 -73 -189q-66 -63 -166 -63h-322z" />
    <glyph glyph-name="currency" unicode="&#xa4;" 
d="M540 154l-68 -68l-58 58q-45 -42 -136 -42q-90 0 -136 42l-58 -58l-68 68l56 56q-42 45 -42 140t42 140l-56 56l68 68l58 -58q46 42 136 42q91 0 136 -42l58 58l68 -68l-56 -56q42 -45 42 -140t-42 -140zM186 253q37 -41 92 -41t92 41q36 39 36 97t-36 98q-37 40 -92 40
t-92 -40q-36 -40 -36 -98t36 -97z" />
    <glyph glyph-name="yen" unicode="&#xa5;" 
d="M353 194v-194h-164v194h-110v96h110v60h-110v96h89q-43 92 -144 92v162q178 0 247 -137q69 137 247 137v-162q-101 0 -144 -92h89v-96h-110v-60h110v-96h-110z" />
    <glyph glyph-name="brokenbar" unicode="&#xa6;" horiz-adv-x="222" 
d="M53 0v262h116v-262h-116zM53 438v262h116v-262h-116z" />
    <glyph glyph-name="section" unicode="&#xa7;" 
d="M372 543l-14 18q-2 4 -4 6q-10 12 -18 19q-20 18 -51 18q-36 0 -36 -43q0 -18 40 -49l20 -14q7 -6 22 -16l23 -16q13 -10 24 -17q27 -21 47 -38q25 -22 42 -43q40 -50 40 -100q0 -100 -106 -120q48 -38 48 -101q0 -76 -56 -116q-49 -35 -128 -35q-123 0 -187 105l107 79
q9 -31 29 -52q24 -24 53 -24q40 0 40 43q0 23 -40 57q-15 12 -42 32l-23 17q-15 10 -24 18q-29 21 -48 38q-25 22 -42 42q-40 49 -40 98q0 115 115 117v2q-50 35 -50 108q0 66 57 103q49 33 118 33q124 0 185 -104zM200 320q19 -21 50 -45q28 -23 55 -38q27 -16 37 -16
q35 0 35 35q0 10 -20 33q-19 21 -48 46q-68 57 -96 57q-35 0 -35 -34q0 -14 22 -38z" />
    <glyph glyph-name="dieresis" unicode="&#xa8;" horiz-adv-x="278" 
d="M193 569q-24 24 -24 59t24 59q25 25 60 25t60 -25q24 -24 24 -59t-24 -59q-25 -25 -60 -25t-60 25zM-36 569q-24 24 -24 59t24 59q25 25 60 25t60 -25q24 -24 24 -59t-24 -59q-25 -25 -60 -25t-60 25z" />
    <glyph glyph-name="copyright" unicode="&#xa9;" horiz-adv-x="800" 
d="M139 83q-115 102 -115 267t115 267q107 95 261 95t261 -95q115 -102 115 -267t-115 -267q-107 -95 -261 -95t-261 95zM580 547q-73 75 -180 75q-108 0 -181 -75q-75 -77 -75 -197t75 -197q73 -75 181 -75q107 0 180 75q76 78 76 197t-76 197zM588 297q-10 -72 -60 -113
q-47 -39 -113 -39q-89 0 -145 60q-55 59 -55 148q0 92 53 150q54 59 145 59q148 0 171 -149h-88q-11 59 -83 59q-90 0 -90 -117q0 -120 92 -120q77 0 81 62h92z" />
    <glyph glyph-name="ordfeminine" unicode="&#xaa;" horiz-adv-x="367" 
d="M356 413h-104v134q0 77 -73 77q-71 0 -71 -63q0 -68 69 -68q14 0 28 3q6 1 12 3q5 1 10 3v-79q-26 -17 -71 -17q-56 0 -101 39q-51 43 -51 113q0 66 49 110t124 44q78 0 127 -36q52 -39 52 -106v-157z" />
    <glyph glyph-name="guillemotleft" unicode="&#xab;" 
d="M293 89h-120l-120 154l120 154h122l-120 -154zM501 89h-120l-120 154l120 154h122l-120 -154z" />
    <glyph glyph-name="logicalnot" unicode="&#xac;" horiz-adv-x="600" 
d="M427 113v188h-370v116h486v-304h-116z" />
    <glyph glyph-name="uni00AD" unicode="&#xad;" horiz-adv-x="333" 
d="M291 176h-250v134h250v-134z" />
    <glyph glyph-name="registered" unicode="&#xae;" horiz-adv-x="800" 
d="M139 83q-115 102 -115 267t115 267q107 95 261 95t261 -95q115 -102 115 -267t-115 -267q-107 -95 -261 -95t-261 95zM580 547q-73 75 -180 75q-108 0 -181 -75q-75 -77 -75 -197t75 -197q73 -75 181 -75q107 0 180 75q76 78 76 197t-76 197zM342 318v-164h-90v393h147
q82 0 121 -25q44 -29 44 -95q0 -98 -110 -103l100 -170h-90l-89 164h-33zM342 388h75q53 0 53 49q0 40 -62 40h-66v-89z" />
    <glyph glyph-name="macron" unicode="&#xaf;" horiz-adv-x="278" 
d="M328 588h-377v90h377v-90z" />
    <glyph glyph-name="degree" unicode="&#xb0;" horiz-adv-x="400" 
d="M119 569q0 -85 81 -85t81 85t-81 85t-81 -85zM302 671q41 -42 41 -102t-41 -101q-42 -42 -102 -42t-101 42q-42 41 -42 101t42 102q41 41 101 41t102 -41z" />
    <glyph glyph-name="plusminus" unicode="&#xb1;" horiz-adv-x="600" 
d="M242 373v113h116v-113h185v-116h-185v-113h-116v113h-185v116h185zM57 0v116h486v-116h-486z" />
    <glyph glyph-name="uni00B2" unicode="&#xb2;" horiz-adv-x="333" 
d="M319 382v-97h-230q-76 0 -76 65q0 20 30 54q12 14 30 32q13 13 35 33q1 2 4 4q1 2 4 5l26 24q19 17 30 30q30 31 30 47q0 38 -40 38q-39 0 -39 -37q0 -24 21 -39l-73 -68q-52 37 -52 98q0 62 40 101q40 40 105 40q147 0 147 -139q0 -41 -31 -77q-14 -17 -45 -47l-71 -67
h155z" />
    <glyph glyph-name="uni00B3" unicode="&#xb3;" horiz-adv-x="333" 
d="M15 285v97h139q55 0 55 42q0 39 -38 39h-97v61l104 84v2h-151v95h173q96 0 96 -68q0 -24 -31 -56q-10 -11 -26 -25l-12 -11q-6 -6 -10 -9q101 -20 101 -115q0 -136 -167 -136h-136z" />
    <glyph glyph-name="acute" unicode="&#xb4;" horiz-adv-x="278" 
d="M137 707h208l-171 -148h-137z" />
    <glyph glyph-name="mu" unicode="&#xb5;" horiz-adv-x="500" 
d="M305 486h154v-278q0 -98 -53 -157q-57 -63 -156 -63q-35 0 -55 6v-204h-154v696h154v-278q0 -68 55 -68t55 68v278z" />
    <glyph glyph-name="paragraph" unicode="&#xb6;" horiz-adv-x="620" 
d="M206 -191v542q-223 0 -223 171q0 100 71 143q31 19 78 27q41 8 97 8h314v-891h-120v801h-97v-801h-120z" />
    <glyph glyph-name="periodcentered" unicode="&#xb7;" horiz-adv-x="278" 
d="M67 171q-30 30 -30 72t30 72q29 30 72 30t72 -30q30 -30 30 -72t-30 -72q-29 -30 -72 -30t-72 30z" />
    <glyph glyph-name="cedilla" unicode="&#xb8;" horiz-adv-x="278" 
d="M28 -143l5 -2l37 -12q25 -7 44 -7q52 0 52 40q0 33 -48 33q-8 0 -18 -3l-17 -7l-25 24l55 92h58l-39 -64q16 4 37 4q37 0 65 -19q32 -22 32 -57q0 -47 -46 -74q-39 -23 -89 -23q-30 0 -63 9q-28 6 -61 20z" />
    <glyph glyph-name="uni00B9" unicode="&#xb9;" horiz-adv-x="333" 
d="M227 705v-420h-106v323h-73v97h179z" />
    <glyph glyph-name="ordmasculine" unicode="&#xba;" horiz-adv-x="334" 
d="M171 496q63 0 63 63t-63 63t-63 -63t63 -63zM57 667q48 45 114 45t114 -45q49 -45 49 -108t-49 -108q-48 -45 -114 -45t-114 45q-49 45 -49 108t49 108z" />
    <glyph glyph-name="guillemotright" unicode="&#xbb;" 
d="M383 89h-120l118 154l-120 154h122l120 -154zM175 89h-120l118 154l-120 154h122l120 -154z" />
    <glyph glyph-name="onequarter" unicode="&#xbc;" horiz-adv-x="834" 
d="M254 -12h-107l396 724h107zM207 705v-420h-106v323h-73v97h179zM802 180v-97h-51v-83h-100v83h-120q-69 0 -69 66q0 27 19 56l130 211h106l-145 -236h79v90l99 157q1 0 1 -14v-233h51z" />
    <glyph glyph-name="onehalf" unicode="&#xbd;" horiz-adv-x="834" 
d="M231 -12h-107l396 724h107zM800 96v-96h-230q-76 0 -76 65q0 20 30 54q12 14 30 32q13 13 36 33q1 2 4 4q1 2 4 5l9 8q11 9 18 16q18 17 30 30q30 31 30 47q0 38 -42 38q-38 0 -38 -37q0 -25 20 -39l-73 -68q-53 38 -53 98q0 62 40 101q41 41 106 41t105 -38
q41 -38 41 -102q0 -41 -31 -78q-14 -16 -45 -46l-70 -68h155zM207 705v-420h-106v323h-73v97h179z" />
    <glyph glyph-name="threequarters" unicode="&#xbe;" horiz-adv-x="834" 
d="M285 -12h-107l396 724h107zM802 180v-97h-51v-83h-100v83h-120q-69 0 -69 66q0 27 19 56l130 211h106l-145 -236h79v90l99 157q1 0 1 -14v-233h51zM15 285v97h139q55 0 55 42q0 39 -38 39h-97v61l104 84v2h-151v95h173q96 0 96 -68q0 -24 -31 -56q-10 -11 -26 -25
l-12 -11q-6 -6 -10 -9q101 -20 101 -115q0 -136 -167 -136h-136z" />
    <glyph glyph-name="questiondown" unicode="&#xbf;" 
d="M517 -46q-19 -79 -84 -126q-63 -46 -146 -46q-101 0 -168 65q-67 66 -67 167q0 70 45 125t113 72v60h160v-196h-48q-37 0 -63 -18q-31 -21 -31 -57q0 -22 18 -41q17 -19 38 -19q55 0 74 61zM359 476q30 -30 30 -72t-30 -72q-29 -30 -72 -30t-72 30q-30 30 -30 72t30 72
q29 30 72 30t72 -30z" />
    <glyph glyph-name="Agrave" unicode="&#xc0;" horiz-adv-x="611" 
d="M234 0h-174v460q0 113 68 182q68 70 177 70t177 -70q68 -69 68 -182v-460h-174v244h-109v158h109v66q0 86 -71 86t-71 -86v-468zM101 893h208l100 -148h-137z" />
    <glyph glyph-name="Aacute" unicode="&#xc1;" horiz-adv-x="611" 
d="M234 0h-174v460q0 113 68 182q68 70 177 70t177 -70q68 -69 68 -182v-460h-174v244h-109v158h109v66q0 86 -71 86t-71 -86v-468zM304 893h208l-171 -148h-137z" />
    <glyph glyph-name="Acircumflex" unicode="&#xc2;" horiz-adv-x="611" 
d="M234 0h-174v460q0 113 68 182q68 70 177 70t177 -70q68 -69 68 -182v-460h-174v244h-109v158h109v66q0 86 -71 86t-71 -86v-468zM103 745l121 148h164l122 -148h-149l-55 75l-56 -75h-147z" />
    <glyph glyph-name="Atilde" unicode="&#xc3;" horiz-adv-x="611" 
d="M234 0h-174v460q0 113 68 182q68 70 177 70t177 -70q68 -69 68 -182v-460h-174v244h-109v158h109v66q0 86 -71 86t-71 -86v-468zM501 884q-7 -62 -37 -96q-34 -37 -94 -37q-19 0 -40 6q-15 4 -37 13l-17 6q-10 4 -17 6q-17 6 -29 6q-34 0 -41 -42h-79q5 52 36 94
q36 46 87 46q21 0 43 -6q16 -4 39 -13q3 -2 9 -4l24 -10q18 -6 29 -6q33 0 45 37h79z" />
    <glyph glyph-name="Adieresis" unicode="&#xc4;" horiz-adv-x="611" 
d="M234 0h-174v460q0 113 68 182q68 70 177 70t177 -70q68 -69 68 -182v-460h-174v244h-109v158h109v66q0 86 -71 86t-71 -86v-468zM360 755q-24 24 -24 59t24 59q25 25 60 25t60 -25q24 -24 24 -59t-24 -59q-25 -25 -60 -25t-60 25zM131 755q-24 24 -24 59t24 59
q25 25 60 25t60 -25q24 -24 24 -59t-24 -59q-25 -25 -60 -25t-60 25z" />
    <glyph glyph-name="Aring" unicode="&#xc5;" horiz-adv-x="611" 
d="M234 0h-174v460q0 113 68 182q68 70 177 70t177 -70q68 -69 68 -182v-460h-174v244h-109v158h109v66q0 86 -71 86t-71 -86v-468zM306 806q49 0 49 48t-49 48t-49 -48t49 -48zM226 933q34 33 80 33t80 -33q33 -33 33 -79t-33 -79q-34 -33 -80 -33t-80 33q-33 33 -33 79
t33 79z" />
    <glyph glyph-name="AE" unicode="&#xc6;" horiz-adv-x="889" 
d="M225 0h-174v460q0 113 68 182q68 70 177 70q66 0 120 -24q50 -22 90 -64q44 43 105 61q50 15 119 15h111v-156h-88q-145 0 -186 -114h274v-158h-274q41 -114 186 -114h88v-158h-111q-109 0 -185 69v-69h-174v272h-114v158h114v63q0 61 -75 61q-71 0 -71 -86v-468z" />
    <glyph glyph-name="Ccedilla" unicode="&#xc7;" horiz-adv-x="500" 
d="M462 700v-168h-73q-77 0 -124 -45q-50 -48 -50 -137t50 -137q47 -45 124 -45h73v-168h-104q-18 0 -27 1l-30 -50q16 4 37 4q37 0 65 -19q32 -22 32 -57q0 -47 -46 -74q-39 -23 -89 -23q-30 0 -63 9q-28 6 -61 20l21 46l42 -14q25 -7 44 -7q52 0 52 40q0 33 -48 33
q-8 0 -18 -3l-17 -7l-25 24l51 87q-109 28 -177 122q-68 95 -68 218q0 146 92 247q93 103 232 103h105z" />
    <glyph glyph-name="Egrave" unicode="&#xc8;" horiz-adv-x="500" 
d="M452 700v-162q-119 0 -160 -21q-39 -19 -73 -91h233v-152h-233q34 -75 75 -94q38 -18 158 -18v-162h-99q-139 0 -230 102q-90 100 -90 248t90 248q91 102 230 102h99zM97 893h208l100 -148h-137z" />
    <glyph glyph-name="Eacute" unicode="&#xc9;" horiz-adv-x="500" 
d="M452 700v-162q-119 0 -160 -21q-39 -19 -73 -91h233v-152h-233q34 -75 75 -94q38 -18 158 -18v-162h-99q-139 0 -230 102q-90 100 -90 248t90 248q91 102 230 102h99zM300 893h208l-171 -148h-137z" />
    <glyph glyph-name="Ecircumflex" unicode="&#xca;" horiz-adv-x="500" 
d="M452 700v-162q-119 0 -160 -21q-39 -19 -73 -91h233v-152h-233q34 -75 75 -94q38 -18 158 -18v-162h-99q-139 0 -230 102q-90 100 -90 248t90 248q91 102 230 102h99zM99 745l121 148h164l122 -148h-149l-55 75l-56 -75h-147z" />
    <glyph glyph-name="Edieresis" unicode="&#xcb;" horiz-adv-x="500" 
d="M452 700v-162q-119 0 -160 -21q-39 -19 -73 -91h233v-152h-233q34 -75 75 -94q38 -18 158 -18v-162h-99q-139 0 -230 102q-90 100 -90 248t90 248q91 102 230 102h99zM356 755q-24 24 -24 59t24 59q25 25 60 25t60 -25q24 -24 24 -59t-24 -59q-25 -25 -60 -25t-60 25z
M127 755q-24 24 -24 59t24 59q25 25 60 25t60 -25q24 -24 24 -59t-24 -59q-25 -25 -60 -25t-60 25z" />
    <glyph glyph-name="Igrave" unicode="&#xcc;" horiz-adv-x="278" 
d="M226 700v-700h-174v700h174zM-66 893h208l100 -148h-137z" />
    <glyph glyph-name="Iacute" unicode="&#xcd;" horiz-adv-x="278" 
d="M226 700v-700h-174v700h174zM137 893h208l-171 -148h-137z" />
    <glyph glyph-name="Icircumflex" unicode="&#xce;" horiz-adv-x="278" 
d="M226 700v-700h-174v700h174zM-64 745l121 148h164l122 -148h-149l-55 75l-56 -75h-147z" />
    <glyph glyph-name="Idieresis" unicode="&#xcf;" horiz-adv-x="278" 
d="M226 700v-700h-174v700h174zM193 755q-24 24 -24 59t24 59q25 25 60 25t60 -25q24 -24 24 -59t-24 -59q-25 -25 -60 -25t-60 25zM-36 755q-24 24 -24 59t24 59q25 25 60 25t60 -25q24 -24 24 -59t-24 -59q-25 -25 -60 -25t-60 25z" />
    <glyph glyph-name="Eth" unicode="&#xd0;" horiz-adv-x="667" 
d="M273 168q73 0 123 52q50 51 50 122q0 95 -64 145q-57 45 -151 45v-77h91v-168h-91v-287h-174v287h-42v168h42v245h177q183 0 290 -104q100 -99 100 -252q0 -150 -100 -248q-100 -96 -251 -96v168z" />
    <glyph glyph-name="Ntilde" unicode="&#xd1;" horiz-adv-x="667" 
d="M230 0h-174v616q0 96 103 96q82 0 120 -74l155 -308h2v370h174v-610q0 -45 -29 -75q-27 -27 -63 -27t-62 22q-29 24 -62 88l-162 312h-2v-410zM541 884q-7 -62 -37 -96q-34 -37 -94 -37q-19 0 -40 6q-15 4 -37 13l-17 6q-10 4 -17 6q-17 6 -29 6q-34 0 -41 -42h-79
q5 52 36 94q36 46 87 46q21 0 43 -6q16 -4 39 -13q3 -2 9 -4l24 -10q18 -6 29 -6q33 0 45 37h79z" />
    <glyph glyph-name="Ograve" unicode="&#xd2;" horiz-adv-x="778" 
d="M517 480q-52 54 -128 54t-128 -54t-52 -130t52 -129q52 -55 128 -55t128 55q52 53 52 129t-52 130zM642 96q-105 -108 -253 -108t-253 108q-103 106 -103 254t103 255q105 107 253 107t253 -107q103 -107 103 -255t-103 -254zM184 893h208l100 -148h-137z" />
    <glyph glyph-name="Oacute" unicode="&#xd3;" horiz-adv-x="778" 
d="M517 480q-52 54 -128 54t-128 -54t-52 -130t52 -129q52 -55 128 -55t128 55q52 53 52 129t-52 130zM642 96q-105 -108 -253 -108t-253 108q-103 106 -103 254t103 255q105 107 253 107t253 -107q103 -107 103 -255t-103 -254zM387 893h208l-171 -148h-137z" />
    <glyph glyph-name="Ocircumflex" unicode="&#xd4;" horiz-adv-x="778" 
d="M517 480q-52 54 -128 54t-128 -54t-52 -130t52 -129q52 -55 128 -55t128 55q52 53 52 129t-52 130zM642 96q-105 -108 -253 -108t-253 108q-103 106 -103 254t103 255q105 107 253 107t253 -107q103 -107 103 -255t-103 -254zM186 745l121 148h164l122 -148h-149l-55 75
l-56 -75h-147z" />
    <glyph glyph-name="Otilde" unicode="&#xd5;" horiz-adv-x="778" 
d="M517 480q-52 54 -128 54t-128 -54t-52 -130t52 -129q52 -55 128 -55t128 55q52 53 52 129t-52 130zM642 96q-105 -108 -253 -108t-253 108q-103 106 -103 254t103 255q105 107 253 107t253 -107q103 -107 103 -255t-103 -254zM584 884q-7 -62 -37 -96q-34 -37 -94 -37
q-19 0 -40 6q-15 4 -37 13l-17 6q-10 4 -17 6q-17 6 -29 6q-34 0 -41 -42h-79q5 52 36 94q36 46 87 46q21 0 43 -6q16 -4 39 -13q3 -2 9 -4l24 -10q18 -6 29 -6q33 0 45 37h79z" />
    <glyph glyph-name="Odieresis" unicode="&#xd6;" horiz-adv-x="778" 
d="M517 480q-52 54 -128 54t-128 -54t-52 -130t52 -129q52 -55 128 -55t128 55q52 53 52 129t-52 130zM642 96q-105 -108 -253 -108t-253 108q-103 106 -103 254t103 255q105 107 253 107t253 -107q103 -107 103 -255t-103 -254zM443 755q-24 24 -24 59t24 59q25 25 60 25
t60 -25q24 -24 24 -59t-24 -59q-25 -25 -60 -25t-60 25zM214 755q-24 24 -24 59t24 59q25 25 60 25t60 -25q24 -24 24 -59t-24 -59q-25 -25 -60 -25t-60 25z" />
    <glyph glyph-name="multiply" unicode="&#xd7;" horiz-adv-x="600" 
d="M218 243l-161 161l84 82l159 -161l161 161l82 -82l-161 -161l161 -161l-82 -82l-161 161l-159 -161l-84 82z" />
    <glyph glyph-name="Oslash" unicode="&#xd8;" horiz-adv-x="778" 
d="M471 514q-37 20 -82 20q-76 0 -128 -54t-52 -130q0 -55 29 -99zM4 -12l114 128q-85 101 -85 234q0 148 103 255q105 107 253 107q110 0 201 -64l57 64h135l-118 -133q81 -99 81 -229q0 -148 -103 -254q-105 -108 -253 -108q-106 0 -197 60l-54 -60h-134zM312 184
q35 -18 77 -18q76 0 128 55q52 53 52 129q0 53 -26 94z" />
    <glyph glyph-name="Ugrave" unicode="&#xd9;" horiz-adv-x="611" 
d="M50 700h174v-461q0 -83 81 -83t81 83v461h174v-447q0 -121 -67 -192q-69 -73 -188 -73t-188 73q-67 71 -67 192v447zM101 893h208l100 -148h-137z" />
    <glyph glyph-name="Uacute" unicode="&#xda;" horiz-adv-x="611" 
d="M50 700h174v-461q0 -83 81 -83t81 83v461h174v-447q0 -121 -67 -192q-69 -73 -188 -73t-188 73q-67 71 -67 192v447zM304 893h208l-171 -148h-137z" />
    <glyph glyph-name="Ucircumflex" unicode="&#xdb;" horiz-adv-x="611" 
d="M50 700h174v-461q0 -83 81 -83t81 83v461h174v-447q0 -121 -67 -192q-69 -73 -188 -73t-188 73q-67 71 -67 192v447zM103 745l121 148h164l122 -148h-149l-55 75l-56 -75h-147z" />
    <glyph glyph-name="Udieresis" unicode="&#xdc;" horiz-adv-x="611" 
d="M50 700h174v-461q0 -83 81 -83t81 83v461h174v-447q0 -121 -67 -192q-69 -73 -188 -73t-188 73q-67 71 -67 192v447zM360 755q-24 24 -24 59t24 59q25 25 60 25t60 -25q24 -24 24 -59t-24 -59q-25 -25 -60 -25t-60 25zM131 755q-24 24 -24 59t24 59q25 25 60 25t60 -25
q24 -24 24 -59t-24 -59q-25 -25 -60 -25t-60 25z" />
    <glyph glyph-name="Yacute" unicode="&#xdd;" 
d="M369 0h-174v250q-76 23 -113 83q-32 51 -32 119v248h174v-232q0 -68 54 -68t54 68v232h174v-248q0 -155 -137 -202v-250zM270 893h208l-171 -148h-137z" />
    <glyph glyph-name="Thorn" unicode="&#xde;" 
d="M49 700h174v-112q31 10 75 10q99 0 167 -65q70 -68 70 -171q0 -111 -63 -178q-65 -68 -176 -68h-44v162q57 0 80 14q29 19 29 70q0 74 -73 74q-65 0 -65 -68v-368h-174v700z" />
    <glyph glyph-name="germandbls" unicode="&#xdf;" horiz-adv-x="611" 
d="M255 0v146h83q85 0 85 64q0 26 -25 56q-18 21 -56 52q-4 2 -8 6l-22 17q-17 13 -27 23q-25 24 -25 40q0 11 10 24l22 24q15 16 22 29q10 18 10 37q0 52 -54 52q-55 0 -55 -58v-512h-154v344h-59v146h59q0 216 211 216q88 0 142 -39q58 -43 58 -123q0 -65 -54 -111
q41 -25 67 -45q32 -24 52 -49q46 -57 46 -137q0 -95 -64 -149q-63 -53 -169 -53h-95z" />
    <glyph glyph-name="agrave" unicode="&#xe0;" horiz-adv-x="611" 
d="M570 0h-160v224q0 128 -113 128q-44 0 -77 -30q-33 -31 -33 -76q0 -52 34 -84q30 -28 72 -28q41 0 77 14v-132q-40 -28 -109 -28q-86 0 -155 64q-37 34 -57 80q-22 50 -22 110q0 110 75 183q76 73 192 73q119 0 195 -60q81 -65 81 -176v-262zM101 707h208l100 -148h-137z
" />
    <glyph glyph-name="aacute" unicode="&#xe1;" horiz-adv-x="611" 
d="M570 0h-160v224q0 128 -113 128q-44 0 -77 -30q-33 -31 -33 -76q0 -52 34 -84q30 -28 72 -28q41 0 77 14v-132q-40 -28 -109 -28q-86 0 -155 64q-37 34 -57 80q-22 50 -22 110q0 110 75 183q76 73 192 73q119 0 195 -60q81 -65 81 -176v-262zM304 707h208l-171 -148h-137
z" />
    <glyph glyph-name="acircumflex" unicode="&#xe2;" horiz-adv-x="611" 
d="M570 0h-160v224q0 128 -113 128q-44 0 -77 -30q-33 -31 -33 -76q0 -52 34 -84q30 -28 72 -28q41 0 77 14v-132q-40 -28 -109 -28q-86 0 -155 64q-37 34 -57 80q-22 50 -22 110q0 110 75 183q76 73 192 73q119 0 195 -60q81 -65 81 -176v-262zM103 559l121 148h164
l122 -148h-149l-55 75l-56 -75h-147z" />
    <glyph glyph-name="atilde" unicode="&#xe3;" horiz-adv-x="611" 
d="M570 0h-160v224q0 128 -113 128q-44 0 -77 -30q-33 -31 -33 -76q0 -52 34 -84q30 -28 72 -28q41 0 77 14v-132q-40 -28 -109 -28q-86 0 -155 64q-37 34 -57 80q-22 50 -22 110q0 110 75 183q76 73 192 73q119 0 195 -60q81 -65 81 -176v-262zM501 698q-7 -62 -37 -96
q-34 -37 -94 -37q-19 0 -40 6q-15 4 -37 13l-17 6q-10 4 -17 6q-17 6 -29 6q-34 0 -41 -42h-79q5 52 36 94q36 46 87 46q21 0 43 -6q16 -4 39 -13q3 -2 9 -4l24 -10q18 -6 29 -6q33 0 45 37h79z" />
    <glyph glyph-name="adieresis" unicode="&#xe4;" horiz-adv-x="611" 
d="M570 0h-160v224q0 128 -113 128q-44 0 -77 -30q-33 -31 -33 -76q0 -52 34 -84q30 -28 72 -28q41 0 77 14v-132q-40 -28 -109 -28q-86 0 -155 64q-37 34 -57 80q-22 50 -22 110q0 110 75 183q76 73 192 73q119 0 195 -60q81 -65 81 -176v-262zM360 569q-24 24 -24 59
t24 59q25 25 60 25t60 -25q24 -24 24 -59t-24 -59q-25 -25 -60 -25t-60 25zM131 569q-24 24 -24 59t24 59q25 25 60 25t60 -25q24 -24 24 -59t-24 -59q-25 -25 -60 -25t-60 25z" />
    <glyph glyph-name="aring" unicode="&#xe5;" horiz-adv-x="611" 
d="M570 0h-160v224q0 128 -113 128q-44 0 -77 -30q-33 -31 -33 -76q0 -52 34 -84q30 -28 72 -28q41 0 77 14v-132q-40 -28 -109 -28q-86 0 -155 64q-37 34 -57 80q-22 50 -22 110q0 110 75 183q76 73 192 73q119 0 195 -60q81 -65 81 -176v-262zM306 620q49 0 49 48t-49 48
t-49 -48t49 -48zM226 747q34 33 80 33t80 -33q33 -33 33 -79t-33 -79q-34 -33 -80 -33t-80 33q-33 33 -33 79t33 79z" />
    <glyph glyph-name="ae" unicode="&#xe6;" horiz-adv-x="889" 
d="M595 192l-44 95l116 58q-16 31 -72 31q-53 0 -80 -37q-24 -33 -24 -88q0 -133 122 -133q40 0 79 25q15 10 34 26l32 28l101 -79q-27 -31 -50 -52q-28 -25 -56 -41q-64 -37 -146 -37q-128 0 -202 80q-76 -80 -190 -80q-90 0 -141 45q-44 39 -44 96q0 51 30 89q26 33 75 57
q39 19 95 33q22 6 48 11l44 8q-5 26 -35 39q-24 10 -54 10q-31 0 -65 -10q-26 -8 -63 -24l-46 113q86 43 181 43q56 0 101 -16q50 -19 84 -57q83 73 187 73q86 0 150 -56q57 -52 87 -138zM339 238q-70 -7 -109 -26q-46 -22 -46 -61q0 -41 52 -41q92 0 99 81z" />
    <glyph glyph-name="ccedilla" unicode="&#xe7;" horiz-adv-x="389" 
d="M350 486v-145h-68q-101 0 -101 -98q0 -99 101 -99h68v-144h-109l-30 -49q16 4 37 4q37 0 65 -19q32 -22 32 -57q0 -47 -46 -74q-39 -23 -89 -23q-30 0 -63 9q-28 6 -61 20l21 46l42 -14q25 -7 44 -7q52 0 52 40q0 33 -48 33q-8 0 -18 -3l-17 -7l-25 24l52 86
q-73 22 -118 80q-50 65 -50 154q0 109 73 179q67 64 160 64h96z" />
    <glyph glyph-name="egrave" unicode="&#xe8;" 
d="M272 177l-61 96l131 86q-27 17 -62 17q-46 0 -76 -41q-26 -36 -26 -84t30 -84q31 -39 78 -39q43 0 85 34q39 31 58 75l115 -59q-35 -85 -106 -136q-74 -54 -163 -54q-101 0 -176 75q-75 76 -75 180t75 180q75 75 176 75q81 0 142 -42q55 -38 96 -113zM73 707h208
l100 -148h-137z" />
    <glyph glyph-name="eacute" unicode="&#xe9;" 
d="M272 177l-61 96l131 86q-27 17 -62 17q-46 0 -76 -41q-26 -36 -26 -84t30 -84q31 -39 78 -39q43 0 85 34q39 31 58 75l115 -59q-35 -85 -106 -136q-74 -54 -163 -54q-101 0 -176 75q-75 76 -75 180t75 180q75 75 176 75q81 0 142 -42q55 -38 96 -113zM276 707h208
l-171 -148h-137z" />
    <glyph glyph-name="ecircumflex" unicode="&#xea;" 
d="M272 177l-61 96l131 86q-27 17 -62 17q-46 0 -76 -41q-26 -36 -26 -84t30 -84q31 -39 78 -39q43 0 85 34q39 31 58 75l115 -59q-35 -85 -106 -136q-74 -54 -163 -54q-101 0 -176 75q-75 76 -75 180t75 180q75 75 176 75q81 0 142 -42q55 -38 96 -113zM75 559l121 148h164
l122 -148h-149l-55 75l-56 -75h-147z" />
    <glyph glyph-name="edieresis" unicode="&#xeb;" 
d="M272 177l-61 96l131 86q-27 17 -62 17q-46 0 -76 -41q-26 -36 -26 -84t30 -84q31 -39 78 -39q43 0 85 34q39 31 58 75l115 -59q-35 -85 -106 -136q-74 -54 -163 -54q-101 0 -176 75q-75 76 -75 180t75 180q75 75 176 75q81 0 142 -42q55 -38 96 -113zM332 569
q-24 24 -24 59t24 59q25 25 60 25t60 -25q24 -24 24 -59t-24 -59q-25 -25 -60 -25t-60 25zM103 569q-24 24 -24 59t24 59q25 25 60 25t60 -25q24 -24 24 -59t-24 -59q-25 -25 -60 -25t-60 25z" />
    <glyph glyph-name="igrave" unicode="&#xec;" horiz-adv-x="278" 
d="M219 486v-486h-160v486h160zM-66 707h208l100 -148h-137z" />
    <glyph glyph-name="iacute" unicode="&#xed;" horiz-adv-x="278" 
d="M219 486v-486h-160v486h160zM137 707h208l-171 -148h-137z" />
    <glyph glyph-name="icircumflex" unicode="&#xee;" horiz-adv-x="278" 
d="M219 486v-486h-160v486h160zM-64 559l121 148h164l122 -148h-149l-55 75l-56 -75h-147z" />
    <glyph glyph-name="idieresis" unicode="&#xef;" horiz-adv-x="278" 
d="M219 486v-486h-160v486h160zM193 569q-24 24 -24 59t24 59q25 25 60 25t60 -25q24 -24 24 -59t-24 -59q-25 -25 -60 -25t-60 25zM-36 569q-24 24 -24 59t24 59q25 25 60 25t60 -25q24 -24 24 -59t-24 -59q-25 -25 -60 -25t-60 25z" />
    <glyph glyph-name="eth" unicode="&#xf0;" 
d="M280 700q32 -21 66 -50l99 48l34 -54l-85 -41q135 -148 135 -330q0 -124 -75 -206q-73 -79 -176 -79q-101 0 -176 75q-75 76 -75 180q0 99 65 168q67 73 172 73q40 -62 67 -153q-34 15 -53 15q-41 0 -69 -30t-28 -73t28 -72q28 -31 69 -31q97 0 97 128q0 153 -108 274
l-92 -44l-34 54l78 37q-32 27 -59 41z" />
    <glyph glyph-name="ntilde" unicode="&#xf1;" horiz-adv-x="500" 
d="M195 0h-154v278q0 98 54 157q56 63 155 63t156 -63q53 -59 53 -157v-278h-154v278q0 68 -55 68t-55 -68v-278zM445 698q-7 -62 -37 -96q-34 -37 -94 -37q-19 0 -40 6q-15 4 -37 13l-17 6q-10 4 -17 6q-17 6 -29 6q-34 0 -41 -42h-79q5 52 36 94q36 46 87 46q21 0 43 -6
q16 -4 39 -13q3 -2 9 -4l24 -10q18 -6 29 -6q33 0 45 37h79z" />
    <glyph glyph-name="ograve" unicode="&#xf2;" 
d="M209 171q28 -31 69 -31t70 31q27 29 27 72t-27 73q-29 30 -70 30t-69 -30t-28 -73t28 -72zM102 423q75 75 176 75t176 -75q75 -76 75 -180t-75 -180q-75 -75 -176 -75t-176 75q-75 76 -75 180t75 180zM73 707h208l100 -148h-137z" />
    <glyph glyph-name="oacute" unicode="&#xf3;" 
d="M209 171q28 -31 69 -31t70 31q27 29 27 72t-27 73q-29 30 -70 30t-69 -30t-28 -73t28 -72zM102 423q75 75 176 75t176 -75q75 -76 75 -180t-75 -180q-75 -75 -176 -75t-176 75q-75 76 -75 180t75 180zM276 707h208l-171 -148h-137z" />
    <glyph glyph-name="ocircumflex" unicode="&#xf4;" 
d="M209 171q28 -31 69 -31t70 31q27 29 27 72t-27 73q-29 30 -70 30t-69 -30t-28 -73t28 -72zM102 423q75 75 176 75t176 -75q75 -76 75 -180t-75 -180q-75 -75 -176 -75t-176 75q-75 76 -75 180t75 180zM75 559l121 148h164l122 -148h-149l-55 75l-56 -75h-147z" />
    <glyph glyph-name="otilde" unicode="&#xf5;" 
d="M209 171q28 -31 69 -31t70 31q27 29 27 72t-27 73q-29 30 -70 30t-69 -30t-28 -73t28 -72zM102 423q75 75 176 75t176 -75q75 -76 75 -180t-75 -180q-75 -75 -176 -75t-176 75q-75 76 -75 180t75 180zM473 698q-7 -62 -37 -96q-34 -37 -94 -37q-19 0 -40 6q-15 4 -37 13
l-17 6q-10 4 -17 6q-17 6 -29 6q-34 0 -41 -42h-79q5 52 36 94q36 46 87 46q21 0 43 -6q16 -4 39 -13q3 -2 9 -4l24 -10q18 -6 29 -6q33 0 45 37h79z" />
    <glyph glyph-name="odieresis" unicode="&#xf6;" 
d="M209 171q28 -31 69 -31t70 31q27 29 27 72t-27 73q-29 30 -70 30t-69 -30t-28 -73t28 -72zM102 423q75 75 176 75t176 -75q75 -76 75 -180t-75 -180q-75 -75 -176 -75t-176 75q-75 76 -75 180t75 180zM332 569q-24 24 -24 59t24 59q25 25 60 25t60 -25q24 -24 24 -59
t-24 -59q-25 -25 -60 -25t-60 25zM103 569q-24 24 -24 59t24 59q25 25 60 25t60 -25q24 -24 24 -59t-24 -59q-25 -25 -60 -25t-60 25z" />
    <glyph glyph-name="divide" unicode="&#xf7;" horiz-adv-x="600" 
d="M543 185h-486v116h486v-116zM363 505q26 -26 26 -63t-26 -63q-27 -26 -63 -26t-62 26q-27 26 -27 63t27 63q26 26 62 26t63 -26zM363 107q26 -26 26 -63t-26 -63q-27 -26 -63 -26t-62 26q-27 26 -27 63t27 63q26 26 62 26t63 -26z" />
    <glyph glyph-name="oslash" unicode="&#xf8;" 
d="M258 143q9 -3 20 -3q41 0 70 31q27 29 27 72q0 20 -7 37zM311 340q-15 6 -33 6q-41 0 -69 -30t-28 -73q0 -25 11 -47zM119 -30h-117l87 110q-62 68 -62 163q0 104 75 180q75 75 176 75q62 0 117 -32l42 52h123l-91 -114q60 -66 60 -161q0 -104 -75 -180q-75 -75 -176 -75
q-64 0 -119 32z" />
    <glyph glyph-name="ugrave" unicode="&#xf9;" horiz-adv-x="500" 
d="M195 486v-278q0 -68 55 -68t55 68v278h154v-278q0 -98 -53 -157q-57 -63 -156 -63t-155 63q-54 59 -54 157v278h154zM45 707h208l100 -148h-137z" />
    <glyph glyph-name="uacute" unicode="&#xfa;" horiz-adv-x="500" 
d="M195 486v-278q0 -68 55 -68t55 68v278h154v-278q0 -98 -53 -157q-57 -63 -156 -63t-155 63q-54 59 -54 157v278h154zM248 707h208l-171 -148h-137z" />
    <glyph glyph-name="ucircumflex" unicode="&#xfb;" horiz-adv-x="500" 
d="M195 486v-278q0 -68 55 -68t55 68v278h154v-278q0 -98 -53 -157q-57 -63 -156 -63t-155 63q-54 59 -54 157v278h154zM47 559l121 148h164l122 -148h-149l-55 75l-56 -75h-147z" />
    <glyph glyph-name="udieresis" unicode="&#xfc;" horiz-adv-x="500" 
d="M195 486v-278q0 -68 55 -68t55 68v278h154v-278q0 -98 -53 -157q-57 -63 -156 -63t-155 63q-54 59 -54 157v278h154zM304 569q-24 24 -24 59t24 59q25 25 60 25t60 -25q24 -24 24 -59t-24 -59q-25 -25 -60 -25t-60 25zM75 569q-24 24 -24 59t24 59q25 25 60 25t60 -25
q24 -24 24 -59t-24 -59q-25 -25 -60 -25t-60 25z" />
    <glyph glyph-name="yacute" unicode="&#xfd;" horiz-adv-x="500" 
d="M332 -210h-160v206q-69 21 -101 67q-31 44 -31 111v312h154v-282q0 -29 11 -46q14 -22 47 -22q54 0 54 75v275h154v-312q0 -137 -128 -178v-206zM248 707h208l-171 -148h-137z" />
    <glyph glyph-name="thorn" unicode="&#xfe;" horiz-adv-x="611" 
d="M201 -210h-160v910h160v-222q51 20 116 20q116 0 192 -73q75 -73 75 -183q0 -118 -82 -190q-74 -64 -177 -64q-48 0 -78 12v148q11 -6 25 -10q18 -4 42 -4q47 0 78 31q32 30 32 78t-32 79q-31 30 -78 30q-113 0 -113 -129v-433z" />
    <glyph glyph-name="ydieresis" unicode="&#xff;" horiz-adv-x="500" 
d="M332 -210h-160v206q-69 21 -101 67q-31 44 -31 111v312h154v-282q0 -29 11 -46q14 -22 47 -22q54 0 54 75v275h154v-312q0 -137 -128 -178v-206zM304 569q-24 24 -24 59t24 59q25 25 60 25t60 -25q24 -24 24 -59t-24 -59q-25 -25 -60 -25t-60 25zM75 569q-24 24 -24 59
t24 59q25 25 60 25t60 -25q24 -24 24 -59t-24 -59q-25 -25 -60 -25t-60 25z" />
    <glyph glyph-name="dotlessi" unicode="&#x131;" horiz-adv-x="278" 
d="M219 486v-486h-160v486h160z" />
    <glyph glyph-name="Lslash" unicode="&#x141;" horiz-adv-x="444" 
d="M7 247v162l44 17v274h174v-204l110 44v-162l-110 -44v-92q0 -74 89 -74h119v-168h-133q-249 0 -249 226v38z" />
    <glyph glyph-name="lslash" unicode="&#x142;" horiz-adv-x="278" 
d="M219 323v-323h-160v255l-54 -23v152l54 23v293h160v-225l54 23v-152z" />
    <glyph glyph-name="OE" unicode="&#x152;" horiz-adv-x="1000" 
d="M952 700v-158h-63q-56 0 -97 -23q-51 -27 -79 -89h239v-158h-239q28 -60 75 -88q40 -24 88 -24h76v-158h-72q-161 0 -265 103q-56 -59 -113 -87q-63 -30 -138 -30q-148 0 -242 108q-89 103 -89 254t89 254q94 108 242 108q146 0 251 -115q108 103 254 103h83zM248 220
q45 -54 124 -54q71 0 119 57q46 54 46 127t-46 127q-48 57 -119 57q-79 0 -124 -54q-41 -50 -41 -130t41 -130z" />
    <glyph glyph-name="oe" unicode="&#x153;" horiz-adv-x="889" 
d="M608 192l-44 95l116 58q-16 31 -72 31q-40 0 -67 -37q-26 -37 -26 -88q0 -59 34 -97q32 -36 77 -36q40 0 79 25q15 10 34 26l32 28l101 -79q-27 -31 -50 -52q-28 -25 -56 -41q-64 -37 -146 -37q-55 0 -97 14q-49 16 -81 53q-40 -35 -90 -52q-45 -15 -97 -15
q-89 0 -162 75q-76 78 -76 180t76 180q73 75 162 75q115 0 188 -76q72 76 182 76q86 0 150 -56q57 -52 87 -138zM198 316q-27 -31 -27 -73t27 -72q28 -31 68 -31t68 31q27 30 27 72t-27 73q-28 30 -68 30t-68 -30z" />
    <glyph glyph-name="Scaron" unicode="&#x160;" horiz-adv-x="500" 
d="M424 700v-162h-176q-40 0 -40 -29q0 -19 41 -49l65 -44q14 -9 25 -17q27 -20 47 -38q25 -22 42 -43q41 -52 41 -108q0 -41 -7 -71q-10 -40 -32 -68q-28 -33 -75 -51q-54 -20 -133 -20h-187v162h181q65 0 65 38q0 24 -39 55l-86 61q-27 19 -47 36q-23 21 -40 42
q-39 51 -39 108q0 102 65 154q56 44 147 44h182zM448 893l-121 -148h-164l-122 148h149l55 -75l56 75h147z" />
    <glyph glyph-name="scaron" unicode="&#x161;" horiz-adv-x="389" 
d="M21 0v136h154q28 0 28 22q0 14 -28 26q-5 3 -13 6l-15 6q-20 8 -32 14q-40 19 -61 47q-28 36 -28 91q0 65 50 104q44 34 106 34h156v-130h-125q-33 0 -33 -23q0 -12 29 -26l65 -29q42 -22 64 -47q29 -33 29 -78q0 -153 -167 -153h-179zM399 707l-121 -148h-164l-122 148
h149l55 -75l56 75h147z" />
    <glyph glyph-name="Ydieresis" unicode="&#x178;" 
d="M369 0h-174v250q-76 23 -113 83q-32 51 -32 119v248h174v-232q0 -68 54 -68t54 68v232h174v-248q0 -155 -137 -202v-250zM326 755q-24 24 -24 59t24 59q25 25 60 25t60 -25q24 -24 24 -59t-24 -59q-25 -25 -60 -25t-60 25zM97 755q-24 24 -24 59t24 59q25 25 60 25
t60 -25q24 -24 24 -59t-24 -59q-25 -25 -60 -25t-60 25z" />
    <glyph glyph-name="Zcaron" unicode="&#x17d;" 
d="M517 168v-168h-366q-113 0 -113 106q0 29 20 67q8 14 22 35q2 5 6 10l202 314h-211v168h306q127 0 127 -106q0 -27 -12 -54q-7 -17 -29 -52l-200 -320h248zM476 893l-121 -148h-164l-122 148h149l55 -75l56 75h147z" />
    <glyph glyph-name="zcaron" unicode="&#x17e;" horiz-adv-x="444" 
d="M41 346v140h253q70 0 100 -26q24 -22 24 -69q0 -18 -12 -40q-9 -16 -24 -34l-147 -171h182v-146h-313q-91 0 -91 92q0 38 25 66l171 188h-168zM426 707l-121 -148h-164l-122 148h149l55 -75l56 75h147z" />
    <glyph glyph-name="florin" unicode="&#x192;" 
d="M32 -48q30 -12 64 -12q70 0 81 109l23 243h-128v146h143q6 110 52 182q51 80 139 80q80 0 140 -28l-21 -140q-37 22 -71 22q-40 0 -57 -40q-7 -16 -10 -38q-3 -15 -4 -38h136v-146h-149l-31 -267q-14 -118 -62 -177q-55 -66 -157 -66q-59 0 -111 26z" />
    <glyph glyph-name="circumflex" unicode="&#x2c6;" horiz-adv-x="278" 
d="M-64 559l121 148h164l122 -148h-149l-55 75l-56 -75h-147z" />
    <glyph glyph-name="caron" unicode="&#x2c7;" horiz-adv-x="278" 
d="M343 707l-121 -148h-164l-122 148h149l55 -75l56 75h147z" />
    <glyph glyph-name="uni02C9" unicode="&#x2c9;" horiz-adv-x="278" 
d="M328 588h-377v90h377v-90z" />
    <glyph glyph-name="breve" unicode="&#x2d8;" horiz-adv-x="278" 
d="M37 712q3 -36 35 -51q24 -12 65 -12q45 0 67 11q29 13 39 52h78q-4 -74 -57 -115q-50 -38 -126 -38q-82 0 -127 35q-49 38 -53 118h79z" />
    <glyph glyph-name="dotaccent" unicode="&#x2d9;" horiz-adv-x="278" 
d="M79 569q-24 24 -24 59t24 59q25 25 60 25t60 -25q24 -24 24 -59t-24 -59q-25 -25 -60 -25t-60 25z" />
    <glyph glyph-name="ring" unicode="&#x2da;" horiz-adv-x="278" 
d="M139 620q49 0 49 48t-49 48t-49 -48t49 -48zM59 747q34 33 80 33t80 -33q33 -33 33 -79t-33 -79q-34 -33 -80 -33t-80 33q-33 33 -33 79t33 79z" />
    <glyph glyph-name="ogonek" unicode="&#x2db;" horiz-adv-x="278" 
d="M265 -123l20 -36q-42 -28 -71 -41q-42 -18 -80 -18q-114 0 -114 91q0 37 26 66q22 24 63 43q33 14 78 25l38 8q14 3 33 6v-16q-23 -7 -44 -16q-26 -12 -45 -25q-49 -35 -49 -80q0 -48 49 -48q21 0 50 14l36 20z" />
    <glyph glyph-name="tilde" unicode="&#x2dc;" horiz-adv-x="278" 
d="M334 698q-7 -62 -37 -96q-34 -37 -94 -37q-19 0 -40 6q-15 4 -37 13l-17 6q-10 4 -17 6q-17 6 -29 6q-34 0 -41 -42h-79q5 52 36 94q36 46 87 46q21 0 43 -6q16 -4 39 -13q3 -2 9 -4l24 -10q18 -6 29 -6q33 0 45 37h79z" />
    <glyph glyph-name="hungarumlaut" unicode="&#x2dd;" horiz-adv-x="278" 
d="M-94 558l99 148h170l-123 -148h-146zM116 558l99 148h210l-173 -148h-136z" />
    <glyph glyph-name="uni03A9" unicode="&#x3a9;" horiz-adv-x="695" 
d="M157 130q-48 47 -77 107q-36 75 -36 157q0 128 82 219q88 96 223 96q72 0 131 -29q54 -27 93 -75q74 -90 74 -204q0 -83 -35 -159q-30 -65 -79 -112v-3h129v-127h-276v94q45 29 71 90q31 72 31 182q0 93 -36 150q-38 61 -104 61q-65 0 -105 -60q-39 -60 -39 -157
q0 -101 31 -174q27 -66 72 -92v-94h-277v127h127v3z" />
    <glyph glyph-name="uni03BC" unicode="&#x3bc;" horiz-adv-x="500" 
d="M305 486h154v-278q0 -98 -53 -157q-57 -63 -156 -63q-35 0 -55 6v-204h-154v696h154v-278q0 -68 55 -68t55 68v278z" />
    <glyph glyph-name="pi" unicode="&#x3c0;" horiz-adv-x="616" 
d="M530 394v-245q0 -91 12 -149h-152q-18 33 -18 144v250h-111q-3 -83 -17 -192q-8 -58 -18 -108q-11 -55 -23 -94h-152q54 213 56 394q-57 0 -90 -9l-16 105q44 37 175 37h429l-11 -133h-64z" />
    <glyph glyph-name="endash" unicode="&#x2013;" horiz-adv-x="500" 
d="M500 189h-500v108h500v-108z" />
    <glyph glyph-name="emdash" unicode="&#x2014;" horiz-adv-x="1000" 
d="M1000 189h-1000v108h1000v-108z" />
    <glyph glyph-name="quoteleft" unicode="&#x2018;" horiz-adv-x="222" 
d="M180 472h-101l-49 228h131z" />
    <glyph glyph-name="quoteright" unicode="&#x2019;" horiz-adv-x="222" 
d="M143 472h-101l19 228h131z" />
    <glyph glyph-name="quotesinglbase" unicode="&#x201a;" horiz-adv-x="222" 
d="M143 -132h-101l19 228h131z" />
    <glyph glyph-name="quotedblleft" unicode="&#x201c;" horiz-adv-x="444" 
d="M195 472h-101l-49 228h131zM399 472h-101l-49 228h131z" />
    <glyph glyph-name="quotedblright" unicode="&#x201d;" horiz-adv-x="444" 
d="M350 472h-101l19 228h131zM146 472h-101l19 228h131z" />
    <glyph glyph-name="quotedblbase" unicode="&#x201e;" horiz-adv-x="444" 
d="M146 -132h-101l19 228h131zM350 -132h-101l19 228h131z" />
    <glyph glyph-name="dagger" unicode="&#x2020;" 
d="M72 409v147l164 -31l-30 175h144l-30 -175l164 31v-147l-164 30q0 -14 5 -38q3 -17 10 -44l10 -40q5 -19 5 -25q0 -21 -5 -51l-12 -68q-8 -50 -13 -109q-6 -77 -7 -176h-70q-1 99 -7 176q-5 59 -13 109l-12 68q-5 30 -5 51q0 6 5 25l10 40q7 27 10 44q5 24 5 38z" />
    <glyph glyph-name="daggerdbl" unicode="&#x2021;" 
d="M72 409v147l164 -31l-30 175h144l-30 -175l164 31v-147l-164 30q0 -14 5 -38q3 -17 10 -44l10 -40q5 -19 5 -25q0 -5 -5 -24l-10 -39q-7 -27 -10 -44q-5 -24 -5 -38l164 30v-147l-164 31l30 -175h-144l30 175l-164 -31v147l164 -30q0 14 -5 38q-3 17 -10 44l-10 39
q-5 19 -5 24q0 6 5 25l10 40q7 27 10 44q5 24 5 38z" />
    <glyph glyph-name="bullet" unicode="&#x2022;" horiz-adv-x="500" 
d="M126 474q51 51 124 51t124 -51t51 -124t-51 -124t-124 -51t-124 51t-51 124t51 124z" />
    <glyph glyph-name="ellipsis" unicode="&#x2026;" horiz-adv-x="1000" 
d="M95 18q-30 30 -30 72t30 72q29 30 72 30t72 -30q30 -30 30 -72t-30 -72q-29 -30 -72 -30t-72 30zM428 18q-30 30 -30 72t30 72q29 30 72 30t72 -30q30 -30 30 -72t-30 -72q-29 -30 -72 -30t-72 30zM761 18q-30 30 -30 72t30 72q29 30 72 30t72 -30q30 -30 30 -72t-30 -72
q-29 -30 -72 -30t-72 30z" />
    <glyph glyph-name="perthousand" unicode="&#x2030;" horiz-adv-x="1000" 
d="M897 156q0 56 -56 56t-56 -56t56 -56t56 56zM147 0h-106l441 700h107zM215 544q0 56 -56 56t-56 -56t56 -56t56 56zM731 45q-46 46 -46 111t46 111q45 45 110 45t110 -45q46 -46 46 -111t-46 -111q-45 -45 -110 -45t-110 45zM49 433q-46 46 -46 111t46 111q45 45 110 45
t110 -45q46 -46 46 -111t-46 -111q-45 -45 -110 -45t-110 45zM369 45q-46 46 -46 111t46 111q45 45 110 45t110 -45q46 -46 46 -111t-46 -111q-45 -45 -110 -45t-110 45zM535 156q0 56 -56 56t-56 -56t56 -56t56 56z" />
    <glyph glyph-name="guilsinglleft" unicode="&#x2039;" horiz-adv-x="333" 
d="M278 89h-120l-120 154l120 154h122l-120 -154z" />
    <glyph glyph-name="guilsinglright" unicode="&#x203a;" horiz-adv-x="333" 
d="M175 89h-120l118 154l-120 154h122l120 -154z" />
    <glyph glyph-name="fraction" unicode="&#x2044;" horiz-adv-x="167" 
d="M-60 -12h-107l394 724h107z" />
    <glyph glyph-name="Euro" unicode="&#x20ac;" 
d="M276 379q-1 -9 -1 -29v-13h171v-98h-147q43 -81 150 -81h73v-158h-105q-110 0 -195 68q-82 65 -113 171h-80v98h64v13q0 19 1 29h-65v98h85q35 100 114 160q83 63 189 63h105v-158h-73q-92 0 -138 -65h135v-98h-170z" />
    <glyph glyph-name="uni2113" unicode="&#x2113;" horiz-adv-x="528" 
d="M512 138q-40 -79 -101 -116q-52 -31 -118 -31q-86 0 -135 45q-42 39 -53 107q0 6 -1 10l-48 -37l-37 82l44 35q26 20 40 33v239q0 127 55 197q51 65 137 65q74 0 114 -54q35 -50 35 -132q0 -81 -51 -167q-46 -78 -139 -167l1 -48q3 -83 76 -83q33 0 67 27q28 23 53 61z
M254 388q94 112 94 201q0 68 -43 68q-22 0 -35 -31q-16 -38 -16 -121v-117z" />
    <glyph glyph-name="trademark" unicode="&#x2122;" horiz-adv-x="1000" 
d="M380 700v-90h-112v-322h-120v322h-112v90h344zM630 700l89 -240l89 240h156v-412h-108v270h-2l-91 -270h-88l-91 270h-2v-270h-108v412h156z" />
    <glyph glyph-name="Omega" unicode="&#x2126;" horiz-adv-x="695" 
d="M157 130q-48 47 -77 107q-36 75 -36 157q0 128 82 219q88 96 223 96q72 0 131 -29q54 -27 93 -75q74 -90 74 -204q0 -83 -35 -159q-30 -65 -79 -112v-3h129v-127h-276v94q45 29 71 90q31 72 31 182q0 93 -36 150q-38 61 -104 61q-65 0 -105 -60q-39 -60 -39 -157
q0 -101 31 -174q27 -66 72 -92v-94h-277v127h127v3z" />
    <glyph glyph-name="estimated" unicode="&#x212e;" horiz-adv-x="873" 
d="M187 340q-5 0 -5 -4v-197q0 -13 8 -23q104 -107 246 -107q155 0 260 120h57q-117 -140 -318 -140q-166 0 -283 105q-118 106 -118 255q0 151 118 257q117 106 283 106q167 0 285 -106t118 -257v-9h-651zM690 564q0 14 -9 23q-106 103 -245 103q-141 0 -245 -106
q-9 -9 -9 -25v-193q0 -7 5 -7h499q4 0 4 7v198z" />
    <glyph glyph-name="partialdiff" unicode="&#x2202;" horiz-adv-x="588" 
d="M62 733q14 10 29 18q19 11 41 19q56 21 122 21q123 0 202 -97q85 -104 85 -285q0 -193 -78 -304q-78 -112 -213 -112q-101 0 -163 81q-53 69 -53 159q0 120 63 194q60 71 154 71q50 0 90 -26q16 -10 29 -23q10 -10 16 -20h1q1 4 1 14v13q0 79 -40 139q-45 67 -116 67
q-40 0 -77 -16q-26 -11 -52 -31zM267 123q42 0 74 62q26 53 33 119q-6 23 -28 44q-27 25 -62 25q-42 0 -70 -46q-25 -42 -25 -101q0 -43 21 -72q22 -31 56 -31h1z" />
    <glyph glyph-name="Delta" unicode="&#x2206;" horiz-adv-x="657" 
d="M23 88l215 623h188l206 -621v-90h-609v88zM463 126l-86 241l-40 138q-7 23 -10 37h-3q-2 -11 -8 -32q-3 -8 -6 -19l-32 -110l-92 -255h277z" />
    <glyph glyph-name="product" unicode="&#x220f;" horiz-adv-x="729" 
d="M609 555v-651h-156v651h-178v-651h-155v651h-97v143h682v-143h-96z" />
    <glyph glyph-name="summation" unicode="&#x2211;" horiz-adv-x="557" 
d="M23 -97v99l224 300l-217 286v110h493v-133h-285v-3l184 -233l-208 -277v-3h326v-146h-517z" />
    <glyph glyph-name="minus" unicode="&#x2212;" horiz-adv-x="600" 
d="M543 185h-486v116h486v-116z" />
    <glyph glyph-name="uni2215" unicode="&#x2215;" horiz-adv-x="167" 
d="M-60 -12h-107l394 724h107z" />
    <glyph glyph-name="uni2219" unicode="&#x2219;" horiz-adv-x="278" 
d="M67 171q-30 30 -30 72t30 72q29 30 72 30t72 -30q30 -30 30 -72t-30 -72q-29 -30 -72 -30t-72 30z" />
    <glyph glyph-name="radical" unicode="&#x221a;" horiz-adv-x="602" 
d="M390 -134h-122l-140 422l-74 -30l-24 86l190 77l88 -285l23 -96l7 46q5 34 10 59l160 697h107z" />
    <glyph glyph-name="infinity" unicode="&#x221e;" horiz-adv-x="775" 
d="M729 287q0 -82 -51 -134q-48 -47 -114 -47q-47 0 -84 21q-47 25 -91 89q-42 -55 -80 -80q-46 -30 -102 -30q-65 0 -112 48q-49 50 -49 127q0 79 49 129q48 49 121 49q97 0 176 -105q2 3 7 8l23 26q20 21 38 34q50 38 109 37q67 0 113 -46q47 -49 47 -125v-1zM219 188
q34 0 68 27q23 19 57 62l-28 40q-15 20 -28 32q-32 30 -73 30q-86 0 -86 -99q0 -38 26 -65q25 -27 62 -27h2zM560 379q-37 0 -74 -33q-13 -12 -29 -31l-24 -30q74 -97 133 -97q35 0 59 31q20 28 20 61q0 99 -84 99h-1z" />
    <glyph glyph-name="integral" unicode="&#x222b;" horiz-adv-x="417" 
d="M377 751q-5 2 -8 3q-4 2 -8 3q-9 2 -19 2q-32 0 -49 -27q-13 -18 -19 -61q-4 -36 -4 -100q0 -55 2 -117l11 -221q2 -66 2 -129q0 -133 -32 -199q-21 -43 -63 -65q-36 -19 -82 -19q-56 0 -84 16l18 111l18 -6q12 -4 24 -4q28 0 41 18q23 33 23 146q0 64 -2 132l-11 228
q-2 64 -2 123q0 167 63 234q46 50 130 50q19 0 38 -4q16 -3 27 -7z" />
    <glyph glyph-name="approxequal" unicode="&#x2248;" horiz-adv-x="539" 
d="M503 413q-55 -107 -138 -107q-47 0 -108 38l-11 7q-5 4 -10 6q-10 7 -19 11q-20 9 -42 9q-28 0 -51 -22q-9 -9 -20 -23l-18 -25l-53 50q23 46 61 75q42 31 87 31q32 0 60 -11l22 -11l64 -38q20 -10 37 -10q25 0 47 20q16 14 39 50zM503 218q-56 -107 -139 -107
q-45 0 -107 38l-21 14l-20 11q-20 9 -41 9q-28 0 -52 -22q-9 -9 -19 -23l-18 -26l-53 50q23 46 61 75q42 31 87 31q31 0 60 -11q10 -4 22 -11l51 -31q5 -3 10 -5q22 -12 40 -12q26 0 47 20q15 13 39 50z" />
    <glyph glyph-name="notequal" unicode="&#x2260;" horiz-adv-x="539" 
d="M369 435h123v-88h-155l-54 -128h209v-88h-242l-46 -110l-69 27l36 83h-125v88h158l53 128h-211v88h243l46 108l69 -26z" />
    <glyph glyph-name="lessequal" unicode="&#x2264;" horiz-adv-x="539" 
d="M51 322v96l438 220v-101l-354 -166v-2l355 -166v-102zM48 -23v89h446v-89h-446z" />
    <glyph glyph-name="greaterequal" unicode="&#x2265;" horiz-adv-x="539" 
d="M492 417v-95l-439 -221v102l354 166v2l-354 166v101zM49 -23v89h443v-89h-443z" />
    <glyph glyph-name="lozenge" unicode="&#x25ca;" horiz-adv-x="601" 
d="M359 -51h-125l-187 399l194 400h125l188 -400zM322 557q-14 40 -18 65h-4q-8 -32 -19 -65l-97 -206l96 -217q5 -14 10 -33l7 -28h5q2 13 8 32q5 20 9 26l98 214z" />
    </font>
</defs>
</svg>
