<?xml version="1.0" standalone="no"?>
<!DOCTYPE svg PUBLIC "-//W3C//DTD SVG 1.1//EN" "http://www.w3.org/Graphics/SVG/1.1/DTD/svg11.dtd" >
<svg xmlns="http://www.w3.org/2000/svg" xmlns:xlink="http://www.w3.org/1999/xlink" version="1.1">
<metadata>
Created by FontForge 20170731 at Wed Jun  8 18:01:05 2011
 By Aleksey,,,
</metadata>
<defs>
<font id="fatten-heavy" horiz-adv-x="611" >
  <font-face 
    font-family="fatten-heavy"
    font-weight="850"
    font-stretch="normal"
    units-per-em="1000"
    panose-1="0 0 9 0 0 0 0 0 0 0"
    ascent="700"
    descent="-300"
    x-height="500"
    cap-height="700"
    bbox="-167 -218 1146 940"
    underline-thickness="50"
    underline-position="-150"
    unicode-range="U+0020-FB02"
  />
<missing-glyph horiz-adv-x="500" 
d="M0 700h500v-700h-500v700zM420 650h-340l170 -255zM450 95v510l-170 -255zM420 50l-170 255l-170 -255h340zM50 95l170 255l-170 255v-510z" />
    <glyph glyph-name="uniFB01" unicode="fi" horiz-adv-x="648" 
d="M236 0h-200v492q0 94 50 151t129 57h141v-166h-77q-43 0 -43 -40h120v-172h-120v-322zM609 0h-200v500h200v-500zM592 741q35 -35 35 -83t-35 -83q-34 -35 -83 -35t-83 35q-35 35 -35 83t35 83q34 35 83 35t83 -35z" />
    <glyph glyph-name="uniFB02" unicode="fl" horiz-adv-x="648" 
d="M236 0h-200v492q0 94 50 151t129 57h141v-166h-77q-43 0 -43 -40h120v-172h-120v-322zM409 0v700h200v-700h-200z" />
    <glyph glyph-name=".notdef" horiz-adv-x="500" 
d="M0 700h500v-700h-500v700zM420 650h-340l170 -255zM450 95v510l-170 -255zM420 50l-170 255l-170 -255h340zM50 95l170 255l-170 255v-510z" />
    <glyph glyph-name=".null" horiz-adv-x="0" 
 />
    <glyph glyph-name="nonmarkingreturn" horiz-adv-x="333" 
 />
    <glyph glyph-name="space" unicode=" " horiz-adv-x="305" 
 />
    <glyph glyph-name="exclam" unicode="!" horiz-adv-x="333" 
d="M77 250l-22 450h222l-21 -450h-179zM250 189q34 -34 34 -83t-34 -83q-35 -35 -84 -35t-84 35q-34 34 -34 83t34 83q35 35 84 35t84 -35z" />
    <glyph glyph-name="quotedbl" unicode="&#x22;" horiz-adv-x="333" 
d="M198 430v270h128v-270h-128zM7 430v270h128v-270h-128z" />
    <glyph glyph-name="numbersign" unicode="#" 
d="M99 0l28 190h-86l4 102h96l16 117h-86l4 102h94l27 189h116l-27 -189h91l27 189h116l-26 -189h76l-4 -102h-86l-16 -117h76l-4 -102h-86l-27 -190h-116l27 190h-91l-27 -190h-116zM363 409h-91l-16 -117h91z" />
    <glyph glyph-name="dollar" unicode="$" 
d="M510 700v-196h-133q-63 0 -63 -25q0 -13 35 -40l36 -27q25 -18 41 -31q50 -41 77 -80q35 -51 35 -107q0 -167 -200 -190v-82h-102v78h-164v200h133q81 0 81 33q0 15 -33 42l-73 57q-48 40 -73 77q-33 48 -33 99q0 83 47 131q41 42 115 54v85h102v-78h172z" />
    <glyph glyph-name="percent" unicode="%" horiz-adv-x="870" 
d="M586 175q0 -47 47 -47t47 47t-47 47t-47 -47zM148 -12l475 724h98l-476 -724h-97zM189 525q0 -47 47 -47t47 47t-47 47t-47 -47zM765 307q55 -55 55 -132t-55 -132t-132 -55t-132 55t-55 132t55 132t132 55t132 -55zM368 657q55 -55 55 -132t-55 -132t-132 -55t-132 55
t-55 132t55 132t132 55t132 -55z" />
    <glyph glyph-name="ampersand" unicode="&#x26;" horiz-adv-x="796" 
d="M556 700v-182h-184l162 -193l10 25q6 17 6 27q0 39 -18 70l163 85q43 -76 43 -157q0 -52 -24 -106q-20 -46 -57 -94l142 -175h-249l-36 46q-44 -30 -99 -45q-51 -13 -109 -13q-110 0 -191 73q-84 75 -84 184q0 78 32 133q28 50 94 98l-20 23q-13 14 -20 25q-22 31 -22 64
q0 49 42 81q41 31 103 31h316zM277 333q-36 -20 -36 -67q0 -78 84 -78q33 0 60 15z" />
    <glyph glyph-name="quotesingle" unicode="'" horiz-adv-x="222" 
d="M47 430v270h128v-270h-128z" />
    <glyph glyph-name="parenleft" unicode="(" horiz-adv-x="407" 
d="M376 700q-46 -57 -71 -95q-30 -46 -48 -87q-35 -85 -35 -213q0 -231 157 -403l-96 -116q-110 103 -169 230q-64 137 -64 289q0 308 228 511z" />
    <glyph glyph-name="parenright" unicode=")" horiz-adv-x="407" 
d="M31 -98q46 57 71 95q30 46 48 87q35 85 35 213q0 231 -157 403l96 116q110 -103 169 -230q64 -137 64 -289q0 -308 -228 -511z" />
    <glyph glyph-name="asterisk" unicode="*" horiz-adv-x="519" 
d="M392 661l67 -118l-88 -36l88 -37l-68 -118l-76 60l12 -96h-136l14 97l-78 -60l-68 118l91 37l-91 37l69 118l78 -60l-13 97h137l-14 -96z" />
    <glyph glyph-name="plus" unicode="+" horiz-adv-x="600" 
d="M233 317v183h134v-183h183v-134h-183v-183h-134v183h-183v134h183z" />
    <glyph glyph-name="comma" unicode="," horiz-adv-x="305" 
d="M16 -72l51 292h197l-96 -292h-152z" />
    <glyph glyph-name="hyphen" unicode="-" horiz-adv-x="389" 
d="M56 181v138h276v-138h-276z" />
    <glyph glyph-name="period" unicode="." horiz-adv-x="305" 
d="M237 193q35 -35 35 -85t-35 -85t-85 -35t-85 35t-35 85t35 85t85 35t85 -35z" />
    <glyph glyph-name="slash" unicode="/" horiz-adv-x="444" 
d="M-5 -12l319 724h135l-319 -724h-135z" />
    <glyph glyph-name="zero" unicode="0" 
d="M42 442q0 125 69 197q69 73 194 73t195 -73q68 -72 68 -197v-176q0 -278 -263 -278t-263 278v176zM260 252q0 -68 45 -68t45 68v196q0 68 -45 68t-45 -68v-196z" />
    <glyph glyph-name="one" unicode="1" 
d="M137 526v174h298v-700h-218v526h-80z" />
    <glyph glyph-name="two" unicode="2" 
d="M376 190h192v-190h-432q-93 0 -93 76q0 31 29 68q18 23 42 50q20 23 45 50l89 95q49 51 70 78q28 36 28 52q0 47 -45 47t-45 -47q0 -28 29 -42l-138 -152q-55 52 -77 92q-28 49 -28 115q0 104 82 170q76 60 181 60q116 0 188 -64q75 -67 75 -179q0 -37 -21 -78
q-17 -34 -51 -73q-13 -16 -31 -35z" />
    <glyph glyph-name="three" unicode="3" 
d="M128 388l156 116v2h-215v194h331q56 0 93 -32q40 -34 40 -95q0 -45 -49 -91q-17 -16 -44 -37q-5 -3 -11 -8l-31 -23q153 -37 153 -197q0 -108 -79 -166q-70 -51 -180 -51h-232v194h210q61 0 61 45t-61 45h-142v104z" />
    <glyph glyph-name="four" unicode="4" 
d="M498 141v-141h-212v141h-154q-63 0 -94 35q-26 29 -26 78q0 31 21 68l220 378h203l-242 -391h92v83l190 308h2v-374h78v-185h-78z" />
    <glyph glyph-name="five" unicode="5" 
d="M85 286v414h410v-190h-202v-42q248 0 248 -227q0 -109 -68 -174q-72 -67 -201 -67h-194v194h152q83 0 83 46t-83 46h-145z" />
    <glyph glyph-name="six" unicode="6" 
d="M478 700q-22 -47 -45 -94l-41 -85q-18 -34 -38 -74q-7 -15 -17 -33q-3 -7 -8 -16l-35 -67l-20 -42q-17 -36 -17 -47q0 -60 55 -60q53 0 53 49q0 50 -55 57l87 180q70 -23 119 -82q51 -62 51 -132q0 -110 -68 -187q-71 -79 -179 -79q-120 0 -193 69q-76 70 -76 190
q0 40 17 87q13 39 43 98l62 119q19 37 35 70q19 40 36 79h234z" />
    <glyph glyph-name="seven" unicode="7" 
d="M62 504v196h331q57 0 96 -23q43 -26 43 -71q0 -29 -23 -101q-7 -25 -20 -60l-151 -445h-231l187 504h-232z" />
    <glyph glyph-name="eight" unicode="8" 
d="M460 668q76 -51 76 -143q0 -82 -57 -128q88 -59 88 -167q0 -111 -73 -177q-72 -65 -189 -65t-189 65q-73 66 -73 177q0 108 88 167q-57 46 -57 128q0 92 77 143q64 44 154 44t155 -44zM251 238q0 -52 54 -52t54 52t-54 52t-54 -52zM258 492q0 -48 47 -48t47 48t-47 48
t-47 -48z" />
    <glyph glyph-name="nine" unicode="9" 
d="M137 0q22 47 45 94l41 85q18 34 38 74q7 15 17 33q3 7 8 16l35 67l20 42q17 36 17 47q0 60 -55 60q-53 0 -53 -49q0 -50 55 -57l-87 -180q-70 23 -119 82q-51 62 -51 132q0 110 68 187q71 79 179 79q120 0 193 -69q76 -70 76 -190q0 -40 -17 -87q-13 -39 -43 -98
l-62 -119q-19 -37 -35 -70q-19 -40 -36 -79h-234z" />
    <glyph glyph-name="colon" unicode=":" horiz-adv-x="305" 
d="M237 477q35 -35 35 -85t-35 -85t-85 -35t-85 35t-35 85t35 85t85 35t85 -35zM237 193q35 -35 35 -85t-35 -85t-85 -35t-85 35t-35 85t35 85t85 35t85 -35z" />
    <glyph glyph-name="semicolon" unicode=";" horiz-adv-x="305" 
d="M16 -72l51 292h197l-96 -292h-152zM237 477q35 -35 35 -85t-35 -85t-85 -35t-85 35t-35 85t35 85t85 35t85 -35z" />
    <glyph glyph-name="less" unicode="&#x3c;" horiz-adv-x="600" 
d="M550 106v-130l-500 212v124l500 212v-130l-346 -144z" />
    <glyph glyph-name="equal" unicode="=" horiz-adv-x="600" 
d="M550 428v-134h-500v134h500zM550 206v-134h-500v134h500z" />
    <glyph glyph-name="greater" unicode="&#x3e;" horiz-adv-x="600" 
d="M50 -24v130l346 144l-346 144v130l500 -212v-124z" />
    <glyph glyph-name="question" unicode="?" horiz-adv-x="519" 
d="M164 436h52q78 0 78 40t-41 40q-37 0 -54 -41l-188 75q75 162 259 162q102 0 169 -61q69 -63 69 -164q0 -165 -158 -201v-34h-186v184zM340 189q34 -34 34 -83t-34 -83q-35 -35 -84 -35t-84 35q-34 34 -34 83t34 83q35 35 84 35t84 -35z" />
    <glyph glyph-name="at" unicode="@" horiz-adv-x="800" 
d="M457 278q27 30 27 72q0 78 -77 78q-40 0 -68 -32q-27 -30 -27 -68q0 -80 73 -80q44 0 72 30zM522 524h92l-44 -237q-1 -1 -1 -4l-1 -3q-3 -10 -3 -16q0 -25 13 -25q35 0 60 35q29 41 29 113q0 113 -71 173q-67 56 -183 56t-189 -73q-74 -75 -74 -194q0 -125 78 -196
q76 -69 202 -69q116 0 184 51h107q-107 -147 -299 -147q-166 0 -277 101q-113 103 -113 260q0 154 113 259q111 104 271 104q140 0 242 -79q109 -85 109 -215q0 -78 -31 -137q-27 -51 -74 -86q-38 -29 -85 -44q-38 -13 -66 -13q-55 0 -57 47l-2 2q-42 -49 -93 -49
q-64 0 -112 52q-49 52 -49 122q0 89 53 154q57 68 143 68q77 0 119 -56z" />
    <glyph glyph-name="A" unicode="A" horiz-adv-x="630" 
d="M297 213v178h67v62q0 57 -50 57q-49 0 -49 -57v-453h-218v448q0 40 14 83q16 48 46 86q35 43 83 68q55 27 125 27t125 -27q48 -25 82 -68q30 -38 46 -86q14 -43 14 -83v-448h-218v213h-67z" />
    <glyph glyph-name="B" unicode="B" horiz-adv-x="630" 
d="M266 0h-218v478q0 105 72 170q73 64 194 64q99 0 170 -56q76 -60 76 -157q0 -69 -45 -119q89 -54 89 -171q0 -98 -64 -155q-60 -54 -154 -54h-90v186q35 2 54 10q29 12 29 40q0 30 -29 40q-11 4 -27 5q-9 1 -27 1v154q50 0 50 47q0 35 -42 35q-38 0 -38 -54v-464z" />
    <glyph glyph-name="C" unicode="C" horiz-adv-x="519" 
d="M486 200v-200h-115q-139 0 -237 100q-101 101 -101 249q0 149 101 251q98 100 237 100h115v-200h-65q-69 0 -115 -41q-47 -42 -47 -110q0 -67 47 -109q46 -40 115 -40h65z" />
    <glyph glyph-name="D" unicode="D" horiz-adv-x="667" 
d="M272 0h-218v700h221q165 0 263 -103q96 -101 96 -266q0 -129 -87 -226q-44 -49 -104 -76q-64 -29 -139 -29v200q108 9 108 150q0 61 -31 101q-37 49 -109 49v-500z" />
    <glyph glyph-name="E" unicode="E" horiz-adv-x="537" 
d="M500 434v-168h-224q19 -44 60 -64q33 -16 80 -16h84v-186h-110q-138 0 -238 86q-54 45 -84 109q-32 70 -32 155t32 155q30 64 84 109q100 86 238 86h110v-186h-84q-47 0 -80 -16q-41 -20 -60 -64h224z" />
    <glyph glyph-name="F" unicode="F" horiz-adv-x="481" 
d="M264 0h-218v428q0 157 70 219q60 53 198 53h141v-196h-135q-32 0 -45 -25q-11 -20 -11 -60h191v-180h-191v-239z" />
    <glyph glyph-name="G" unicode="G" horiz-adv-x="796" 
d="M531 456q-29 26 -55 39q-31 15 -65 15q-67 0 -112 -45t-45 -115t45 -115t112 -45q79 0 110 72h-153v170h398v-40q0 -167 -92 -281q-47 -58 -112 -89q-69 -34 -154 -34q-155 0 -263 102q-109 104 -109 254q0 157 104 263q103 105 254 105q170 0 291 -112z" />
    <glyph glyph-name="H" unicode="H" horiz-adv-x="648" 
d="M269 0h-218v700h218v-242h109v242h218v-700h-218v272h-109v-272z" />
    <glyph glyph-name="I" unicode="I" horiz-adv-x="315" 
d="M266 0h-218v700h218v-700z" />
    <glyph glyph-name="J" unicode="J" horiz-adv-x="463" 
d="M20 0v200h62q96 0 96 54v446h218v-472q0 -99 -63 -161q-67 -67 -183 -67h-130z" />
    <glyph glyph-name="K" unicode="K" horiz-adv-x="630" 
d="M269 0h-218v700h218v-251q22 1 34 37l71 214h219l-69 -211q-14 -43 -31 -69q-7 -10 -14 -17l-12 -12q46 -16 76 -47q32 -35 32 -76v-268h-218v242q0 44 -88 43v-285z" />
    <glyph glyph-name="L" unicode="L" horiz-adv-x="444" 
d="M449 200v-200h-192q-91 0 -149 57q-59 58 -59 149v494h218v-432q0 -44 23 -56q24 -12 118 -12h41z" />
    <glyph glyph-name="M" unicode="M" horiz-adv-x="870" 
d="M246 0h-211l47 565q7 82 51 118q35 29 94 29q73 0 106 -25q29 -23 45 -86l56 -216h2l56 216q16 63 46 86q32 25 105 25q59 0 94 -29q44 -36 51 -118l47 -565h-211l-24 412h-2l-74 -307q-17 -74 -33 -95q-17 -22 -56 -22t-56 22q-16 21 -33 95l-74 307h-2z" />
    <glyph glyph-name="N" unicode="N" horiz-adv-x="685" 
d="M272 288v-288h-218v586q0 67 43 101q32 25 75 25t80 -26q31 -23 47 -55l112 -221h2v290h218v-588q0 -67 -42 -100q-33 -26 -76 -26t-80 26q-31 23 -47 55l-112 221h-2z" />
    <glyph glyph-name="O" unicode="O" horiz-adv-x="796" 
d="M299 449q-41 -41 -41 -99t41 -99t99 -41t99 41t41 99t-41 99t-99 41t-99 -41zM654 606q106 -107 106 -256t-106 -256q-107 -106 -256 -106t-256 106q-106 107 -106 256t106 256q107 106 256 106t256 -106z" />
    <glyph glyph-name="P" unicode="P" horiz-adv-x="574" 
d="M266 0h-218v416q0 150 78 228q68 68 182 68q111 0 186 -71q74 -71 74 -176q0 -255 -274 -255v192q28 0 47 11q24 13 24 38q0 57 -46 57q-53 0 -53 -66v-442z" />
    <glyph glyph-name="Q" unicode="Q" horiz-adv-x="796" 
d="M495 -96h-172v390h165v-50q56 39 50 106q0 55 -37 96q-40 44 -103 44t-103 -44q-37 -41 -37 -96q0 -59 33 -90v-258q-110 33 -182 131q-73 98 -73 217q0 149 106 256q107 106 256 106t256 -106q106 -107 106 -256q0 -121 -71 -214q-71 -95 -194 -136v-96z" />
    <glyph glyph-name="R" unicode="R" 
d="M265 0h-218v442q0 270 267 270q96 0 171 -58q80 -62 80 -156q0 -91 -67 -145q77 -28 77 -143v-210h-218v175q0 69 -62 69v168q29 0 47 10q23 13 23 40q0 52 -50 52t-50 -66v-448z" />
    <glyph glyph-name="S" unicode="S" horiz-adv-x="500" 
d="M23 200h133q81 0 81 33q0 15 -33 42l-73 57q-48 40 -73 77q-33 48 -33 99q0 103 72 152q60 40 164 40h200v-196h-133q-63 0 -63 -25q0 -13 35 -40l36 -27q25 -18 41 -31q50 -41 77 -80q35 -51 35 -107q0 -87 -65 -139q-69 -55 -190 -55h-211v200z" />
    <glyph glyph-name="T" unicode="T" horiz-adv-x="444" 
d="M-2 500v200h449v-200h-116v-500h-218v500h-115z" />
    <glyph glyph-name="U" unicode="U" horiz-adv-x="630" 
d="M42 700h218v-462q0 -52 49 -52t49 52v462h218v-474q0 -105 -81 -173q-77 -65 -186 -65t-186 65q-81 68 -81 173v474z" />
    <glyph glyph-name="V" unicode="V" horiz-adv-x="593" 
d="M3 700h225l67 -433h2l70 433h222l-118 -540q-22 -101 -57 -136q-35 -36 -118 -36q-82 0 -118 36q-35 35 -57 136z" />
    <glyph glyph-name="W" unicode="W" horiz-adv-x="926" 
d="M354 700h218v-441q0 -71 43 -71t43 71v441h218v-478q0 -91 -57 -155q-33 -37 -81 -57q-53 -22 -123 -22q-37 0 -76 16q-45 18 -76 51q-31 -33 -76 -51q-39 -16 -76 -16q-70 0 -123 22q-48 20 -81 57q-57 64 -57 155v478h218v-441q0 -71 43 -71t43 71v441z" />
    <glyph glyph-name="X" unicode="X" horiz-adv-x="630" 
d="M596 700v-196q-79 -1 -123 -37q-49 -39 -49 -116q0 -78 49 -118q44 -36 123 -37v-196h-53l-44 2q-41 2 -69 11q-53 16 -115 83q-62 -67 -115 -83q-28 -9 -69 -11l-44 -2h-53v196q79 1 124 37q48 40 48 118q0 77 -48 116q-45 36 -124 37v196h53l44 -2q41 -2 69 -11
q53 -16 115 -83q62 67 115 83q28 9 69 11l44 2h53z" />
    <glyph glyph-name="Y" unicode="Y" horiz-adv-x="556" 
d="M386 0h-216v246q-53 9 -95 52q-49 53 -49 132v270h218v-243q0 -31 34 -31t34 31v243h218v-270q0 -81 -49 -132q-40 -43 -95 -52v-246z" />
    <glyph glyph-name="Z" unicode="Z" horiz-adv-x="537" 
d="M528 200v-200h-369q-64 0 -104 31q-47 36 -47 108q0 28 7 46q9 26 36 59l215 256h-222v200h333q64 0 104 -31q47 -36 47 -108q0 -27 -7 -46q-9 -25 -36 -59l-205 -256h248z" />
    <glyph glyph-name="bracketleft" unicode="[" horiz-adv-x="389" 
d="M343 -172h-252v944h252v-120h-90v-704h90v-120z" />
    <glyph glyph-name="backslash" unicode="\" horiz-adv-x="278" 
d="M-77 712h134l298 -724h-134z" />
    <glyph glyph-name="bracketright" unicode="]" horiz-adv-x="389" 
d="M46 772h252v-944h-252v120h90v704h-90v120z" />
    <glyph glyph-name="asciicircum" unicode="^" horiz-adv-x="600" 
d="M189 335h-132l174 365h138l174 -365h-133l-110 248z" />
    <glyph glyph-name="underscore" unicode="_" horiz-adv-x="500" 
d="M500 -125h-500v50h500v-50z" />
    <glyph glyph-name="grave" unicode="`" horiz-adv-x="278" 
d="M241 613l-14 -53l-258 44l36 126z" />
    <glyph glyph-name="a" unicode="a" 
d="M579 0h-202v250q0 72 -74 72q-70 0 -70 -72t65 -72q22 0 52 11v-196q-45 -5 -69 -5q-103 0 -177 73q-73 73 -73 174q0 122 77 201q74 76 183 76q123 0 200 -74q88 -85 88 -244v-194z" />
    <glyph glyph-name="b" unicode="b" 
d="M38 699h200v-433q0 -88 74 -88q70 0 70 72q0 32 -23 53q-22 19 -50 19q-20 0 -49 -11v197q28 4 68 4q109 0 178 -74q66 -72 66 -182q0 -118 -76 -194q-74 -74 -183 -74q-121 0 -193 75q-82 83 -82 243v393z" />
    <glyph glyph-name="c" unicode="c" horiz-adv-x="426" 
d="M395 172v-172h-122q-102 0 -174 77q-69 74 -69 173q0 100 69 174q72 76 174 76h122v-172h-67q-96 0 -96 -78t96 -78h67z" />
    <glyph glyph-name="d" unicode="d" 
d="M373 700h200v-394q0 -160 -82 -243q-72 -75 -193 -75q-109 0 -183 74q-76 76 -76 194q0 110 67 182q68 74 177 74q40 0 68 -4v-197q-29 11 -49 11q-28 0 -50 -19q-23 -21 -23 -53q0 -72 70 -72q74 0 74 88v434z" />
    <glyph glyph-name="e" unicode="e" horiz-adv-x="593" 
d="M309 181l-57 101l100 55q-25 21 -63 21q-24 0 -48 -30t-24 -62q0 -112 100 -112q39 0 72 19q25 15 56 48l113 -114q-48 -54 -115 -85q-70 -34 -145 -34q-115 0 -189 76t-74 193q0 107 79 183q76 72 174 72q106 0 177 -54q66 -51 93 -140z" />
    <glyph glyph-name="f" unicode="f" horiz-adv-x="370" 
d="M236 0h-200v492q0 94 50 151t129 57h141v-166h-77q-43 0 -43 -40h120v-172h-120v-322z" />
    <glyph glyph-name="g" unicode="g" horiz-adv-x="593" 
d="M83 -19l10 -2l31 -7q25 -6 42 -9q47 -9 82 -9q45 0 76 17q35 19 35 54v229q0 31 -21 49q-18 15 -44 15q-64 0 -64 -64t64 -64q21 0 38 7v-183q-36 -14 -72 -14q-99 0 -165 78q-63 74 -63 174q0 110 78 185q77 75 187 75q99 0 180 -69q84 -72 84 -170v-248
q0 -112 -72 -175q-73 -64 -204 -64q-56 0 -102 6q-38 5 -100 20v169z" />
    <glyph glyph-name="h" unicode="h" horiz-adv-x="556" 
d="M237 0h-200v700h199v-224q53 36 104 36q75 0 123 -47q56 -55 56 -165v-300h-200v269q0 63 -41 63t-41 -63v-269z" />
    <glyph glyph-name="i" unicode="i" horiz-adv-x="278" 
d="M239 0h-200v500h200v-500zM222 741q35 -35 35 -83t-35 -83q-34 -35 -83 -35t-83 35q-35 35 -35 83t35 83q34 35 83 35t83 -35z" />
    <glyph glyph-name="j" unicode="j" horiz-adv-x="296" 
d="M52 500h200v-485q0 -96 -48 -153q-53 -63 -154 -63h-105v173h66q41 0 41 60v468zM235 741q35 -35 35 -83t-35 -83q-34 -35 -83 -35t-83 35q-35 35 -35 83t35 83q34 35 83 35t83 -35z" />
    <glyph glyph-name="k" unicode="k" horiz-adv-x="556" 
d="M236 0h-200v700h200v-352q29 2 41 36q3 7 7 20l7 26q12 37 25 70h204q-11 -23 -24 -61l-20 -59q-13 -32 -28 -52q-18 -26 -44 -41q70 -34 90 -74q17 -34 17 -122v-91h-200v141q0 30 -24 42q-16 9 -51 11v-194z" />
    <glyph glyph-name="l" unicode="l" horiz-adv-x="278" 
d="M39 0v700h200v-700h-200z" />
    <glyph glyph-name="m" unicode="m" horiz-adv-x="815" 
d="M507 0h-200v259q0 73 -37 73q-36 0 -36 -73v-259h-200v314q0 86 63 143q62 55 152 55q96 0 158 -62q62 62 158 62q90 0 152 -55q63 -57 63 -143v-314h-200v259q0 73 -36 73q-37 0 -37 -73v-259z" />
    <glyph glyph-name="n" unicode="n" horiz-adv-x="537" 
d="M232 0h-200v300q0 92 60 150q64 62 176 62t177 -62q59 -58 59 -150v-300h-200v269q0 59 -36 59t-36 -59v-269z" />
    <glyph glyph-name="o" unicode="o" horiz-adv-x="593" 
d="M231 250q0 -64 65 -64t65 64t-65 64t-65 -64zM482 435q77 -77 77 -185t-77 -185q-78 -77 -186 -77q-109 0 -186 77t-77 185q0 109 77 185q77 77 186 77q108 0 186 -77z" />
    <glyph glyph-name="p" unicode="p" 
d="M238 -201h-200v395q0 160 82 243q72 75 193 75q109 0 183 -74q76 -76 76 -194q0 -110 -66 -182q-69 -74 -178 -74q-40 0 -68 4v197q29 -11 49 -11q28 0 50 19q23 21 23 53q0 72 -70 72q-74 0 -74 -88v-435z" />
    <glyph glyph-name="q" unicode="q" 
d="M573 -201h-200v435q0 88 -74 88q-70 0 -70 -72q0 -32 23 -53q22 -19 50 -19q20 0 49 11v-197q-28 -4 -68 -4q-109 0 -177 74q-67 72 -67 182q0 118 76 194q74 74 183 74q121 0 193 -75q82 -83 82 -243v-395z" />
    <glyph glyph-name="r" unicode="r" horiz-adv-x="426" 
d="M36 0v500h190v-59h2q31 45 66 59q30 12 100 12h24v-172h-22q-89 0 -125 -35t-36 -118v-187h-199z" />
    <glyph glyph-name="s" unicode="s" horiz-adv-x="444" 
d="M396 500v-160h-116q-18 0 -18 -14q0 -11 24 -25l52 -29q33 -23 51 -50q24 -35 24 -83q0 -139 -176 -139h-207v168h120q39 0 39 19q0 12 -25 25q-4 3 -11 6l-14 7q-17 8 -28 15q-36 20 -54 45q-25 34 -25 82q0 60 49 98q46 35 108 35h207z" />
    <glyph glyph-name="t" unicode="t" horiz-adv-x="370" 
d="M338 500v-172h-108v-91q0 -71 66 -71h42v-166h-122q-86 0 -134 48q-52 53 -52 156v454h200v-158h108z" />
    <glyph glyph-name="u" unicode="u" horiz-adv-x="537" 
d="M304 500h200v-300q0 -92 -59 -149q-65 -63 -177 -63t-176 63q-60 57 -60 149v300h200v-269q0 -59 36 -59t36 59v269z" />
    <glyph glyph-name="v" unicode="v" horiz-adv-x="537" 
d="M13 500h199l55 -306h2l54 306h200l-98 -385q-16 -63 -51 -93q-38 -34 -106 -34t-106 34q-35 30 -51 93z" />
    <glyph glyph-name="w" unicode="w" horiz-adv-x="815" 
d="M307 500h200v-259q0 -73 37 -73q36 0 36 73v259h200v-314q0 -86 -63 -142q-62 -56 -152 -56q-96 0 -158 62q-62 -62 -158 -62q-90 0 -152 56q-63 56 -63 142v314h200v-259q0 -73 36 -73q37 0 37 73v259z" />
    <glyph glyph-name="x" unicode="x" horiz-adv-x="500" 
d="M464 500v-172h-38q-36 0 -55 -16q-23 -19 -23 -62t23 -62q19 -16 55 -16h38v-172h-52q-108 0 -162 69q-54 -69 -162 -69h-52v172h38q36 0 55 16q23 19 23 62t-23 62q-19 16 -55 16h-38v172h52q108 0 162 -69q54 69 162 69h52z" />
    <glyph glyph-name="y" unicode="y" horiz-adv-x="537" 
d="M363 -201h-194v199q-63 31 -97 77q-39 51 -39 116v309h199v-269q0 -59 36 -59t36 59v269h199v-301q0 -149 -140 -201v-199z" />
    <glyph glyph-name="z" unicode="z" horiz-adv-x="519" 
d="M488 168v-168h-311q-76 0 -110 20q-39 24 -39 82q0 48 44 89l152 141h-161v168h287q141 0 141 -100q0 -57 -58 -110l-130 -122h185z" />
    <glyph glyph-name="braceleft" unicode="{" horiz-adv-x="389" 
d="M345 -80v-92h-100q-42 0 -83 34q-51 41 -51 105v216q0 41 -40 60q-14 6 -32 9q-7 2 -15 2q-5 1 -11 1v100h11l15 2q18 2 32 8q40 15 40 51v216q0 64 51 106q41 34 83 34h100v-92h-20q-52 0 -52 -65v-212q0 -52 -42 -77q-16 -10 -36 -15q-16 -4 -33 -5v-4q19 -1 33 -4
q21 -4 36 -13q42 -26 42 -88v-213q0 -64 52 -64h20z" />
    <glyph glyph-name="bar" unicode="|" horiz-adv-x="222" 
d="M44 0v700h134v-700h-134z" />
    <glyph glyph-name="braceright" unicode="}" horiz-adv-x="389" 
d="M44 684v92h100q42 0 83 -33q51 -42 51 -106v-216q0 -41 40 -60q14 -6 32 -9q7 -2 15 -2q5 -1 11 -1v-100h-11l-15 -2q-18 -2 -32 -7q-40 -16 -40 -52v-216q0 -64 -51 -106q-41 -34 -83 -34h-100v92h20q52 0 52 65v212q0 52 42 77q16 10 36 15q16 4 33 5v4q-19 1 -33 4
q-21 4 -36 13q-42 26 -42 88v213q0 64 -52 64h-20z" />
    <glyph glyph-name="asciitilde" unicode="~" horiz-adv-x="600" 
d="M531 231q-14 -20 -23 -31q-14 -17 -27 -28q-34 -27 -75 -27q-26 0 -55 11q-11 4 -24 11q-6 2 -13 6l-12 6q-32 17 -52 23q-30 11 -61 11q-30 0 -52 -23q-17 -17 -32 -49l-36 128q20 38 46 59q33 27 79 27q25 0 58 -11q22 -7 57 -23l28 -12q15 -7 26 -11q28 -11 44 -11
q27 0 50 23q15 14 38 49z" />
    <glyph glyph-name="uni00A0" unicode="&#xa0;" horiz-adv-x="305" 
 />
    <glyph glyph-name="exclamdown" unicode="&#xa1;" horiz-adv-x="333" 
d="M256 250l22 -450h-222l21 450h179zM83 311q-34 34 -34 83t34 83q35 35 84 35t84 -35q34 -34 34 -83t-34 -83q-35 -35 -84 -35t-84 35z" />
    <glyph glyph-name="cent" unicode="&#xa2;" 
d="M482 172v-172h-83v-71h-83v76q-86 16 -142 87q-56 70 -56 158t56 159t142 87v79h83v-75h83v-172h-67q-95 0 -95 -78t95 -78h67z" />
    <glyph glyph-name="sterling" unicode="&#xa3;" 
d="M5 274v152h98v43q0 112 71 178q69 65 184 65q38 0 77 -5l56 -7v-197l-40 6q-25 5 -40 5q-52 0 -69 -16q-19 -17 -21 -72h100v-152h-100q-1 -31 -6 -48q-8 -25 -27 -38l2 -2q126 0 131 76h204q-7 -60 -21 -103q-17 -50 -47 -83q-69 -76 -222 -76h-337v186h53q31 0 41 17
t11 71h-98z" />
    <glyph glyph-name="currency" unicode="&#xa4;" 
d="M503 619l69 -69l-57 -57q43 -46 43 -143t-43 -143l57 -57l-69 -69l-59 59q-46 -43 -139 -43t-139 43l-59 -59l-69 69l57 57q-43 46 -43 143t43 143l-57 57l69 69l59 -59q46 43 139 43t139 -43zM223 436q-31 -35 -31 -86t31 -86q32 -37 82 -37t82 37q31 35 31 86t-31 86
q-32 37 -82 37t-82 -37z" />
    <glyph glyph-name="yen" unicode="&#xa5;" 
d="M546 265v-112h-132v-153h-218v153h-132v112h132v57h-132v112h111q-40 68 -151 70v196h53l44 -2q41 -2 69 -11q53 -16 115 -83q62 67 115 83q28 9 69 11l44 2h53v-196q-111 -2 -151 -70h111v-112h-132v-57h132z" />
    <glyph glyph-name="brokenbar" unicode="&#xa6;" horiz-adv-x="222" 
d="M44 0v262h134v-262h-134zM44 438v262h134v-262h-134z" />
    <glyph glyph-name="section" unicode="&#xa7;" 
d="M528 511q-4 0 -18 2l-31 5q-46 6 -74 6h-8q-5 0 -9 -1q-10 0 -18 -2q-20 -6 -20 -21q0 -17 35 -36q6 -4 16 -9l60 -31q50 -29 75 -61q35 -42 35 -99q0 -92 -85 -158q60 -59 60 -145q0 -58 -32 -97q-29 -34 -81 -54q-44 -16 -106 -23q-25 -3 -54 -4q-24 -1 -52 -1
q-29 0 -75 4l-84 8v197l65 -15q35 -6 70 -6h7q5 0 9 1q12 0 22 3q27 6 27 21q0 14 -35 33q-6 4 -17 9l-59 31q-51 29 -77 62q-35 43 -35 100q0 96 93 160q-68 54 -68 144q0 83 85 132q80 46 203 46q85 0 176 -11v-190zM319 270q-24 19 -42 19q-22 0 -22 -26q0 -13 25 -34
q23 -20 36 -20q27 0 27 24q0 18 -24 37z" />
    <glyph glyph-name="dieresis" unicode="&#xa8;" horiz-adv-x="278" 
d="M304 718q26 -26 26 -62t-26 -61q-26 -26 -61 -26t-61 26q-26 25 -26 61t26 62q26 25 61 25t61 -25zM97 718q26 -26 26 -62t-26 -61q-26 -26 -61 -26t-61 26q-26 25 -26 61t26 62q26 25 61 25t61 -25z" />
    <glyph glyph-name="copyright" unicode="&#xa9;" horiz-adv-x="800" 
d="M139 83q-115 102 -115 267t115 267q107 95 261 95t261 -95q115 -102 115 -267t-115 -267q-107 -95 -261 -95t-261 95zM580 545q-73 73 -180 73q-109 0 -181 -73q-75 -76 -75 -195t75 -195q72 -73 181 -73q107 0 180 73q76 76 76 195t-76 195zM588 297q-10 -72 -60 -113
q-47 -39 -113 -39q-89 0 -145 60q-55 59 -55 148q0 92 53 150q54 59 145 59q148 0 171 -149h-88q-11 59 -83 59q-90 0 -90 -117q0 -120 92 -120q77 0 81 62h92z" />
    <glyph glyph-name="ordfeminine" unicode="&#xaa;" horiz-adv-x="367" 
d="M361 405h-132v150q0 43 -47 43q-46 0 -46 -43t43 -43q6 0 15 2l19 4v-117q-27 -3 -45 -3q-67 0 -115 44t-48 104q0 73 50 121q48 45 119 45q80 0 130 -44q57 -51 57 -147v-116z" />
    <glyph glyph-name="guillemotleft" unicode="&#xab;" horiz-adv-x="537" 
d="M397 250l119 -127h-154l-118 127l118 127h154zM175 250l119 -127h-154l-118 127l118 127h154z" />
    <glyph glyph-name="logicalnot" unicode="&#xac;" horiz-adv-x="600" 
d="M416 108v186h-366v134h500v-320h-134z" />
    <glyph glyph-name="uni00AD" unicode="&#xad;" horiz-adv-x="389" 
d="M56 181v138h276v-138h-276z" />
    <glyph glyph-name="registered" unicode="&#xae;" horiz-adv-x="800" 
d="M139 83q-115 102 -115 267t115 267q107 95 261 95t261 -95q115 -102 115 -267t-115 -267q-107 -95 -261 -95t-261 95zM580 545q-73 73 -180 73q-109 0 -181 -73q-75 -76 -75 -195t75 -195q72 -73 181 -73q107 0 180 73q76 76 76 195t-76 195zM342 318v-164h-90v393h147
q82 0 121 -25q44 -29 44 -95q0 -98 -110 -103l100 -170h-90l-89 164h-33zM342 388h75q53 0 53 49q0 25 -26 34q-9 4 -23 5q-6 1 -13 1h-66v-89z" />
    <glyph glyph-name="macron" unicode="&#xaf;" horiz-adv-x="278" 
d="M-31 594v96h344v-96h-344z" />
    <glyph glyph-name="degree" unicode="&#xb0;" horiz-adv-x="400" 
d="M143 628q-24 -25 -24 -59t24 -59q24 -26 57 -26t57 26q24 25 24 59t-24 59q-24 26 -57 26t-57 -26zM302 671q41 -42 41 -102t-41 -101q-42 -42 -102 -42t-101 42q-42 41 -42 101t42 102q41 41 101 41t102 -41z" />
    <glyph glyph-name="plusminus" unicode="&#xb1;" horiz-adv-x="600" 
d="M233 400v100h134v-100h183v-134h-183v-100h-134v100h-183v134h183zM50 0v134h500v-134h-500z" />
    <glyph glyph-name="uni00B2" unicode="&#xb2;" horiz-adv-x="366" 
d="M229 399h125v-114h-281q-60 0 -60 46q0 18 19 40q22 25 57 60l58 57q31 31 45 47q18 21 18 31q0 29 -29 29q-30 0 -30 -29q0 -16 19 -25l-89 -91q-36 31 -51 55q-18 30 -18 69q0 63 54 102q49 36 117 36q75 0 122 -38q49 -40 49 -108q0 -40 -46 -91z" />
    <glyph glyph-name="uni00B3" unicode="&#xb3;" horiz-adv-x="366" 
d="M67 518l102 69v2h-140v116h215q86 0 86 -76q0 -27 -31 -55q-11 -9 -29 -22l-27 -19q99 -21 99 -118q0 -65 -51 -99q-46 -31 -117 -31h-151v116h137q39 0 39 27t-39 27h-93v63z" />
    <glyph glyph-name="acute" unicode="&#xb4;" horiz-adv-x="278" 
d="M275 730l36 -126l-258 -44l-14 53z" />
    <glyph glyph-name="mu" unicode="&#xb5;" horiz-adv-x="537" 
d="M304 500h200v-300q0 -92 -59 -149q-65 -63 -177 -63q-19 0 -36 3v-192h-200v701h200v-269q0 -59 36 -59t36 59v269z" />
    <glyph glyph-name="paragraph" unicode="&#xb6;" horiz-adv-x="620" 
d="M241 -191v541q-223 2 -223 172q0 100 71 143q31 19 78 27q41 8 97 8h314v-891h-120v801h-97v-801h-120z" />
    <glyph glyph-name="periodcentered" unicode="&#xb7;" horiz-adv-x="305" 
d="M237 335q35 -35 35 -85t-35 -85t-85 -35t-85 35t-35 85t35 85t85 35t85 -35z" />
    <glyph glyph-name="cedilla" unicode="&#xb8;" horiz-adv-x="278" 
d="M90 -81l30 94h69l-10 -35q38 -1 63 -28q24 -27 24 -65q0 -47 -36 -75q-34 -26 -82 -26q-29 0 -51 7v73q25 -10 50 -10q37 0 37 34q0 23 -25 23q-15 0 -28 -15z" />
    <glyph glyph-name="uni00B9" unicode="&#xb9;" horiz-adv-x="366" 
d="M67 601v104h194v-420h-142v316h-52z" />
    <glyph glyph-name="ordmasculine" unicode="&#xba;" horiz-adv-x="356" 
d="M137 555q0 -37 41 -37t41 37t-41 37t-41 -37zM299 666q50 -46 50 -111t-50 -111q-51 -46 -121 -46t-121 46q-50 46 -50 111t50 111t121 46t121 -46z" />
    <glyph glyph-name="guillemotright" unicode="&#xbb;" horiz-adv-x="537" 
d="M362 250l-119 127h154l118 -127l-118 -127h-154zM140 250l-119 127h154l118 -127l-118 -127h-154z" />
    <glyph glyph-name="onequarter" unicode="&#xbc;" horiz-adv-x="916" 
d="M297 -12h-101l371 724h101zM32 601v104h194v-420h-142v316h-52zM817 85v-85h-138v85h-100q-78 0 -78 67q0 19 14 41l143 227h132l-158 -235h60v50l123 185h2v-224h51v-111h-51z" />
    <glyph glyph-name="onehalf" unicode="&#xbd;" horiz-adv-x="916" 
d="M32 601v104h194v-420h-142v316h-52zM744 114h125v-114h-281q-60 0 -60 46q0 18 19 40q22 25 57 60l58 57q31 31 45 47q18 21 18 31q0 29 -29 29q-30 0 -30 -29q0 -16 19 -25l-89 -91q-36 31 -51 55q-18 30 -18 69q0 63 54 102q49 36 117 36q75 0 122 -38q49 -40 49 -108
q0 -40 -46 -91zM259 -12h-101l400 724h101z" />
    <glyph glyph-name="threequarters" unicode="&#xbe;" horiz-adv-x="916" 
d="M67 518l102 69v2h-140v116h215q86 0 86 -76q0 -27 -31 -55q-11 -9 -29 -22l-27 -19q99 -21 99 -118q0 -65 -51 -99q-46 -31 -117 -31h-151v116h137q39 0 39 27t-39 27h-93v63zM312 -12h-101l400 724h101zM817 85v-85h-138v85h-100q-78 0 -78 67q0 19 14 41l143 227h132
l-158 -235h60v50l123 185h2v-224h51v-111h-51z" />
    <glyph glyph-name="questiondown" unicode="&#xbf;" horiz-adv-x="519" 
d="M355 64h-52q-78 0 -78 -40t41 -40q37 0 54 41l188 -75q-75 -162 -259 -162q-102 0 -169 61q-69 63 -69 164q0 165 158 201v34h186v-184zM179 311q-34 34 -34 83t34 83q35 35 84 35t84 -35q34 -34 34 -83t-34 -83q-35 -35 -84 -35t-84 35z" />
    <glyph glyph-name="Agrave" unicode="&#xc0;" horiz-adv-x="630" 
d="M297 213v178h67v62q0 57 -50 57q-49 0 -49 -57v-453h-218v448q0 40 14 83q16 48 46 86q35 43 83 68q55 27 125 27t125 -27q48 -25 82 -68q30 -38 46 -86q14 -43 14 -83v-448h-218v213h-67zM417 809l-14 -53l-258 44l36 126z" />
    <glyph glyph-name="Aacute" unicode="&#xc1;" horiz-adv-x="630" 
d="M297 213v178h67v62q0 57 -50 57q-49 0 -49 -57v-453h-218v448q0 40 14 83q16 48 46 86q35 43 83 68q55 27 125 27t125 -27q48 -25 82 -68q30 -38 46 -86q14 -43 14 -83v-448h-218v213h-67zM451 926l36 -126l-258 -44l-14 53z" />
    <glyph glyph-name="Acircumflex" unicode="&#xc2;" horiz-adv-x="630" 
d="M297 213v178h67v62q0 57 -50 57q-49 0 -49 -57v-453h-218v448q0 40 14 83q16 48 46 86q35 43 83 68q55 27 125 27t125 -27q48 -25 82 -68q30 -38 46 -86q14 -43 14 -83v-448h-218v213h-67zM276 754h-119l160 175l162 -175h-119l-44 44z" />
    <glyph glyph-name="Atilde" unicode="&#xc3;" horiz-adv-x="630" 
d="M297 213v178h67v62q0 57 -50 57q-49 0 -49 -57v-453h-218v448q0 40 14 83q16 48 46 86q35 43 83 68q55 27 125 27t125 -27q48 -25 82 -68q30 -38 46 -86q14 -43 14 -83v-448h-218v213h-67zM432 900l75 -60l-17 -19q-1 -1 -2 -1l-6 -8q-17 -18 -29 -28q-35 -32 -68 -32
q-18 0 -38 6q-15 4 -34 13l-30 13q-15 6 -24 6q-27 0 -56 -34l-78 59l23 29q14 16 26 26q33 28 67 28q21 0 43 -6q17 -4 38 -13l31 -13q16 -6 25 -6q11 0 29 16z" />
    <glyph glyph-name="Adieresis" unicode="&#xc4;" horiz-adv-x="630" 
d="M297 213v178h67v62q0 57 -50 57q-49 0 -49 -57v-453h-218v448q0 40 14 83q16 48 46 86q35 43 83 68q55 27 125 27t125 -27q48 -25 82 -68q30 -38 46 -86q14 -43 14 -83v-448h-218v213h-67zM480 914q26 -26 26 -62t-26 -61q-26 -26 -61 -26t-61 26q-26 25 -26 61t26 62
q26 25 61 25t61 -25zM273 914q26 -26 26 -62t-26 -61q-26 -26 -61 -26t-61 26q-26 25 -26 61t26 62q26 25 61 25t61 -25z" />
    <glyph glyph-name="Aring" unicode="&#xc5;" horiz-adv-x="630" 
d="M297 213v178h67v62q0 57 -50 57q-49 0 -49 -57v-453h-218v448q0 40 14 83q16 48 46 86q35 43 83 68q55 27 125 27t125 -27q48 -25 82 -68q30 -38 46 -86q14 -43 14 -83v-448h-218v213h-67zM387 911q30 -30 30 -72t-30 -72q-30 -29 -72 -29t-72 29q-30 30 -30 72t30 72
q30 29 72 29t72 -29zM287 839q0 -27 28 -27t28 27t-28 27t-28 -27z" />
    <glyph glyph-name="AE" unicode="&#xc6;" horiz-adv-x="870" 
d="M270 0h-218v448q0 40 14 83q16 48 46 86q35 43 83 68q55 27 125 27q104 0 189 -77q91 65 221 65h96v-186h-84q-47 0 -80 -16q-41 -20 -60 -64h224v-168h-224q19 -44 60 -64q33 -16 80 -16h84v-186l-110 -1q-40 0 -77 8q-45 9 -73 27v-34h-196v266h-100v-266zM270 434h99
v19q0 57 -50 57q-49 0 -49 -57v-19z" />
    <glyph glyph-name="Ccedilla" unicode="&#xc7;" horiz-adv-x="519" 
d="M486 200v-200h-122l-6 -22q38 -1 63 -28q24 -27 24 -65q0 -47 -36 -75q-34 -26 -82 -26q-29 0 -51 7v73q25 -10 50 -10q37 0 37 34q0 23 -25 23q-15 0 -28 -15l-41 23l29 90q-114 26 -188 118q-77 96 -77 222q0 149 101 251q98 100 237 100h115v-200h-65q-69 0 -115 -41
q-47 -42 -47 -110q0 -67 47 -109q46 -40 115 -40h65z" />
    <glyph glyph-name="Egrave" unicode="&#xc8;" horiz-adv-x="537" 
d="M500 434v-168h-224q19 -44 60 -64q33 -16 80 -16h84v-186h-110q-138 0 -238 86q-54 45 -84 109q-32 70 -32 155t32 155q30 64 84 109q100 86 238 86h110v-186h-84q-47 0 -80 -16q-41 -20 -60 -64h224zM429 809l-14 -53l-258 44l36 126z" />
    <glyph glyph-name="Eacute" unicode="&#xc9;" horiz-adv-x="537" 
d="M500 434v-168h-224q19 -44 60 -64q33 -16 80 -16h84v-186h-110q-138 0 -238 86q-54 45 -84 109q-32 70 -32 155t32 155q30 64 84 109q100 86 238 86h110v-186h-84q-47 0 -80 -16q-41 -20 -60 -64h224zM463 926l36 -126l-258 -44l-14 53z" />
    <glyph glyph-name="Ecircumflex" unicode="&#xca;" horiz-adv-x="537" 
d="M500 434v-168h-224q19 -44 60 -64q33 -16 80 -16h84v-186h-110q-138 0 -238 86q-54 45 -84 109q-32 70 -32 155t32 155q30 64 84 109q100 86 238 86h110v-186h-84q-47 0 -80 -16q-41 -20 -60 -64h224zM288 754h-119l160 175l162 -175h-119l-44 44z" />
    <glyph glyph-name="Edieresis" unicode="&#xcb;" horiz-adv-x="537" 
d="M500 434v-168h-224q19 -44 60 -64q33 -16 80 -16h84v-186h-110q-138 0 -238 86q-54 45 -84 109q-32 70 -32 155t32 155q30 64 84 109q100 86 238 86h110v-186h-84q-47 0 -80 -16q-41 -20 -60 -64h224zM492 914q26 -26 26 -62t-26 -61q-26 -26 -61 -26t-61 26
q-26 25 -26 61t26 62q26 25 61 25t61 -25zM285 914q26 -26 26 -62t-26 -61q-26 -26 -61 -26t-61 26q-26 25 -26 61t26 62q26 25 61 25t61 -25z" />
    <glyph glyph-name="Igrave" unicode="&#xcc;" horiz-adv-x="315" 
d="M266 0h-218v700h218v-700zM260 809l-14 -53l-258 44l36 126z" />
    <glyph glyph-name="Iacute" unicode="&#xcd;" horiz-adv-x="315" 
d="M266 0h-218v700h218v-700zM294 926l36 -126l-258 -44l-14 53z" />
    <glyph glyph-name="Icircumflex" unicode="&#xce;" horiz-adv-x="315" 
d="M266 0h-218v700h218v-700zM119 754h-119l160 175l162 -175h-119l-44 44z" />
    <glyph glyph-name="Idieresis" unicode="&#xcf;" horiz-adv-x="315" 
d="M266 0h-218v700h218v-700zM323 914q26 -26 26 -62t-26 -61q-26 -26 -61 -26t-61 26q-26 25 -26 61t26 62q26 25 61 25t61 -25zM116 914q26 -26 26 -62t-26 -61q-26 -26 -61 -26t-61 26q-26 25 -26 61t26 62q26 25 61 25t61 -25z" />
    <glyph glyph-name="Eth" unicode="&#xd0;" horiz-adv-x="667" 
d="M272 0h-218v272h-48v186h48v242h221q165 0 263 -103q96 -101 96 -266q0 -129 -87 -226q-44 -49 -104 -76q-64 -29 -139 -29v200q108 9 108 150q0 61 -31 101q-37 49 -109 49v-42h56v-186h-56v-272z" />
    <glyph glyph-name="Ntilde" unicode="&#xd1;" horiz-adv-x="685" 
d="M272 288v-288h-218v586q0 67 43 101q32 25 75 25t80 -26q31 -23 47 -55l112 -221h2v290h218v-588q0 -67 -42 -100q-33 -26 -76 -26t-80 26q-31 23 -47 55l-112 221h-2zM460 900l75 -60l-17 -19q-1 -1 -2 -1l-6 -8q-17 -18 -29 -28q-35 -32 -68 -32q-18 0 -38 6
q-15 4 -34 13l-30 13q-15 6 -24 6q-27 0 -56 -34l-78 59l23 29q14 16 26 26q33 28 67 28q21 0 43 -6q17 -4 38 -13l31 -13q16 -6 25 -6q11 0 29 16z" />
    <glyph glyph-name="Ograve" unicode="&#xd2;" horiz-adv-x="796" 
d="M299 449q-41 -41 -41 -99t41 -99t99 -41t99 41t41 99t-41 99t-99 41t-99 -41zM654 606q106 -107 106 -256t-106 -256q-107 -106 -256 -106t-256 106q-106 107 -106 256t106 256q107 106 256 106t256 -106zM500 809l-14 -53l-258 44l36 126z" />
    <glyph glyph-name="Oacute" unicode="&#xd3;" horiz-adv-x="796" 
d="M299 449q-41 -41 -41 -99t41 -99t99 -41t99 41t41 99t-41 99t-99 41t-99 -41zM654 606q106 -107 106 -256t-106 -256q-107 -106 -256 -106t-256 106q-106 107 -106 256t106 256q107 106 256 106t256 -106zM534 926l36 -126l-258 -44l-14 53z" />
    <glyph glyph-name="Ocircumflex" unicode="&#xd4;" horiz-adv-x="796" 
d="M299 449q-41 -41 -41 -99t41 -99t99 -41t99 41t41 99t-41 99t-99 41t-99 -41zM654 606q106 -107 106 -256t-106 -256q-107 -106 -256 -106t-256 106q-106 107 -106 256t106 256q107 106 256 106t256 -106zM359 754h-119l160 175l162 -175h-119l-44 44z" />
    <glyph glyph-name="Otilde" unicode="&#xd5;" horiz-adv-x="796" 
d="M299 449q-41 -41 -41 -99t41 -99t99 -41t99 41t41 99t-41 99t-99 41t-99 -41zM654 606q106 -107 106 -256t-106 -256q-107 -106 -256 -106t-256 106q-106 107 -106 256t106 256q107 106 256 106t256 -106zM515 900l75 -60l-17 -19q-1 -1 -2 -1l-6 -8q-17 -18 -29 -28
q-35 -32 -68 -32q-18 0 -38 6q-15 4 -34 13l-30 13q-15 6 -24 6q-27 0 -56 -34l-78 59l23 29q14 16 26 26q33 28 67 28q21 0 43 -6q17 -4 38 -13l31 -13q16 -6 25 -6q11 0 29 16z" />
    <glyph glyph-name="Odieresis" unicode="&#xd6;" horiz-adv-x="796" 
d="M299 449q-41 -41 -41 -99t41 -99t99 -41t99 41t41 99t-41 99t-99 41t-99 -41zM654 606q106 -107 106 -256t-106 -256q-107 -106 -256 -106t-256 106q-106 107 -106 256t106 256q107 106 256 106t256 -106zM563 914q26 -26 26 -62t-26 -61q-26 -26 -61 -26t-61 26
q-26 25 -26 61t26 62q26 25 61 25t61 -25zM356 914q26 -26 26 -62t-26 -61q-26 -26 -61 -26t-61 26q-26 25 -26 61t26 62q26 25 61 25t61 -25z" />
    <glyph glyph-name="multiply" unicode="&#xd7;" horiz-adv-x="600" 
d="M550 405l-156 -155l156 -155l-95 -95l-155 155l-155 -155l-95 95l156 155l-156 155l95 95l155 -155l155 155z" />
    <glyph glyph-name="Oslash" unicode="&#xd8;" horiz-adv-x="796" 
d="M418 488l-10 2h-10q-58 0 -99 -41t-41 -99q0 -42 24 -77zM706 736l-72 -112q126 -110 126 -274q0 -149 -106 -256q-107 -106 -256 -106q-75 0 -145 31l-41 -65h-134l80 126q-122 107 -122 270q0 149 106 256q107 106 256 106q73 0 140 -28l34 52h134zM370 213
q14 -3 28 -3q58 0 99 41t41 99q0 47 -28 83z" />
    <glyph glyph-name="Ugrave" unicode="&#xd9;" horiz-adv-x="630" 
d="M42 700h218v-462q0 -52 49 -52t49 52v462h218v-474q0 -105 -81 -173q-77 -65 -186 -65t-186 65q-81 68 -81 173v474zM417 809l-14 -53l-258 44l36 126z" />
    <glyph glyph-name="Uacute" unicode="&#xda;" horiz-adv-x="630" 
d="M42 700h218v-462q0 -52 49 -52t49 52v462h218v-474q0 -105 -81 -173q-77 -65 -186 -65t-186 65q-81 68 -81 173v474zM451 926l36 -126l-258 -44l-14 53z" />
    <glyph glyph-name="Ucircumflex" unicode="&#xdb;" horiz-adv-x="630" 
d="M42 700h218v-462q0 -52 49 -52t49 52v462h218v-474q0 -105 -81 -173q-77 -65 -186 -65t-186 65q-81 68 -81 173v474zM276 754h-119l160 175l162 -175h-119l-44 44z" />
    <glyph glyph-name="Udieresis" unicode="&#xdc;" horiz-adv-x="630" 
d="M42 700h218v-462q0 -52 49 -52t49 52v462h218v-474q0 -105 -81 -173q-77 -65 -186 -65t-186 65q-81 68 -81 173v474zM480 914q26 -26 26 -62t-26 -61q-26 -26 -61 -26t-61 26q-26 25 -26 61t26 62q26 25 61 25t61 -25zM273 914q26 -26 26 -62t-26 -61q-26 -26 -61 -26
t-61 26q-26 25 -26 61t26 62q26 25 61 25t61 -25z" />
    <glyph glyph-name="Yacute" unicode="&#xdd;" horiz-adv-x="556" 
d="M386 0h-216v246q-53 9 -95 52q-49 53 -49 132v270h218v-243q0 -31 34 -31t34 31v243h218v-270q0 -81 -49 -132q-40 -43 -95 -52v-246zM414 926l36 -126l-258 -44l-14 53z" />
    <glyph glyph-name="Thorn" unicode="&#xde;" horiz-adv-x="574" 
d="M48 0v700h218v-85q19 5 42 5q111 0 186 -71q74 -71 74 -176q0 -255 -274 -255v192q28 0 47 11q24 13 24 38q0 57 -46 57q-53 0 -53 -58v-358h-218z" />
    <glyph glyph-name="germandbls" unicode="&#xdf;" horiz-adv-x="722" 
d="M92 330h-55v166h55v23q0 193 244 193q93 0 160 -44q75 -51 75 -139q0 -47 -41 -99q35 -22 58 -40q29 -23 47 -46q42 -54 42 -127q0 -56 -22 -100q-20 -40 -56 -67q-64 -50 -148 -50h-129v174h14q131 0 131 55q0 21 -21 44q-14 15 -47 39l-26 19l-22 19q-21 21 -21 39
q0 9 9 24l19 31q13 20 18 32q9 19 9 32q0 42 -51 42q-40 0 -40 -62v-488h-202v330z" />
    <glyph glyph-name="agrave" unicode="&#xe0;" 
d="M579 0h-202v250q0 72 -74 72q-70 0 -70 -72t65 -72q22 0 52 11v-196q-45 -5 -69 -5q-103 0 -177 73q-73 73 -73 174q0 122 77 201q74 76 183 76q123 0 200 -74q88 -85 88 -244v-194zM408 613l-14 -53l-258 44l36 126z" />
    <glyph glyph-name="aacute" unicode="&#xe1;" 
d="M579 0h-202v250q0 72 -74 72q-70 0 -70 -72t65 -72q22 0 52 11v-196q-45 -5 -69 -5q-103 0 -177 73q-73 73 -73 174q0 122 77 201q74 76 183 76q123 0 200 -74q88 -85 88 -244v-194zM442 730l36 -126l-258 -44l-14 53z" />
    <glyph glyph-name="acircumflex" unicode="&#xe2;" 
d="M579 0h-202v250q0 72 -74 72q-70 0 -70 -72t65 -72q22 0 52 11v-196q-45 -5 -69 -5q-103 0 -177 73q-73 73 -73 174q0 122 77 201q74 76 183 76q123 0 200 -74q88 -85 88 -244v-194zM267 558h-119l160 175l162 -175h-119l-44 44z" />
    <glyph glyph-name="atilde" unicode="&#xe3;" 
d="M579 0h-202v250q0 72 -74 72q-70 0 -70 -72t65 -72q22 0 52 11v-196q-45 -5 -69 -5q-103 0 -177 73q-73 73 -73 174q0 122 77 201q74 76 183 76q123 0 200 -74q88 -85 88 -244v-194zM423 704l75 -60l-17 -19q-1 -1 -2 -1l-6 -8q-17 -18 -29 -28q-35 -32 -68 -32
q-18 0 -38 6q-15 4 -34 13l-30 13q-15 6 -24 6q-27 0 -56 -34l-78 59l23 29q14 16 26 26q33 28 67 28q21 0 43 -6q17 -4 38 -13l31 -13q16 -6 25 -6q11 0 29 16z" />
    <glyph glyph-name="adieresis" unicode="&#xe4;" 
d="M579 0h-202v250q0 72 -74 72q-70 0 -70 -72t65 -72q22 0 52 11v-196q-45 -5 -69 -5q-103 0 -177 73q-73 73 -73 174q0 122 77 201q74 76 183 76q123 0 200 -74q88 -85 88 -244v-194zM471 718q26 -26 26 -62t-26 -61q-26 -26 -61 -26t-61 26q-26 25 -26 61t26 62
q26 25 61 25t61 -25zM264 718q26 -26 26 -62t-26 -61q-26 -26 -61 -26t-61 26q-26 25 -26 61t26 62q26 25 61 25t61 -25z" />
    <glyph glyph-name="aring" unicode="&#xe5;" 
d="M579 0h-202v250q0 72 -74 72q-70 0 -70 -72t65 -72q22 0 52 11v-196q-45 -5 -69 -5q-103 0 -177 73q-73 73 -73 174q0 122 77 201q74 76 183 76q123 0 200 -74q88 -85 88 -244v-194zM378 715q30 -30 30 -72t-30 -72q-30 -29 -72 -29t-72 29q-30 30 -30 72t30 72
q30 29 72 29t72 -29zM278 643q0 -27 28 -27t28 27t-28 27t-28 -27z" />
    <glyph glyph-name="ae" unicode="&#xe6;" horiz-adv-x="889" 
d="M254 199q-22 -8 -22 -28q0 -29 42 -29q34 0 54 30q18 25 18 62zM37 444q103 68 229 68q90 0 164 -54q70 54 163 54q100 0 169 -54q65 -51 91 -140l-248 -137l-57 101l99 55q-28 23 -63 23q-26 0 -49 -31q-23 -30 -23 -63q0 -112 101 -112q39 0 71 19q25 15 56 48
l113 -114q-52 -55 -116 -86q-70 -33 -144 -33q-102 0 -176 64q-80 -64 -168 -64q-41 0 -76 7q-40 8 -68 24q-69 39 -69 122q0 98 109 137l162 57q-27 21 -57 21q-49 0 -104 -34z" />
    <glyph glyph-name="ccedilla" unicode="&#xe7;" horiz-adv-x="426" 
d="M395 172v-172h-113l-6 -22q38 -1 63 -28q24 -27 24 -65q0 -47 -36 -75q-34 -26 -82 -26q-29 0 -51 7v73q25 -10 50 -10q37 0 37 34q0 23 -25 23q-15 0 -28 -15l-41 23l28 88q-81 21 -133 91q-52 69 -52 152q0 100 69 174q72 76 174 76h122v-172h-67q-96 0 -96 -78t96 -78
h67z" />
    <glyph glyph-name="egrave" unicode="&#xe8;" horiz-adv-x="593" 
d="M309 181l-57 101l100 55q-25 21 -63 21q-24 0 -48 -30t-24 -62q0 -112 100 -112q39 0 72 19q25 15 56 48l113 -114q-48 -54 -115 -85q-70 -34 -145 -34q-115 0 -189 76t-74 193q0 107 79 183q76 72 174 72q106 0 177 -54q66 -51 93 -140zM399 613l-14 -53l-258 44l36 126
z" />
    <glyph glyph-name="eacute" unicode="&#xe9;" horiz-adv-x="593" 
d="M309 181l-57 101l100 55q-25 21 -63 21q-24 0 -48 -30t-24 -62q0 -112 100 -112q39 0 72 19q25 15 56 48l113 -114q-48 -54 -115 -85q-70 -34 -145 -34q-115 0 -189 76t-74 193q0 107 79 183q76 72 174 72q106 0 177 -54q66 -51 93 -140zM433 730l36 -126l-258 -44
l-14 53z" />
    <glyph glyph-name="ecircumflex" unicode="&#xea;" horiz-adv-x="593" 
d="M309 181l-57 101l100 55q-25 21 -63 21q-24 0 -48 -30t-24 -62q0 -112 100 -112q39 0 72 19q25 15 56 48l113 -114q-48 -54 -115 -85q-70 -34 -145 -34q-115 0 -189 76t-74 193q0 107 79 183q76 72 174 72q106 0 177 -54q66 -51 93 -140zM258 558h-119l160 175l162 -175
h-119l-44 44z" />
    <glyph glyph-name="edieresis" unicode="&#xeb;" horiz-adv-x="593" 
d="M309 181l-57 101l100 55q-25 21 -63 21q-24 0 -48 -30t-24 -62q0 -112 100 -112q39 0 72 19q25 15 56 48l113 -114q-48 -54 -115 -85q-70 -34 -145 -34q-115 0 -189 76t-74 193q0 107 79 183q76 72 174 72q106 0 177 -54q66 -51 93 -140zM462 718q26 -26 26 -62t-26 -61
q-26 -26 -61 -26t-61 26q-26 25 -26 61t26 62q26 25 61 25t61 -25zM255 718q26 -26 26 -62t-26 -61q-26 -26 -61 -26t-61 26q-26 25 -26 61t26 62q26 25 61 25t61 -25z" />
    <glyph glyph-name="igrave" unicode="&#xec;" horiz-adv-x="278" 
d="M239 0h-200v500h200v-500zM241 613l-14 -53l-258 44l36 126z" />
    <glyph glyph-name="iacute" unicode="&#xed;" horiz-adv-x="278" 
d="M239 0h-200v500h200v-500zM275 730l36 -126l-258 -44l-14 53z" />
    <glyph glyph-name="icircumflex" unicode="&#xee;" horiz-adv-x="278" 
d="M239 0h-200v500h200v-500zM100 558h-119l160 175l162 -175h-119l-44 44z" />
    <glyph glyph-name="idieresis" unicode="&#xef;" horiz-adv-x="278" 
d="M239 0h-200v500h200v-500zM304 718q26 -26 26 -62t-26 -61q-26 -26 -61 -26t-61 26q-26 25 -26 61t26 62q26 25 61 25t61 -25zM97 718q26 -26 26 -62t-26 -61q-26 -26 -61 -26t-61 26q-26 25 -26 61t26 62q26 25 61 25t61 -25z" />
    <glyph glyph-name="eth" unicode="&#xf0;" horiz-adv-x="593" 
d="M411 598q66 -70 104 -151q44 -93 44 -187q0 -115 -77 -194q-77 -78 -186 -78q-107 0 -186 75q-77 73 -77 168q0 94 63 157q60 59 157 71q37 -71 63 -149q-5 2 -11 3q-5 1 -9 1q-65 0 -65 -64t65 -64t65 72t-29 144q-26 63 -74 126l-95 -43l-34 68l79 36q-31 35 -66 67
l148 44q28 -17 62 -46l100 46l34 -68z" />
    <glyph glyph-name="ntilde" unicode="&#xf1;" horiz-adv-x="537" 
d="M232 0h-200v300q0 92 60 150q64 62 176 62t177 -62q59 -58 59 -150v-300h-200v269q0 59 -36 59t-36 -59v-269zM386 704l75 -60l-17 -19q-1 -1 -2 -1l-6 -8q-17 -18 -29 -28q-35 -32 -68 -32q-18 0 -38 6q-15 4 -34 13l-30 13q-15 6 -24 6q-27 0 -56 -34l-78 59l23 29
q14 16 26 26q33 28 67 28q21 0 43 -6q17 -4 38 -13l31 -13q16 -6 25 -6q11 0 29 16z" />
    <glyph glyph-name="ograve" unicode="&#xf2;" horiz-adv-x="593" 
d="M231 250q0 -64 65 -64t65 64t-65 64t-65 -64zM482 435q77 -77 77 -185t-77 -185q-78 -77 -186 -77q-109 0 -186 77t-77 185q0 109 77 185q77 77 186 77q108 0 186 -77zM399 613l-14 -53l-258 44l36 126z" />
    <glyph glyph-name="oacute" unicode="&#xf3;" horiz-adv-x="593" 
d="M231 250q0 -64 65 -64t65 64t-65 64t-65 -64zM482 435q77 -77 77 -185t-77 -185q-78 -77 -186 -77q-109 0 -186 77t-77 185q0 109 77 185q77 77 186 77q108 0 186 -77zM433 730l36 -126l-258 -44l-14 53z" />
    <glyph glyph-name="ocircumflex" unicode="&#xf4;" horiz-adv-x="593" 
d="M231 250q0 -64 65 -64t65 64t-65 64t-65 -64zM482 435q77 -77 77 -185t-77 -185q-78 -77 -186 -77q-109 0 -186 77t-77 185q0 109 77 185q77 77 186 77q108 0 186 -77zM258 558h-119l160 175l162 -175h-119l-44 44z" />
    <glyph glyph-name="otilde" unicode="&#xf5;" horiz-adv-x="593" 
d="M231 250q0 -64 65 -64t65 64t-65 64t-65 -64zM482 435q77 -77 77 -185t-77 -185q-78 -77 -186 -77q-109 0 -186 77t-77 185q0 109 77 185q77 77 186 77q108 0 186 -77zM414 704l75 -60l-17 -19q-1 -1 -2 -1l-6 -8q-17 -18 -29 -28q-35 -32 -68 -32q-18 0 -38 6
q-15 4 -34 13l-30 13q-15 6 -24 6q-27 0 -56 -34l-78 59l23 29q14 16 26 26q33 28 67 28q21 0 43 -6q17 -4 38 -13l31 -13q16 -6 25 -6q11 0 29 16z" />
    <glyph glyph-name="odieresis" unicode="&#xf6;" horiz-adv-x="593" 
d="M231 250q0 -64 65 -64t65 64t-65 64t-65 -64zM482 435q77 -77 77 -185t-77 -185q-78 -77 -186 -77q-109 0 -186 77t-77 185q0 109 77 185q77 77 186 77q108 0 186 -77zM462 718q26 -26 26 -62t-26 -61q-26 -26 -61 -26t-61 26q-26 25 -26 61t26 62q26 25 61 25t61 -25z
M255 718q26 -26 26 -62t-26 -61q-26 -26 -61 -26t-61 26q-26 25 -26 61t26 62q26 25 61 25t61 -25z" />
    <glyph glyph-name="divide" unicode="&#xf7;" horiz-adv-x="600" 
d="M550 178h-500v134h500v-134zM365 514q27 -27 27 -64t-27 -64q-28 -27 -64 -27t-63 27q-28 27 -28 64t28 64q27 27 63 27t64 -27zM365 104q27 -27 27 -64t-27 -64q-28 -27 -64 -27t-63 27q-28 27 -28 64t28 64q27 27 63 27t64 -27z" />
    <glyph glyph-name="oslash" unicode="&#xf8;" horiz-adv-x="593" 
d="M231 250q0 -64 65 -64t65 64t-65 64t-65 -64zM422 556h125l-72 -115q84 -76 84 -191q0 -108 -77 -185q-78 -77 -186 -77q-49 0 -88 16l-41 -66h-125l75 121q-84 78 -84 191q0 109 77 185q77 77 186 77q46 0 91 -17z" />
    <glyph glyph-name="ugrave" unicode="&#xf9;" horiz-adv-x="537" 
d="M304 500h200v-300q0 -92 -59 -149q-65 -63 -177 -63t-176 63q-60 57 -60 149v300h200v-269q0 -59 36 -59t36 59v269zM371 613l-14 -53l-258 44l36 126z" />
    <glyph glyph-name="uacute" unicode="&#xfa;" horiz-adv-x="537" 
d="M304 500h200v-300q0 -92 -59 -149q-65 -63 -177 -63t-176 63q-60 57 -60 149v300h200v-269q0 -59 36 -59t36 59v269zM405 730l36 -126l-258 -44l-14 53z" />
    <glyph glyph-name="ucircumflex" unicode="&#xfb;" horiz-adv-x="537" 
d="M304 500h200v-300q0 -92 -59 -149q-65 -63 -177 -63t-176 63q-60 57 -60 149v300h200v-269q0 -59 36 -59t36 59v269zM230 558h-119l160 175l162 -175h-119l-44 44z" />
    <glyph glyph-name="udieresis" unicode="&#xfc;" horiz-adv-x="537" 
d="M304 500h200v-300q0 -92 -59 -149q-65 -63 -177 -63t-176 63q-60 57 -60 149v300h200v-269q0 -59 36 -59t36 59v269zM434 718q26 -26 26 -62t-26 -61q-26 -26 -61 -26t-61 26q-26 25 -26 61t26 62q26 25 61 25t61 -25zM227 718q26 -26 26 -62t-26 -61q-26 -26 -61 -26
t-61 26q-26 25 -26 61t26 62q26 25 61 25t61 -25z" />
    <glyph glyph-name="yacute" unicode="&#xfd;" horiz-adv-x="537" 
d="M363 -201h-194v199q-63 31 -97 77q-39 51 -39 116v309h199v-269q0 -59 36 -59t36 59v269h199v-301q0 -149 -140 -201v-199zM405 730l36 -126l-258 -44l-14 53z" />
    <glyph glyph-name="thorn" unicode="&#xfe;" 
d="M238 -201h-200v901h202v-197l36 7q24 2 37 2q109 0 183 -74q76 -76 76 -194q0 -110 -66 -182q-69 -74 -178 -74q-40 0 -68 4v197q29 -11 49 -11q28 0 50 19q23 21 23 53q0 72 -70 72q-74 0 -74 -88v-435z" />
    <glyph glyph-name="ydieresis" unicode="&#xff;" horiz-adv-x="537" 
d="M363 -201h-194v199q-63 31 -97 77q-39 51 -39 116v309h199v-269q0 -59 36 -59t36 59v269h199v-301q0 -149 -140 -201v-199zM434 718q26 -26 26 -62t-26 -61q-26 -26 -61 -26t-61 26q-26 25 -26 61t26 62q26 25 61 25t61 -25zM227 718q26 -26 26 -62t-26 -61
q-26 -26 -61 -26t-61 26q-26 25 -26 61t26 62q26 25 61 25t61 -25z" />
    <glyph glyph-name="dotlessi" unicode="&#x131;" horiz-adv-x="278" 
d="M239 0h-200v500h200v-500z" />
    <glyph glyph-name="Lslash" unicode="&#x141;" horiz-adv-x="444" 
d="M267 336v-68q0 -44 23 -56q24 -12 118 -12h41v-200h-192q-91 0 -149 57q-59 58 -59 149v84l-48 -10v184l48 11v225h218v-177l79 17v-187z" />
    <glyph glyph-name="lslash" unicode="&#x142;" horiz-adv-x="278" 
d="M239 296v-296h-200v253l-39 -9v184l39 9v263h200v-217l39 9v-188z" />
    <glyph glyph-name="OE" unicode="&#x152;" horiz-adv-x="1019" 
d="M974 434v-168h-224q19 -44 60 -64q33 -16 80 -16h84v-186h-98q-68 0 -120 16q-61 18 -113 60q-52 -42 -108 -64q-61 -24 -128 -24q-149 0 -256 106q-106 107 -106 256t106 256q107 106 256 106q146 0 232 -86q39 34 105 55q61 19 120 19h110v-186h-84q-47 0 -80 -16
q-41 -20 -60 -64h224zM308 449q-41 -41 -41 -99t41 -99t99 -41t99 41t41 99t-41 99t-99 41t-99 -41z" />
    <glyph glyph-name="oe" unicode="&#x153;" horiz-adv-x="926" 
d="M224 250q0 -64 65 -64t65 64t-65 64t-65 -64zM880 107q-53 -55 -117 -86q-69 -33 -144 -33q-95 0 -165 56q-70 -56 -165 -56q-109 0 -186 77t-77 185q0 109 77 185q77 77 186 77q92 0 166 -57q68 57 155 57q106 0 177 -54q66 -51 93 -140l-249 -137l-57 101l99 55
q-26 23 -62 23q-26 0 -51 -31q-24 -31 -24 -63q0 -47 29 -79q29 -33 74 -33q38 0 71 19q24 15 57 48z" />
    <glyph glyph-name="Scaron" unicode="&#x160;" horiz-adv-x="500" 
d="M23 200h133q81 0 81 33q0 15 -33 42l-73 57q-48 40 -73 77q-33 48 -33 99q0 103 72 152q60 40 164 40h200v-196h-133q-63 0 -63 -25q0 -13 35 -40l36 -27q25 -18 41 -31q50 -41 77 -80q35 -51 35 -107q0 -87 -65 -139q-69 -55 -190 -55h-211v200zM441 930l-190 -176
l-188 176h129l60 -60l58 60h131z" />
    <glyph glyph-name="scaron" unicode="&#x161;" horiz-adv-x="444" 
d="M396 500v-160h-116q-18 0 -18 -14q0 -11 24 -25l52 -29q33 -23 51 -50q24 -35 24 -83q0 -139 -176 -139h-207v168h120q39 0 39 19q0 12 -25 25q-4 3 -11 6l-14 7q-17 8 -28 15q-36 20 -54 45q-25 34 -25 82q0 60 49 98q46 35 108 35h207zM413 734l-190 -176l-188 176h129
l60 -60l58 60h131z" />
    <glyph glyph-name="Ydieresis" unicode="&#x178;" horiz-adv-x="556" 
d="M386 0h-216v246q-53 9 -95 52q-49 53 -49 132v270h218v-243q0 -31 34 -31t34 31v243h218v-270q0 -81 -49 -132q-40 -43 -95 -52v-246zM443 914q26 -26 26 -62t-26 -61q-26 -26 -61 -26t-61 26q-26 25 -26 61t26 62q26 25 61 25t61 -25zM236 914q26 -26 26 -62t-26 -61
q-26 -26 -61 -26t-61 26q-26 25 -26 61t26 62q26 25 61 25t61 -25z" />
    <glyph glyph-name="Zcaron" unicode="&#x17d;" horiz-adv-x="537" 
d="M528 200v-200h-369q-64 0 -104 31q-47 36 -47 108q0 28 7 46q9 26 36 59l215 256h-222v200h333q64 0 104 -31q47 -36 47 -108q0 -27 -7 -46q-9 -25 -36 -59l-205 -256h248zM460 930l-190 -176l-188 176h129l60 -60l58 60h131z" />
    <glyph glyph-name="zcaron" unicode="&#x17e;" horiz-adv-x="519" 
d="M488 168v-168h-311q-76 0 -110 20q-39 24 -39 82q0 48 44 89l152 141h-161v168h287q141 0 141 -100q0 -57 -58 -110l-130 -122h185zM451 734l-190 -176l-188 176h129l60 -60l58 60h131z" />
    <glyph glyph-name="florin" unicode="&#x192;" 
d="M27 -201l13 167q33 -12 69 -12q55 0 59 66l18 251h-100l12 152h103l14 126q9 78 68 122q55 41 139 41q27 0 64 -6l63 -12l-13 -167l-31 9q-19 4 -33 4q-38 0 -55 -33q-13 -28 -14 -84h99l-11 -152h-101l-27 -335q-6 -78 -80 -120q-60 -34 -144 -34q-24 0 -57 6z" />
    <glyph glyph-name="circumflex" unicode="&#x2c6;" horiz-adv-x="278" 
d="M100 558h-119l160 175l162 -175h-119l-44 44z" />
    <glyph glyph-name="caron" unicode="&#x2c7;" horiz-adv-x="278" 
d="M330 734l-190 -176l-188 176h129l60 -60l58 60h131z" />
    <glyph glyph-name="uni02C9" unicode="&#x2c9;" horiz-adv-x="278" 
d="M-31 594v96h344v-96h-344z" />
    <glyph glyph-name="breve" unicode="&#x2d8;" horiz-adv-x="278" 
d="M57 712q2 -36 24 -57q23 -23 57 -23q76 0 87 80h90q-2 -73 -53 -123q-51 -49 -124 -49q-75 0 -121 49q-45 47 -50 123h90z" />
    <glyph glyph-name="dotaccent" unicode="&#x2d9;" horiz-adv-x="278" 
d="M200 718q26 -26 26 -62t-26 -61q-26 -26 -61 -26t-61 26q-26 25 -26 61t26 62q26 25 61 25t61 -25z" />
    <glyph glyph-name="ring" unicode="&#x2da;" horiz-adv-x="278" 
d="M211 715q30 -30 30 -72t-30 -72q-30 -29 -72 -29t-72 29q-30 30 -30 72t30 72q30 29 72 29t72 -29zM111 643q0 -27 28 -27t28 27t-28 27t-28 -27z" />
    <glyph glyph-name="ogonek" unicode="&#x2db;" horiz-adv-x="278" 
d="M165 -209q-29 -9 -73 -9q-95 0 -95 84q0 41 48 76q54 40 151 54v-18q-67 -22 -93 -53q-9 -12 -13 -25q-2 -5 -2 -11q-1 -4 -1 -9q0 -32 39 -32q23 0 39 4v-61z" />
    <glyph glyph-name="tilde" unicode="&#x2dc;" horiz-adv-x="278" 
d="M256 704l75 -60l-17 -19q-1 -1 -2 -1l-6 -8q-17 -18 -29 -28q-35 -32 -68 -32q-18 0 -38 6q-15 4 -34 13l-30 13q-15 6 -24 6q-27 0 -56 -34l-78 59l23 29q14 16 26 26q33 28 67 28q21 0 43 -6q17 -4 38 -13l31 -13q16 -6 25 -6q11 0 29 16z" />
    <glyph glyph-name="hungarumlaut" unicode="&#x2dd;" horiz-adv-x="278" 
d="M97 799l77 -107l-227 -129l-31 45zM326 782l67 -113l-237 -109l-27 48z" />
    <glyph glyph-name="uni03A9" unicode="&#x3a9;" horiz-adv-x="764" 
d="M162 156q-50 43 -80 97q-39 69 -39 148q0 124 90 213q97 95 250 95q80 0 147 -28q60 -26 105 -73q83 -88 83 -201q0 -79 -37 -147q-31 -57 -85 -104v-3h136v-153h-322v115q50 31 76 84q31 64 31 166q0 187 -134 187q-61 0 -99 -52q-40 -53 -40 -142q0 -190 108 -243v-115
h-323v153h133v3z" />
    <glyph glyph-name="uni03BC" unicode="&#x3bc;" horiz-adv-x="537" 
d="M304 500h200v-300q0 -92 -59 -149q-65 -63 -177 -63q-19 0 -36 3v-192h-200v701h200v-269q0 -59 36 -59t36 59v269z" />
    <glyph glyph-name="pi" unicode="&#x3c0;" horiz-adv-x="683" 
d="M597 370v-211q0 -97 12 -159h-193q-10 17 -15 62q-4 37 -4 89v219h-95q-2 -81 -15 -183q-8 -54 -17 -100q-11 -51 -23 -87h-193q23 91 39 197q15 109 14 173q-28 0 -47 -1q-26 -2 -43 -6l-18 125q41 41 199 41h476l-14 -159h-63z" />
    <glyph glyph-name="endash" unicode="&#x2013;" horiz-adv-x="500" 
d="M500 181h-500v138h500v-138z" />
    <glyph glyph-name="emdash" unicode="&#x2014;" horiz-adv-x="1000" 
d="M0 181v138h1000v-138h-1000z" />
    <glyph glyph-name="quoteleft" unicode="&#x2018;" horiz-adv-x="315" 
d="M251 700l-51 -236h-157l96 236h112z" />
    <glyph glyph-name="quoteright" unicode="&#x2019;" horiz-adv-x="315" 
d="M64 464l51 236h157l-96 -236h-112z" />
    <glyph glyph-name="quotesinglbase" unicode="&#x201a;" horiz-adv-x="315" 
d="M252 164l-66 -236h-112l20 236h158z" />
    <glyph glyph-name="quotedblleft" unicode="&#x201c;" horiz-adv-x="444" 
d="M223 464l66 236h112l-20 -236h-158zM30 464l66 236h112l-20 -236h-158z" />
    <glyph glyph-name="quotedblright" unicode="&#x201d;" horiz-adv-x="444" 
d="M221 700l-66 -236h-112l20 236h158zM414 700l-66 -236h-112l20 236h158z" />
    <glyph glyph-name="quotedblbase" unicode="&#x201e;" horiz-adv-x="444" 
d="M218 164l-66 -236h-112l20 236h158zM411 164l-66 -236h-112l20 236h158z" />
    <glyph glyph-name="dagger" unicode="&#x2020;" horiz-adv-x="500" 
d="M33 284v220l152 -42l-60 238h250l-60 -238l152 42v-220l-152 38l37 -86l-20 -65q-9 -31 -14 -55q-11 -54 -11 -126q0 -96 3 -194h-121l3 97q1 54 1 97q0 73 -11 126q-5 24 -14 55q-6 20 -21 65l38 86z" />
    <glyph glyph-name="daggerdbl" unicode="&#x2021;" horiz-adv-x="500" 
d="M471 521v-201l-162 41q10 -54 37 -113q-27 -59 -37 -113l162 41v-201l-162 41l57 -220h-230l57 220l-162 -41v201l162 -41q-10 54 -37 113q27 59 37 113l-162 -41v201l162 -41l-57 220h230l-57 -220z" />
    <glyph glyph-name="bullet" unicode="&#x2022;" horiz-adv-x="500" 
d="M374 474q51 -51 51 -124t-51 -124t-124 -51t-124 51t-51 124t51 124t124 51t124 -51z" />
    <glyph glyph-name="ellipsis" unicode="&#x2026;" horiz-adv-x="1000" 
d="M252 193q35 -35 35 -85t-35 -85t-85 -35t-85 35t-35 85t35 85t85 35t85 -35zM585 193q35 -35 35 -85t-35 -85t-85 -35t-85 35t-35 85t35 85t85 35t85 -35zM918 193q35 -35 35 -85t-35 -85t-85 -35t-85 35t-35 85t35 85t85 35t85 -35z" />
    <glyph glyph-name="perthousand" unicode="&#x2030;" horiz-adv-x="1167" 
d="M918 166q0 -48 49 -48t49 48t-49 48t-49 -48zM93 -12l477 724h104l-481 -724h-100zM151 534q0 -48 49 -48t49 48t-49 48t-49 -48zM1094 292q52 -52 52 -126t-52 -126q-53 -52 -127 -52t-127 52q-52 52 -52 126t52 126q53 52 127 52t127 -52zM327 660q52 -52 52 -126
t-52 -126q-53 -52 -127 -52t-127 52q-52 52 -52 126t52 126q53 52 127 52t127 -52zM699 292q52 -52 52 -126t-52 -126q-53 -52 -127 -52t-127 52q-52 52 -52 126t52 126q53 52 127 52t127 -52zM523 166q0 -48 49 -48t49 48t-49 48t-49 -48z" />
    <glyph glyph-name="guilsinglleft" unicode="&#x2039;" horiz-adv-x="315" 
d="M175 250l119 -127h-154l-118 127l118 127h154z" />
    <glyph glyph-name="guilsinglright" unicode="&#x203a;" horiz-adv-x="315" 
d="M140 250l-119 127h154l118 -127l-118 -127h-154z" />
    <glyph glyph-name="fraction" unicode="&#x2044;" horiz-adv-x="167" 
d="M-66 -12h-101l400 724h101z" />
    <glyph glyph-name="Euro" unicode="&#x20ac;" 
d="M365 239q48 -59 136 -59h65v-180h-115q-110 0 -199 66q-88 66 -122 173h-81v95h64v15q0 17 1 25h-65v95h84q35 104 123 167q87 64 195 64h115v-180h-65q-78 0 -126 -51h121v-95h-165q-2 -16 -2 -25l1 -15h166v-95h-131z" />
    <glyph glyph-name="uni2113" unicode="&#x2113;" horiz-adv-x="597" 
d="M579 148q-46 -86 -120 -125q-60 -33 -135 -33q-90 0 -143 38q-48 35 -66 101q0 5 -1 8l-46 -31l-48 98l46 33q28 20 45 34v213q0 282 221 282q87 0 134 -58q42 -52 42 -138q0 -82 -54 -163q-48 -74 -152 -164l1 -41q8 -56 70 -56q34 0 70 26q32 22 59 58zM302 410
q79 90 79 168q0 56 -36 56q-20 0 -30 -26q-13 -33 -13 -107v-91z" />
    <glyph glyph-name="trademark" unicode="&#x2122;" horiz-adv-x="1000" 
d="M380 700v-90h-112v-322h-120v322h-112v90h344zM630 700l89 -238l89 238h156v-412h-108v270h-2l-91 -270h-88l-91 270h-2v-270h-108v412h156z" />
    <glyph glyph-name="Omega" unicode="&#x2126;" horiz-adv-x="764" 
d="M162 156q-50 43 -80 97q-39 69 -39 148q0 124 90 213q97 95 250 95q80 0 147 -28q60 -26 105 -73q83 -88 83 -201q0 -79 -37 -147q-31 -57 -85 -104v-3h136v-153h-322v115q50 31 76 84q31 64 31 166q0 187 -134 187q-61 0 -99 -52q-40 -53 -40 -142q0 -190 108 -243v-115
h-323v153h133v3z" />
    <glyph glyph-name="estimated" unicode="&#x212e;" horiz-adv-x="873" 
d="M187 340q-5 0 -5 -4v-197q0 -13 8 -23q104 -107 246 -107q155 0 260 120h57q-117 -140 -318 -140q-166 0 -283 105q-118 106 -118 255q0 151 118 257q117 106 283 106q167 0 285 -106t118 -257v-9h-651zM690 564q0 14 -9 23q-106 103 -245 103q-141 0 -245 -106
q-9 -9 -9 -25v-193q0 -7 5 -7h499q4 0 4 7v198z" />
    <glyph glyph-name="partialdiff" unicode="&#x2202;" horiz-adv-x="648" 
d="M56 730q15 10 31 18q22 12 47 21q30 11 63 17q39 7 80 7q141 0 232 -102q95 -107 95 -285q0 -194 -92 -306q-89 -108 -238 -108q-59 0 -108 24q-44 22 -76 61q-60 72 -60 160q0 119 66 194q65 74 171 74q52 0 95 -25q17 -10 30 -23q11 -10 18 -20h1v19q0 66 -39 119
q-46 61 -123 61q-44 0 -86 -16q-16 -6 -32 -15l-13 -7q-5 -3 -10 -7zM297 149q37 0 66 52q24 42 31 93q-4 19 -24 38q-25 23 -58 23q-40 0 -64 -39q-22 -35 -22 -86q0 -81 69 -81h2z" />
    <glyph glyph-name="Delta" unicode="&#x2206;" horiz-adv-x="718" 
d="M21 100l222 609h239l212 -606v-103h-673v100zM476 153l-77 210l-36 125q-6 21 -9 35h-3l-42 -148l-79 -222h246z" />
    <glyph glyph-name="product" unicode="&#x220f;" horiz-adv-x="791" 
d="M668 527v-623h-194v623h-157v-623h-195v623h-101v170h749v-170h-102z" />
    <glyph glyph-name="summation" unicode="&#x2211;" horiz-adv-x="607" 
d="M23 -96v115l225 281l-217 266v131h541v-162h-277v-3l174 -203l-199 -249v-4h323v-172h-570z" />
    <glyph glyph-name="minus" unicode="&#x2212;" horiz-adv-x="600" 
d="M550 183h-500v134h500v-134z" />
    <glyph glyph-name="uni2215" unicode="&#x2215;" horiz-adv-x="167" 
d="M-66 -12h-101l400 724h101z" />
    <glyph glyph-name="uni2219" unicode="&#x2219;" horiz-adv-x="305" 
d="M237 335q35 -35 35 -85t-35 -85t-85 -35t-85 35t-35 85t35 85t85 35t85 -35z" />
    <glyph glyph-name="radical" unicode="&#x221a;" horiz-adv-x="659" 
d="M435 -135h-149l-151 410l-77 -31l-30 99l220 91l88 -268q5 -22 14 -53l13 -47q2 8 4 22q0 3 1 6l15 82l166 666h134z" />
    <glyph glyph-name="infinity" unicode="&#x221e;" horiz-adv-x="799" 
d="M753 287q0 -88 -54 -143q-50 -50 -121 -50q-22 0 -40 3q-23 4 -44 15q-51 25 -95 91q-41 -55 -80 -80q-45 -29 -103 -29q-69 0 -119 50q-53 53 -53 136q0 84 53 138q51 52 129 52q105 0 179 -103l27 31q19 21 37 34q51 39 114 38q70 -1 119 -49q51 -52 51 -133v-1z
M229 191q33 0 64 25q24 19 54 60l-14 20q-7 12 -13 19q-14 20 -26 31q-29 28 -68 28q-83 0 -83 -94q0 -36 25 -62q25 -27 59 -27h2zM572 374q-35 0 -68 -31q-13 -11 -28 -29l-23 -30q40 -56 67 -76q25 -17 59 -17t56 31q19 26 19 57q0 95 -81 95h-1z" />
    <glyph glyph-name="integral" unicode="&#x222b;" horiz-adv-x="448" 
d="M411 737q-21 7 -38 7q-36 0 -53 -29q-12 -17 -16 -59q-4 -34 -4 -96q0 -56 3 -114l11 -209q3 -64 3 -129q0 -132 -31 -197q-25 -51 -74 -75q-42 -22 -95 -22q-61 0 -95 16l20 131q22 -8 44 -8q31 0 45 18q22 30 22 135q0 67 -3 133l-12 218q-3 62 -3 122q0 167 71 242
q50 53 148 53q46 0 72 -10z" />
    <glyph glyph-name="approxequal" unicode="&#x2248;" horiz-adv-x="568" 
d="M536 417q-65 -112 -153 -112q-52 0 -113 38l-20 13q-10 6 -19 10q-21 10 -43 10q-29 0 -54 -22q-10 -9 -22 -23l-20 -25l-64 64q25 46 68 76q48 34 97 34q33 0 61 -10q11 -4 23 -10l10 -6q4 -3 10 -6q59 -38 83 -38q25 0 49 20q17 15 42 50zM536 208q-66 -112 -154 -112
q-51 0 -112 38l-21 14l-19 10q-20 9 -42 9q-29 0 -54 -22q-10 -8 -21 -22q-5 -5 -11 -13l-10 -13l-64 64q25 45 69 76q47 34 96 34q32 0 60 -10q11 -4 23 -10q5 -2 10 -5l51 -32q22 -12 42 -12q27 0 49 20q16 13 43 50z" />
    <glyph glyph-name="notequal" unicode="&#x2260;" horiz-adv-x="568" 
d="M401 449h120v-105h-161l-51 -122h212v-105h-253l-48 -113l-83 34l34 79h-124v105h164l52 122h-216v105h256l47 110l84 -34z" />
    <glyph glyph-name="lessequal" unicode="&#x2264;" horiz-adv-x="568" 
d="M50 336v114l468 222v-119l-364 -159v-2l365 -159v-119zM48 -27v108h475v-108h-475z" />
    <glyph glyph-name="greaterequal" unicode="&#x2265;" horiz-adv-x="568" 
d="M521 450v-114l-468 -222v119l364 160v2l-365 158v119zM49 -27v108h470v-108h-470z" />
    <glyph glyph-name="lozenge" unicode="&#x25ca;" horiz-adv-x="658" 
d="M402 -52h-153l-203 400l209 400h153l204 -400zM350 540q-7 18 -11 30q-6 18 -8 30h-3q-6 -23 -20 -60l-94 -189l95 -201q12 -33 17 -56h4l4 13q2 9 5 16q2 9 5 15q2 7 4 10l95 196z" />
    </font>
</defs>
</svg>
