<?xml version="1.0" standalone="no"?>
<!DOCTYPE svg PUBLIC "-//W3C//DTD SVG 1.1//EN" "http://www.w3.org/Graphics/SVG/1.1/DTD/svg11.dtd" >
<svg xmlns="http://www.w3.org/2000/svg" xmlns:xlink="http://www.w3.org/1999/xlink" version="1.1">
<metadata>
Created by FontForge 20170731 at Wed Jun  8 18:01:30 2011
 By Aleksey,,,
</metadata>
<defs>
<font id="fatten-demi" horiz-adv-x="556" >
  <font-face 
    font-family="fatten-demi"
    font-weight="600"
    font-stretch="normal"
    units-per-em="1000"
    panose-1="0 0 7 0 0 0 0 0 0 0"
    ascent="700"
    descent="-300"
    x-height="486"
    cap-height="700"
    bbox="-167 -228 1000 952"
    underline-thickness="50"
    underline-position="-150"
    unicode-range="U+0020-FB02"
  />
<missing-glyph horiz-adv-x="500" 
d="M0 700h500v-700h-500v700zM420 650h-340l170 -255zM450 95v510l-170 -255zM420 50l-170 255l-170 -255h340zM50 95l170 255l-170 255v-510z" />
    <glyph glyph-name="uniFB01" unicode="fi" horiz-adv-x="500" 
d="M174 0h-128v488q0 94 37 147q44 65 140 65h51v-128h-50q-50 0 -50 -49v-37h100v-124h-100v-362zM450 0h-128v486h128v-486zM462 631q0 -81 -76 -81t-76 81t76 81t76 -81z" />
    <glyph glyph-name="uniFB02" unicode="fl" horiz-adv-x="500" 
d="M174 0h-128v488q0 94 37 147q44 65 140 65h51v-128h-50q-50 0 -50 -49v-37h100v-124h-100v-362zM450 0h-128v700h128v-700z" />
    <glyph glyph-name=".notdef" horiz-adv-x="500" 
d="M0 700h500v-700h-500v700zM420 650h-340l170 -255zM450 95v510l-170 -255zM420 50l-170 255l-170 -255h340zM50 95l170 255l-170 255v-510z" />
    <glyph glyph-name=".null" horiz-adv-x="0" 
 />
    <glyph glyph-name="nonmarkingreturn" horiz-adv-x="333" 
 />
    <glyph glyph-name="space" unicode=" " horiz-adv-x="278" 
 />
    <glyph glyph-name="exclam" unicode="!" horiz-adv-x="278" 
d="M222 79q0 -83 -83 -83t-83 83t83 83t83 -83zM58 712h162l-13 -511h-136z" />
    <glyph glyph-name="quotedbl" unicode="&#x22;" horiz-adv-x="333" 
d="M198 429v271h112v-271h-112zM24 429v271h112v-271h-112z" />
    <glyph glyph-name="numbersign" unicode="#" 
d="M309 200h-96l-28 -200h-97l27 200h-87l3 90h97l17 120h-88l3 90h97l28 200h97l-27 -200h96l28 200h97l-27 -200h79l-3 -90h-88l-17 -120h79l-3 -90h-89l-28 -200h-97zM339 410h-96l-17 -120h96z" />
    <glyph glyph-name="dollar" unicode="$" 
d="M236 -32v122h-136v122h176q50 0 50 39q0 25 -37 56q-14 11 -38 27l-44 30q-26 18 -44 33q-22 19 -38 37q-37 45 -37 93q0 146 148 161v104h88v-104h109v-116h-161q-50 0 -50 -38q0 -21 37 -48q13 -10 38 -26q2 -2 6 -4l38 -25q25 -17 44 -32q22 -19 38 -38q37 -46 37 -97
q0 -146 -136 -174v-122h-88z" />
    <glyph glyph-name="percent" unicode="%" horiz-adv-x="889" 
d="M209 444q79 0 79 79t-79 79t-79 -79t79 -79zM82 648q51 52 127 52t127 -52q50 -51 50 -125t-50 -125q-51 -52 -127 -52t-127 52q-50 51 -50 125t50 125zM699 700l-450 -701h-89l453 701h86zM520 302q51 52 127 52t127 -52q50 -51 50 -125t-50 -125q-51 -52 -127 -52
t-127 52q-50 51 -50 125t50 125zM647 98q79 0 79 79t-79 79t-79 -79t79 -79z" />
    <glyph glyph-name="ampersand" unicode="&#x26;" horiz-adv-x="778" 
d="M284 402q-62 -47 -62 -131q0 -61 42 -104q41 -43 99 -43q74 0 114 45zM567 700v-140h-249l230 -275h2q0 50 -11 84q-13 40 -45 69l97 92q49 -48 74 -99q29 -58 29 -120q0 -84 -42 -151l130 -160h-173l-41 56q-79 -68 -202 -68q-128 0 -211 80q-85 81 -85 208
q0 146 127 226q-37 37 -37 91q0 107 130 107h277z" />
    <glyph glyph-name="quotesingle" unicode="'" horiz-adv-x="222" 
d="M55 429v271h112v-271h-112z" />
    <glyph glyph-name="parenleft" unicode="(" horiz-adv-x="444" 
d="M318 -228q-108 84 -166 210q-56 121 -56 260t56 261q58 125 166 209l74 -76q-188 -153 -188 -394t188 -394z" />
    <glyph glyph-name="parenright" unicode=")" horiz-adv-x="444" 
d="M126 712q108 -84 166 -209q56 -122 56 -261t-56 -260q-58 -126 -166 -210l-74 76q188 153 188 394t-188 394z" />
    <glyph glyph-name="asterisk" unicode="*" horiz-adv-x="500" 
d="M120 384l-51 94l137 43v2l-138 43l57 92l102 -95l2 2l-28 135h99l-28 -135l2 -2l102 95l57 -92l-138 -43v-2l137 -43l-51 -94l-105 96l-2 -2l30 -138h-107l30 138l-2 2z" />
    <glyph glyph-name="plus" unicode="+" horiz-adv-x="600" 
d="M246 297v189h108v-189h188v-108h-188v-189h-108v189h-188v108h188z" />
    <glyph glyph-name="comma" unicode="," horiz-adv-x="278" 
d="M117 -174h-101l58 302h144z" />
    <glyph glyph-name="hyphen" unicode="-" horiz-adv-x="333" 
d="M282 187h-231v112h231v-112z" />
    <glyph glyph-name="period" unicode="." horiz-adv-x="278" 
d="M222 79q0 -83 -83 -83t-83 83t83 83t83 -83z" />
    <glyph glyph-name="slash" unicode="/" horiz-adv-x="278" 
d="M81 -12h-109l224 724h109z" />
    <glyph glyph-name="zero" unicode="0" 
d="M373 480q0 92 -95 92t-95 -92v-260q0 -92 95 -92t95 92v260zM35 480q0 100 65 165q67 67 178 67t178 -67q65 -65 65 -165v-260q0 -100 -65 -165q-67 -67 -178 -67t-178 67q-65 65 -65 165v260z" />
    <glyph glyph-name="one" unicode="1" 
d="M104 566v134h252v-700h-144v566h-108z" />
    <glyph glyph-name="two" unicode="2" 
d="M518 138v-138h-383q-48 0 -75 18q-32 21 -32 66q0 35 17 61q16 24 81 88l145 144q41 41 58 65q23 33 23 62q0 25 -22 46q-24 24 -62 24t-62 -23q-22 -22 -22 -51q0 -78 59 -90l-102 -102q-101 56 -101 188q0 92 66 155q66 61 162 61t162 -61q66 -63 66 -155
q0 -67 -28 -116q-13 -22 -34 -46q-17 -18 -46 -45l-162 -151h292z" />
    <glyph glyph-name="three" unicode="3" 
d="M30 144h212q46 0 71 18q29 20 29 65t-29 66q-25 17 -71 17h-136v90l204 166h-268v134h292q68 0 105 -32q33 -29 33 -72q0 -32 -15 -59q-12 -23 -37 -45q-10 -9 -24 -19l-24 -18q-33 -24 -48 -38q80 -14 130 -67q52 -55 52 -135q0 -112 -74 -167q-65 -48 -179 -48h-223
v144z" />
    <glyph glyph-name="four" unicode="4" 
d="M258 700h145l-253 -418h168v196l130 221q6 10 7 10t1 -9v-418h67v-134h-67v-148h-138v148h-209q-40 0 -67 24q-30 27 -30 72q0 29 13 60q8 20 25 48z" />
    <glyph glyph-name="five" unicode="5" 
d="M456 700v-134h-248v-112h88q82 0 145 -57q71 -65 71 -170t-71 -170q-63 -57 -145 -57h-247v140h191q56 0 81 16q33 21 33 74t-33 74q-25 16 -81 16h-176v380h392z" />
    <glyph glyph-name="six" unicode="6" 
d="M252 700h170l-216 -387q-26 -46 -26 -79q0 -98 98 -98t98 98t-105 104l71 132q82 -20 132 -86q50 -65 50 -150q0 -107 -69 -176q-69 -70 -177 -70t-177 70q-69 69 -69 176q0 36 17 83q14 37 39 83z" />
    <glyph glyph-name="seven" unicode="7" 
d="M60 560v140h322q48 0 81 -23t33 -59q0 -24 -7 -55q-5 -21 -15 -52l-170 -511h-160l201 560h-285z" />
    <glyph glyph-name="eight" unicode="8" 
d="M455 46q-65 -58 -177 -58t-177 58q-69 61 -69 172q0 113 107 164q-83 38 -83 138q0 89 67 143q62 49 157 49q92 0 153 -49q65 -54 65 -143q0 -101 -81 -138q107 -51 107 -164q0 -111 -69 -172zM278 118q42 0 70 29q28 28 28 69t-28 69q-28 29 -70 29q-98 0 -98 -98
t98 -98zM194 513q0 -83 82 -83q84 0 84 83t-84 83q-82 0 -82 -83z" />
    <glyph glyph-name="nine" unicode="9" 
d="M304 0h-170l216 387q26 46 26 79q0 98 -98 98t-98 -98t105 -104l-71 -132q-82 20 -132 86q-50 65 -50 150q0 107 69 176q69 70 177 70t177 -70q69 -69 69 -176q0 -36 -17 -83q-14 -37 -39 -83z" />
    <glyph glyph-name="colon" unicode=":" horiz-adv-x="278" 
d="M222 79q0 -83 -83 -83t-83 83t83 83t83 -83zM222 381q0 -83 -83 -83t-83 83t83 83t83 -83z" />
    <glyph glyph-name="semicolon" unicode=";" horiz-adv-x="278" 
d="M117 -174h-101l58 302h144zM222 381q0 -83 -83 -83t-83 83t83 83t83 -83z" />
    <glyph glyph-name="less" unicode="&#x3c;" horiz-adv-x="600" 
d="M542 385l-349 -142l349 -142v-101l-484 201v84l484 201v-101z" />
    <glyph glyph-name="equal" unicode="=" horiz-adv-x="600" 
d="M542 402v-108h-484v108h484zM542 192v-108h-484v108h484z" />
    <glyph glyph-name="greater" unicode="&#x3e;" horiz-adv-x="600" 
d="M58 101l349 142l-349 142v101l484 -201v-84l-484 -201v101z" />
    <glyph glyph-name="question" unicode="?" horiz-adv-x="500" 
d="M314 204h-138v202q89 0 123 24q27 19 27 64q0 80 -87 80q-29 0 -54 -23q-21 -21 -32 -51l-136 34q20 79 81 128q62 50 143 50q107 0 171 -62q64 -63 64 -170q0 -68 -47 -123q-48 -55 -115 -64v-89zM323 79q0 -83 -83 -83t-83 83t83 83t83 -83z" />
    <glyph glyph-name="at" unicode="@" horiz-adv-x="800" 
d="M411 438q-43 0 -74 -37q-29 -35 -29 -78q0 -83 74 -83q46 0 77 37q29 35 29 81q0 80 -77 80zM527 526h88l-49 -237q0 -2 -2 -8l-2 -9q-2 -11 -2 -19q0 -21 14 -21q37 0 66 40q32 45 32 118q0 114 -73 179q-70 61 -185 61q-121 0 -195 -80q-73 -78 -73 -201
q0 -127 80 -204q78 -75 204 -75q111 0 192 68h90q-106 -150 -290 -150q-157 0 -265 102q-111 104 -111 259q0 153 109 259q108 104 262 104q135 0 233 -80q104 -85 104 -215q0 -75 -30 -134q-25 -50 -70 -87q-37 -30 -82 -46q-37 -14 -64 -14q-51 0 -53 51l-2 1
q-46 -52 -97 -52q-63 0 -110 52q-48 51 -48 120q0 92 55 159q58 71 146 71q77 0 117 -60z" />
    <glyph glyph-name="A" unicode="A" horiz-adv-x="611" 
d="M210 0h-156v456q0 104 57 174q68 82 194 82t194 -82q58 -70 58 -174v-456h-156v252h-152v136h152v94q0 94 -96 94q-51 0 -74 -27q-21 -24 -21 -67v-482z" />
    <glyph glyph-name="B" unicode="B" 
d="M192 0h-140v462q0 128 64 191q60 59 169 59q90 0 150 -57q61 -58 61 -147q0 -91 -70 -134q96 -48 96 -169q0 -89 -52 -146q-53 -59 -139 -59h-102v140h79q66 0 66 78q0 81 -76 81h-69v122h37q82 0 82 73q0 78 -74 78q-82 0 -82 -96v-476z" />
    <glyph glyph-name="C" unicode="C" horiz-adv-x="500" 
d="M476 700v-140h-108q-74 0 -129 -68q-53 -65 -53 -142t53 -142q55 -68 129 -68h108v-140h-116q-132 0 -228 96q-102 101 -102 254t102 255q96 95 228 95h116z" />
    <glyph glyph-name="D" unicode="D" horiz-adv-x="667" 
d="M208 0h-148v700h250q115 0 213 -92q51 -49 80 -112q31 -70 31 -152q0 -151 -101 -249q-98 -95 -241 -95h-42v140h42q78 0 137 65q57 62 57 140q0 100 -64 160q-60 55 -152 55h-62v-560z" />
    <glyph glyph-name="E" unicode="E" horiz-adv-x="500" 
d="M449 700v-140h-90q-78 0 -127 -47q-42 -40 -52 -98h269v-130h-269q10 -58 52 -98q49 -47 127 -47h90v-140h-77q-87 0 -155 31q-63 28 -107 80q-82 96 -82 239t82 240q44 51 107 80q68 30 155 30h77z" />
    <glyph glyph-name="F" unicode="F" horiz-adv-x="444" 
d="M192 0h-148v480q0 99 50 157q54 63 152 63h161v-140h-126q-89 0 -89 -84v-74h215v-140h-215v-262z" />
    <glyph glyph-name="G" unicode="G" horiz-adv-x="778" 
d="M582 495q-68 77 -181 77q-93 0 -154 -65q-59 -63 -59 -153t59 -153q61 -65 154 -65q65 0 121 45q55 44 66 104h-194v130h350v-95q0 -119 -89 -218q-48 -52 -111 -82q-71 -32 -155 -32q-154 0 -257 107q-100 105 -100 255t100 255q103 107 257 107q79 0 148 -24
q80 -28 139 -85z" />
    <glyph glyph-name="H" unicode="H" horiz-adv-x="611" 
d="M210 0h-148v700h148v-252h190v252h148v-700h-148v308h-190v-308z" />
    <glyph glyph-name="I" unicode="I" horiz-adv-x="278" 
d="M213 0h-148v700h148v-700z" />
    <glyph glyph-name="J" unicode="J" horiz-adv-x="333" 
d="M5 148q74 0 99 22q24 21 24 85v445h148v-442q0 -151 -67 -208q-59 -50 -204 -50v148z" />
    <glyph glyph-name="K" unicode="K" 
d="M202 0h-148v700h148v-262q50 0 70 14q16 11 31 47l86 201h162l-83 -184q-9 -21 -15 -33q-10 -19 -20 -32q-24 -35 -56 -46v-2q64 -5 104 -42q41 -38 41 -97v-264h-148v234q0 68 -64 68h-108v-302z" />
    <glyph glyph-name="L" unicode="L" horiz-adv-x="389" 
d="M56 700h148v-470q0 -82 76 -82h111v-148h-147q-89 0 -136 47q-52 53 -52 163v490z" />
    <glyph glyph-name="M" unicode="M" horiz-adv-x="833" 
d="M175 0h-155l69 564q9 72 36 107q30 41 87 41q106 0 129 -104l75 -331h2l73 331q23 104 129 104q57 0 87 -41q27 -35 36 -107l69 -564h-159l-49 542h-2l-127 -504q-11 -44 -64 -44q-54 0 -64 44l-116 504h-2z" />
    <glyph glyph-name="N" unicode="N" horiz-adv-x="667" 
d="M205 0h-148v610q0 102 102 102q48 0 82 -33q13 -13 25 -33q10 -15 20 -36l172 -359h3v449h148v-611q0 -45 -18 -71q-21 -30 -65 -30q-43 0 -71 27q-22 22 -50 78l-198 409l-2 -2v-500z" />
    <glyph glyph-name="O" unicode="O" horiz-adv-x="778" 
d="M646 605q100 -105 100 -255t-100 -255q-103 -107 -257 -107t-257 107q-100 105 -100 255t100 255q103 107 257 107t257 -107zM235 503q-55 -62 -55 -153t55 -153q59 -65 154 -65t154 65q55 62 55 153t-55 153q-59 65 -154 65t-154 -65z" />
    <glyph glyph-name="P" unicode="P" 
d="M197 0h-148v473q0 100 65 168q68 71 178 71q107 0 176 -70q67 -68 67 -169t-65 -169q-68 -70 -178 -70h-54v140q73 0 106 16q43 22 43 82q0 100 -95 100t-95 -100v-472z" />
    <glyph glyph-name="Q" unicode="Q" horiz-adv-x="778" 
d="M462 -102h-128v344h128v-96q54 10 95 73q41 62 41 131q0 91 -55 153q-59 65 -154 65t-154 -65q-55 -62 -55 -153q0 -126 109 -194v-156q-113 34 -184 127q-73 97 -73 223q0 150 100 255q103 107 257 107t257 -107q99 -104 100 -255q1 -133 -80 -232q-80 -98 -204 -124
v-96z" />
    <glyph glyph-name="R" unicode="R" 
d="M200 0h-148v480q0 43 12 81q14 43 41 75q30 35 76 55q51 21 119 21q100 0 160 -66q54 -60 54 -142q0 -104 -87 -145q60 -23 80 -61q17 -32 17 -99v-199h-148v198q0 80 -79 80h-56v130q57 0 87 15q38 20 38 67q0 82 -83 82t-83 -82v-490z" />
    <glyph glyph-name="S" unicode="S" horiz-adv-x="500" 
d="M441 700v-130h-200q-52 0 -52 -53q0 -20 43 -54l96 -67q30 -22 51 -40q27 -22 45 -44q43 -50 43 -100q0 -87 -41 -143q-52 -69 -157 -69h-234v140h230q46 0 46 50q0 24 -43 57l-96 67q-30 21 -51 40q-27 23 -45 46q-43 54 -43 114q0 90 57 142q50 44 117 44h234z" />
    <glyph glyph-name="T" unicode="T" horiz-adv-x="444" 
d="M148 0v560h-152v140h452v-140h-152v-560h-148z" />
    <glyph glyph-name="U" unicode="U" horiz-adv-x="611" 
d="M402 700h148l1 -494q0 -89 -60 -150q-67 -68 -185 -68t-185 68q-60 61 -60 150v494h148v-452q0 -65 29 -93q23 -23 68 -23q44 0 68 23q28 28 28 93v452z" />
    <glyph glyph-name="V" unicode="V" 
d="M-10 700h158l123 -538h2l135 538h158l-156 -588q-16 -61 -43 -89q-34 -35 -96 -35t-96 35q-28 28 -43 89z" />
    <glyph glyph-name="W" unicode="W" horiz-adv-x="889" 
d="M370 700h148v-444q0 -72 14 -98q16 -30 67 -30t67 30q14 26 14 98v444h148v-532q0 -76 -59 -127q-59 -53 -147 -53q-106 0 -178 77q-71 -77 -178 -77q-88 0 -147 53q-59 51 -59 127v532h148v-444q0 -72 14 -98q16 -30 67 -30t67 30q14 26 14 98v444z" />
    <glyph glyph-name="X" unicode="X" horiz-adv-x="500" 
d="M18 138q158 36 158 215q0 182 -158 209v138q166 0 231 -159q68 159 233 159v-138q-158 -27 -158 -209q0 -179 158 -215v-138q-78 0 -142 47q-63 46 -89 121h-2q-26 -75 -89 -121q-64 -47 -142 -47v138z" />
    <glyph glyph-name="Y" unicode="Y" 
d="M50 700h148v-206q0 -104 80 -104t80 104v206h148v-256q0 -60 -33 -107q-39 -56 -121 -81v-256h-148v256q-80 24 -121 81q-33 47 -33 107v256z" />
    <glyph glyph-name="Z" unicode="Z" horiz-adv-x="500" 
d="M479 140v-140h-387q-33 0 -57 24q-22 22 -22 48q0 53 23 91l245 397h-235v140h336q34 0 59 -26q24 -26 24 -61q0 -33 -34 -89l-234 -384h282z" />
    <glyph glyph-name="bracketleft" unicode="[" horiz-adv-x="333" 
d="M274 -216h-198v916h198v-68h-96v-780h96v-68z" />
    <glyph glyph-name="backslash" unicode="\" horiz-adv-x="278" 
d="M-70 712h108l311 -724h-108z" />
    <glyph glyph-name="bracketright" unicode="]" horiz-adv-x="333" 
d="M59 700h198v-916h-198v68h96v780h-96v68z" />
    <glyph glyph-name="asciicircum" unicode="^" horiz-adv-x="600" 
d="M179 325h-109l180 375h100l180 -375h-110l-120 265z" />
    <glyph glyph-name="underscore" unicode="_" horiz-adv-x="500" 
d="M500 -125h-500v50h500v-50z" />
    <glyph glyph-name="grave" unicode="`" horiz-adv-x="222" 
d="M-53 700h154l93 -144h-99z" />
    <glyph glyph-name="a" unicode="a" 
d="M510 0h-128v274q0 96 -114 96q-46 0 -77 -37t-31 -90q0 -49 32 -83t80 -34q33 0 73 15v-133q-50 -12 -81 -12q-108 0 -172 73q-60 68 -60 169q0 115 69 189q67 71 169 71q108 0 175 -62q65 -60 65 -156v-280z" />
    <glyph glyph-name="b" unicode="b" 
d="M46 700h128v-457q0 -121 114 -121q46 0 77 34t31 87t-32 87q-31 34 -80 34q-36 0 -69 -15v135q24 7 38 10q22 4 39 4q100 0 167 -78q65 -74 65 -176q0 -108 -66 -181q-68 -75 -172 -75q-105 0 -173 75q-67 73 -67 181v456z" />
    <glyph glyph-name="c" unicode="c" horiz-adv-x="389" 
d="M359 486v-128h-85q-116 0 -116 -115t116 -115h85v-128h-89q-112 0 -176 66q-64 65 -64 177t64 177q64 66 176 66h89z" />
    <glyph glyph-name="d" unicode="d" 
d="M382 700h128v-456q0 -108 -67 -181q-68 -75 -173 -75q-104 0 -171 75q-67 73 -67 181q0 102 65 176q67 78 167 78q17 0 39 -4q14 -3 38 -10v-135q-33 15 -69 15q-49 0 -80 -34q-32 -34 -32 -87t31 -87t77 -34q114 0 114 121v457z" />
    <glyph glyph-name="e" unicode="e" 
d="M532 206q-18 -99 -89 -158q-71 -60 -173 -60q-110 0 -180 75q-66 73 -66 180t66 180q70 75 180 75q91 0 155 -44q54 -38 81 -100l-247 -185l-62 81l127 98q-19 22 -63 22q-47 0 -78 -37t-31 -90q0 -48 33 -86q36 -41 90 -41q110 0 128 104z" />
    <glyph glyph-name="f" unicode="f" horiz-adv-x="278" 
d="M169 0h-128v488q0 94 37 147q44 65 140 65h51v-128h-50q-50 0 -50 -49v-37h100v-124h-100v-362z" />
    <glyph glyph-name="g" unicode="g" 
d="M97 -60q73 -28 152 -28q57 0 87 19q42 25 42 85v238q0 55 -35 87q-30 27 -74 27q-109 0 -109 -117q0 -113 109 -113q21 0 40 4q12 2 31 8v-133q-38 -13 -71 -13q-109 0 -174 69q-63 68 -63 176q0 109 63 178q65 71 174 71q96 0 167 -68q70 -68 70 -159v-235
q0 -252 -254 -252q-87 0 -155 25v131z" />
    <glyph glyph-name="h" unicode="h" horiz-adv-x="500" 
d="M177 0h-128v700h128v-251h2q35 49 110 49q65 0 111 -41q51 -46 51 -121v-336h-128v292q0 78 -73 78t-73 -78v-292z" />
    <glyph glyph-name="i" unicode="i" horiz-adv-x="222" 
d="M175 0h-128v486h128v-486zM187 631q0 -81 -76 -81t-76 81t76 81t76 -81z" />
    <glyph glyph-name="j" unicode="j" horiz-adv-x="222" 
d="M45 486h128v-502q0 -115 -36 -162q-39 -50 -138 -50h-51v124h50q47 0 47 64v526zM187 631q0 -81 -76 -81t-76 81t76 81t76 -81z" />
    <glyph glyph-name="k" unicode="k" horiz-adv-x="500" 
d="M178 0h-128v700h128v-378h37q36 0 58 51l50 113h143l-51 -113q-38 -82 -81 -91v-3q70 -12 97 -50q25 -34 25 -106v-123h-128v112q0 86 -77 86h-73v-198z" />
    <glyph glyph-name="l" unicode="l" horiz-adv-x="222" 
d="M175 0h-128v700h128v-700z" />
    <glyph glyph-name="m" unicode="m" horiz-adv-x="778" 
d="M182 0h-134v336q0 78 55 121q53 41 144 41q80 0 145 -74q62 74 154 74q77 0 128 -41q56 -45 56 -121v-336h-134v292q0 79 -70 78q-45 0 -70 -45v-325h-134v292q0 78 -70 78t-70 -78v-292z" />
    <glyph glyph-name="n" unicode="n" horiz-adv-x="500" 
d="M177 0h-128v336q0 78 56 121q53 41 145 41t145 -41q56 -43 56 -121v-336h-128v292q0 78 -73 78t-73 -78v-292z" />
    <glyph glyph-name="o" unicode="o" 
d="M160 243q0 -127 118 -127t118 127t-118 127t-118 -127zM458 423q66 -73 66 -180t-66 -180q-70 -75 -180 -75t-180 75q-66 73 -66 180t66 180q70 75 180 75t180 -75z" />
    <glyph glyph-name="p" unicode="p" 
d="M174 -216h-128v458q0 108 67 181q68 75 173 75q104 0 172 -75q66 -73 66 -181q0 -102 -65 -176q-67 -78 -167 -78q-17 0 -39 4q-14 3 -38 10v135q33 -15 69 -15q49 0 80 34q32 34 32 87t-31 87t-77 34q-114 0 -114 -121v-459z" />
    <glyph glyph-name="q" unicode="q" 
d="M510 -216h-128v459q0 121 -114 121q-46 0 -77 -34t-31 -87t32 -87q31 -34 80 -34q36 0 69 15v-135q-24 -7 -38 -10q-22 -4 -39 -4q-100 0 -167 78q-65 74 -65 176q0 108 67 181q67 75 171 75q105 0 173 -75q67 -73 67 -181v-458z" />
    <glyph glyph-name="r" unicode="r" horiz-adv-x="333" 
d="M182 0h-136v486h121v-92h2q34 98 123 98h27v-136h-31q-106 0 -106 -118v-238z" />
    <glyph glyph-name="s" unicode="s" horiz-adv-x="389" 
d="M23 0v120h165q36 0 36 27q0 20 -31 39q-11 7 -31 18l-27 14q-5 2 -9 5q-45 24 -67 47q-31 32 -31 73q0 74 48 111q41 32 110 32h154v-120h-148q-32 0 -32 -22q0 -14 32 -31l71 -35q47 -25 71 -52q32 -34 32 -78q0 -70 -47 -110q-45 -38 -117 -38h-179z" />
    <glyph glyph-name="t" unicode="t" horiz-adv-x="278" 
d="M166 486h93v-124h-93v-180q0 -54 44 -54h49v-128h-67q-84 0 -121 49q-33 42 -33 129v438h128v-130z" />
    <glyph glyph-name="u" unicode="u" horiz-adv-x="500" 
d="M49 486h128v-292q0 -78 73 -78t73 78v292h128v-336q0 -78 -56 -121q-53 -41 -145 -41t-145 41q-56 43 -56 121v336z" />
    <glyph glyph-name="v" unicode="v" horiz-adv-x="444" 
d="M303 486h144l-125 -402q-14 -44 -33 -66q-27 -30 -71 -30t-71 30q-20 22 -33 66l-118 402h142l81 -322h2z" />
    <glyph glyph-name="w" unicode="w" horiz-adv-x="778" 
d="M322 486h134v-292q0 -78 66 -78q70 0 70 78v292h134v-324q0 -84 -56 -131q-51 -43 -128 -43q-93 0 -157 82q-52 -82 -149 -82q-77 0 -128 43q-56 47 -56 131v324h134v-292q0 -78 70 -78q66 0 66 78v292z" />
    <glyph glyph-name="x" unicode="x" horiz-adv-x="389" 
d="M382 486v-120h-26q-101 0 -101 -123t101 -123h27v-120h-33q-105 0 -157 97q-46 -97 -153 -97h-33v120h27q101 0 101 123t-101 123h-27v120h33q105 0 157 -97q46 97 153 97h32z" />
    <glyph glyph-name="y" unicode="y" horiz-adv-x="500" 
d="M47 486h128v-284q0 -86 75 -86t75 86v284h128v-310q0 -150 -136 -180v-202h-134v202q-67 15 -102 64q-34 46 -34 116v310z" />
    <glyph glyph-name="z" unicode="z" horiz-adv-x="444" 
d="M42 362v124h278q94 0 94 -66q0 -59 -38 -101l-177 -195h215v-124h-312q-90 0 -90 77q0 37 30 69l200 216h-200z" />
    <glyph glyph-name="braceleft" unicode="{" horiz-adv-x="444" 
d="M327 -216h-95q-41 0 -79 33q-47 39 -47 101v205q0 41 -38 63q-14 8 -32 12q-14 3 -26 3v90q12 0 26 3q18 4 32 11q38 19 38 56v205q0 62 47 102q38 32 79 32h95v-82h-55q-34 0 -51 -23q-13 -18 -13 -45v-202q0 -52 -36 -79q-25 -19 -60 -22v-3q16 -2 29 -5q18 -5 31 -15
q36 -27 36 -88v-202q0 -27 13 -45q17 -23 51 -23h55v-82z" />
    <glyph glyph-name="bar" unicode="|" horiz-adv-x="222" 
d="M57 0v700h108v-700h-108z" />
    <glyph glyph-name="braceright" unicode="}" horiz-adv-x="444" 
d="M117 700h95q41 0 79 -32q47 -40 47 -102v-205q0 -42 38 -63q14 -8 32 -12q14 -3 26 -3v-90q-12 0 -26 -3q-18 -4 -32 -11q-38 -19 -38 -56v-206q0 -61 -47 -101q-39 -32 -79 -32h-95v82h55q34 0 51 23q13 18 13 45v202q0 52 36 79q25 19 60 22v3q-16 2 -28 5
q-19 5 -32 15q-36 27 -36 88v202q0 27 -13 45q-17 23 -51 23h-55v82z" />
    <glyph glyph-name="asciitilde" unicode="~" horiz-adv-x="600" 
d="M531 243q-14 -20 -23 -31q-14 -17 -27 -28q-34 -27 -75 -27q-25 0 -52 10q-21 7 -50 23t-52 24q-32 11 -63 11q-30 0 -52 -23q-17 -17 -32 -49l-36 90q20 38 46 59q33 27 79 27q23 0 54 -10q23 -7 57 -22l55 -24q30 -12 47 -12q27 0 50 23q15 14 38 49z" />
    <glyph glyph-name="uni00A0" unicode="&#xa0;" horiz-adv-x="278" 
 />
    <glyph glyph-name="exclamdown" unicode="&#xa1;" horiz-adv-x="278" 
d="M56 417q0 83 83 83t83 -83t-83 -83t-83 83zM220 -216h-162l13 511h136z" />
    <glyph glyph-name="cent" unicode="&#xa2;" 
d="M214 700h78v-147h66v-106h-94q-102 0 -102 -95q0 -94 102 -94h94v-106h-66v-144h-78v144q-80 11 -125 69q-43 54 -43 131t43 131q45 58 125 70v147z" />
    <glyph glyph-name="sterling" unicode="&#xa3;" 
d="M51 294v140h63v77q0 104 61 155q56 46 164 46q21 0 48 -2l48 -6v-140l-37 6q-21 2 -38 2q-98 0 -98 -68v-70h97v-140h-97q0 -56 -8 -84q-12 -40 -48 -67l2 -3h122q103 0 106 142h140q0 -131 -60 -204q-64 -78 -186 -78h-316v140q63 0 84 38q16 30 16 116h-63z" />
    <glyph glyph-name="currency" unicode="&#xa4;" 
d="M19 151l58 58q-47 52 -47 141q0 95 47 141l-58 58l61 61l56 -57q53 45 142 45q90 0 138 -43l58 57l63 -64l-54 -56q43 -51 43 -142q0 -89 -45 -143l56 -56l-58 -58l-57 58q-54 -49 -144 -49q-91 0 -144 47l-56 -57zM181 452q-39 -41 -39 -102t39 -102q39 -42 97 -42
t97 42q39 41 39 102t-39 102q-39 42 -97 42t-97 -42z" />
    <glyph glyph-name="yen" unicode="&#xa5;" 
d="M475 284v-100h-123v-184h-148v184h-123v100h123v72h-123v100h103q-15 37 -47 65q-38 32 -91 41v138q166 0 232 -159q66 159 232 159v-138q-109 -19 -138 -106h103v-100h-123v-72h123z" />
    <glyph glyph-name="brokenbar" unicode="&#xa6;" horiz-adv-x="222" 
d="M57 0v275h108v-275h-108zM57 425v275h108v-275h-108z" />
    <glyph glyph-name="section" unicode="&#xa7;" horiz-adv-x="500" 
d="M332 571l-7 9q-4 6 -8 10q-10 11 -19 19q-23 19 -46 19q-36 0 -36 -40q0 -20 38 -60q13 -14 39 -38q2 -3 5 -5l39 -38q26 -25 44 -46q24 -25 39 -47q38 -54 38 -98q0 -96 -107 -112q53 -53 53 -117q0 -63 -48 -97q-43 -30 -109 -30q-97 0 -167 86l83 63q12 -25 30 -43
q23 -22 46 -22q53 0 53 45q0 22 -39 64q-14 16 -40 41l-46 45q-27 27 -46 48q-24 26 -40 49q-39 54 -39 96q0 45 33 79q33 33 78 33q-49 49 -49 100q0 66 46 99q40 29 108 29q47 0 88 -23q34 -19 71 -58zM326 291q-19 26 -47 56q-67 71 -92 71q-33 0 -33 -35q0 -24 66 -95
q28 -31 53 -50q26 -22 38 -22q35 0 35 32q0 14 -20 43z" />
    <glyph glyph-name="dieresis" unicode="&#xa8;" horiz-adv-x="222" 
d="M279 622q0 -70 -70 -70t-70 70t70 70t70 -70zM83 622q0 -70 -70 -70t-70 70t70 70t70 -70z" />
    <glyph glyph-name="copyright" unicode="&#xa9;" horiz-adv-x="800" 
d="M660 616q114 -102 114 -266t-114 -266q-107 -96 -260 -96t-260 96q-114 102 -114 266t114 266q107 96 260 96t260 -96zM214 550q-76 -79 -76 -200t76 -199q75 -77 186 -77t186 77q76 78 76 199t-76 200q-75 76 -186 76t-186 -76zM586 295q-9 -72 -59 -114
q-47 -39 -115 -39q-89 0 -145 61q-55 59 -55 150t55 150q56 61 145 61q68 0 115 -39q50 -42 59 -114h-86q-4 67 -88 67q-43 0 -71 -36q-27 -36 -27 -89t27 -89q28 -36 71 -36q84 0 88 67h86z" />
    <glyph glyph-name="ordfeminine" unicode="&#xaa;" horiz-adv-x="334" 
d="M324 413h-92v161q0 60 -68 60t-68 -71q0 -72 68 -72q25 0 44 9v-82q-28 -7 -50 -7q-70 0 -113 44q-41 41 -41 101q0 69 46 113q45 43 112 43q72 0 117 -37t45 -94v-168z" />
    <glyph glyph-name="guillemotleft" unicode="&#xab;" horiz-adv-x="500" 
d="M273 89h-99l-127 154l124 154h100l-125 -154zM453 89h-99l-127 154l124 154h100l-125 -154z" />
    <glyph glyph-name="logicalnot" unicode="&#xac;" horiz-adv-x="600" 
d="M434 84v210h-376v108h484v-318h-108z" />
    <glyph glyph-name="uni00AD" unicode="&#xad;" horiz-adv-x="333" 
d="M282 187h-231v112h231v-112z" />
    <glyph glyph-name="registered" unicode="&#xae;" horiz-adv-x="800" 
d="M339 318v-166h-86v398h149q160 0 160 -121q0 -99 -107 -105l103 -172h-87l-92 166h-40zM339 386h69q68 0 68 48t-68 48h-69v-96zM660 616q114 -102 114 -266t-114 -266q-107 -96 -260 -96t-260 96q-114 102 -114 266t114 266q107 96 260 96t260 -96zM214 550
q-76 -79 -76 -200t76 -199q75 -77 186 -77t186 77q76 78 76 199t-76 200q-75 76 -186 76t-186 -76z" />
    <glyph glyph-name="macron" unicode="&#xaf;" horiz-adv-x="222" 
d="M285 587h-347v74h347v-74z" />
    <glyph glyph-name="degree" unicode="&#xb0;" horiz-adv-x="400" 
d="M129 569q0 -75 71 -75t71 75t-71 75t-71 -75zM302 671q41 -42 41 -102t-41 -101q-42 -42 -102 -42t-101 42q-42 41 -42 101t42 102q41 41 101 41t102 -41z" />
    <glyph glyph-name="plusminus" unicode="&#xb1;" horiz-adv-x="600" 
d="M246 366v120h108v-120h188v-108h-188v-121h-108v121h-188v108h188zM58 0v108h484v-108h-484z" />
    <glyph glyph-name="uni00B2" unicode="&#xb2;" horiz-adv-x="333" 
d="M326 285h-253q-70 0 -70 50q0 31 64 90l115 106l17 19q15 20 15 37q0 41 -51 41q-50 0 -50 -43q0 -45 30 -54l-70 -61q-62 34 -62 113q0 55 44 92t110 37q64 0 107 -37q44 -37 44 -92q0 -40 -19 -70q-14 -22 -52 -55l-105 -89h186v-84z" />
    <glyph glyph-name="uni00B3" unicode="&#xb3;" horiz-adv-x="333" 
d="M14 285v86h135q65 0 65 50t-65 50h-88v54l133 98v2h-173v80h193q90 0 90 -62q0 -35 -34 -63q-6 -5 -15 -11l-16 -11q-21 -14 -31 -23q118 -19 118 -121q0 -67 -48 -100q-43 -29 -117 -29h-147z" />
    <glyph glyph-name="acute" unicode="&#xb4;" horiz-adv-x="222" 
d="M121 700h154l-148 -144h-99z" />
    <glyph glyph-name="mu" unicode="&#xb5;" horiz-adv-x="500" 
d="M177 -216h-128v702h128v-292q0 -78 73 -78t73 78v292h128v-336q0 -78 -56 -121q-53 -41 -145 -41q-41 0 -73 9v-213z" />
    <glyph glyph-name="paragraph" unicode="&#xb6;" horiz-adv-x="620" 
d="M242 -190v536q-222 0 -222 174q0 100 70 143q59 37 174 37h303v-890h-112v806h-101v-806h-112z" />
    <glyph glyph-name="periodcentered" unicode="&#xb7;" horiz-adv-x="278" 
d="M222 243q0 -83 -83 -83t-83 83t83 83t83 -83z" />
    <glyph glyph-name="cedilla" unicode="&#xb8;" horiz-adv-x="222" 
d="M14 -152l28 -9q5 -1 9 -3q22 -6 38 -6q55 0 55 44q0 34 -40 34q-18 0 -45 -9l-21 20l59 90h53l-42 -62q18 5 41 5q29 0 53 -19q28 -22 28 -58q0 -46 -41 -73q-36 -22 -85 -22t-108 27z" />
    <glyph glyph-name="uni00B9" unicode="&#xb9;" horiz-adv-x="333" 
d="M58 621v84h168v-420h-102v336h-66z" />
    <glyph glyph-name="ordmasculine" unicode="&#xba;" horiz-adv-x="334" 
d="M284 667q43 -44 43 -108q0 -65 -43 -108q-45 -45 -117 -45t-117 45q-43 43 -43 108q0 64 43 108q45 45 117 45t117 -45zM95 559q0 -71 72 -71t72 71t-72 71t-72 -71z" />
    <glyph glyph-name="guillemotright" unicode="&#xbb;" horiz-adv-x="500" 
d="M47 397h99l127 -154l-124 -154h-100l125 154zM227 397h99l127 -154l-124 -154h-100l125 154z" />
    <glyph glyph-name="onequarter" unicode="&#xbc;" horiz-adv-x="834" 
d="M149 -12l406 724h95l-410 -724h-91zM533 169h109v118l90 135l4 3v-256h40v-84h-40v-85h-94v85h-140q-63 0 -63 61q0 17 8 36q5 11 17 29l135 209h99zM58 621v84h168v-420h-102v336h-66z" />
    <glyph glyph-name="onehalf" unicode="&#xbd;" horiz-adv-x="834" 
d="M137 -12l406 724h95l-410 -724h-91zM807 0h-253q-70 0 -70 50q0 31 64 90l115 106l17 19q15 20 15 37q0 41 -51 41q-50 0 -50 -43q0 -45 30 -54l-70 -61q-62 34 -62 113q0 55 44 92t110 37q64 0 107 -37q44 -37 44 -92q0 -40 -19 -70q-14 -22 -52 -55l-105 -89h186v-84z
M58 621v84h168v-420h-102v336h-66z" />
    <glyph glyph-name="threequarters" unicode="&#xbe;" horiz-adv-x="834" 
d="M175 -12l406 724h95l-410 -724h-91zM533 169h109v118l90 135l4 3v-256h40v-84h-40v-85h-94v85h-140q-63 0 -63 61q0 17 8 36q5 11 17 29l135 209h99zM14 285v86h135q65 0 65 50t-65 50h-88v54l133 98v2h-173v80h193q90 0 90 -62q0 -35 -34 -63q-6 -5 -15 -11l-16 -11
q-21 -14 -31 -23q118 -19 118 -121q0 -67 -48 -100q-43 -29 -117 -29h-147z" />
    <glyph glyph-name="questiondown" unicode="&#xbf;" horiz-adv-x="500" 
d="M186 292h138v-202q-89 0 -123 -24q-27 -19 -27 -64q0 -80 87 -80q29 0 54 24q21 20 32 50l136 -34q-20 -79 -81 -128q-62 -50 -143 -50q-107 0 -171 62q-64 63 -64 170q0 68 47 123q48 55 115 64v89zM177 417q0 83 83 83t83 -83t-83 -83t-83 83z" />
    <glyph glyph-name="Agrave" unicode="&#xc0;" horiz-adv-x="611" 
d="M210 0h-156v456q0 104 57 174q68 82 194 82t194 -82q58 -70 58 -174v-456h-156v252h-152v136h152v94q0 94 -96 94q-51 0 -74 -27q-21 -24 -21 -67v-482zM142 886h154l93 -144h-99z" />
    <glyph glyph-name="Aacute" unicode="&#xc1;" horiz-adv-x="611" 
d="M210 0h-156v456q0 104 57 174q68 82 194 82t194 -82q58 -70 58 -174v-456h-156v252h-152v136h152v94q0 94 -96 94q-51 0 -74 -27q-21 -24 -21 -67v-482zM316 886h154l-148 -144h-99z" />
    <glyph glyph-name="Acircumflex" unicode="&#xc2;" horiz-adv-x="611" 
d="M210 0h-156v456q0 104 57 174q68 82 194 82t194 -82q58 -70 58 -174v-456h-156v252h-152v136h152v94q0 94 -96 94q-51 0 -74 -27q-21 -24 -21 -67v-482zM483 742h-113l-63 82l-64 -82h-114l115 144h125z" />
    <glyph glyph-name="Atilde" unicode="&#xc3;" horiz-adv-x="611" 
d="M210 0h-156v456q0 104 57 174q68 82 194 82t194 -82q58 -70 58 -174v-456h-156v252h-152v136h152v94q0 94 -96 94q-51 0 -74 -27q-21 -24 -21 -67v-482zM489 876q-9 -53 -34 -84q-29 -38 -77 -38q-16 0 -37 6q-14 3 -39 12l-19 7l-19 5q-20 6 -33 6q-35 0 -44 -42h-64
q7 52 35 86q32 38 80 38q18 0 40 -6q15 -4 37 -13l34 -13q18 -6 28 -6q40 0 47 42h65z" />
    <glyph glyph-name="Adieresis" unicode="&#xc4;" horiz-adv-x="611" 
d="M210 0h-156v456q0 104 57 174q68 82 194 82t194 -82q58 -70 58 -174v-456h-156v252h-152v136h152v94q0 94 -96 94q-51 0 -74 -27q-21 -24 -21 -67v-482zM474 808q0 -70 -70 -70t-70 70t70 70t70 -70zM278 808q0 -70 -70 -70t-70 70t70 70t70 -70z" />
    <glyph glyph-name="Aring" unicode="&#xc5;" horiz-adv-x="611" 
d="M210 0h-156v456q0 104 57 174q68 82 194 82t194 -82q58 -70 58 -174v-456h-156v252h-152v136h152v94q0 94 -96 94q-51 0 -74 -27q-21 -24 -21 -67v-482zM381 921q31 -31 31 -75q0 -43 -31 -75q-31 -31 -75 -31q-43 0 -75 31q-31 32 -31 75q0 44 31 75q32 31 75 31
q44 0 75 -31zM254 846q0 -52 52 -52t52 52t-52 52t-52 -52z" />
    <glyph glyph-name="AE" unicode="&#xc6;" horiz-adv-x="889" 
d="M198 0h-148v456q0 118 71 189q68 67 174 67q140 0 208 -114q47 56 111 81q55 21 129 21h100v-140h-90q-79 0 -137 -47q-52 -43 -62 -98h289v-130h-289q10 -55 62 -98q58 -47 137 -47h90v-140h-101q-134 0 -212 69v-69h-134v285h-151v130h151v77q0 33 -28 57
q-28 23 -64 23q-106 0 -106 -114v-458z" />
    <glyph glyph-name="Ccedilla" unicode="&#xc7;" horiz-adv-x="500" 
d="M476 700v-140h-108q-74 0 -129 -68q-53 -65 -53 -142t53 -142q55 -68 129 -68h108v-140h-124l-36 -53q18 5 41 5q29 0 53 -19q28 -22 28 -58q0 -46 -41 -73q-36 -22 -85 -22t-108 27l18 41l28 -9q5 -1 9 -3q22 -6 38 -6q55 0 55 44q0 34 -40 34q-18 0 -45 -9l-21 20
l57 86q-115 21 -191 112q-82 97 -82 233q0 153 102 255q96 95 228 95h116z" />
    <glyph glyph-name="Egrave" unicode="&#xc8;" horiz-adv-x="500" 
d="M449 700v-140h-90q-78 0 -127 -47q-42 -40 -52 -98h269v-130h-269q10 -58 52 -98q49 -47 127 -47h90v-140h-77q-87 0 -155 31q-63 28 -107 80q-82 96 -82 239t82 240q44 51 107 80q68 30 155 30h77zM132 886h154l93 -144h-99z" />
    <glyph glyph-name="Eacute" unicode="&#xc9;" horiz-adv-x="500" 
d="M449 700v-140h-90q-78 0 -127 -47q-42 -40 -52 -98h269v-130h-269q10 -58 52 -98q49 -47 127 -47h90v-140h-77q-87 0 -155 31q-63 28 -107 80q-82 96 -82 239t82 240q44 51 107 80q68 30 155 30h77zM306 886h154l-148 -144h-99z" />
    <glyph glyph-name="Ecircumflex" unicode="&#xca;" horiz-adv-x="500" 
d="M449 700v-140h-90q-78 0 -127 -47q-42 -40 -52 -98h269v-130h-269q10 -58 52 -98q49 -47 127 -47h90v-140h-77q-87 0 -155 31q-63 28 -107 80q-82 96 -82 239t82 240q44 51 107 80q68 30 155 30h77zM473 742h-113l-63 82l-64 -82h-114l115 144h125z" />
    <glyph glyph-name="Edieresis" unicode="&#xcb;" horiz-adv-x="500" 
d="M449 700v-140h-90q-78 0 -127 -47q-42 -40 -52 -98h269v-130h-269q10 -58 52 -98q49 -47 127 -47h90v-140h-77q-87 0 -155 31q-63 28 -107 80q-82 96 -82 239t82 240q44 51 107 80q68 30 155 30h77zM464 808q0 -70 -70 -70t-70 70t70 70t70 -70zM268 808q0 -70 -70 -70
t-70 70t70 70t70 -70z" />
    <glyph glyph-name="Igrave" unicode="&#xcc;" horiz-adv-x="278" 
d="M213 0h-148v700h148v-700zM-25 886h154l93 -144h-99z" />
    <glyph glyph-name="Iacute" unicode="&#xcd;" horiz-adv-x="278" 
d="M213 0h-148v700h148v-700zM149 886h154l-148 -144h-99z" />
    <glyph glyph-name="Icircumflex" unicode="&#xce;" horiz-adv-x="278" 
d="M213 0h-148v700h148v-700zM316 742h-113l-63 82l-64 -82h-114l115 144h125z" />
    <glyph glyph-name="Idieresis" unicode="&#xcf;" horiz-adv-x="278" 
d="M213 0h-148v700h148v-700zM307 808q0 -70 -70 -70t-70 70t70 70t70 -70zM111 808q0 -70 -70 -70t-70 70t70 70t70 -70z" />
    <glyph glyph-name="Eth" unicode="&#xd0;" horiz-adv-x="667" 
d="M322 448v-140h-114v-308h-148v308h-66v140h66v252h250q115 0 213 -92q51 -49 80 -112q31 -70 31 -152q0 -151 -101 -249q-98 -95 -241 -95h-42v140h42q78 0 137 65q57 62 57 140q0 100 -64 160q-60 55 -152 55h-62v-112h114z" />
    <glyph glyph-name="Ntilde" unicode="&#xd1;" horiz-adv-x="667" 
d="M205 0h-148v610q0 102 102 102q48 0 82 -33q13 -13 25 -33q10 -15 20 -36l172 -359h3v449h148v-611q0 -45 -18 -71q-21 -30 -65 -30q-43 0 -71 27q-22 22 -50 78l-198 409l-2 -2v-500zM523 876q-9 -53 -34 -84q-29 -38 -77 -38q-16 0 -37 6q-14 3 -39 12l-19 7l-19 5
q-20 6 -33 6q-35 0 -44 -42h-64q7 52 35 86q32 38 80 38q18 0 40 -6q15 -4 37 -13l34 -13q18 -6 28 -6q40 0 47 42h65z" />
    <glyph glyph-name="Ograve" unicode="&#xd2;" horiz-adv-x="778" 
d="M646 605q100 -105 100 -255t-100 -255q-103 -107 -257 -107t-257 107q-100 105 -100 255t100 255q103 107 257 107t257 -107zM235 503q-55 -62 -55 -153t55 -153q59 -65 154 -65t154 65q55 62 55 153t-55 153q-59 65 -154 65t-154 -65zM225 886h154l93 -144h-99z" />
    <glyph glyph-name="Oacute" unicode="&#xd3;" horiz-adv-x="778" 
d="M646 605q100 -105 100 -255t-100 -255q-103 -107 -257 -107t-257 107q-100 105 -100 255t100 255q103 107 257 107t257 -107zM235 503q-55 -62 -55 -153t55 -153q59 -65 154 -65t154 65q55 62 55 153t-55 153q-59 65 -154 65t-154 -65zM399 886h154l-148 -144h-99z" />
    <glyph glyph-name="Ocircumflex" unicode="&#xd4;" horiz-adv-x="778" 
d="M646 605q100 -105 100 -255t-100 -255q-103 -107 -257 -107t-257 107q-100 105 -100 255t100 255q103 107 257 107t257 -107zM235 503q-55 -62 -55 -153t55 -153q59 -65 154 -65t154 65q55 62 55 153t-55 153q-59 65 -154 65t-154 -65zM566 742h-113l-63 82l-64 -82h-114
l115 144h125z" />
    <glyph glyph-name="Otilde" unicode="&#xd5;" horiz-adv-x="778" 
d="M646 605q100 -105 100 -255t-100 -255q-103 -107 -257 -107t-257 107q-100 105 -100 255t100 255q103 107 257 107t257 -107zM235 503q-55 -62 -55 -153t55 -153q59 -65 154 -65t154 65q55 62 55 153t-55 153q-59 65 -154 65t-154 -65zM572 876q-9 -53 -34 -84
q-29 -38 -77 -38q-16 0 -37 6q-14 3 -39 12l-19 7l-19 5q-20 6 -33 6q-35 0 -44 -42h-64q7 52 35 86q32 38 80 38q18 0 40 -6q15 -4 37 -13l34 -13q18 -6 28 -6q40 0 47 42h65z" />
    <glyph glyph-name="Odieresis" unicode="&#xd6;" horiz-adv-x="778" 
d="M646 605q100 -105 100 -255t-100 -255q-103 -107 -257 -107t-257 107q-100 105 -100 255t100 255q103 107 257 107t257 -107zM235 503q-55 -62 -55 -153t55 -153q59 -65 154 -65t154 65q55 62 55 153t-55 153q-59 65 -154 65t-154 -65zM557 808q0 -70 -70 -70t-70 70
t70 70t70 -70zM361 808q0 -70 -70 -70t-70 70t70 70t70 -70z" />
    <glyph glyph-name="multiply" unicode="&#xd7;" horiz-adv-x="600" 
d="M463 0l-164 165l-162 -165l-79 80l162 163l-162 163l79 80l162 -163l164 163l79 -80l-164 -163l164 -163z" />
    <glyph glyph-name="Oslash" unicode="&#xd8;" horiz-adv-x="778" 
d="M501 537q-48 31 -112 31q-95 0 -154 -65q-55 -62 -55 -153q0 -70 34 -124zM277 163q48 -31 112 -31q95 0 154 65q55 62 55 153q0 70 -34 124zM662 712h122l-119 -129q81 -100 81 -233q0 -150 -100 -255q-103 -107 -257 -107q-119 0 -211 68l-62 -68h-121l119 129
q-82 99 -82 233q0 150 100 255q103 107 257 107q121 0 211 -67z" />
    <glyph glyph-name="Ugrave" unicode="&#xd9;" horiz-adv-x="611" 
d="M402 700h148l1 -494q0 -89 -60 -150q-67 -68 -185 -68t-185 68q-60 61 -60 150v494h148v-452q0 -65 29 -93q23 -23 68 -23q44 0 68 23q28 28 28 93v452zM142 886h154l93 -144h-99z" />
    <glyph glyph-name="Uacute" unicode="&#xda;" horiz-adv-x="611" 
d="M402 700h148l1 -494q0 -89 -60 -150q-67 -68 -185 -68t-185 68q-60 61 -60 150v494h148v-452q0 -65 29 -93q23 -23 68 -23q44 0 68 23q28 28 28 93v452zM316 886h154l-148 -144h-99z" />
    <glyph glyph-name="Ucircumflex" unicode="&#xdb;" horiz-adv-x="611" 
d="M402 700h148l1 -494q0 -89 -60 -150q-67 -68 -185 -68t-185 68q-60 61 -60 150v494h148v-452q0 -65 29 -93q23 -23 68 -23q44 0 68 23q28 28 28 93v452zM483 742h-113l-63 82l-64 -82h-114l115 144h125z" />
    <glyph glyph-name="Udieresis" unicode="&#xdc;" horiz-adv-x="611" 
d="M402 700h148l1 -494q0 -89 -60 -150q-67 -68 -185 -68t-185 68q-60 61 -60 150v494h148v-452q0 -65 29 -93q23 -23 68 -23q44 0 68 23q28 28 28 93v452zM474 808q0 -70 -70 -70t-70 70t70 70t70 -70zM278 808q0 -70 -70 -70t-70 70t70 70t70 -70z" />
    <glyph glyph-name="Yacute" unicode="&#xdd;" 
d="M50 700h148v-206q0 -104 80 -104t80 104v206h148v-256q0 -60 -33 -107q-39 -56 -121 -81v-256h-148v256q-80 24 -121 81q-33 47 -33 107v256zM294 886h154l-148 -144h-99z" />
    <glyph glyph-name="Thorn" unicode="&#xde;" 
d="M238 134v140q73 0 106 16q43 22 43 82q0 100 -95 100t-95 -100v-372h-148v700h148v-106q44 18 95 18q106 0 176 -71q67 -69 67 -168t-67 -167q-70 -72 -176 -72h-54z" />
    <glyph glyph-name="germandbls" unicode="&#xdf;" horiz-adv-x="611" 
d="M70 0v362h-63v124h63v44q0 77 61 125q57 45 143 45q72 0 126 -41q59 -44 59 -114q0 -83 -60 -112q77 -43 122 -98q55 -67 55 -143q0 -97 -71 -148q-62 -44 -162 -44h-95v124h94q100 0 100 76q0 35 -28 71q-21 26 -63 57q-7 6 -17 13l-16 11q-20 14 -30 22q-28 22 -28 35
q0 11 11 24l26 22q17 15 25 26q11 17 11 37q0 72 -68 72q-61 0 -61 -64v-526h-134z" />
    <glyph glyph-name="agrave" unicode="&#xe0;" 
d="M510 0h-128v274q0 96 -114 96q-46 0 -77 -37t-31 -90q0 -49 32 -83t80 -34q33 0 73 15v-133q-50 -12 -81 -12q-108 0 -172 73q-60 68 -60 169q0 115 69 189q67 71 169 71q108 0 175 -62q65 -60 65 -156v-280zM120 700h154l93 -144h-99z" />
    <glyph glyph-name="aacute" unicode="&#xe1;" 
d="M510 0h-128v274q0 96 -114 96q-46 0 -77 -37t-31 -90q0 -49 32 -83t80 -34q33 0 73 15v-133q-50 -12 -81 -12q-108 0 -172 73q-60 68 -60 169q0 115 69 189q67 71 169 71q108 0 175 -62q65 -60 65 -156v-280zM294 700h154l-148 -144h-99z" />
    <glyph glyph-name="acircumflex" unicode="&#xe2;" 
d="M510 0h-128v274q0 96 -114 96q-46 0 -77 -37t-31 -90q0 -49 32 -83t80 -34q33 0 73 15v-133q-50 -12 -81 -12q-108 0 -172 73q-60 68 -60 169q0 115 69 189q67 71 169 71q108 0 175 -62q65 -60 65 -156v-280zM461 556h-113l-63 82l-64 -82h-114l115 144h125z" />
    <glyph glyph-name="atilde" unicode="&#xe3;" 
d="M510 0h-128v274q0 96 -114 96q-46 0 -77 -37t-31 -90q0 -49 32 -83t80 -34q33 0 73 15v-133q-50 -12 -81 -12q-108 0 -172 73q-60 68 -60 169q0 115 69 189q67 71 169 71q108 0 175 -62q65 -60 65 -156v-280zM467 690q-9 -53 -34 -84q-29 -38 -77 -38q-16 0 -37 6
q-14 3 -39 12l-19 7l-19 5q-20 6 -33 6q-35 0 -44 -42h-64q7 52 35 86q32 38 80 38q18 0 40 -6q15 -4 37 -13l34 -13q18 -6 28 -6q40 0 47 42h65z" />
    <glyph glyph-name="adieresis" unicode="&#xe4;" 
d="M510 0h-128v274q0 96 -114 96q-46 0 -77 -37t-31 -90q0 -49 32 -83t80 -34q33 0 73 15v-133q-50 -12 -81 -12q-108 0 -172 73q-60 68 -60 169q0 115 69 189q67 71 169 71q108 0 175 -62q65 -60 65 -156v-280zM452 622q0 -70 -70 -70t-70 70t70 70t70 -70zM256 622
q0 -70 -70 -70t-70 70t70 70t70 -70z" />
    <glyph glyph-name="aring" unicode="&#xe5;" 
d="M510 0h-128v274q0 96 -114 96q-46 0 -77 -37t-31 -90q0 -49 32 -83t80 -34q33 0 73 15v-133q-50 -12 -81 -12q-108 0 -172 73q-60 68 -60 169q0 115 69 189q67 71 169 71q108 0 175 -62q65 -60 65 -156v-280zM359 735q31 -31 31 -75q0 -43 -31 -75q-31 -31 -75 -31
q-43 0 -75 31q-31 32 -31 75q0 44 31 75q32 31 75 31q44 0 75 -31zM232 660q0 -52 52 -52t52 52t-52 52t-52 -52z" />
    <glyph glyph-name="ae" unicode="&#xe6;" horiz-adv-x="889" 
d="M56 451q79 47 181 47q104 0 183 -71q79 71 178 71q88 0 150 -51q24 -20 47 -51q16 -19 39 -56l-254 -164l-50 82l138 88q-30 24 -75 24q-49 0 -82 -37q-31 -37 -31 -90q0 -48 33 -86q36 -41 90 -41q110 0 128 104l135 -14q-23 -99 -94 -158q-72 -60 -174 -60
q-119 0 -200 96q-72 -96 -195 -96q-72 0 -117 35q-49 39 -49 110q0 48 30 87q25 33 73 60q39 22 93 40q22 7 47 14q19 5 42 10q-24 16 -45 24q-26 10 -49 10q-57 0 -120 -33zM231 96q60 0 93 53q28 45 28 110q-6 -1 -11 -3q-6 -1 -12 -3l-28 -8q-34 -11 -59 -23
q-69 -35 -69 -82q0 -44 58 -44z" />
    <glyph glyph-name="ccedilla" unicode="&#xe7;" horiz-adv-x="389" 
d="M359 486v-128h-85q-116 0 -116 -115t116 -115h85v-128h-102l-36 -53q18 5 41 5q29 0 53 -19q28 -22 28 -58q0 -46 -41 -73q-36 -22 -85 -22t-108 27l18 41l28 -9q5 -1 9 -3q22 -6 38 -6q55 0 55 44q0 34 -40 34q-18 0 -45 -9l-21 20l57 87q-178 37 -178 237q0 112 64 177
q64 66 176 66h89z" />
    <glyph glyph-name="egrave" unicode="&#xe8;" 
d="M532 206q-18 -99 -89 -158q-71 -60 -173 -60q-110 0 -180 75q-66 73 -66 180t66 180q70 75 180 75q91 0 155 -44q54 -38 81 -100l-247 -185l-62 81l127 98q-19 22 -63 22q-47 0 -78 -37t-31 -90q0 -48 33 -86q36 -41 90 -41q110 0 128 104zM108 700h154l93 -144h-99z" />
    <glyph glyph-name="eacute" unicode="&#xe9;" 
d="M532 206q-18 -99 -89 -158q-71 -60 -173 -60q-110 0 -180 75q-66 73 -66 180t66 180q70 75 180 75q91 0 155 -44q54 -38 81 -100l-247 -185l-62 81l127 98q-19 22 -63 22q-47 0 -78 -37t-31 -90q0 -48 33 -86q36 -41 90 -41q110 0 128 104zM282 700h154l-148 -144h-99z
" />
    <glyph glyph-name="ecircumflex" unicode="&#xea;" 
d="M532 206q-18 -99 -89 -158q-71 -60 -173 -60q-110 0 -180 75q-66 73 -66 180t66 180q70 75 180 75q91 0 155 -44q54 -38 81 -100l-247 -185l-62 81l127 98q-19 22 -63 22q-47 0 -78 -37t-31 -90q0 -48 33 -86q36 -41 90 -41q110 0 128 104zM449 556h-113l-63 82l-64 -82
h-114l115 144h125z" />
    <glyph glyph-name="edieresis" unicode="&#xeb;" 
d="M532 206q-18 -99 -89 -158q-71 -60 -173 -60q-110 0 -180 75q-66 73 -66 180t66 180q70 75 180 75q91 0 155 -44q54 -38 81 -100l-247 -185l-62 81l127 98q-19 22 -63 22q-47 0 -78 -37t-31 -90q0 -48 33 -86q36 -41 90 -41q110 0 128 104zM440 622q0 -70 -70 -70t-70 70
t70 70t70 -70zM244 622q0 -70 -70 -70t-70 70t70 70t70 -70z" />
    <glyph glyph-name="igrave" unicode="&#xec;" horiz-adv-x="222" 
d="M175 0h-128v486h128v-486zM-53 700h154l93 -144h-99z" />
    <glyph glyph-name="iacute" unicode="&#xed;" horiz-adv-x="222" 
d="M175 0h-128v486h128v-486zM121 700h154l-148 -144h-99z" />
    <glyph glyph-name="icircumflex" unicode="&#xee;" horiz-adv-x="222" 
d="M175 0h-128v486h128v-486zM288 556h-113l-63 82l-64 -82h-114l115 144h125z" />
    <glyph glyph-name="idieresis" unicode="&#xef;" horiz-adv-x="222" 
d="M175 0h-128v486h128v-486zM279 622q0 -70 -70 -70t-70 70t70 70t70 -70zM83 622q0 -70 -70 -70t-70 70t70 70t70 -70z" />
    <glyph glyph-name="eth" unicode="&#xf0;" 
d="M314 700q21 -16 48 -43l88 43l34 -64l-74 -36q52 -67 81 -145q33 -88 33 -181q0 -133 -69 -210q-68 -76 -177 -76q-110 0 -180 75q-66 73 -66 180q0 106 59 172q33 36 83 56q54 20 126 19q38 -69 56 -146q-31 26 -78 26q-118 0 -118 -127t118 -127q119 0 119 158
q0 150 -96 272l-81 -40l-34 64l65 32q-23 21 -41 34z" />
    <glyph glyph-name="ntilde" unicode="&#xf1;" horiz-adv-x="500" 
d="M177 0h-128v336q0 78 56 121q53 41 145 41t145 -41q56 -43 56 -121v-336h-128v292q0 78 -73 78t-73 -78v-292zM433 690q-9 -53 -34 -84q-29 -38 -77 -38q-16 0 -37 6q-14 3 -39 12l-19 7l-19 5q-20 6 -33 6q-35 0 -44 -42h-64q7 52 35 86q32 38 80 38q18 0 40 -6
q15 -4 37 -13l34 -13q18 -6 28 -6q40 0 47 42h65z" />
    <glyph glyph-name="ograve" unicode="&#xf2;" 
d="M160 243q0 -127 118 -127t118 127t-118 127t-118 -127zM458 423q66 -73 66 -180t-66 -180q-70 -75 -180 -75t-180 75q-66 73 -66 180t66 180q70 75 180 75t180 -75zM114 700h154l93 -144h-99z" />
    <glyph glyph-name="oacute" unicode="&#xf3;" 
d="M160 243q0 -127 118 -127t118 127t-118 127t-118 -127zM458 423q66 -73 66 -180t-66 -180q-70 -75 -180 -75t-180 75q-66 73 -66 180t66 180q70 75 180 75t180 -75zM288 700h154l-148 -144h-99z" />
    <glyph glyph-name="ocircumflex" unicode="&#xf4;" 
d="M160 243q0 -127 118 -127t118 127t-118 127t-118 -127zM458 423q66 -73 66 -180t-66 -180q-70 -75 -180 -75t-180 75q-66 73 -66 180t66 180q70 75 180 75t180 -75zM455 556h-113l-63 82l-64 -82h-114l115 144h125z" />
    <glyph glyph-name="otilde" unicode="&#xf5;" 
d="M160 243q0 -127 118 -127t118 127t-118 127t-118 -127zM458 423q66 -73 66 -180t-66 -180q-70 -75 -180 -75t-180 75q-66 73 -66 180t66 180q70 75 180 75t180 -75zM461 690q-9 -53 -34 -84q-29 -38 -77 -38q-16 0 -37 6q-14 3 -39 12l-19 7l-19 5q-20 6 -33 6
q-35 0 -44 -42h-64q7 52 35 86q32 38 80 38q18 0 40 -6q15 -4 37 -13l34 -13q18 -6 28 -6q40 0 47 42h65z" />
    <glyph glyph-name="odieresis" unicode="&#xf6;" 
d="M160 243q0 -127 118 -127t118 127t-118 127t-118 -127zM458 423q66 -73 66 -180t-66 -180q-70 -75 -180 -75t-180 75q-66 73 -66 180t66 180q70 75 180 75t180 -75zM446 622q0 -70 -70 -70t-70 70t70 70t70 -70zM250 622q0 -70 -70 -70t-70 70t70 70t70 -70z" />
    <glyph glyph-name="divide" unicode="&#xf7;" horiz-adv-x="600" 
d="M542 189h-484v108h484v-108zM241 502q26 25 60 25q35 0 60 -25t25 -60q0 -34 -25 -60q-25 -25 -60 -25q-34 0 -60 25q-25 26 -25 60q0 35 25 60zM241 104q26 25 60 25q35 0 60 -25t25 -60q0 -34 -25 -60q-25 -25 -60 -25q-34 0 -60 25q-25 26 -25 60q0 35 25 60z" />
    <glyph glyph-name="oslash" unicode="&#xf8;" 
d="M321 362q-17 8 -43 8q-118 0 -118 -127q0 -37 12 -61zM449 516h109v-4l-90 -103q56 -67 56 -166q0 -107 -66 -180q-70 -75 -180 -75q-76 0 -132 36l-42 -50h-105v4l87 101q-54 68 -54 164q0 107 66 180q70 75 180 75q74 0 128 -34zM231 125q20 -9 47 -9q118 0 118 127
q0 38 -13 64z" />
    <glyph glyph-name="ugrave" unicode="&#xf9;" horiz-adv-x="500" 
d="M49 486h128v-292q0 -78 73 -78t73 78v292h128v-336q0 -78 -56 -121q-53 -41 -145 -41t-145 41q-56 43 -56 121v336zM86 700h154l93 -144h-99z" />
    <glyph glyph-name="uacute" unicode="&#xfa;" horiz-adv-x="500" 
d="M49 486h128v-292q0 -78 73 -78t73 78v292h128v-336q0 -78 -56 -121q-53 -41 -145 -41t-145 41q-56 43 -56 121v336zM260 700h154l-148 -144h-99z" />
    <glyph glyph-name="ucircumflex" unicode="&#xfb;" horiz-adv-x="500" 
d="M49 486h128v-292q0 -78 73 -78t73 78v292h128v-336q0 -78 -56 -121q-53 -41 -145 -41t-145 41q-56 43 -56 121v336zM427 556h-113l-63 82l-64 -82h-114l115 144h125z" />
    <glyph glyph-name="udieresis" unicode="&#xfc;" horiz-adv-x="500" 
d="M49 486h128v-292q0 -78 73 -78t73 78v292h128v-336q0 -78 -56 -121q-53 -41 -145 -41t-145 41q-56 43 -56 121v336zM418 622q0 -70 -70 -70t-70 70t70 70t70 -70zM222 622q0 -70 -70 -70t-70 70t70 70t70 -70z" />
    <glyph glyph-name="yacute" unicode="&#xfd;" horiz-adv-x="500" 
d="M47 486h128v-284q0 -86 75 -86t75 86v284h128v-310q0 -150 -136 -180v-202h-134v202q-67 15 -102 64q-34 46 -34 116v310zM260 700h154l-148 -144h-99z" />
    <glyph glyph-name="thorn" unicode="&#xfe;" 
d="M174 -216h-128v916h128v-230q50 28 112 28q104 0 172 -75q66 -73 66 -181q0 -102 -65 -176q-67 -78 -167 -78q-17 0 -39 4q-14 3 -38 10v135q33 -15 69 -15q49 0 80 34q32 34 32 87t-31 87t-77 34q-114 0 -114 -121v-459z" />
    <glyph glyph-name="ydieresis" unicode="&#xff;" horiz-adv-x="500" 
d="M47 486h128v-284q0 -86 75 -86t75 86v284h128v-310q0 -150 -136 -180v-202h-134v202q-67 15 -102 64q-34 46 -34 116v310zM418 622q0 -70 -70 -70t-70 70t70 70t70 -70zM222 622q0 -70 -70 -70t-70 70t70 70t70 -70z" />
    <glyph glyph-name="dotlessi" unicode="&#x131;" horiz-adv-x="222" 
d="M175 0h-128v486h128v-486z" />
    <glyph glyph-name="Lslash" unicode="&#x141;" horiz-adv-x="389" 
d="M204 348v-118q0 -82 76 -82h111v-148h-147q-89 0 -136 47q-52 53 -52 163v100l-54 -14v120l54 14v270h148v-232l70 18v-120z" />
    <glyph glyph-name="lslash" unicode="&#x142;" horiz-adv-x="222" 
d="M47 700h128v-248l53 24v-100l-53 -24v-352h-128v296l-53 -24v100l53 24v304z" />
    <glyph glyph-name="OE" unicode="&#x152;" horiz-adv-x="1000" 
d="M970 560h-90q-78 0 -127 -47q-42 -40 -53 -98h270v-130h-270q11 -58 53 -98q49 -47 127 -47h90v-140h-60q-89 0 -151 25q-73 29 -131 99q-111 -136 -268 -136q-137 0 -238 105q-104 106 -104 257t104 258q101 104 238 104q157 0 268 -136q58 70 131 99q62 25 151 25h60
v-140zM224 506q-58 -63 -58 -156t58 -156q57 -62 139 -62t139 62q58 63 58 156t-58 156q-57 62 -139 62t-139 -62z" />
    <glyph glyph-name="oe" unicode="&#x153;" horiz-adv-x="944" 
d="M915 207q-20 -99 -91 -159q-72 -60 -174 -60q-119 0 -187 78q-87 -78 -188 -78q-110 0 -180 75q-66 73 -66 180t66 180q70 75 180 75q114 0 185 -76q84 76 190 76q84 0 148 -50q27 -21 50 -51q20 -25 39 -57l-250 -160l-58 80l140 90q-26 26 -78 26q-46 0 -79 -40
q-33 -39 -33 -92q0 -48 35 -86q37 -42 91 -42q110 0 128 103zM275 116q118 0 118 127t-118 127t-118 -127t118 -127z" />
    <glyph glyph-name="Scaron" unicode="&#x160;" horiz-adv-x="500" 
d="M441 700v-130h-200q-52 0 -52 -53q0 -20 43 -54l96 -67q30 -22 51 -40q27 -22 45 -44q43 -50 43 -100q0 -87 -41 -143q-52 -69 -157 -69h-234v140h230q46 0 46 50q0 24 -43 57l-96 67q-30 21 -51 40q-27 23 -45 46q-43 54 -43 114q0 90 57 142q50 44 117 44h234zM79 886
h113l63 -82l64 82h114l-115 -144h-125z" />
    <glyph glyph-name="scaron" unicode="&#x161;" horiz-adv-x="389" 
d="M23 0v120h165q36 0 36 27q0 20 -31 39q-11 7 -31 18l-27 14q-5 2 -9 5q-45 24 -67 47q-31 32 -31 73q0 74 48 111q41 32 110 32h154v-120h-148q-32 0 -32 -22q0 -14 32 -31l71 -35q47 -25 71 -52q32 -34 32 -78q0 -70 -47 -110q-45 -38 -117 -38h-179zM18 700h113l63 -82
l64 82h114l-115 -144h-125z" />
    <glyph glyph-name="Ydieresis" unicode="&#x178;" 
d="M50 700h148v-206q0 -104 80 -104t80 104v206h148v-256q0 -60 -33 -107q-39 -56 -121 -81v-256h-148v256q-80 24 -121 81q-33 47 -33 107v256zM452 808q0 -70 -70 -70t-70 70t70 70t70 -70zM256 808q0 -70 -70 -70t-70 70t70 70t70 -70z" />
    <glyph glyph-name="Zcaron" unicode="&#x17d;" horiz-adv-x="500" 
d="M479 140v-140h-387q-33 0 -57 24q-22 22 -22 48q0 53 23 91l245 397h-235v140h336q34 0 59 -26q24 -26 24 -61q0 -33 -34 -89l-234 -384h282zM79 886h113l63 -82l64 82h114l-115 -144h-125z" />
    <glyph glyph-name="zcaron" unicode="&#x17e;" horiz-adv-x="444" 
d="M42 362v124h278q94 0 94 -66q0 -59 -38 -101l-177 -195h215v-124h-312q-90 0 -90 77q0 37 30 69l200 216h-200zM45 700h113l63 -82l64 82h114l-115 -144h-125z" />
    <glyph glyph-name="florin" unicode="&#x192;" 
d="M30 -64q33 -18 67 -18q52 0 73 50q8 19 13 47q2 10 3 24l30 265h-128v122h140q5 57 14 98q12 52 32 88q24 42 60 63q41 25 98 25q27 0 58 -7q25 -6 57 -17l-23 -127q-40 17 -70 17q-74 0 -86 -140h141v-122h-150l-35 -296q-11 -91 -57 -152q-54 -72 -137 -72
q-62 0 -121 25z" />
    <glyph glyph-name="circumflex" unicode="&#x2c6;" horiz-adv-x="222" 
d="M288 556h-113l-63 82l-64 -82h-114l115 144h125z" />
    <glyph glyph-name="caron" unicode="&#x2c7;" horiz-adv-x="222" 
d="M-66 700h113l63 -82l64 82h114l-115 -144h-125z" />
    <glyph glyph-name="uni02C9" unicode="&#x2c9;" horiz-adv-x="222" 
d="M285 587h-347v74h347v-74z" />
    <glyph glyph-name="breve" unicode="&#x2d8;" horiz-adv-x="222" 
d="M279 700q-19 -144 -168 -144t-168 144h67q15 -69 102 -69t102 69h65z" />
    <glyph glyph-name="dotaccent" unicode="&#x2d9;" horiz-adv-x="222" 
d="M181 622q0 -70 -70 -70t-70 70t70 70t70 -70z" />
    <glyph glyph-name="ring" unicode="&#x2da;" horiz-adv-x="222" 
d="M186 735q31 -31 31 -75q0 -43 -31 -75q-31 -31 -75 -31q-43 0 -75 31q-31 32 -31 75q0 44 31 75q32 31 75 31q44 0 75 -31zM59 660q0 -52 52 -52t52 52t-52 52t-52 -52z" />
    <glyph glyph-name="ogonek" unicode="&#x2db;" horiz-adv-x="222" 
d="M186 -152l18 -41q-28 -13 -55 -19q-35 -8 -77 -8q-102 0 -102 71q0 69 81 112q69 37 153 37l-8 -14q-140 -32 -140 -112q0 -44 55 -44q16 0 38 6q4 2 9 3z" />
    <glyph glyph-name="tilde" unicode="&#x2dc;" horiz-adv-x="222" 
d="M294 690q-9 -53 -34 -84q-29 -38 -77 -38q-16 0 -37 6q-14 3 -39 12l-19 7l-19 5q-20 6 -33 6q-35 0 -44 -42h-64q7 52 35 86q32 38 80 38q18 0 40 -6q15 -4 37 -13l34 -13q18 -6 28 -6q40 0 47 42h65z" />
    <glyph glyph-name="hungarumlaut" unicode="&#x2dd;" horiz-adv-x="222" 
d="M1 700h154l-148 -144h-99zM201 700h154l-148 -144h-99z" />
    <glyph glyph-name="uni03A9" unicode="&#x3a9;" horiz-adv-x="700" 
d="M167 114q-51 48 -81 112q-37 77 -37 163q0 133 83 225q86 95 220 95q70 0 129 -29q54 -26 93 -74q75 -91 75 -210q0 -88 -37 -167q-31 -67 -82 -115v-3h133v-111h-267v82q50 32 79 97q35 77 35 187q0 96 -40 160q-44 68 -118 68t-119 -66q-45 -65 -45 -167t35 -180
q31 -70 79 -99v-82h-267v111h132v3z" />
    <glyph glyph-name="uni03BC" unicode="&#x3bc;" horiz-adv-x="500" 
d="M177 -216h-128v702h128v-292q0 -78 73 -78t73 78v292h128v-336q0 -78 -56 -121q-53 -41 -145 -41q-41 0 -73 9v-213z" />
    <glyph glyph-name="pi" unicode="&#x3c0;" horiz-adv-x="605" 
d="M514 408v-260q0 -96 13 -148h-133q-18 30 -18 143v265h-128q-3 -89 -19 -203q-9 -61 -19 -111q-12 -56 -24 -94h-133q58 209 60 408q-62 0 -95 -9l-15 92q44 34 168 34h421l-10 -117h-68z" />
    <glyph glyph-name="endash" unicode="&#x2013;" horiz-adv-x="500" 
d="M0 200v86h500v-86h-500z" />
    <glyph glyph-name="emdash" unicode="&#x2014;" horiz-adv-x="1000" 
d="M1000 200h-1000v86h1000v-86z" />
    <glyph glyph-name="quoteleft" unicode="&#x2018;" horiz-adv-x="222" 
d="M37 700h129l27 -228h-99z" />
    <glyph glyph-name="quoteright" unicode="&#x2019;" horiz-adv-x="222" 
d="M56 700h129l-57 -228h-99z" />
    <glyph glyph-name="quotesinglbase" unicode="&#x201a;" horiz-adv-x="222" 
d="M56 128h129l-57 -228h-99z" />
    <glyph glyph-name="quotedblleft" unicode="&#x201c;" horiz-adv-x="389" 
d="M219 700h129l27 -228h-99zM34 700h129l27 -228h-99z" />
    <glyph glyph-name="quotedblright" unicode="&#x201d;" horiz-adv-x="389" 
d="M226 700h129l-57 -228h-99zM41 700h129l-57 -228h-99z" />
    <glyph glyph-name="quotedblbase" unicode="&#x201e;" horiz-adv-x="389" 
d="M226 128h129l-57 -228h-99zM41 128h129l-57 -228h-99z" />
    <glyph glyph-name="dagger" unicode="&#x2020;" horiz-adv-x="500" 
d="M443 414l-172 44l45 -164l-45 -398h-45l-43 398l46 164l-172 -44v130l173 -44l-46 200h132l-46 -200l173 44v-130z" />
    <glyph glyph-name="daggerdbl" unicode="&#x2021;" horiz-adv-x="500" 
d="M443 544v-130l-172 44l45 -164l-45 -164l172 44v-130l-173 44l46 -200h-132l46 200l-173 -44v130l172 -44l-46 164l46 164l-172 -44v130l173 -44l-46 200h132l-46 -200z" />
    <glyph glyph-name="bullet" unicode="&#x2022;" horiz-adv-x="500" 
d="M375 475q50 -50 50 -124t-50 -125q-51 -51 -124 -51t-125 51q-51 52 -51 125t51 124q51 50 125 50t124 -50z" />
    <glyph glyph-name="ellipsis" unicode="&#x2026;" horiz-adv-x="1000" 
d="M250 79q0 -83 -83 -83t-83 83t83 83t83 -83zM583 79q0 -83 -83 -83t-83 83t83 83t83 -83zM916 79q0 -83 -83 -83t-83 83t83 83t83 -83z" />
    <glyph glyph-name="perthousand" unicode="&#x2030;" horiz-adv-x="1000" 
d="M50 634q44 44 107 44t107 -44q44 -43 44 -107t-44 -107q-44 -44 -107 -44t-107 44q-44 43 -44 107t44 107zM157 468q59 0 59 59t-59 59t-59 -59t59 -59zM480 108q59 0 59 59t-59 59t-59 -59t59 -59zM373 274q44 44 107 44t107 -44q44 -43 44 -107t-44 -107
q-44 -44 -107 -44t-107 44q-44 43 -44 107t44 107zM842 108q59 0 59 59t-59 59t-59 -59t59 -59zM735 274q44 44 107 44t107 -44q44 -43 44 -107t-44 -107q-44 -44 -107 -44t-107 44q-44 43 -44 107t44 107zM593 700l-471 -700h-73l471 700h73z" />
    <glyph glyph-name="guilsinglleft" unicode="&#x2039;" horiz-adv-x="333" 
d="M284 89h-99l-127 154l124 154h100l-125 -154z" />
    <glyph glyph-name="guilsinglright" unicode="&#x203a;" horiz-adv-x="333" 
d="M58 397h99l127 -154l-124 -154h-100l125 154z" />
    <glyph glyph-name="fraction" unicode="&#x2044;" horiz-adv-x="167" 
d="M-167 -12l406 724h95l-410 -724h-91z" />
    <glyph glyph-name="Euro" unicode="&#x20ac;" 
d="M277 230q52 -90 151 -90h108v-140h-116q-103 0 -188 61q-88 64 -123 169h-88v96h70l-1 24q0 19 1 28h-70v96h89q36 103 124 166q85 60 186 60h116v-140h-108q-95 0 -149 -86h176v-96h-208q-1 -9 -1 -28q0 -16 1 -24h208v-96h-178z" />
    <glyph glyph-name="uni2113" unicode="&#x2113;" horiz-adv-x="517" 
d="M500 133q-38 -75 -96 -111q-51 -31 -115 -31q-85 0 -133 48q-41 41 -50 112v11l-25 -19q-16 -13 -26 -20l-33 72l43 35q25 20 39 34v247q0 126 54 195q49 62 129 62q71 0 109 -53q34 -48 34 -128q0 -83 -52 -171q-46 -79 -141 -171v-44q3 -100 84 -100q36 0 71 28
q29 23 53 62zM237 370q108 127 108 223q0 77 -50 77q-25 0 -39 -32q-19 -41 -19 -126v-142z" />
    <glyph glyph-name="trademark" unicode="&#x2122;" horiz-adv-x="1000" 
d="M600 700l94 -250l93 250h153v-420h-106v290h-2l-98 -290h-81l-98 290h-2v-290h-106v420h153zM369 700v-86h-115v-334h-112v334h-114v86h341z" />
    <glyph glyph-name="Omega" unicode="&#x2126;" horiz-adv-x="700" 
d="M167 114q-51 48 -81 112q-37 77 -37 163q0 133 83 225q86 95 220 95q70 0 129 -29q54 -26 93 -74q75 -91 75 -210q0 -88 -37 -167q-31 -67 -82 -115v-3h133v-111h-267v82q50 32 79 97q35 77 35 187q0 96 -40 160q-44 68 -118 68t-119 -66q-45 -65 -45 -167t35 -180
q31 -70 79 -99v-82h-267v111h132v3z" />
    <glyph glyph-name="estimated" unicode="&#x212e;" horiz-adv-x="873" 
d="M187 340q-5 0 -5 -4v-197q0 -13 8 -23q104 -107 246 -107q155 0 260 120h57q-117 -140 -318 -140q-166 0 -283 105q-118 106 -118 255q0 151 118 257q117 106 283 106q167 0 285 -106t118 -257v-9h-651zM690 564q0 14 -9 23q-106 103 -245 103q-141 0 -245 -106
q-9 -9 -9 -25v-193q0 -7 5 -7h499q4 0 4 7v198z" />
    <glyph glyph-name="partialdiff" unicode="&#x2202;" horiz-adv-x="577" 
d="M65 731q32 24 69 38q54 20 117 20q118 0 195 -96q84 -104 84 -285q0 -190 -75 -302q-76 -113 -209 -113q-99 0 -158 79q-52 68 -52 158q0 119 63 193q61 71 153 71q52 0 95 -29q17 -11 30 -25q11 -11 17 -22h1q1 5 1 15v16q0 91 -44 157q-46 70 -119 70q-41 0 -78 -16
q-27 -12 -52 -32zM261 107q49 0 84 66q30 56 38 132q-7 27 -33 50q-31 28 -70 28q-47 0 -78 -48q-30 -46 -30 -110q0 -50 24 -83q24 -35 64 -35h1z" />
    <glyph glyph-name="Delta" unicode="&#x2206;" horiz-adv-x="654" 
d="M25 79l224 633h163l216 -631v-81h-603v79zM481 111l-101 274l-13 45q-4 15 -15 49l-8 23q-4 13 -6 23q-8 24 -11 38h-4l-9 -32q-2 -9 -6 -20l-21 -67q-8 -25 -13 -44l-107 -289h314z" />
    <glyph glyph-name="product" unicode="&#x220f;" horiz-adv-x="722" 
d="M598 573v-669h-136v669h-203v-669h-135v669h-100v125h673v-125h-99z" />
    <glyph glyph-name="summation" unicode="&#x2211;" 
d="M23 -96v87l234 310l-226 301v96h490v-117h-307v-3l197 -254l-220 -290v-3h347v-127h-515z" />
    <glyph glyph-name="minus" unicode="&#x2212;" horiz-adv-x="600" 
d="M542 189h-484v108h484v-108z" />
    <glyph glyph-name="uni2215" unicode="&#x2215;" horiz-adv-x="167" 
d="M-167 -12l406 724h95l-410 -724h-91z" />
    <glyph glyph-name="uni2219" unicode="&#x2219;" horiz-adv-x="278" 
d="M222 243q0 -83 -83 -83t-83 83t83 83t83 -83z" />
    <glyph glyph-name="radical" unicode="&#x221a;" horiz-adv-x="594" 
d="M380 -138h-108l-145 432l-74 -29l-22 76l177 71l98 -306l20 -89l2 -1q6 45 16 97l166 726h94z" />
    <glyph glyph-name="infinity" unicode="&#x221e;" horiz-adv-x="775" 
d="M728 287q0 -79 -50 -129q-47 -46 -112 -46q-46 0 -85 23q-45 26 -92 89q-44 -55 -81 -80q-47 -32 -103 -32q-64 0 -110 47q-48 49 -48 123q0 77 48 126q47 48 119 48q53 0 98 -29q39 -26 80 -80l32 36q21 21 39 35q50 38 109 38q67 -1 111 -46q45 -48 45 -122v-1z
M216 186q36 0 72 29q15 12 31 30q12 13 29 34l-29 40q-17 20 -30 33q-35 32 -77 32q-90 0 -90 -103q0 -39 27 -67t66 -28h1zM563 384q-38 0 -77 -35q-14 -13 -30 -32l-26 -31q79 -100 138 -100q38 0 62 32q22 28 22 64q0 102 -88 102h-1z" />
    <glyph glyph-name="integral" unicode="&#x222b;" horiz-adv-x="403" 
d="M365 760q-18 8 -35 8q-32 0 -49 -26q-26 -33 -26 -166q0 -54 2 -118l11 -229q2 -67 2 -128q0 -132 -35 -199q-20 -39 -58 -59q-34 -18 -76 -18q-49 0 -79 16l16 98q1 -1 4 -2l14 -5q6 -2 12 -3t13 -1q28 0 43 20q25 34 25 152q0 62 -2 130l-11 236q-2 65 -2 123
q0 162 61 229q43 47 121 47q39 0 63 -12z" />
    <glyph glyph-name="approxequal" unicode="&#x2248;" horiz-adv-x="544" 
d="M506 411q-54 -104 -136 -104q-46 0 -110 39l-21 13q-11 6 -20 10q-22 10 -43 10q-29 0 -53 -22q-10 -9 -21 -23l-18 -26l-48 44q52 104 146 104q31 0 61 -13q10 -4 23 -11q2 -2 5 -3l59 -35q21 -10 40 -10q26 0 49 20q17 15 40 51zM506 222q-53 -104 -137 -104
q-44 0 -109 39l-21 13q-12 7 -21 11q-21 10 -42 10q-29 0 -53 -22q-10 -9 -20 -24l-10 -13q-2 -2 -4 -6l-5 -7l-48 44q52 104 146 104q31 0 61 -12l37 -20l37 -23l11 -5q22 -12 42 -12q27 0 49 20q15 14 40 51z" />
    <glyph glyph-name="notequal" unicode="&#x2260;" horiz-adv-x="544" 
d="M366 428h131v-79h-160l-58 -132h218v-78h-247l-49 -113l-61 25l38 88h-131v78h161l57 132h-218v79h247l48 110l61 -25z" />
    <glyph glyph-name="lessequal" unicode="&#x2264;" horiz-adv-x="544" 
d="M52 322v85l442 221v-91l-365 -171v-3l365 -172v-91zM48 -16v79h450v-79h-450z" />
    <glyph glyph-name="greaterequal" unicode="&#x2265;" horiz-adv-x="544" 
d="M496 406v-84l-442 -222v91l365 172v3l-365 171v91zM49 -16v79h447v-79h-447z" />
    <glyph glyph-name="lozenge" unicode="&#x25ca;" horiz-adv-x="593" 
d="M348 -50h-109l-190 398l196 399h109l191 -399zM318 574q-14 38 -18 62h-4l-8 -31l-11 -31l-108 -223l108 -233q11 -30 17 -58h4l17 56l110 229z" />
    </font>
</defs>
</svg>
