<?xml version="1.0" standalone="no"?>
<!DOCTYPE svg PUBLIC "-//W3C//DTD SVG 1.1//EN" "http://www.w3.org/Graphics/SVG/1.1/DTD/svg11.dtd" >
<svg xmlns="http://www.w3.org/2000/svg" xmlns:xlink="http://www.w3.org/1999/xlink" version="1.1">
<metadata>
Created by FontForge 20170731 at Wed Jun  8 18:01:53 2011
 By Aleksey,,,
</metadata>
<defs>
<font id="fatten-medium" horiz-adv-x="556" >
  <font-face 
    font-family="fatten-medium"
    font-weight="500"
    font-stretch="normal"
    units-per-em="1000"
    panose-1="0 0 6 0 0 0 0 0 0 0"
    ascent="700"
    descent="-300"
    x-height="480"
    cap-height="700"
    bbox="-167 -228 1019 940"
    underline-thickness="50"
    underline-position="-150"
    unicode-range="U+0020-FB02"
  />
<missing-glyph horiz-adv-x="500" 
d="M0 700h500v-700h-500v700zM420 650h-340l170 -255zM450 95v510l-170 -255zM420 50l-170 255l-170 -255h340zM50 95l170 255l-170 255v-510z" />
    <glyph glyph-name="uniFB01" unicode="fi" horiz-adv-x="500" 
d="M140 0h-88v525q0 81 48 128q47 47 122 47h74v-84h-62q-94 0 -94 -89v-47h144v-84h-144v-396zM438 0h-88v480h88v-480zM394 640q53 0 53 -53t-53 -53t-53 53t53 53z" />
    <glyph glyph-name="uniFB02" unicode="fl" horiz-adv-x="500" 
d="M140 0h-88v525q0 81 48 128q47 47 122 47h74v-84h-62q-94 0 -94 -89v-47h144v-84h-144v-396zM438 0h-88v700h88v-700z" />
    <glyph glyph-name=".notdef" horiz-adv-x="500" 
d="M0 700h500v-700h-500v700zM420 650h-340l170 -255zM450 95v510l-170 -255zM420 50l-170 255l-170 -255h340zM50 95l170 255l-170 255v-510z" />
    <glyph glyph-name=".null" horiz-adv-x="0" 
 />
    <glyph glyph-name="nonmarkingreturn" horiz-adv-x="333" 
 />
    <glyph glyph-name="space" unicode=" " horiz-adv-x="278" 
 />
    <glyph glyph-name="exclam" unicode="!" horiz-adv-x="222" 
d="M150 160h-84v540h84v-540zM108 112q62 0 62 -62t-62 -62t-62 62t62 62z" />
    <glyph glyph-name="quotedbl" unicode="&#x22;" horiz-adv-x="333" 
d="M197 430v270h82v-270h-82zM55 430v270h82v-270h-82z" />
    <glyph glyph-name="numbersign" unicode="#" 
d="M495 278l-3 -64h-97l-30 -214h-72l30 214h-119l-30 -214h-72l30 214h-100l3 64h106l20 144h-100l3 64h106l29 214h73l-30 -214h119l29 214h73l-30 -214h91l-3 -64h-97l-20 -144h91zM352 422h-119l-20 -144h119z" />
    <glyph glyph-name="dollar" unicode="$" 
d="M326 782v-82h135v-84h-135v-177q12 -9 29 -20l15 -9q5 -3 7 -5q4 -2 7 -5q34 -22 52 -38q52 -48 52 -122q0 -73 -47 -110q-43 -34 -115 -34v-108h-76v108h-160v84h160v192l-57 35q-34 20 -53 37q-54 47 -54 114q0 68 48 106q45 36 116 36v82h76zM250 616q-76 0 -76 -63
q0 -27 27 -50q10 -9 24 -19l25 -14v146zM326 337v-157q74 0 74 64q0 32 -25 56q-8 9 -24 19z" />
    <glyph glyph-name="percent" unicode="%" horiz-adv-x="889" 
d="M150 486q25 -24 60 -24t60 24q26 25 26 62t-26 62q-25 24 -60 24t-60 -24q-26 -25 -26 -62t26 -62zM695 712l-465 -724h-62l465 724h62zM594 90q25 -24 60 -24t60 24q26 25 26 62t-26 62q-25 24 -60 24t-60 -24q-26 -25 -26 -62t26 -62zM97 667q48 45 113 45t114 -45
q50 -48 50 -119t-50 -119q-49 -45 -114 -45t-113 45q-51 48 -51 119t51 119zM541 271q48 45 113 45t114 -45q50 -48 50 -119t-50 -119q-49 -45 -114 -45t-113 45q-51 48 -51 119t51 119z" />
    <glyph glyph-name="ampersand" unicode="&#x26;" horiz-adv-x="667" 
d="M495 700v-88h-277q-20 0 -20 -13q0 -12 22 -41l291 -372q22 30 22 88q0 70 -66 150l64 66q49 -51 71 -97q25 -53 25 -118q0 -92 -54 -169l84 -106h-114l-36 39q-36 -26 -86 -39q-44 -12 -93 -12q-125 0 -209 80q-86 81 -86 205q0 152 119 233q-21 25 -32 45
q-16 28 -16 53q0 96 101 96h290zM209 435q-78 -59 -78 -160q0 -84 56 -141q56 -58 140 -58q78 0 128 40z" />
    <glyph glyph-name="quotesingle" unicode="'" horiz-adv-x="222" 
d="M70 430v270h82v-270h-82z" />
    <glyph glyph-name="parenleft" unicode="(" horiz-adv-x="389" 
d="M292 -188q-105 75 -164 200q-56 119 -56 253q0 132 55 250q58 125 161 197l40 -54q-178 -142 -178 -388q0 -123 42 -221q45 -107 136 -177z" />
    <glyph glyph-name="parenright" unicode=")" horiz-adv-x="389" 
d="M97 712q105 -75 164 -199q56 -120 56 -254q0 -132 -55 -250q-58 -125 -161 -197l-40 54q178 142 178 388q0 123 -42 222q-45 106 -136 176z" />
    <glyph glyph-name="asterisk" unicode="*" horiz-adv-x="500" 
d="M100 374l-38 62l132 71l-132 69l38 62l124 -84l-12 146h76l-12 -146l124 84l38 -62l-132 -69l132 -71l-38 -62l-124 80l12 -140h-76l12 140z" />
    <glyph glyph-name="plus" unicode="+" horiz-adv-x="600" 
d="M261 279v201h78v-201h201v-78h-201v-201h-78v201h-201v78h201z" />
    <glyph glyph-name="comma" unicode="," horiz-adv-x="278" 
d="M62 -100l42 196h94l-58 -196h-78z" />
    <glyph glyph-name="hyphen" unicode="-" horiz-adv-x="278" 
d="M251 200h-224v80h224v-80z" />
    <glyph glyph-name="period" unicode="." horiz-adv-x="278" 
d="M139 112q59 0 59 -59t-59 -59t-59 59t59 59z" />
    <glyph glyph-name="slash" unicode="/" horiz-adv-x="278" 
d="M206 712h78l-212 -724h-78z" />
    <glyph glyph-name="zero" unicode="0" 
d="M33 454q0 116 73 189q70 69 172 69t172 -69q73 -73 73 -189v-208q0 -116 -73 -189q-70 -69 -172 -69t-172 69q-73 73 -73 189v208zM135 246q0 -164 143 -164t143 164v208q0 164 -143 164t-143 -164v-208z" />
    <glyph glyph-name="one" unicode="1" 
d="M137 700h196v-700h-96v612h-126z" />
    <glyph glyph-name="two" unicode="2" 
d="M510 88v-88h-384q-94 0 -94 74q0 35 63 85l246 193q32 26 52 58q24 39 24 80q0 59 -40 97q-39 37 -98 37q-142 0 -142 -148q0 -52 41 -90q38 -37 91 -42l-82 -65q-146 54 -146 210q0 100 75 163q71 60 173 60q93 0 159 -64q65 -64 65 -157q0 -79 -45 -140
q-20 -27 -51 -55q-23 -22 -64 -54l-195 -152v-2h352z" />
    <glyph glyph-name="three" unicode="3" 
d="M45 0v88h231q66 0 104 39q35 36 35 93q0 120 -164 120h-109v70l219 202h-300v88h303q99 0 99 -76q0 -33 -25 -62q-10 -12 -26 -26l-127 -108q100 -2 162 -56q64 -56 64 -149q0 -99 -60 -162q-59 -61 -149 -61h-257z" />
    <glyph glyph-name="four" unicode="4" 
d="M265 700h104l-252 -450h210v302l88 150q6 10 7 10t1 -14v-448h105v-88h-105v-162h-96v162h-250q-67 0 -67 58q0 15 9 34q3 7 9 18z" />
    <glyph glyph-name="five" unicode="5" 
d="M86 700h366v-88h-270v-182h85q116 0 182 -55q69 -58 69 -165q0 -83 -56 -144q-60 -66 -151 -66h-255v88h229q131 0 131 124q0 130 -155 130h-175v358z" />
    <glyph glyph-name="six" unicode="6" 
d="M295 490q113 -3 177 -75q60 -68 60 -177q0 -100 -73 -174q-76 -76 -185 -76q-104 0 -177 72t-73 177q0 62 27 119q11 23 29 51l206 293h116l-218 -306q-34 -49 -47 -79q-17 -40 -17 -86q0 -62 47 -108q46 -45 109 -45q65 0 112 47q48 47 48 113q0 86 -56 132
q-53 44 -140 42z" />
    <glyph glyph-name="seven" unicode="7" 
d="M44 612v88h351q108 0 108 -72q0 -26 -18 -68q-6 -15 -19 -43l-6 -11l-224 -506h-110l274 612h-356z" />
    <glyph glyph-name="eight" unicode="8" 
d="M141 396q-34 32 -49 61q-17 34 -17 81q0 68 55 119q58 55 148 55q87 0 142 -46q57 -49 57 -128q0 -80 -62 -142q112 -59 112 -186q0 -92 -64 -154q-69 -68 -185 -68t-185 68q-64 62 -64 154q0 115 112 186zM172 113q41 -37 106 -37t106 37t41 98t-41 98t-106 37t-106 -37
t-41 -98t41 -98zM276 434q99 0 99 95t-99 95t-99 -95t99 -95z" />
    <glyph glyph-name="nine" unicode="9" 
d="M261 210q-113 3 -177 75q-60 68 -60 177q0 100 74 174q75 76 184 76q104 0 177 -72t73 -177q0 -62 -27 -119q-11 -23 -29 -51l-206 -293h-116l218 306q34 49 47 79q17 40 17 86q0 62 -46 108q-47 45 -110 45q-65 0 -112 -47q-48 -47 -48 -113q0 -86 56 -132
q53 -44 140 -42z" />
    <glyph glyph-name="colon" unicode=":" horiz-adv-x="278" 
d="M139 112q59 0 59 -59t-59 -59t-59 59t59 59zM139 400q59 0 59 -59t-59 -59t-59 59t59 59z" />
    <glyph glyph-name="semicolon" unicode=";" horiz-adv-x="278" 
d="M62 -100l42 196h94l-58 -196h-78zM139 400q59 0 59 -59t-59 -59t-59 59t59 59z" />
    <glyph glyph-name="less" unicode="&#x3c;" horiz-adv-x="600" 
d="M540 70v-78l-480 214v68l480 214v-78l-383 -170z" />
    <glyph glyph-name="equal" unicode="=" horiz-adv-x="600" 
d="M540 378v-78h-480v78h480zM540 180v-78h-480v78h480z" />
    <glyph glyph-name="greater" unicode="&#x3e;" horiz-adv-x="600" 
d="M60 70l382 170l-382 170v78l480 -214v-68l-480 -214v78z" />
    <glyph glyph-name="question" unicode="?" horiz-adv-x="444" 
d="M26 490q0 96 58 158q60 64 154 64q81 0 141 -60q59 -61 59 -146q0 -84 -50 -141q-48 -56 -126 -70v-135h-88v220h26q144 0 144 122q0 52 -30 87q-32 35 -83 35q-55 0 -84 -40q-26 -36 -27 -94h-94zM218 112q62 0 62 -62t-62 -62t-62 62t62 62z" />
    <glyph glyph-name="at" unicode="@" horiz-adv-x="800" 
d="M360 212q56 0 98 61q39 56 39 116q0 35 -23 61q-24 26 -56 26q-57 0 -99 -59q-39 -54 -39 -115q0 -90 80 -90zM544 536h70l-78 -285q-3 -14 -3 -22q0 -25 19 -25q47 0 88 60q41 62 41 138q0 113 -78 181q-75 65 -188 65q-126 0 -208 -87q-80 -86 -80 -214t85 -212
q85 -83 212 -83q138 0 225 100h70q-102 -164 -299 -164q-155 0 -262 105t-107 258q0 151 107 256t257 105q137 0 234 -83q100 -85 100 -215q0 -64 -25 -120q-23 -49 -62 -87q-74 -71 -148 -71q-56 0 -59 57h-2q-51 -57 -112 -57q-62 0 -104 46q-41 46 -41 111q0 100 60 177
q64 82 158 82q77 0 112 -72z" />
    <glyph glyph-name="A" unicode="A" 
d="M133 0h-94v444q0 122 69 196q66 72 170 72t171 -72q68 -74 68 -196v-444h-94v318h-252v88h252v44q0 174 -145 174t-145 -174v-450z" />
    <glyph glyph-name="B" unicode="B" 
d="M153 0h-94v496q0 87 63 150q64 66 159 66q102 0 164 -52q63 -53 63 -144q0 -97 -70 -141q102 -59 102 -177q0 -90 -60 -144q-58 -54 -150 -54h-141v88h117q140 0 140 115t-140 115h-117v88h98q61 0 95 32q32 29 32 74q0 53 -37 84q-35 28 -88 28q-136 0 -136 -136v-488z
" />
    <glyph glyph-name="C" unicode="C" horiz-adv-x="500" 
d="M475 700v-88h-64q-120 0 -199 -75q-79 -74 -79 -187q0 -65 23 -118q21 -47 59 -81q70 -63 160 -63h100v-88h-100q-146 0 -243 100t-97 250q0 136 98 239q49 52 115 80q71 31 153 31h74z" />
    <glyph glyph-name="D" unicode="D" horiz-adv-x="611" 
d="M153 0h-94v700h177q146 0 246 -104q97 -103 97 -246t-97 -245q-100 -105 -246 -105h-43v88h51q99 0 168 76t69 186q0 115 -76 189q-76 73 -195 73h-57v-612z" />
    <glyph glyph-name="E" unicode="E" horiz-adv-x="500" 
d="M459 406v-88h-338q6 -97 81 -164q72 -66 166 -66h91v-88h-74q-157 0 -260 101q-102 100 -102 249t102 249q103 101 260 101h74v-88h-63q-65 0 -120 -22q-48 -20 -85 -55q-66 -62 -70 -129h338z" />
    <glyph glyph-name="F" unicode="F" horiz-adv-x="389" 
d="M122 0h-94v465q0 235 217 235h116v-88h-102q-137 0 -137 -137v-83h239v-88h-239v-304z" />
    <glyph glyph-name="G" unicode="G" horiz-adv-x="778" 
d="M615 518l-54 44q-28 21 -51 33q-54 29 -121 29q-115 0 -192 -81q-76 -80 -76 -193t76 -193q77 -81 192 -81q103 0 176 61q76 65 81 169h-244v88h342v-60q0 -82 -32 -150q-29 -62 -83 -108q-102 -88 -240 -88q-150 0 -257 105q-109 107 -109 257t109 257q107 105 257 105
q163 0 289 -126z" />
    <glyph glyph-name="H" unicode="H" horiz-adv-x="611" 
d="M153 0h-94v700h94v-294h304v294h94v-700h-94v318h-304v-318z" />
    <glyph glyph-name="I" unicode="I" horiz-adv-x="222" 
d="M158 0h-94v700h94v-700z" />
    <glyph glyph-name="J" unicode="J" horiz-adv-x="333" 
d="M195 700h94v-474q0 -108 -58 -165q-61 -61 -184 -61h-49v88h47q150 0 150 132v480z" />
    <glyph glyph-name="K" unicode="K" 
d="M158 0h-94v700h94v-294h72q79 0 122 96l89 198h105l-79 -172q-7 -15 -10 -23q-13 -28 -23 -46q-28 -49 -62 -71q68 -18 102 -62q38 -49 38 -132v-194h-94v194q0 57 -29 88q-33 36 -100 36h-131v-318z" />
    <glyph glyph-name="L" unicode="L" horiz-adv-x="389" 
d="M64 700h94v-451q0 -161 142 -161h91v-88h-105q-100 0 -162 64q-60 62 -60 162v474z" />
    <glyph glyph-name="M" unicode="M" horiz-adv-x="778" 
d="M98 0h-98l81 638q9 74 78 74q63 0 87 -82l142 -471h2l142 471q24 82 87 82q69 0 78 -74l81 -638h-98l-67 568h-2l-150 -488q-15 -50 -31 -66q-13 -14 -40 -14h-2q-27 0 -40 14q-16 16 -31 66l-150 488h-2z" />
    <glyph glyph-name="N" unicode="N" horiz-adv-x="611" 
d="M144 0h-94v620q0 86 82 86q38 0 61 -25q18 -19 46 -78l225 -465h2v562h94v-639q0 -67 -72 -67q-60 0 -93 68l-249 512h-2v-574z" />
    <glyph glyph-name="O" unicode="O" horiz-adv-x="778" 
d="M132 607q107 105 257 105t257 -105q109 -107 109 -257t-109 -257q-107 -105 -257 -105t-257 105q-109 107 -109 257t109 257zM197 157q77 -81 192 -81t192 81q76 80 76 193t-76 193q-77 81 -192 81t-192 -81q-76 -80 -76 -193t76 -193z" />
    <glyph glyph-name="P" unicode="P" horiz-adv-x="500" 
d="M134 0h-94v468q0 110 67 179q64 65 157 65q103 0 169 -68q62 -64 62 -157t-57 -158t-140 -65h-127v88h100q57 0 93 36q37 37 37 99t-39 100q-38 37 -97 37q-57 0 -94 -39t-37 -105v-480z" />
    <glyph glyph-name="Q" unicode="Q" horiz-adv-x="778" 
d="M456 -144h-94v372h94v-144q92 22 147 97q54 73 54 169q0 113 -76 193q-77 81 -192 81t-192 -81q-76 -80 -76 -193q0 -97 60 -175q57 -73 135 -89v-90q-123 23 -206 119q-87 101 -87 235q0 150 109 257q107 105 257 105q149 0 257 -105q108 -106 109 -257q0 -132 -91 -236
q-88 -101 -208 -118v-140z" />
    <glyph glyph-name="R" unicode="R" 
d="M144 0h-94v462q0 116 64 184q63 66 168 66q95 0 156 -59q60 -57 60 -140q0 -107 -81 -156q48 -19 69 -52q24 -37 24 -110v-195h-94v192q0 114 -127 114h-104v88h74q65 0 104 29q41 31 41 87q0 50 -37 83q-35 31 -85 31q-61 0 -99 -37q-39 -38 -39 -98v-489z" />
    <glyph glyph-name="S" unicode="S" horiz-adv-x="500" 
d="M24 0v88h240q117 0 117 91q0 47 -55 85q-21 15 -56 32l-65 31q-40 19 -65 34q-34 20 -56 41q-55 52 -55 122q0 83 55 131q52 45 137 45h223v-88h-236q-85 0 -85 -83q0 -42 55 -78q21 -13 56 -31l65 -30q39 -19 65 -35q33 -21 56 -43q55 -53 55 -125q0 -85 -50 -135
q-52 -52 -144 -52h-257z" />
    <glyph glyph-name="T" unicode="T" horiz-adv-x="444" 
d="M2 612v88h440v-88h-173v-612h-94v612h-173z" />
    <glyph glyph-name="U" unicode="U" 
d="M46 700h94v-460q0 -74 35 -118q36 -46 102 -46t103 46q35 45 35 118v460h94v-470q0 -102 -67 -172t-165 -70t-165 70q-66 70 -66 172v470z" />
    <glyph glyph-name="V" unicode="V" 
d="M-14 700h98l197 -578h2l190 578h97l-203 -630q-27 -82 -84 -82q-56 0 -84 82z" />
    <glyph glyph-name="W" unicode="W" horiz-adv-x="889" 
d="M49 700h94v-490q0 -134 127 -134t127 134v490h94v-490q0 -134 127 -134t127 134v490h94v-490q0 -101 -64 -164q-59 -58 -143 -58q-64 0 -106 19q-48 22 -82 72q-34 -50 -82 -72q-42 -19 -106 -19q-84 0 -143 58q-64 63 -64 164v490z" />
    <glyph glyph-name="X" unicode="X" 
d="M552 612q-99 1 -163 -79q-60 -76 -60 -183t60 -183q64 -80 163 -79v-88q-97 3 -172 54q-81 56 -101 146h-2q-20 -90 -101 -146q-75 -51 -172 -54v88q99 -1 163 79q60 76 60 183t-60 183q-64 80 -163 79v88q97 -3 172 -54q81 -56 101 -146h2q20 90 101 146q75 51 172 54
v-88z" />
    <glyph glyph-name="Y" unicode="Y" horiz-adv-x="500" 
d="M295 0h-94v274q-88 21 -135 83q-43 57 -43 131v212h94v-213q0 -125 133 -125q132 0 132 125v213h94v-212q0 -75 -43 -131q-48 -62 -138 -83v-274z" />
    <glyph glyph-name="Z" unicode="Z" horiz-adv-x="500" 
d="M370 612h-321v88h337q82 0 82 -60q0 -51 -41 -108l-313 -444h365v-88h-391q-35 0 -57 22q-19 20 -19 46q0 30 13 58q8 18 30 48z" />
    <glyph glyph-name="bracketleft" unicode="[" horiz-adv-x="389" 
d="M286 -176h-174v876h174v-46h-86v-784h86v-46z" />
    <glyph glyph-name="backslash" unicode="\" horiz-adv-x="278" 
d="M-62 712h78l324 -724h-78z" />
    <glyph glyph-name="bracketright" unicode="]" horiz-adv-x="389" 
d="M103 700h174v-876h-174v46h86v784h-86v46z" />
    <glyph glyph-name="asciicircum" unicode="^" horiz-adv-x="600" 
d="M140 286h-84l206 414h76l206 -414h-84l-160 328z" />
    <glyph glyph-name="underscore" unicode="_" horiz-adv-x="500" 
d="M500 -125h-500v50h500v-50z" />
    <glyph glyph-name="grave" unicode="`" horiz-adv-x="278" 
d="M7 680h108l90 -142h-68z" />
    <glyph glyph-name="a" unicode="a" 
d="M516 0h-88v270q0 64 -48 102q-44 34 -108 34q-71 0 -115 -50q-43 -48 -43 -118q0 -68 44 -115q45 -49 113 -49q69 0 121 66v-104q-31 -23 -55 -33q-33 -13 -75 -13q-102 0 -170 75q-66 73 -66 180q0 105 66 174q69 71 182 71q111 0 177 -62q65 -62 65 -166v-262z" />
    <glyph glyph-name="b" unicode="b" 
d="M40 700h88v-430q0 -95 46 -147q41 -49 108 -49q70 0 115 47q45 46 45 120t-43 120q-44 45 -115 45q-60 0 -121 -42v92q60 34 136 34q93 0 162 -69q69 -70 69 -169q0 -111 -65 -184q-70 -78 -183 -78q-106 0 -174 73t-68 191v446z" />
    <glyph glyph-name="c" unicode="c" horiz-adv-x="389" 
d="M368 480v-84h-68q-67 0 -114 -40q-51 -43 -51 -116t51 -116q47 -40 114 -40h68v-84h-84q-92 0 -162 62q-79 69 -79 178t79 178q70 62 162 62h84z" />
    <glyph glyph-name="d" unicode="d" 
d="M428 700h88v-446q0 -118 -68 -191t-174 -73q-113 0 -182 78q-66 73 -66 184q0 99 69 169q69 69 162 69q77 0 136 -34v-92q-61 42 -121 42q-71 0 -115 -45q-43 -46 -43 -120t45 -120q45 -47 115 -47q67 0 109 49q45 52 45 147v430z" />
    <glyph glyph-name="e" unicode="e" 
d="M187 158l-36 70l237 132q-46 46 -109 46q-69 0 -113 -46q-44 -47 -44 -120t44 -120q44 -46 113 -46q73 0 113 42q33 35 48 108l89 -11q-8 -96 -77 -159q-70 -64 -173 -64q-102 0 -174 70q-75 71 -75 180t75 181q72 69 174 69q158 0 232 -152z" />
    <glyph glyph-name="f" unicode="f" horiz-adv-x="278" 
d="M140 0h-88v525q0 81 48 128q47 47 122 47h74v-84h-62q-94 0 -94 -89v-47h144v-84h-144v-396z" />
    <glyph glyph-name="g" unicode="g" 
d="M393 22q-59 -32 -113 -32q-105 0 -176 70q-72 69 -72 174q0 110 68 182q69 74 180 74q105 0 173 -74q63 -69 63 -164v-214q0 -130 -73 -200q-67 -66 -178 -66q-74 0 -158 28l21 80l33 -9l33 -7q37 -8 67 -8q69 0 113 32q54 40 54 120v224q0 79 -45 128q-43 46 -107 46
q-75 0 -117 -53q-39 -49 -39 -124q0 -69 46 -113q46 -42 115 -42q27 0 58 12q23 9 54 27v-91z" />
    <glyph glyph-name="h" unicode="h" horiz-adv-x="500" 
d="M133 0h-88v700h88v-262q47 52 123 52q92 0 141 -44q58 -52 58 -166v-280h-88v280q0 68 -35 100q-29 26 -82 26q-49 0 -82 -35q-35 -36 -35 -91v-280z" />
    <glyph glyph-name="i" unicode="i" horiz-adv-x="278" 
d="M183 0h-88v480h88v-480zM139 640q53 0 53 -53t-53 -53t-53 53t53 53z" />
    <glyph glyph-name="j" unicode="j" horiz-adv-x="222" 
d="M68 480h88v-521q0 -90 -55 -135q-50 -40 -140 -40h-26v84h23q65 0 87 22q23 22 23 88v502zM112 640q53 0 53 -53t-53 -53t-53 53t53 53z" />
    <glyph glyph-name="k" unicode="k" horiz-adv-x="444" 
d="M140 0h-88v700h88v-398h37q53 0 74 36l83 142h100l-63 -108q-9 -16 -16 -27l-18 -27q-23 -29 -41 -34v-2q110 -22 110 -141v-141h-88v131q0 87 -78 87h-100v-218z" />
    <glyph glyph-name="l" unicode="l" horiz-adv-x="222" 
d="M155 0h-88v700h88v-700z" />
    <glyph glyph-name="m" unicode="m" horiz-adv-x="722" 
d="M137 0h-88v326q0 68 49 116q50 48 123 48q93 0 140 -68q47 68 140 68q73 0 123 -48q49 -48 49 -116v-326h-88v306q0 100 -86 100q-94 0 -94 -114v-292h-88v292q0 114 -94 114q-86 0 -86 -100v-306z" />
    <glyph glyph-name="n" unicode="n" horiz-adv-x="500" 
d="M133 0h-88v280q0 93 59 152q57 58 146 58t146 -58q59 -59 59 -152v-280h-88v280q0 54 -35 91q-34 35 -82 35t-82 -35q-35 -37 -35 -91v-280z" />
    <glyph glyph-name="o" unicode="o" 
d="M104 421q72 69 174 69t174 -69q75 -72 75 -181t-75 -180q-72 -70 -174 -70t-174 70q-75 71 -75 180t75 181zM165 120q44 -46 113 -46t113 46q44 47 44 120t-44 120q-44 46 -113 46t-113 -46q-44 -47 -44 -120t44 -120z" />
    <glyph glyph-name="p" unicode="p" 
d="M128 -216h-88v442q0 118 68 191t174 73q113 0 183 -78q65 -73 65 -184q0 -99 -69 -169q-69 -69 -162 -69q-76 0 -136 34v92q61 -42 121 -42q71 0 115 45q43 46 43 120t-45 120q-45 47 -115 47q-67 0 -108 -48q-46 -53 -46 -148v-426z" />
    <glyph glyph-name="q" unicode="q" 
d="M516 -216h-88v426q0 95 -45 148q-42 48 -109 48q-70 0 -115 -47q-45 -46 -45 -120t43 -120q44 -45 115 -45q60 0 121 42v-92q-59 -34 -136 -34q-93 0 -162 69q-69 70 -69 169q0 111 66 184q69 78 182 78q106 0 174 -73t68 -191v-442z" />
    <glyph glyph-name="r" unicode="r" horiz-adv-x="278" 
d="M44 0v480h84v-55h2q41 65 130 65h20v-84h-13q-135 0 -135 -182v-224h-88z" />
    <glyph glyph-name="s" unicode="s" horiz-adv-x="444" 
d="M28 0v84h246q57 0 57 46q0 29 -47 48q-18 7 -49 17l-20 5q-5 2 -7 2q-17 5 -28 9q-33 10 -56 20q-29 12 -49 27q-47 36 -47 92q0 130 164 130h207v-84h-222q-56 0 -57 -42q0 -27 47 -45q17 -7 48 -16l17 -4l39 -12q33 -10 56 -20q29 -12 49 -28q47 -37 47 -95
q0 -66 -43 -101q-39 -33 -106 -33h-246z" />
    <glyph glyph-name="t" unicode="t" horiz-adv-x="333" 
d="M319 480v-84h-172v-252q0 -60 66 -60h106v-84h-118q-142 0 -142 155v445h88v-120h172z" />
    <glyph glyph-name="u" unicode="u" horiz-adv-x="500" 
d="M367 480h88v-280q0 -93 -59 -152q-57 -58 -146 -58t-146 58q-59 59 -59 152v280h88v-280q0 -54 35 -91q34 -35 82 -35t82 35q35 37 35 91v280z" />
    <glyph glyph-name="v" unicode="v" horiz-adv-x="444" 
d="M362 480h96l-168 -441q-18 -49 -68 -49t-68 49l-167 441h96l140 -372z" />
    <glyph glyph-name="w" unicode="w" horiz-adv-x="722" 
d="M585 480h88v-326q0 -68 -49 -116q-50 -48 -123 -48q-93 0 -140 68q-47 -68 -140 -68q-73 0 -123 48q-49 48 -49 116v326h88v-306q0 -100 86 -100q94 0 94 114v292h88v-292q0 -114 94 -114q86 0 86 100v306z" />
    <glyph glyph-name="x" unicode="x" horiz-adv-x="389" 
d="M7 84q62 3 103 48t41 108t-41 108t-103 48v84q135 -8 187 -120q20 55 75 89q52 31 113 31v-84q-61 -3 -102 -48t-41 -108t41 -108t102 -48v-84q-124 0 -188 112q-61 -112 -187 -112v84z" />
    <glyph glyph-name="y" unicode="y" horiz-adv-x="500" 
d="M50 480h88v-288q0 -118 112 -118t112 118v288h88v-289q0 -160 -156 -201v-206h-88v206q-156 41 -156 201v289z" />
    <glyph glyph-name="z" unicode="z" horiz-adv-x="389" 
d="M364 84v-84h-274q-72 0 -72 63q0 35 48 93l196 240h-227v84h233q92 0 92 -64q0 -34 -15 -52l-229 -280h248z" />
    <glyph glyph-name="braceleft" unicode="{" horiz-adv-x="389" 
d="M33 292q31 0 55 30q24 31 24 79v177q0 53 29 88q29 34 71 34h79v-46h-46q-45 0 -45 -80v-186q0 -57 -32 -93q-12 -14 -26 -22q-12 -7 -21 -9v-2l9 -3q6 -2 12 -6q15 -8 26 -21q32 -35 32 -97v-185q0 -80 45 -80h46v-46h-79q-42 0 -71 34q-29 35 -29 88v176q0 49 -24 81
q-24 31 -55 31v58z" />
    <glyph glyph-name="bar" unicode="|" horiz-adv-x="222" 
d="M72 0v700h78v-700h-78z" />
    <glyph glyph-name="braceright" unicode="}" horiz-adv-x="389" 
d="M356 232q-31 0 -54 -30q-25 -31 -25 -79v-177q0 -53 -29 -88q-29 -34 -71 -34h-79v46h46q45 0 45 80v186q0 57 32 94q12 13 26 21q12 7 21 9v2l-9 3q-6 2 -12 6q-15 8 -26 21q-32 35 -32 97v185q0 80 -45 80h-46v46h79q42 0 71 -34q29 -35 29 -88v-176q0 -49 25 -81
q23 -31 54 -31v-58z" />
    <glyph glyph-name="asciitilde" unicode="~" horiz-adv-x="600" 
d="M531 254q-14 -20 -23 -31q-14 -17 -27 -28q-34 -27 -75 -27q-26 0 -55 11q-11 4 -24 11q-6 2 -13 6l-12 6q-32 17 -52 23q-30 11 -61 11q-30 0 -52 -23q-17 -17 -32 -49l-36 62q20 38 46 59q33 27 79 27q25 0 58 -11q22 -7 57 -23l28 -12q15 -7 26 -11q28 -11 44 -11
q27 0 50 23q15 14 38 49z" />
    <glyph glyph-name="uni00A0" unicode="&#xa0;" horiz-adv-x="278" 
 />
    <glyph glyph-name="exclamdown" unicode="&#xa1;" horiz-adv-x="222" 
d="M72 324h84v-540h-84v540zM114 372q-62 0 -62 62t62 62t62 -62t-62 -62z" />
    <glyph glyph-name="cent" unicode="&#xa2;" 
d="M252 700h76v-124h65v-88h-107q-120 0 -120 -108t120 -108h107v-88h-65v-129h-76v129q-77 1 -130 61q-52 57 -52 135q0 77 52 134q53 59 130 62v124z" />
    <glyph glyph-name="sterling" unicode="&#xa3;" 
d="M331 410v-88h-111v-127q0 -76 -36 -105l2 -2h133q127 0 127 129v104h96v-97q0 -224 -227 -224h-315v88h20q104 0 104 96l-3 102q-1 20 -1 36h-67v88h64v80q0 97 58 159q59 63 153 63q28 0 61 -7q27 -6 60 -17l-31 -85q-21 10 -40 15q-24 6 -47 6q-118 0 -118 -128l3 -63
q1 -13 1 -23h114z" />
    <glyph glyph-name="currency" unicode="&#xa4;" 
d="M73 97l-48 48l55 58q-50 61 -50 147t50 147l-55 58l48 48l55 -58q59 53 150 53t150 -53l55 58l48 -48l-55 -58q50 -61 50 -147t-50 -147l55 -58l-48 -48l-55 58q-59 -53 -150 -53t-150 53zM161 229q48 -51 117 -51t118 51q48 50 48 121t-48 121q-49 51 -118 51t-117 -51
q-49 -50 -49 -121t49 -121z" />
    <glyph glyph-name="yen" unicode="&#xa5;" 
d="M229 0v236h-187v88h187v26q0 18 -3 34h-184v88h163q-26 64 -74 102q-53 39 -119 38v88q94 -3 167 -54q79 -56 98 -146h2q19 90 98 146q73 51 167 54v-88q-66 1 -119 -38q-48 -38 -74 -102h163v-88h-184q-3 -16 -3 -34v-26h187v-88h-187v-236h-98z" />
    <glyph glyph-name="brokenbar" unicode="&#xa6;" horiz-adv-x="222" 
d="M72 0v262h78v-262h-78zM72 438v262h78v-262h-78z" />
    <glyph glyph-name="section" unicode="&#xa7;" horiz-adv-x="500" 
d="M345 583q-26 32 -40 43q-24 18 -54 18q-58 0 -58 -55q0 -28 40 -72q15 -17 40 -41l47 -43l47 -46q24 -26 40 -48q40 -54 40 -99q0 -48 -34 -78q-28 -25 -76 -35q29 -33 40 -56q14 -30 14 -69q0 -57 -48 -90q-43 -30 -102 -30q-50 0 -89 23q-28 17 -70 61l63 49
q40 -65 99 -65q63 0 63 58q0 31 -40 79q-15 18 -40 44q-10 9 -23 22l-24 24q-30 29 -47 47q-24 26 -40 47q-40 51 -40 90q0 108 115 111q-28 33 -41 55q-18 32 -18 63q0 55 43 90q41 32 97 32q50 0 87 -21q32 -18 68 -60zM158 320q20 -30 51 -62q71 -73 105 -73q49 0 49 41
q0 34 -72 110q-31 34 -60 55q-31 23 -49 23q-45 0 -45 -44q0 -18 21 -50z" />
    <glyph glyph-name="dieresis" unicode="&#xa8;" horiz-adv-x="278" 
d="M219 656q56 0 56 -56t-56 -56t-56 56t56 56zM59 656q56 0 56 -56t-56 -56t-56 56t56 56z" />
    <glyph glyph-name="copyright" unicode="&#xa9;" horiz-adv-x="800" 
d="M142 611q107 101 258 101t258 -101q110 -105 110 -261t-110 -261q-107 -101 -258 -101t-258 101q-110 105 -110 261t110 261zM198 137q81 -85 202 -85t202 85q82 85 82 213q0 127 -82 213q-81 85 -202 85t-202 -85q-82 -86 -82 -213q0 -128 82 -213zM590 285
q-27 -153 -177 -153q-94 0 -153 64q-58 61 -58 156q0 96 56 157q57 63 153 63q70 0 118 -39q51 -40 61 -112h-70q-15 83 -109 83q-61 0 -96 -43q-33 -41 -33 -108q0 -64 35 -108q37 -45 96 -45q97 0 107 85h70z" />
    <glyph glyph-name="ordfeminine" unicode="&#xaa;" horiz-adv-x="334" 
d="M328 418h-62v162q0 39 -29 60q-27 20 -69 20q-100 0 -100 -99q0 -97 99 -97q46 0 79 38v-62q-20 -14 -36 -20q-22 -8 -49 -8q-66 0 -111 45q-44 44 -44 108q0 63 44 104q46 43 119 43q159 0 159 -137v-157z" />
    <glyph glyph-name="guillemotleft" unicode="&#xab;" horiz-adv-x="500" 
d="M140 240l130 -154h-76l-130 154l124 154h76zM310 240l130 -154h-76l-130 154l124 154h76z" />
    <glyph glyph-name="logicalnot" unicode="&#xac;" horiz-adv-x="600" 
d="M462 102v198h-402v78h480v-276h-78z" />
    <glyph glyph-name="uni00AD" unicode="&#xad;" horiz-adv-x="278" 
d="M251 200h-224v80h224v-80z" />
    <glyph glyph-name="registered" unicode="&#xae;" horiz-adv-x="800" 
d="M142 611q107 101 258 101t258 -101q110 -105 110 -261t-110 -261q-107 -101 -258 -101t-258 101q-110 105 -110 261t110 261zM198 137q81 -85 202 -85t202 85q82 85 82 213q0 127 -82 213q-81 85 -202 85t-202 -85q-82 -86 -82 -213q0 -128 82 -213zM327 322v-179h-68
v414h157q150 0 150 -119q0 -101 -108 -113l116 -182h-74l-107 179h-66zM327 501v-123h86q85 0 85 65q0 58 -89 58h-82z" />
    <glyph glyph-name="macron" unicode="&#xaf;" horiz-adv-x="278" 
d="M294 572h-310v58h310v-58z" />
    <glyph glyph-name="degree" unicode="&#xb0;" horiz-adv-x="400" 
d="M200 470q95 0 95 99t-95 99t-95 -99t95 -99zM99 671q41 41 101 41t102 -41q41 -42 41 -102t-41 -101q-42 -42 -102 -42t-101 42q-42 41 -42 101t42 102z" />
    <glyph glyph-name="plusminus" unicode="&#xb1;" horiz-adv-x="600" 
d="M261 335v145h78v-145h201v-78h-201v-145h-78v145h-201v78h201zM60 0v78h480v-78h-480z" />
    <glyph glyph-name="uni00B2" unicode="&#xb2;" horiz-adv-x="333" 
d="M322 285h-254q-61 0 -61 44q0 21 41 51l160 116q21 15 34 35q15 24 15 48q0 79 -82 79q-92 0 -92 -87q0 -31 26 -55q24 -21 56 -25l-61 -39q-91 33 -91 126q0 60 49 98q46 36 112 36q63 0 108 -38q45 -39 45 -94q0 -48 -29 -85q-22 -28 -75 -65l-126 -89v-2h225v-54z" />
    <glyph glyph-name="uni00B3" unicode="&#xb3;" horiz-adv-x="333" 
d="M15 285v54h146q91 0 91 78q0 70 -107 70h-72v44l144 118v2h-191v54h201q64 0 64 -46q0 -20 -16 -37q-7 -7 -18 -16l-82 -63v-2q65 0 105 -33q42 -34 42 -89q0 -60 -39 -97q-38 -37 -97 -37h-171z" />
    <glyph glyph-name="acute" unicode="&#xb4;" horiz-adv-x="278" 
d="M73 538l90 142h108l-130 -142h-68z" />
    <glyph glyph-name="mu" unicode="&#xb5;" horiz-adv-x="500" 
d="M367 480h88v-280q0 -93 -59 -152q-57 -58 -146 -58q-69 0 -117 36v-242h-88v696h88v-280q0 -54 35 -91q34 -35 82 -35t82 35q35 37 35 91v280z" />
    <glyph glyph-name="paragraph" unicode="&#xb6;" horiz-adv-x="600" 
d="M242 -134v464q-96 0 -155 52q-59 50 -59 130q0 97 64 144q59 44 169 44h261v-834h-84v770h-112v-770h-84z" />
    <glyph glyph-name="periodcentered" unicode="&#xb7;" horiz-adv-x="278" 
d="M139 299q59 0 59 -59t-59 -59t-59 59t59 59z" />
    <glyph glyph-name="cedilla" unicode="&#xb8;" horiz-adv-x="278" 
d="M67 -76l64 86h48l-46 -63l17 2q10 1 17 1q80 0 80 -74q0 -92 -117 -92q-49 0 -99 22l18 39q35 -15 65 -15q57 0 57 42q0 40 -48 40q-9 0 -21 -3q-9 -2 -17 -5z" />
    <glyph glyph-name="uni00B9" unicode="&#xb9;" horiz-adv-x="333" 
d="M79 705h131v-420h-70v366h-78z" />
    <glyph glyph-name="ordmasculine" unicode="&#xba;" horiz-adv-x="334" 
d="M51 454q-50 43 -50 108t50 108q49 42 116 42t115 -42q51 -43 51 -108t-51 -108q-48 -42 -115 -42t-116 42zM267 562q0 98 -100 98t-100 -98t100 -98t100 98z" />
    <glyph glyph-name="guillemotright" unicode="&#xbb;" horiz-adv-x="500" 
d="M360 240l-124 154h76l124 -154l-130 -154h-76zM190 240l-124 154h76l124 -154l-130 -154h-76z" />
    <glyph glyph-name="onequarter" unicode="&#xbc;" horiz-adv-x="834" 
d="M233 -12h-69l432 724h69zM536 150h133v181l67 94l3 2v-277h64v-54h-64v-96h-70v96h-165q-43 0 -43 36q0 9 5 20l161 268h73zM79 705h131v-420h-70v366h-78z" />
    <glyph glyph-name="onehalf" unicode="&#xbd;" horiz-adv-x="834" 
d="M221 -12h-69l432 724h69zM822 0h-254q-61 0 -61 44q0 21 41 51l160 116q21 15 34 35q15 24 15 48q0 79 -82 79q-92 0 -92 -87q0 -31 26 -55q24 -21 56 -25l-61 -39q-91 33 -91 126q0 60 49 98q46 36 112 36q63 0 108 -38q45 -39 45 -94q0 -48 -29 -85q-22 -28 -75 -65
l-126 -89v-2h225v-54zM79 705h131v-420h-70v366h-78z" />
    <glyph glyph-name="threequarters" unicode="&#xbe;" horiz-adv-x="834" 
d="M263 -12h-69l432 724h69zM15 285v54h146q91 0 91 78q0 70 -107 70h-72v44l144 118v2h-191v54h201q64 0 64 -46q0 -20 -16 -37q-7 -7 -18 -16l-82 -63v-2q65 0 105 -33q42 -34 42 -89q0 -60 -39 -97q-38 -37 -97 -37h-171zM536 150h133v181l67 94l3 2v-277h64v-54h-64v-96
h-70v96h-165q-43 0 -43 36q0 9 5 20l161 268h73z" />
    <glyph glyph-name="questiondown" unicode="&#xbf;" horiz-adv-x="444" 
d="M418 -6q0 -96 -58 -158q-60 -64 -154 -64q-81 0 -140 60q-60 61 -60 146q0 84 50 142q48 55 126 69v135h88v-220h-26q-144 0 -144 -122q0 -52 30 -86q32 -36 83 -36q55 0 84 40q26 36 27 94h94zM226 372q-62 0 -62 62t62 62t62 -62t-62 -62z" />
    <glyph glyph-name="Agrave" unicode="&#xc0;" 
d="M133 0h-94v444q0 122 69 196q66 72 170 72t171 -72q68 -74 68 -196v-444h-94v318h-252v88h252v44q0 174 -145 174t-145 -174v-450zM146 882h108l90 -142h-68z" />
    <glyph glyph-name="Aacute" unicode="&#xc1;" 
d="M133 0h-94v444q0 122 69 196q66 72 170 72t171 -72q68 -74 68 -196v-444h-94v318h-252v88h252v44q0 174 -145 174t-145 -174v-450zM212 740l90 142h108l-130 -142h-68z" />
    <glyph glyph-name="Acircumflex" unicode="&#xc2;" 
d="M133 0h-94v444q0 122 69 196q66 72 170 72t171 -72q68 -74 68 -196v-444h-94v318h-252v88h252v44q0 174 -145 174t-145 -174v-450zM132 740l100 142h92l100 -142h-80l-66 94l-66 -94h-80z" />
    <glyph glyph-name="Atilde" unicode="&#xc3;" 
d="M133 0h-94v444q0 122 69 196q66 72 170 72t171 -72q68 -74 68 -196v-444h-94v318h-252v88h252v44q0 174 -145 174t-145 -174v-450zM448 865q-4 -41 -30 -73q-29 -36 -68 -36q-15 0 -39 6l-85 26q-20 6 -29 6q-37 0 -41 -45h-48q7 109 104 109q17 0 38 -6l70 -26
q18 -6 30 -6q45 0 50 45h48z" />
    <glyph glyph-name="Adieresis" unicode="&#xc4;" 
d="M133 0h-94v444q0 122 69 196q66 72 170 72t171 -72q68 -74 68 -196v-444h-94v318h-252v88h252v44q0 174 -145 174t-145 -174v-450zM358 858q56 0 56 -56t-56 -56t-56 56t56 56zM198 858q56 0 56 -56t-56 -56t-56 56t56 56z" />
    <glyph glyph-name="Aring" unicode="&#xc5;" 
d="M133 0h-94v444q0 122 69 196q66 72 170 72t171 -72q68 -74 68 -196v-444h-94v318h-252v88h252v44q0 174 -145 174t-145 -174v-450zM205 910q29 30 73 30t74 -30q28 -29 28 -72t-28 -72q-30 -30 -74 -30t-73 30q-29 29 -29 72t29 72zM278 784q54 0 54 54t-54 54t-54 -54
t54 -54z" />
    <glyph glyph-name="AE" unicode="&#xc6;" horiz-adv-x="889" 
d="M121 0h-94v444q0 122 69 196q66 72 170 72q173 0 229 -146q64 76 135 106q64 28 163 28h63v-88h-63q-61 0 -114 -21q-48 -19 -86 -52q-72 -63 -75 -133h338v-88h-338q6 -97 81 -164q72 -66 166 -66h91v-88h-47q-65 0 -116 11q-46 10 -82 28q-31 16 -56 39q-19 16 -39 41
h-2v-119h-94v318h-259v88h259v44q0 174 -150 174q-149 0 -149 -174v-450z" />
    <glyph glyph-name="Ccedilla" unicode="&#xc7;" horiz-adv-x="500" 
d="M475 700v-88h-64q-120 0 -199 -75q-79 -74 -79 -187q0 -65 23 -118q21 -47 59 -81q70 -63 160 -63h100v-88h-88l-39 -53l17 2q10 1 17 1q80 0 80 -74q0 -92 -117 -92q-49 0 -99 22l18 39q35 -15 65 -15q57 0 57 42q0 40 -48 40q-9 0 -21 -3q-9 -2 -17 -5l-18 20l58 77
q-133 13 -219 110q-86 98 -86 239q0 136 98 239q49 52 115 80q71 31 153 31h74z" />
    <glyph glyph-name="Egrave" unicode="&#xc8;" horiz-adv-x="500" 
d="M459 406v-88h-338q6 -97 81 -164q72 -66 166 -66h91v-88h-74q-157 0 -260 101q-102 100 -102 249t102 249q103 101 260 101h74v-88h-63q-65 0 -120 -22q-48 -20 -85 -55q-66 -62 -70 -129h338zM205 882h108l90 -142h-68z" />
    <glyph glyph-name="Eacute" unicode="&#xc9;" horiz-adv-x="500" 
d="M459 406v-88h-338q6 -97 81 -164q72 -66 166 -66h91v-88h-74q-157 0 -260 101q-102 100 -102 249t102 249q103 101 260 101h74v-88h-63q-65 0 -120 -22q-48 -20 -85 -55q-66 -62 -70 -129h338zM271 740l90 142h108l-130 -142h-68z" />
    <glyph glyph-name="Ecircumflex" unicode="&#xca;" horiz-adv-x="500" 
d="M459 406v-88h-338q6 -97 81 -164q72 -66 166 -66h91v-88h-74q-157 0 -260 101q-102 100 -102 249t102 249q103 101 260 101h74v-88h-63q-65 0 -120 -22q-48 -20 -85 -55q-66 -62 -70 -129h338zM191 740l100 142h92l100 -142h-80l-66 94l-66 -94h-80z" />
    <glyph glyph-name="Edieresis" unicode="&#xcb;" horiz-adv-x="500" 
d="M459 406v-88h-338q6 -97 81 -164q72 -66 166 -66h91v-88h-74q-157 0 -260 101q-102 100 -102 249t102 249q103 101 260 101h74v-88h-63q-65 0 -120 -22q-48 -20 -85 -55q-66 -62 -70 -129h338zM417 858q56 0 56 -56t-56 -56t-56 56t56 56zM257 858q56 0 56 -56t-56 -56
t-56 56t56 56z" />
    <glyph glyph-name="Igrave" unicode="&#xcc;" horiz-adv-x="222" 
d="M158 0h-94v700h94v-700zM-27 882h108l90 -142h-68z" />
    <glyph glyph-name="Iacute" unicode="&#xcd;" horiz-adv-x="222" 
d="M158 0h-94v700h94v-700zM39 740l90 142h108l-130 -142h-68z" />
    <glyph glyph-name="Icircumflex" unicode="&#xce;" horiz-adv-x="222" 
d="M158 0h-94v700h94v-700zM-41 740l100 142h92l100 -142h-80l-66 94l-66 -94h-80z" />
    <glyph glyph-name="Idieresis" unicode="&#xcf;" horiz-adv-x="222" 
d="M158 0h-94v700h94v-700zM185 858q56 0 56 -56t-56 -56t-56 56t56 56zM25 858q56 0 56 -56t-56 -56t-56 56t56 56z" />
    <glyph glyph-name="Eth" unicode="&#xd0;" horiz-adv-x="611" 
d="M150 318v-318h-94v318h-76v88h76v294h177q146 0 246 -104q97 -103 97 -246t-97 -245q-100 -105 -246 -105h-43v88h51q99 0 168 76t69 186q0 115 -76 189q-76 73 -195 73h-57v-206h170v-88h-170z" />
    <glyph glyph-name="Ntilde" unicode="&#xd1;" horiz-adv-x="611" 
d="M144 0h-94v620q0 86 82 86q38 0 61 -25q18 -19 46 -78l225 -465h2v562h94v-639q0 -67 -72 -67q-60 0 -93 68l-249 512h-2v-574zM488 865q-4 -41 -30 -73q-29 -36 -68 -36q-15 0 -39 6l-85 26q-20 6 -29 6q-37 0 -41 -45h-48q7 109 104 109q17 0 38 -6l70 -26q18 -6 30 -6
q45 0 50 45h48z" />
    <glyph glyph-name="Ograve" unicode="&#xd2;" horiz-adv-x="778" 
d="M132 607q107 105 257 105t257 -105q109 -107 109 -257t-109 -257q-107 -105 -257 -105t-257 105q-109 107 -109 257t109 257zM197 157q77 -81 192 -81t192 81q76 80 76 193t-76 193q-77 81 -192 81t-192 -81q-76 -80 -76 -193t76 -193zM257 882h108l90 -142h-68z" />
    <glyph glyph-name="Oacute" unicode="&#xd3;" horiz-adv-x="778" 
d="M132 607q107 105 257 105t257 -105q109 -107 109 -257t-109 -257q-107 -105 -257 -105t-257 105q-109 107 -109 257t109 257zM197 157q77 -81 192 -81t192 81q76 80 76 193t-76 193q-77 81 -192 81t-192 -81q-76 -80 -76 -193t76 -193zM323 740l90 142h108l-130 -142h-68
z" />
    <glyph glyph-name="Ocircumflex" unicode="&#xd4;" horiz-adv-x="778" 
d="M132 607q107 105 257 105t257 -105q109 -107 109 -257t-109 -257q-107 -105 -257 -105t-257 105q-109 107 -109 257t109 257zM197 157q77 -81 192 -81t192 81q76 80 76 193t-76 193q-77 81 -192 81t-192 -81q-76 -80 -76 -193t76 -193zM243 740l100 142h92l100 -142h-80
l-66 94l-66 -94h-80z" />
    <glyph glyph-name="Otilde" unicode="&#xd5;" horiz-adv-x="778" 
d="M132 607q107 105 257 105t257 -105q109 -107 109 -257t-109 -257q-107 -105 -257 -105t-257 105q-109 107 -109 257t109 257zM197 157q77 -81 192 -81t192 81q76 80 76 193t-76 193q-77 81 -192 81t-192 -81q-76 -80 -76 -193t76 -193zM559 865q-4 -41 -30 -73
q-29 -36 -68 -36q-15 0 -39 6l-85 26q-20 6 -29 6q-37 0 -41 -45h-48q7 109 104 109q17 0 38 -6l70 -26q18 -6 30 -6q45 0 50 45h48z" />
    <glyph glyph-name="Odieresis" unicode="&#xd6;" horiz-adv-x="778" 
d="M132 607q107 105 257 105t257 -105q109 -107 109 -257t-109 -257q-107 -105 -257 -105t-257 105q-109 107 -109 257t109 257zM197 157q77 -81 192 -81t192 81q76 80 76 193t-76 193q-77 81 -192 81t-192 -81q-76 -80 -76 -193t76 -193zM469 858q56 0 56 -56t-56 -56
t-56 56t56 56zM309 858q56 0 56 -56t-56 -56t-56 56t56 56z" />
    <glyph glyph-name="multiply" unicode="&#xd7;" horiz-adv-x="600" 
d="M245 240l-185 185l55 55l185 -185l185 185l55 -55l-185 -185l185 -185l-55 -55l-185 185l-185 -185l-55 55z" />
    <glyph glyph-name="Oslash" unicode="&#xd8;" horiz-adv-x="778" 
d="M554 567q-70 57 -165 57q-115 0 -192 -81q-76 -80 -76 -193q0 -95 56 -170zM224 133q71 -57 165 -57q115 0 192 81q76 80 76 193q0 96 -57 170zM83 -12h-92l122 126q-90 100 -90 236q0 150 109 257q107 105 257 105q128 0 228 -80l78 80h92l-122 -125q90 -101 90 -237
q0 -150 -109 -257q-107 -105 -257 -105q-128 0 -228 80z" />
    <glyph glyph-name="Ugrave" unicode="&#xd9;" 
d="M46 700h94v-460q0 -74 35 -118q36 -46 102 -46t103 46q35 45 35 118v460h94v-470q0 -102 -67 -172t-165 -70t-165 70q-66 70 -66 172v470zM146 882h108l90 -142h-68z" />
    <glyph glyph-name="Uacute" unicode="&#xda;" 
d="M46 700h94v-460q0 -74 35 -118q36 -46 102 -46t103 46q35 45 35 118v460h94v-470q0 -102 -67 -172t-165 -70t-165 70q-66 70 -66 172v470zM212 740l90 142h108l-130 -142h-68z" />
    <glyph glyph-name="Ucircumflex" unicode="&#xdb;" 
d="M46 700h94v-460q0 -74 35 -118q36 -46 102 -46t103 46q35 45 35 118v460h94v-470q0 -102 -67 -172t-165 -70t-165 70q-66 70 -66 172v470zM132 740l100 142h92l100 -142h-80l-66 94l-66 -94h-80z" />
    <glyph glyph-name="Udieresis" unicode="&#xdc;" 
d="M46 700h94v-460q0 -74 35 -118q36 -46 102 -46t103 46q35 45 35 118v460h94v-470q0 -102 -67 -172t-165 -70t-165 70q-66 70 -66 172v470zM358 858q56 0 56 -56t-56 -56t-56 56t56 56zM198 858q56 0 56 -56t-56 -56t-56 56t56 56z" />
    <glyph glyph-name="Yacute" unicode="&#xdd;" horiz-adv-x="500" 
d="M295 0h-94v274q-88 21 -135 83q-43 57 -43 131v212h94v-213q0 -125 133 -125q132 0 132 125v213h94v-212q0 -75 -43 -131q-48 -62 -138 -83v-274zM207 740l90 142h108l-130 -142h-68z" />
    <glyph glyph-name="Thorn" unicode="&#xde;" horiz-adv-x="500" 
d="M134 0h-94v700h94v-159q23 22 61 34q34 11 69 11q103 0 169 -68q62 -64 62 -157q0 -94 -58 -158q-59 -65 -149 -65h-117v88h100q57 0 93 36q37 37 37 99t-39 100q-38 37 -97 37q-57 0 -94 -39t-37 -105v-354z" />
    <glyph glyph-name="germandbls" unicode="&#xdf;" horiz-adv-x="611" 
d="M198 0h-88v376h-103l22 84h81v55q0 86 51 136q49 49 131 49q80 0 128 -43q45 -40 45 -100q0 -52 -33 -87q-24 -26 -79 -54q47 -16 82 -34q41 -22 70 -48q68 -62 68 -152q0 -72 -49 -124q-54 -58 -144 -58h-148v84h135q118 0 118 99q0 54 -36 91q-15 16 -37 30
q-17 10 -42 22l-42 19q-24 10 -37 18q-36 22 -36 49q0 25 19 42q8 7 20 13q6 4 22 11q15 7 22 11q12 7 20 14q19 18 19 45q0 68 -79 68q-100 0 -100 -109v-507z" />
    <glyph glyph-name="agrave" unicode="&#xe0;" 
d="M516 0h-88v270q0 64 -48 102q-44 34 -108 34q-71 0 -115 -50q-43 -48 -43 -118q0 -68 44 -115q45 -49 113 -49q69 0 121 66v-104q-31 -23 -55 -33q-33 -13 -75 -13q-102 0 -170 75q-66 73 -66 180q0 105 66 174q69 71 182 71q111 0 177 -62q65 -62 65 -166v-262zM146 680
h108l90 -142h-68z" />
    <glyph glyph-name="aacute" unicode="&#xe1;" 
d="M516 0h-88v270q0 64 -48 102q-44 34 -108 34q-71 0 -115 -50q-43 -48 -43 -118q0 -68 44 -115q45 -49 113 -49q69 0 121 66v-104q-31 -23 -55 -33q-33 -13 -75 -13q-102 0 -170 75q-66 73 -66 180q0 105 66 174q69 71 182 71q111 0 177 -62q65 -62 65 -166v-262zM212 538
l90 142h108l-130 -142h-68z" />
    <glyph glyph-name="acircumflex" unicode="&#xe2;" 
d="M516 0h-88v270q0 64 -48 102q-44 34 -108 34q-71 0 -115 -50q-43 -48 -43 -118q0 -68 44 -115q45 -49 113 -49q69 0 121 66v-104q-31 -23 -55 -33q-33 -13 -75 -13q-102 0 -170 75q-66 73 -66 180q0 105 66 174q69 71 182 71q111 0 177 -62q65 -62 65 -166v-262zM132 538
l100 142h92l100 -142h-80l-66 94l-66 -94h-80z" />
    <glyph glyph-name="atilde" unicode="&#xe3;" 
d="M516 0h-88v270q0 64 -48 102q-44 34 -108 34q-71 0 -115 -50q-43 -48 -43 -118q0 -68 44 -115q45 -49 113 -49q69 0 121 66v-104q-31 -23 -55 -33q-33 -13 -75 -13q-102 0 -170 75q-66 73 -66 180q0 105 66 174q69 71 182 71q111 0 177 -62q65 -62 65 -166v-262zM448 663
q-4 -41 -30 -73q-29 -36 -68 -36q-15 0 -39 6l-85 26q-20 6 -29 6q-37 0 -41 -45h-48q7 109 104 109q17 0 38 -6l70 -26q18 -6 30 -6q45 0 50 45h48z" />
    <glyph glyph-name="adieresis" unicode="&#xe4;" 
d="M516 0h-88v270q0 64 -48 102q-44 34 -108 34q-71 0 -115 -50q-43 -48 -43 -118q0 -68 44 -115q45 -49 113 -49q69 0 121 66v-104q-31 -23 -55 -33q-33 -13 -75 -13q-102 0 -170 75q-66 73 -66 180q0 105 66 174q69 71 182 71q111 0 177 -62q65 -62 65 -166v-262zM358 656
q56 0 56 -56t-56 -56t-56 56t56 56zM198 656q56 0 56 -56t-56 -56t-56 56t56 56z" />
    <glyph glyph-name="aring" unicode="&#xe5;" 
d="M516 0h-88v270q0 64 -48 102q-44 34 -108 34q-71 0 -115 -50q-43 -48 -43 -118q0 -68 44 -115q45 -49 113 -49q69 0 121 66v-104q-31 -23 -55 -33q-33 -13 -75 -13q-102 0 -170 75q-66 73 -66 180q0 105 66 174q69 71 182 71q111 0 177 -62q65 -62 65 -166v-262zM205 708
q29 30 73 30t74 -30q28 -29 28 -72t-28 -72q-30 -30 -74 -30t-73 30q-29 29 -29 72t29 72zM278 582q54 0 54 54t-54 54t-54 -54t54 -54z" />
    <glyph glyph-name="ae" unicode="&#xe6;" horiz-adv-x="889" 
d="M27 433q48 28 92 42q50 15 105 15q141 0 201 -107q20 43 69 73q55 34 120 34q53 0 96 -16q38 -13 69 -40q26 -22 47 -55q17 -25 33 -60l-326 -136l-31 74l228 95q-42 54 -116 54q-63 0 -107 -50q-42 -48 -42 -111q0 -72 46 -121q47 -50 119 -50q60 0 103 41q38 36 55 97
l80 -35q-61 -187 -240 -187q-145 0 -211 118q-31 -57 -91 -89q-57 -29 -124 -29q-78 0 -129 37q-56 40 -56 111q0 51 37 93q31 35 88 62q46 22 107 38q45 12 93 19q-17 29 -54 43q-31 13 -69 13q-74 0 -152 -43zM373 276q-15 -2 -30 -5l-38 -8q-50 -12 -88 -26
q-49 -19 -76 -43q-32 -28 -32 -62q0 -58 92 -58q75 0 124 45q48 44 48 114v43z" />
    <glyph glyph-name="ccedilla" unicode="&#xe7;" horiz-adv-x="389" 
d="M368 480v-84h-68q-67 0 -114 -40q-51 -43 -51 -116t51 -116q47 -40 114 -40h68v-84h-82l-39 -53l17 2q10 1 17 1q80 0 80 -74q0 -92 -117 -92q-49 0 -99 22l18 39q35 -15 65 -15q57 0 57 42q0 40 -48 40q-9 0 -21 -3q-9 -2 -17 -5l-18 20l59 80q-81 15 -136 75
q-61 66 -61 161q0 109 79 178q70 62 162 62h84z" />
    <glyph glyph-name="egrave" unicode="&#xe8;" 
d="M187 158l-36 70l237 132q-46 46 -109 46q-69 0 -113 -46q-44 -47 -44 -120t44 -120q44 -46 113 -46q73 0 113 42q33 35 48 108l89 -11q-8 -96 -77 -159q-70 -64 -173 -64q-102 0 -174 70q-75 71 -75 180t75 181q72 69 174 69q158 0 232 -152zM146 680h108l90 -142h-68z
" />
    <glyph glyph-name="eacute" unicode="&#xe9;" 
d="M187 158l-36 70l237 132q-46 46 -109 46q-69 0 -113 -46q-44 -47 -44 -120t44 -120q44 -46 113 -46q73 0 113 42q33 35 48 108l89 -11q-8 -96 -77 -159q-70 -64 -173 -64q-102 0 -174 70q-75 71 -75 180t75 181q72 69 174 69q158 0 232 -152zM212 538l90 142h108
l-130 -142h-68z" />
    <glyph glyph-name="ecircumflex" unicode="&#xea;" 
d="M187 158l-36 70l237 132q-46 46 -109 46q-69 0 -113 -46q-44 -47 -44 -120t44 -120q44 -46 113 -46q73 0 113 42q33 35 48 108l89 -11q-8 -96 -77 -159q-70 -64 -173 -64q-102 0 -174 70q-75 71 -75 180t75 181q72 69 174 69q158 0 232 -152zM132 538l100 142h92
l100 -142h-80l-66 94l-66 -94h-80z" />
    <glyph glyph-name="edieresis" unicode="&#xeb;" 
d="M187 158l-36 70l237 132q-46 46 -109 46q-69 0 -113 -46q-44 -47 -44 -120t44 -120q44 -46 113 -46q73 0 113 42q33 35 48 108l89 -11q-8 -96 -77 -159q-70 -64 -173 -64q-102 0 -174 70q-75 71 -75 180t75 181q72 69 174 69q158 0 232 -152zM358 656q56 0 56 -56
t-56 -56t-56 56t56 56zM198 656q56 0 56 -56t-56 -56t-56 56t56 56z" />
    <glyph glyph-name="igrave" unicode="&#xec;" horiz-adv-x="278" 
d="M183 0h-88v480h88v-480zM7 680h108l90 -142h-68z" />
    <glyph glyph-name="iacute" unicode="&#xed;" horiz-adv-x="278" 
d="M183 0h-88v480h88v-480zM73 538l90 142h108l-130 -142h-68z" />
    <glyph glyph-name="icircumflex" unicode="&#xee;" horiz-adv-x="278" 
d="M183 0h-88v480h88v-480zM-7 538l100 142h92l100 -142h-80l-66 94l-66 -94h-80z" />
    <glyph glyph-name="idieresis" unicode="&#xef;" horiz-adv-x="278" 
d="M183 0h-88v480h88v-480zM219 656q56 0 56 -56t-56 -56t-56 56t56 56zM59 656q56 0 56 -56t-56 -56t-56 56t56 56z" />
    <glyph glyph-name="eth" unicode="&#xf0;" 
d="M204 712q55 -22 105 -60l103 55l49 -58l-91 -49q69 -66 111 -148q46 -92 46 -184q0 -127 -75 -205q-70 -73 -174 -73q-102 0 -174 70q-75 71 -75 180t75 181q72 69 174 69q16 0 43 -3q41 -58 56 -115h-2q-37 34 -97 34q-69 0 -113 -46q-44 -47 -44 -120t44 -120
q44 -46 113 -46q70 0 113 50q44 52 44 144q0 81 -40 161q-36 72 -99 132l-106 -55l-48 58l91 47q-43 30 -83 45z" />
    <glyph glyph-name="ntilde" unicode="&#xf1;" horiz-adv-x="500" 
d="M133 0h-88v280q0 93 59 152q57 58 146 58t146 -58q59 -59 59 -152v-280h-88v280q0 54 -35 91q-34 35 -82 35t-82 -35q-35 -37 -35 -91v-280zM420 663q-4 -41 -30 -73q-29 -36 -68 -36q-15 0 -39 6l-85 26q-20 6 -29 6q-37 0 -41 -45h-48q7 109 104 109q17 0 38 -6l70 -26
q18 -6 30 -6q45 0 50 45h48z" />
    <glyph glyph-name="ograve" unicode="&#xf2;" 
d="M104 421q72 69 174 69t174 -69q75 -72 75 -181t-75 -180q-72 -70 -174 -70t-174 70q-75 71 -75 180t75 181zM165 120q44 -46 113 -46t113 46q44 47 44 120t-44 120q-44 46 -113 46t-113 -46q-44 -47 -44 -120t44 -120zM146 680h108l90 -142h-68z" />
    <glyph glyph-name="oacute" unicode="&#xf3;" 
d="M104 421q72 69 174 69t174 -69q75 -72 75 -181t-75 -180q-72 -70 -174 -70t-174 70q-75 71 -75 180t75 181zM165 120q44 -46 113 -46t113 46q44 47 44 120t-44 120q-44 46 -113 46t-113 -46q-44 -47 -44 -120t44 -120zM212 538l90 142h108l-130 -142h-68z" />
    <glyph glyph-name="ocircumflex" unicode="&#xf4;" 
d="M104 421q72 69 174 69t174 -69q75 -72 75 -181t-75 -180q-72 -70 -174 -70t-174 70q-75 71 -75 180t75 181zM165 120q44 -46 113 -46t113 46q44 47 44 120t-44 120q-44 46 -113 46t-113 -46q-44 -47 -44 -120t44 -120zM132 538l100 142h92l100 -142h-80l-66 94l-66 -94
h-80z" />
    <glyph glyph-name="otilde" unicode="&#xf5;" 
d="M104 421q72 69 174 69t174 -69q75 -72 75 -181t-75 -180q-72 -70 -174 -70t-174 70q-75 71 -75 180t75 181zM165 120q44 -46 113 -46t113 46q44 47 44 120t-44 120q-44 46 -113 46t-113 -46q-44 -47 -44 -120t44 -120zM448 663q-4 -41 -30 -73q-29 -36 -68 -36
q-15 0 -39 6l-85 26q-20 6 -29 6q-37 0 -41 -45h-48q7 109 104 109q17 0 38 -6l70 -26q18 -6 30 -6q45 0 50 45h48z" />
    <glyph glyph-name="odieresis" unicode="&#xf6;" 
d="M104 421q72 69 174 69t174 -69q75 -72 75 -181t-75 -180q-72 -70 -174 -70t-174 70q-75 71 -75 180t75 181zM165 120q44 -46 113 -46t113 46q44 47 44 120t-44 120q-44 46 -113 46t-113 -46q-44 -47 -44 -120t44 -120zM358 656q56 0 56 -56t-56 -56t-56 56t56 56z
M198 656q56 0 56 -56t-56 -56t-56 56t56 56z" />
    <glyph glyph-name="divide" unicode="&#xf7;" horiz-adv-x="600" 
d="M540 201h-480v78h480v-78zM300 504q68 0 68 -68t-68 -68t-68 68t68 68zM300 112q68 0 68 -68t-68 -68t-68 68t68 68z" />
    <glyph glyph-name="oslash" unicode="&#xf8;" 
d="M369 378q-37 28 -91 28q-69 0 -113 -46q-44 -47 -44 -120q0 -52 24 -93zM187 102q39 -28 91 -28q69 0 113 46q44 47 44 120q0 53 -24 93zM477 490h86l-90 -93q54 -65 54 -157q0 -109 -75 -180q-72 -70 -174 -70q-85 0 -151 50l-48 -50h-86l90 93q-54 68 -54 157
q0 109 75 181q72 69 174 69q85 0 151 -50z" />
    <glyph glyph-name="ugrave" unicode="&#xf9;" horiz-adv-x="500" 
d="M367 480h88v-280q0 -93 -59 -152q-57 -58 -146 -58t-146 58q-59 59 -59 152v280h88v-280q0 -54 35 -91q34 -35 82 -35t82 35q35 37 35 91v280zM118 680h108l90 -142h-68z" />
    <glyph glyph-name="uacute" unicode="&#xfa;" horiz-adv-x="500" 
d="M367 480h88v-280q0 -93 -59 -152q-57 -58 -146 -58t-146 58q-59 59 -59 152v280h88v-280q0 -54 35 -91q34 -35 82 -35t82 35q35 37 35 91v280zM184 538l90 142h108l-130 -142h-68z" />
    <glyph glyph-name="ucircumflex" unicode="&#xfb;" horiz-adv-x="500" 
d="M367 480h88v-280q0 -93 -59 -152q-57 -58 -146 -58t-146 58q-59 59 -59 152v280h88v-280q0 -54 35 -91q34 -35 82 -35t82 35q35 37 35 91v280zM104 538l100 142h92l100 -142h-80l-66 94l-66 -94h-80z" />
    <glyph glyph-name="udieresis" unicode="&#xfc;" horiz-adv-x="500" 
d="M367 480h88v-280q0 -93 -59 -152q-57 -58 -146 -58t-146 58q-59 59 -59 152v280h88v-280q0 -54 35 -91q34 -35 82 -35t82 35q35 37 35 91v280zM330 656q56 0 56 -56t-56 -56t-56 56t56 56zM170 656q56 0 56 -56t-56 -56t-56 56t56 56z" />
    <glyph glyph-name="yacute" unicode="&#xfd;" horiz-adv-x="500" 
d="M50 480h88v-288q0 -118 112 -118t112 118v288h88v-289q0 -160 -156 -201v-206h-88v206q-156 41 -156 201v289zM184 538l90 142h108l-130 -142h-68z" />
    <glyph glyph-name="thorn" unicode="&#xfe;" 
d="M128 -216h-88v916h88v-266q66 56 154 56q113 0 183 -78q65 -73 65 -184q0 -99 -69 -169q-69 -69 -162 -69q-76 0 -136 34v92q61 -42 121 -42q71 0 115 45q43 46 43 120t-45 120q-45 47 -115 47q-67 0 -108 -48q-46 -53 -46 -148v-426z" />
    <glyph glyph-name="ydieresis" unicode="&#xff;" horiz-adv-x="500" 
d="M50 480h88v-288q0 -118 112 -118t112 118v288h88v-289q0 -160 -156 -201v-206h-88v206q-156 41 -156 201v289zM330 656q56 0 56 -56t-56 -56t-56 56t56 56zM170 656q56 0 56 -56t-56 -56t-56 56t56 56z" />
    <glyph glyph-name="dotlessi" unicode="&#x131;" horiz-adv-x="278" 
d="M183 0h-88v480h88v-480z" />
    <glyph glyph-name="Lslash" unicode="&#x141;" horiz-adv-x="389" 
d="M273 520v-80l-115 -53v-138q0 -161 142 -161h91v-88h-105q-100 0 -162 64q-60 62 -60 162v118l-76 -36v80l76 36v276h94v-233z" />
    <glyph glyph-name="lslash" unicode="&#x142;" horiz-adv-x="222" 
d="M155 388v-388h-88v362l-65 -20v72l65 20v266h88v-240l65 20v-72z" />
    <glyph glyph-name="OE" unicode="&#x152;" horiz-adv-x="1000" 
d="M988 406v-88h-300q5 -97 80 -164q72 -66 166 -66h54v-88h-45q-104 0 -176 37q-82 42 -131 136q-39 -90 -122 -139q-78 -46 -177 -46q-135 0 -236 109t-101 253t101 253t236 109q99 0 177 -46q83 -49 122 -139q49 94 131 136q72 37 176 37h45v-88h-26q-61 0 -114 -21
q-48 -19 -86 -52q-71 -64 -74 -133h300zM164 161q73 -85 178 -85t178 85q70 81 70 189t-70 190q-73 84 -178 84t-178 -84q-70 -82 -70 -190t70 -189z" />
    <glyph glyph-name="oe" unicode="&#x153;" horiz-adv-x="944" 
d="M585 166l-32 74l248 108q-43 58 -123 58q-71 0 -115 -46q-45 -47 -45 -120q0 -64 50 -115t110 -51q130 0 165 145l87 -33q-34 -94 -93 -143q-65 -53 -159 -53q-131 0 -203 112q-85 -112 -212 -112q-102 0 -174 70q-75 71 -75 180t75 181q72 69 174 69q135 0 208 -108
q46 57 91 81q51 27 126 27q92 0 153 -51q50 -42 84 -127zM151 120q44 -46 115 -46t115 46q45 47 45 120t-45 120q-44 46 -115 46t-115 -46q-45 -47 -45 -120t45 -120z" />
    <glyph glyph-name="Scaron" unicode="&#x160;" horiz-adv-x="500" 
d="M24 0v88h240q117 0 117 91q0 47 -55 85q-21 15 -56 32l-65 31q-40 19 -65 34q-34 20 -56 41q-55 52 -55 122q0 83 55 131q52 45 137 45h223v-88h-236q-85 0 -85 -83q0 -42 55 -78q21 -13 56 -31l65 -30q39 -19 65 -35q33 -21 56 -43q55 -53 55 -125q0 -85 -50 -135
q-52 -52 -144 -52h-257zM339 882h80l-100 -142h-92l-100 142h80l66 -94z" />
    <glyph glyph-name="scaron" unicode="&#x161;" horiz-adv-x="444" 
d="M28 0v84h246q57 0 57 46q0 29 -47 48q-18 7 -49 17l-20 5q-5 2 -7 2q-17 5 -28 9q-33 10 -56 20q-29 12 -49 27q-47 36 -47 92q0 130 164 130h207v-84h-222q-56 0 -57 -42q0 -27 47 -45q17 -7 48 -16l17 -4l39 -12q33 -10 56 -20q29 -12 49 -28q47 -37 47 -95
q0 -66 -43 -101q-39 -33 -106 -33h-246zM288 680h80l-100 -142h-92l-100 142h80l66 -94z" />
    <glyph glyph-name="Ydieresis" unicode="&#x178;" horiz-adv-x="500" 
d="M295 0h-94v274q-88 21 -135 83q-43 57 -43 131v212h94v-213q0 -125 133 -125q132 0 132 125v213h94v-212q0 -75 -43 -131q-48 -62 -138 -83v-274zM353 858q56 0 56 -56t-56 -56t-56 56t56 56zM193 858q56 0 56 -56t-56 -56t-56 56t56 56z" />
    <glyph glyph-name="Zcaron" unicode="&#x17d;" horiz-adv-x="500" 
d="M370 612h-321v88h337q82 0 82 -60q0 -51 -41 -108l-313 -444h365v-88h-391q-35 0 -57 22q-19 20 -19 46q0 30 13 58q8 18 30 48zM339 882h80l-100 -142h-92l-100 142h80l66 -94z" />
    <glyph glyph-name="zcaron" unicode="&#x17e;" horiz-adv-x="389" 
d="M364 84v-84h-274q-72 0 -72 63q0 35 48 93l196 240h-227v84h233q92 0 92 -64q0 -34 -15 -52l-229 -280h248zM261 680h80l-100 -142h-92l-100 142h80l66 -94z" />
    <glyph glyph-name="florin" unicode="&#x192;" 
d="M124 344v88h145l21 99q38 181 175 181q38 0 85 -14l-16 -84q-30 10 -57 10q-76 0 -97 -103l-18 -89h138v-88h-153l-64 -357q-39 -215 -181 -215q-36 0 -61 4q-18 4 -35 10l14 88q30 -14 64 -14q82 0 104 129l62 355h-126z" />
    <glyph glyph-name="circumflex" unicode="&#x2c6;" horiz-adv-x="278" 
d="M-7 538l100 142h92l100 -142h-80l-66 94l-66 -94h-80z" />
    <glyph glyph-name="caron" unicode="&#x2c7;" horiz-adv-x="278" 
d="M205 680h80l-100 -142h-92l-100 142h80l66 -94z" />
    <glyph glyph-name="uni02C9" unicode="&#x2c9;" horiz-adv-x="278" 
d="M294 572h-310v58h310v-58z" />
    <glyph glyph-name="breve" unicode="&#x2d8;" horiz-adv-x="278" 
d="M34 678q7 -42 38 -61q27 -16 72 -16q82 0 100 77h49q-18 -135 -158 -135q-145 0 -150 135h49z" />
    <glyph glyph-name="dotaccent" unicode="&#x2d9;" horiz-adv-x="278" 
d="M139 656q56 0 56 -56t-56 -56t-56 56t56 56z" />
    <glyph glyph-name="ring" unicode="&#x2da;" horiz-adv-x="278" 
d="M66 708q29 30 73 30t74 -30q28 -29 28 -72t-28 -72q-30 -30 -74 -30t-73 30q-29 29 -29 72t29 72zM139 582q54 0 54 54t-54 54t-54 -54t54 -54z" />
    <glyph glyph-name="ogonek" unicode="&#x2db;" horiz-adv-x="278" 
d="M247 -194q-50 -22 -99 -22q-117 0 -117 92q0 47 47 82q55 41 155 42v-10q-126 -34 -126 -118q0 -42 57 -42q30 0 65 15z" />
    <glyph glyph-name="tilde" unicode="&#x2dc;" horiz-adv-x="278" 
d="M309 663q-4 -41 -30 -73q-29 -36 -68 -36q-15 0 -39 6l-85 26q-20 6 -29 6q-37 0 -41 -45h-48q7 109 104 109q17 0 38 -6l70 -26q18 -6 30 -6q45 0 50 45h48z" />
    <glyph glyph-name="hungarumlaut" unicode="&#x2dd;" horiz-adv-x="278" 
d="M162 538l90 142h108l-130 -142h-68zM-7 538l75 142h108l-115 -142h-68z" />
    <glyph glyph-name="uni03A9" unicode="&#x3a9;" horiz-adv-x="714" 
d="M189 80q-57 51 -91 122q-40 83 -40 177q0 142 86 236t216 94q132 0 216 -101q78 -94 78 -223q0 -98 -41 -184q-35 -73 -91 -121v-3h146v-77h-249v57q59 39 97 112q43 85 43 197q0 104 -51 180q-56 84 -149 84q-92 0 -149 -77q-56 -76 -56 -191q0 -104 43 -191
q39 -78 96 -114v-57h-248v77h144v3z" />
    <glyph glyph-name="uni03BC" unicode="&#x3bc;" horiz-adv-x="500" 
d="M367 480h88v-280q0 -93 -59 -152q-57 -58 -146 -58q-69 0 -117 36v-242h-88v696h88v-280q0 -54 35 -91q34 -35 82 -35t82 35q35 37 35 91v280z" />
    <glyph glyph-name="pi" unicode="&#x3c0;" horiz-adv-x="580" 
d="M479 441v-293q0 -56 4 -93q3 -32 10 -55h-92q-17 31 -17 141v300h-164q-5 -103 -24 -229q-10 -67 -21 -119q-12 -58 -25 -93h-92q26 81 46 215q20 128 22 226q-40 0 -66 -3q-22 -3 -40 -9l-12 63q43 29 150 29h406l-9 -80h-76z" />
    <glyph glyph-name="endash" unicode="&#x2013;" horiz-adv-x="500" 
d="M500 208h-500v64h500v-64z" />
    <glyph glyph-name="emdash" unicode="&#x2014;" horiz-adv-x="1000" 
d="M1000 208h-1000v64h1000v-64z" />
    <glyph glyph-name="quoteleft" unicode="&#x2018;" horiz-adv-x="222" 
d="M130 700l36 -202h-74l-46 202h84z" />
    <glyph glyph-name="quoteright" unicode="&#x2019;" horiz-adv-x="222" 
d="M130 498h-74l36 202h84z" />
    <glyph glyph-name="quotesinglbase" unicode="&#x201a;" horiz-adv-x="222" 
d="M110 -102h-74l36 202h84z" />
    <glyph glyph-name="quotedblleft" unicode="&#x201c;" horiz-adv-x="389" 
d="M126 700l36 -202h-74l-46 202h84zM311 700l36 -202h-74l-46 202h84z" />
    <glyph glyph-name="quotedblright" unicode="&#x201d;" horiz-adv-x="389" 
d="M116 498h-74l36 202h84zM301 498h-74l36 202h84z" />
    <glyph glyph-name="quotedblbase" unicode="&#x201e;" horiz-adv-x="389" 
d="M116 -102h-74l36 202h84zM301 -102h-74l36 202h84z" />
    <glyph glyph-name="dagger" unicode="&#x2020;" horiz-adv-x="500" 
d="M65 524l164 -30l-26 206h94l-26 -206l164 30v-96l-164 30l28 -168q-7 -31 -18 -142q-5 -56 -8 -107q-4 -57 -4 -99v-76h-38v76q0 42 -4 99q-3 51 -8 107q-11 111 -18 142l28 168l-164 -30v96z" />
    <glyph glyph-name="daggerdbl" unicode="&#x2021;" horiz-adv-x="500" 
d="M201 700h98l-28 -206l164 30v-96l-164 30l28 -175l-28 -175l164 31v-97l-164 30l28 -206h-98l28 206l-164 -30v97l164 -31l-28 175l28 175l-164 -30v96l164 -30z" />
    <glyph glyph-name="bullet" unicode="&#x2022;" horiz-adv-x="500" 
d="M126 474q51 51 124 51t124 -51t51 -124t-51 -124t-124 -51t-124 51t-51 124t51 124z" />
    <glyph glyph-name="ellipsis" unicode="&#x2026;" horiz-adv-x="1000" 
d="M167 112q59 0 59 -59t-59 -59t-59 59t59 59zM500 112q59 0 59 -59t-59 -59t-59 59t59 59zM833 112q59 0 59 -59t-59 -59t-59 59t59 59z" />
    <glyph glyph-name="perthousand" unicode="&#x2030;" horiz-adv-x="1000" 
d="M795 90q25 -24 60 -24t60 24q26 25 26 62t-26 62q-25 24 -60 24t-60 -24q-26 -25 -26 -62t26 -62zM594 712l-465 -724h-62l465 724h62zM93 486q25 -24 60 -24t60 24q26 25 26 62t-26 62q-25 24 -60 24t-60 -24q-26 -25 -26 -62t26 -62zM742 271q48 45 113 45t114 -45
q50 -48 50 -119t-50 -119q-49 -45 -114 -45t-113 45q-51 48 -51 119t51 119zM40 667q48 45 113 45t114 -45q50 -48 50 -119t-50 -119q-49 -45 -114 -45t-113 45q-51 48 -51 119t51 119zM439 90q25 -24 60 -24t60 24q26 25 26 62t-26 62q-25 24 -60 24t-60 -24
q-26 -25 -26 -62t26 -62zM386 271q48 45 113 45t114 -45q50 -48 50 -119t-50 -119q-49 -45 -114 -45t-113 45q-51 48 -51 119t51 119z" />
    <glyph glyph-name="guilsinglleft" unicode="&#x2039;" horiz-adv-x="333" 
d="M145 240l130 -154h-76l-130 154l124 154h76z" />
    <glyph glyph-name="guilsinglright" unicode="&#x203a;" horiz-adv-x="333" 
d="M188 240l-124 154h76l124 -154l-130 -154h-76z" />
    <glyph glyph-name="fraction" unicode="&#x2044;" horiz-adv-x="167" 
d="M-98 -12h-69l432 724h69z" />
    <glyph glyph-name="Euro" unicode="&#x20ac;" 
d="M211 246q29 -77 97 -120q60 -38 127 -38h100v-88h-100q-118 0 -207 68q-88 67 -119 178h-75v83h62l-1 41l2 19h-63v83h85q39 99 125 161q94 67 217 67h74v-88h-64q-175 0 -249 -140h203v-83h-229q-3 -19 -3 -39l1 -21h231v-83h-214z" />
    <glyph glyph-name="uni2113" unicode="&#x2113;" horiz-adv-x="495" 
d="M473 123q-68 -131 -194 -131q-82 0 -126 53q-39 47 -44 124q-1 3 -1 7v6l-27 -22q-16 -14 -28 -23l-26 52l42 35q24 20 38 34v266q0 126 50 190q43 55 113 55q64 0 98 -49q32 -45 32 -119q0 -88 -55 -181q-50 -83 -148 -178l1 -37q1 -138 101 -138q41 0 79 31
q31 25 54 64zM197 331q66 73 101 136q40 73 40 135q0 98 -66 98q-30 0 -50 -37q-25 -45 -25 -135v-197z" />
    <glyph glyph-name="trademark" unicode="&#x2122;" horiz-adv-x="990" 
d="M386 700v-64h-124v-348h-84v348h-124v64h332zM587 700l113 -292l112 292h124v-412h-84v324h-2l-123 -324h-56l-123 324h-2v-324h-84v412h125z" />
    <glyph glyph-name="Omega" unicode="&#x2126;" horiz-adv-x="714" 
d="M189 80q-57 51 -91 122q-40 83 -40 177q0 142 86 236t216 94q132 0 216 -101q78 -94 78 -223q0 -98 -41 -184q-35 -73 -91 -121v-3h146v-77h-249v57q59 39 97 112q43 85 43 197q0 104 -51 180q-56 84 -149 84q-92 0 -149 -77q-56 -76 -56 -191q0 -104 43 -191
q39 -78 96 -114v-57h-248v77h144v3z" />
    <glyph glyph-name="estimated" unicode="&#x212e;" horiz-adv-x="873" 
d="M187 340q-5 0 -5 -4v-197q0 -13 8 -23q104 -107 246 -107q155 0 260 120h57q-117 -140 -318 -140q-166 0 -283 105q-118 106 -118 255q0 151 118 257q117 106 283 106q167 0 285 -106t118 -257v-9h-651zM690 564q0 14 -9 23q-106 103 -245 103q-141 0 -245 -106
q-9 -9 -9 -25v-193q0 -7 5 -7h499q4 0 4 7v198z" />
    <glyph glyph-name="partialdiff" unicode="&#x2202;" 
d="M73 728q31 24 66 38q48 19 106 19q109 0 182 -94q37 -49 57 -118q22 -74 22 -167q0 -185 -69 -297q-72 -117 -199 -117q-94 0 -149 75q-48 66 -48 158q0 115 64 188q61 70 149 70q58 0 106 -34q19 -14 33 -30q12 -14 19 -26h1q1 7 1 20v20q0 117 -52 196q-51 78 -128 78
q-41 0 -79 -16q-28 -12 -53 -32zM248 71q62 0 106 73q39 67 49 163q-12 36 -44 65q-39 35 -88 35q-57 0 -97 -54t-40 -129q0 -67 31 -109q31 -44 82 -44h1z" />
    <glyph glyph-name="Delta" unicode="&#x2206;" horiz-adv-x="650" 
d="M29 60l243 655h110l238 -654v-61h-591v60zM519 76l-132 350q-5 17 -15 45l-34 98q-9 25 -13 40h-4q-3 -12 -10 -34l-24 -66l-23 -68l-139 -365h394z" />
    <glyph glyph-name="product" unicode="&#x220f;" horiz-adv-x="706" 
d="M573 612v-708h-92v708h-257v-708h-92v708h-107v85h655v-85h-107z" />
    <glyph glyph-name="summation" unicode="&#x2211;" horiz-adv-x="554" 
d="M23 -96v61l258 335l-247 332v65h483v-80h-356v-3l227 -300l-247 -319v-3h392v-88h-510z" />
    <glyph glyph-name="minus" unicode="&#x2212;" horiz-adv-x="600" 
d="M540 201h-480v78h480v-78z" />
    <glyph glyph-name="uni2215" unicode="&#x2215;" horiz-adv-x="167" 
d="M-98 -12h-69l432 724h69z" />
    <glyph glyph-name="uni2219" unicode="&#x2219;" horiz-adv-x="278" 
d="M139 299q59 0 59 -59t-59 -59t-59 59t59 59z" />
    <glyph glyph-name="radical" unicode="&#x221a;" horiz-adv-x="578" 
d="M359 -146h-79l-156 454l-74 -29l-17 55l149 59l118 -352l20 -78l14 80l180 789h67z" />
    <glyph glyph-name="infinity" unicode="&#x221e;" horiz-adv-x="775" 
d="M726 289q0 -73 -48 -120q-45 -44 -108 -44q-83 0 -181 116q-23 -27 -40 -44q-22 -22 -43 -37q-49 -35 -104 -35q-63 0 -107 45q-46 46 -46 115q0 70 46 116q45 46 114 46q52 0 100 -34q38 -27 83 -82l37 41q22 23 41 38q50 38 107 37q65 0 107 -44q42 -43 42 -113v-1z
M210 180q40 0 82 35q16 12 35 33l31 34q-1 2 -4 5l-28 36q-19 22 -35 36q-41 35 -87 35q-44 0 -71 -33q-26 -31 -26 -78q0 -43 29 -73t73 -30h1zM570 394q-41 0 -86 -39q-15 -14 -35 -35l-28 -32q93 -108 153 -108q43 0 70 34q24 30 24 71q0 109 -97 109h-1z" />
    <glyph glyph-name="integral" unicode="&#x222b;" horiz-adv-x="371" 
d="M339 778q-16 10 -36 10q-32 0 -50 -25q-31 -36 -31 -174q0 -53 2 -120l9 -248q2 -70 2 -126q0 -72 -11 -125q-10 -46 -29 -76q-35 -59 -110 -59q-19 0 -40 5q-18 5 -29 11l14 68l8 -4q5 -2 10 -3q6 -3 12 -4q7 -1 14 -1q30 0 46 22q15 20 23 56q8 41 8 110q0 57 -2 128
l-10 252q-2 69 -2 123q0 157 56 217q38 41 102 41q33 0 57 -13z" />
    <glyph glyph-name="approxequal" unicode="&#x2248;" horiz-adv-x="558" 
d="M513 406q-24 -45 -54 -70q-34 -28 -77 -28q-44 0 -115 41q-28 17 -44 24q-25 10 -47 10q-30 0 -56 -23q-17 -15 -41 -50l-36 31q48 98 140 98q31 0 63 -14q11 -5 25 -13l40 -23q3 -2 6 -3q6 -4 11 -6l11 -5q23 -11 45 -11q50 0 93 74zM513 229q-23 -44 -53 -69
q-36 -28 -78 -28q-28 0 -56 11q-19 7 -59 30q-28 17 -45 24q-23 10 -45 10q-32 0 -57 -23q-17 -15 -41 -51l-36 32q48 98 140 98q31 0 63 -14l80 -44l11 -5q24 -11 47 -11q50 0 93 73z" />
    <glyph glyph-name="notequal" unicode="&#x2260;" horiz-adv-x="558" 
d="M358 412h149v-58h-172l-64 -142h236v-57h-259l-52 -116l-46 19l44 97h-144v57h167l64 142h-231v58h253l52 114l46 -19z" />
    <glyph glyph-name="lessequal" unicode="&#x2264;" horiz-adv-x="558" 
d="M55 321v62l449 224v-68l-389 -185v-2l389 -187v-68zM50 -1v59h457v-59h-457z" />
    <glyph glyph-name="greaterequal" unicode="&#x2265;" horiz-adv-x="558" 
d="M505 382v-61l-448 -224v68l388 186v2l-389 186v68zM51 -1v59h455v-59h-455z" />
    <glyph glyph-name="lozenge" unicode="&#x25ca;" horiz-adv-x="578" 
d="M325 -47h-76l-196 395l200 396h75l197 -396zM309 611q-12 30 -19 55h-2q-10 -34 -20 -55l-131 -261l133 -267l17 -53h4q6 25 17 52l133 264z" />
    </font>
</defs>
</svg>
